G04 ================== begin FILE IDENTIFICATION RECORD ==================*
G04 Layout Name:  VGSophi_XNJZ V1.0.brd*
G04 Film Name:    BOTTOM*
G04 File Format:  Gerber RS274X*
G04 File Origin:  Cadence Allegro 16.6-P004*
G04 Origin Date:  Thu Jul 22 09:50:04 2021*
G04 *
G04 Layer:  BOARD GEOMETRY/OUTLINE*
G04 Layer:  ETCH/BOTTOM*
G04 Layer:  PIN/BOTTOM*
G04 Layer:  VIA CLASS/BOTTOM*
G04 *
G04 Offset:    (0.000 0.000)*
G04 Mirror:    No*
G04 Mode:      Positive*
G04 Rotation:  0*
G04 FullContactRelief:  No*
G04 UndefLineWidth:     5.000*
G04 ================== end FILE IDENTIFICATION RECORD ====================*
%FSLAX25Y25*MOIN*%
%IR0*IPPOS*OFA0.00000B0.00000*MIA0B0*SFA1.00000B1.00000*%
%ADD17C,.006*%
%ADD16C,.008*%
%ADD14C,.02*%
%ADD18C,.03*%
%ADD12C,.012*%
%ADD11C,.04*%
%ADD13C,.024*%
%ADD15C,.018*%
%ADD10C,.03937*%
%ADD19C,.004*%
%ADD20C,.005*%
%ADD21C,.007*%
%ADD22C,.0045*%
%ADD23C,.0085*%
%ADD24C,.01*%
%ADD25C,.011*%
%ADD26C,.025*%
%ADD27C,.016*%
G75*
%LPD*%
G75*
G54D10*
X59055Y39370D03*
Y1661417D03*
X255906Y39370D03*
Y1661417D03*
X295276Y39370D03*
Y1661417D03*
X492126Y39370D03*
Y1661417D03*
X531496Y39370D03*
Y1661417D03*
X728347Y39370D03*
Y1661417D03*
X767717Y39370D03*
Y1661417D03*
X964567Y39370D03*
Y1661417D03*
X1003937Y39370D03*
Y1661417D03*
X1200788Y39370D03*
Y1661417D03*
X1240158Y39370D03*
Y1661417D03*
X1437008Y39370D03*
Y1661417D03*
G54D20*
G01X255915Y51178D02*
X254565D01*
X253400Y52342D01*
X61580D01*
X60415Y51178D01*
X59065D01*
G01X255915Y55115D02*
X254565D01*
X253409Y53959D01*
X61571D01*
X60415Y55115D01*
X59065D01*
G01X492136Y51178D02*
X490785D01*
X489621Y52342D01*
X297800D01*
X296636Y51178D01*
X295285D01*
G01X492136Y55115D02*
X490785D01*
X489630Y53959D01*
X297792D01*
X296636Y55115D01*
X295285D01*
G01X728356Y51178D02*
X727006D01*
X725841Y52342D01*
X534021D01*
X532856Y51178D01*
X531506D01*
G01X728356Y55115D02*
X727006D01*
X725850Y53959D01*
X534012D01*
X532856Y55115D01*
X531506D01*
G01X964577Y51178D02*
X963226D01*
X962062Y52342D01*
X770241D01*
X769077Y51178D01*
X767726D01*
G01X964577Y55115D02*
X963226D01*
X962070Y53959D01*
X770232D01*
X769077Y55115D01*
X767726D01*
G01X1200797Y51178D02*
X1199447D01*
X1198282Y52342D01*
X1006462D01*
X1005297Y51178D01*
X1003947D01*
G01X1200797Y55115D02*
X1199447D01*
X1198291Y53959D01*
X1006453D01*
X1005297Y55115D01*
X1003947D01*
G01X1437017Y51178D02*
X1435667D01*
X1434502Y52342D01*
X1242682D01*
X1241517Y51178D01*
X1240167D01*
G01X1437017Y55115D02*
X1435667D01*
X1434511Y53959D01*
X1242673D01*
X1241517Y55115D01*
X1240167D01*
G54D11*
X55225Y114168D03*
X55235Y129913D03*
Y145661D03*
Y240149D03*
Y255897D03*
Y460622D03*
Y476370D03*
Y492118D03*
Y507866D03*
Y767708D03*
Y838574D03*
X55323Y854508D03*
X55235Y885818D03*
X55278Y901589D03*
X55235Y917315D03*
Y933063D03*
Y948811D03*
Y964559D03*
Y980307D03*
Y1059047D03*
X55214Y1074816D03*
X55227Y1090551D03*
X55259Y1185020D03*
X55140Y1200881D03*
X55247Y1224382D03*
X55255Y1417310D03*
Y1452743D03*
Y1486995D03*
Y1518885D03*
Y1551168D03*
Y1572664D03*
X55255Y1594474D03*
Y1612191D03*
X59089Y1625799D03*
X59054Y1641885D03*
X63017Y1169392D03*
X63016Y1232389D03*
X82561Y980323D03*
X102246Y964575D03*
X121930Y948827D03*
X161301Y933079D03*
X193141Y948831D03*
X212573Y964780D03*
X232282Y980272D03*
X251982Y1200874D03*
X255934Y1625707D03*
X255911Y1641885D03*
X259735Y114168D03*
X259726Y129913D03*
Y145661D03*
Y460622D03*
Y476370D03*
Y492118D03*
Y507866D03*
X259797Y767753D03*
X259715Y838594D03*
X259726Y854339D03*
X259728Y885851D03*
X259726Y901583D03*
X259894Y917429D03*
X259734Y933082D03*
X259756Y948870D03*
X259791Y964705D03*
X259813Y980219D03*
X259718Y1059039D03*
X259739Y1074808D03*
X259726Y1090543D03*
X259849Y1177032D03*
X259749Y1185037D03*
X259741Y1224407D03*
X259862Y1232378D03*
X259706Y1417310D03*
Y1452743D03*
Y1486995D03*
Y1518885D03*
Y1551168D03*
Y1572664D03*
X259707Y1594474D03*
Y1612191D03*
X291446Y114168D03*
X291455Y129913D03*
Y145661D03*
Y240149D03*
Y255897D03*
Y460622D03*
Y476370D03*
Y492118D03*
Y507866D03*
Y767708D03*
Y838574D03*
X291544Y854508D03*
X291455Y885818D03*
X291499Y901589D03*
X291455Y917315D03*
Y933063D03*
Y948811D03*
Y964559D03*
Y980307D03*
Y1059047D03*
X291435Y1074816D03*
X291448Y1090551D03*
X291480Y1185020D03*
X291361Y1200881D03*
X291467Y1224382D03*
X291476Y1417310D03*
Y1452743D03*
Y1486995D03*
Y1518885D03*
Y1551168D03*
Y1572664D03*
X291476Y1594474D03*
Y1612191D03*
X295280Y1625708D03*
Y1641771D03*
X299238Y1169392D03*
X299237Y1232389D03*
X318781Y980323D03*
X338466Y964575D03*
X358151Y948827D03*
X397522Y933079D03*
X429361Y948831D03*
X448794Y964780D03*
X468502Y980272D03*
X488202Y1200874D03*
X492194Y1625841D03*
X492148Y1641864D03*
X495956Y114168D03*
X495947Y129913D03*
Y145661D03*
Y460622D03*
Y476370D03*
Y492118D03*
Y507866D03*
X496018Y767753D03*
X495936Y838594D03*
X495947Y854339D03*
X495949Y885851D03*
X495947Y901583D03*
X496115Y917429D03*
X495954Y933082D03*
X495977Y948870D03*
X496011Y964705D03*
X496034Y980219D03*
X495938Y1059039D03*
X495960Y1074808D03*
X495947Y1090543D03*
X496070Y1177032D03*
X495970Y1185037D03*
X495962Y1224407D03*
X496083Y1232378D03*
X495927Y1417310D03*
Y1452743D03*
Y1486995D03*
Y1518885D03*
Y1551168D03*
Y1572664D03*
X495928Y1594474D03*
Y1612191D03*
X527666Y114168D03*
X527676Y129913D03*
Y145661D03*
Y240149D03*
Y255897D03*
Y460622D03*
Y476370D03*
Y492118D03*
Y507866D03*
Y767708D03*
Y838574D03*
X527764Y854508D03*
X527676Y885818D03*
X527719Y901589D03*
X527676Y917315D03*
Y933063D03*
Y948811D03*
Y964559D03*
Y980307D03*
Y1059047D03*
X527655Y1074816D03*
X527668Y1090551D03*
X527700Y1185020D03*
X527581Y1200881D03*
X527688Y1224382D03*
X527696Y1417310D03*
Y1452743D03*
Y1486995D03*
Y1518885D03*
Y1551168D03*
Y1572664D03*
X527696Y1594474D03*
Y1612191D03*
X531542Y1625840D03*
X531529Y1641885D03*
X535458Y1169392D03*
X535458Y1232389D03*
X555002Y980323D03*
X574687Y964575D03*
X594372Y948827D03*
X633742Y933079D03*
X665582Y948831D03*
X685014Y964780D03*
X704723Y980272D03*
X724423Y1200874D03*
X728386Y1625662D03*
X728340Y1641566D03*
X732177Y114168D03*
X732167Y129913D03*
Y145661D03*
Y460622D03*
Y476370D03*
Y492118D03*
Y507866D03*
X732238Y767753D03*
X732156Y838594D03*
X732167Y854339D03*
X732170Y885851D03*
X732167Y901583D03*
X732336Y917429D03*
X732175Y933082D03*
X732198Y948870D03*
X732232Y964705D03*
X732255Y980219D03*
X732159Y1059039D03*
X732180Y1074808D03*
X732167Y1090543D03*
X732290Y1177032D03*
X732190Y1185037D03*
X732182Y1224407D03*
X732303Y1232378D03*
X732148Y1417310D03*
Y1452743D03*
Y1486995D03*
Y1518885D03*
Y1551168D03*
Y1572664D03*
X732148Y1594474D03*
Y1612191D03*
X763887Y114168D03*
X763896Y129913D03*
Y145661D03*
Y240149D03*
Y255897D03*
Y460622D03*
Y476370D03*
Y492118D03*
Y507866D03*
Y767708D03*
Y838574D03*
X763984Y854508D03*
X763896Y885818D03*
X763940Y901589D03*
X763896Y917315D03*
Y933063D03*
Y948811D03*
Y964559D03*
Y980307D03*
Y1059047D03*
X763875Y1074816D03*
X763888Y1090551D03*
X763920Y1185020D03*
X763801Y1200881D03*
X763908Y1224382D03*
X763917Y1417310D03*
Y1452743D03*
Y1486995D03*
Y1518885D03*
Y1551168D03*
Y1572664D03*
X763916Y1594474D03*
Y1612191D03*
X767686Y1625433D03*
X767755Y1641497D03*
X771679Y1169392D03*
X771678Y1232389D03*
X791222Y980323D03*
X810907Y964575D03*
X830592Y948827D03*
X869962Y933079D03*
X901802Y948831D03*
X921235Y964780D03*
X940943Y980272D03*
X960643Y1200874D03*
X964577Y1625685D03*
X964554Y1641497D03*
X968397Y114168D03*
X968388Y129913D03*
Y145661D03*
Y460622D03*
Y476370D03*
Y492118D03*
Y507866D03*
X968459Y767753D03*
X968377Y838594D03*
X968388Y854339D03*
X968390Y885851D03*
X968388Y901583D03*
X968556Y917429D03*
X968395Y933082D03*
X968418Y948870D03*
X968452Y964705D03*
X968475Y980219D03*
X968379Y1059039D03*
X968401Y1074808D03*
X968388Y1090543D03*
X968510Y1177032D03*
X968411Y1185037D03*
X968403Y1224407D03*
X968523Y1232378D03*
X968368Y1417310D03*
Y1452743D03*
Y1486995D03*
Y1518885D03*
Y1551168D03*
Y1572664D03*
X968368Y1594474D03*
Y1612191D03*
X1000107Y114168D03*
X1000117Y129913D03*
Y145661D03*
Y240149D03*
Y255897D03*
Y460622D03*
Y476370D03*
Y492118D03*
Y507866D03*
Y767708D03*
Y838574D03*
X1000205Y854508D03*
X1000117Y885818D03*
X1000160Y901589D03*
X1000117Y917315D03*
Y933063D03*
Y948811D03*
Y964559D03*
Y980307D03*
Y1059047D03*
X1000096Y1074816D03*
X1000109Y1090551D03*
X1000141Y1185020D03*
X1000022Y1200881D03*
X1000128Y1224382D03*
X1000137Y1417310D03*
Y1452743D03*
Y1486995D03*
Y1518885D03*
Y1551168D03*
Y1572664D03*
X1000137Y1594474D03*
Y1612191D03*
X1003900Y1625640D03*
X1003854Y1641658D03*
X1007899Y1169392D03*
X1007899Y1232389D03*
X1027443Y980323D03*
X1047128Y964575D03*
X1066812Y948827D03*
X1106183Y933079D03*
X1138023Y948831D03*
X1157455Y964780D03*
X1177164Y980272D03*
X1196864Y1200874D03*
X1200860Y1625594D03*
X1200734Y1641474D03*
X1204617Y114168D03*
X1204608Y129913D03*
Y145661D03*
Y460622D03*
Y476370D03*
Y492118D03*
Y507866D03*
X1204679Y767753D03*
X1204597Y838594D03*
X1204608Y854339D03*
X1204610Y885851D03*
X1204608Y901583D03*
X1204776Y917429D03*
X1204616Y933082D03*
X1204638Y948870D03*
X1204673Y964705D03*
X1204695Y980219D03*
X1204600Y1059039D03*
X1204621Y1074808D03*
X1204608Y1090543D03*
X1204731Y1177032D03*
X1204631Y1185037D03*
X1204623Y1224407D03*
X1204744Y1232378D03*
X1204588Y1417310D03*
Y1452743D03*
Y1486995D03*
Y1518885D03*
Y1551168D03*
Y1572664D03*
X1204589Y1594474D03*
Y1612191D03*
X1236328Y114168D03*
X1236337Y129913D03*
Y145661D03*
Y240149D03*
Y255897D03*
Y460622D03*
Y476370D03*
Y492118D03*
Y507866D03*
Y767708D03*
Y838574D03*
X1236425Y854508D03*
X1236337Y885818D03*
X1236380Y901589D03*
X1236337Y917315D03*
Y933063D03*
Y948811D03*
Y964559D03*
Y980307D03*
Y1059047D03*
X1236316Y1074816D03*
X1236329Y1090551D03*
X1236361Y1185020D03*
X1236242Y1200881D03*
X1236349Y1224382D03*
X1236358Y1417310D03*
Y1452743D03*
Y1486995D03*
Y1518885D03*
Y1551168D03*
Y1572664D03*
X1236357Y1594474D03*
Y1612191D03*
X1240126Y1625594D03*
X1240034Y1641223D03*
X1244120Y1169392D03*
X1244119Y1232389D03*
X1263663Y980323D03*
X1283348Y964575D03*
X1303033Y948827D03*
X1342403Y933079D03*
X1374243Y948831D03*
X1393676Y964780D03*
X1413384Y980272D03*
X1433084Y1200874D03*
X1437062Y1625594D03*
X1437051Y1641555D03*
X1440838Y114168D03*
X1440828Y129913D03*
Y145661D03*
Y460622D03*
Y476370D03*
Y492118D03*
Y507866D03*
X1440900Y767753D03*
X1440817Y838594D03*
X1440828Y854339D03*
X1440831Y885851D03*
X1440828Y901583D03*
X1440997Y917429D03*
X1440836Y933082D03*
X1440859Y948870D03*
X1440893Y964705D03*
X1440916Y980219D03*
X1440820Y1059039D03*
X1440841Y1074808D03*
X1440828Y1090543D03*
X1440951Y1177032D03*
X1440852Y1185037D03*
X1440844Y1224407D03*
X1440964Y1232378D03*
X1440809Y1417310D03*
Y1452743D03*
Y1486995D03*
Y1518885D03*
Y1551168D03*
Y1572664D03*
X1440809Y1594474D03*
Y1612191D03*
G54D21*
G01X59065Y118107D02*
X255915D01*
G01X295285D02*
X492136D01*
G01X531506D02*
X728356D01*
G01X767726D02*
X964577D01*
G01X1003947D02*
X1200797D01*
G01X1240167D02*
X1437017D01*
G54D12*
G01X55225Y114168D02*
X59063D01*
X59065Y114170D01*
G01X55235Y129913D02*
X59060D01*
X59065Y129918D01*
G01X55227D02*
X59065D01*
G01Y145666D02*
X59060Y145661D01*
X55235D01*
G01Y240149D02*
X59060D01*
X59065Y240154D01*
G01X55235Y255897D02*
X59059D01*
X59065Y255902D01*
G01X59059Y460630D02*
X59051Y460622D01*
X55235D01*
G01X59059Y476378D02*
X59051Y476370D01*
X55235D01*
G01X59059Y492126D02*
X59051Y492118D01*
X55235D01*
G01X59059Y507874D02*
X59051Y507866D01*
X55235D01*
G01X59050Y854342D02*
X58884Y854508D01*
X55323D01*
G01X59050Y901586D02*
X59046Y901589D01*
X55278D01*
G01X59054Y1059060D02*
Y1059059D01*
X59042Y1059047D01*
X55235D01*
G01X59054Y1074808D02*
X59046Y1074816D01*
X55214D01*
G01X59054Y1090556D02*
X59050Y1090551D01*
X55227D01*
G01X55259Y1185020D02*
X59053D01*
X59057Y1185024D01*
G01X55124Y1204706D02*
X55140Y1204690D01*
Y1200881D01*
G01X59066Y1224395D02*
X59054Y1224382D01*
X55247D01*
G01X59055Y1417324D02*
X59042Y1417310D01*
X55484D01*
G01D02*
X55255D01*
G01X59055Y1452757D02*
X59042Y1452743D01*
X55484D01*
G01D02*
X55255D01*
G01X59055Y1487009D02*
X58369D01*
X58355Y1486995D01*
X55484D01*
G01D02*
X55255D01*
G01X59055Y1518898D02*
X59042Y1518885D01*
X55484D01*
G01D02*
X55255D01*
G01X59055Y1551182D02*
X58369D01*
X58355Y1551168D01*
X55484D01*
G01D02*
X55255D01*
G01X59055Y1572678D02*
X59042Y1572664D01*
X55484D01*
G01D02*
X55255D01*
G01X59055Y1594489D02*
X59041Y1594474D01*
X55255D01*
G01X63003Y1173207D02*
X63017Y1173192D01*
Y1169392D01*
G01X63007Y1236211D02*
X63016Y1236201D01*
Y1232389D01*
G01X157475Y933082D02*
X157478Y933079D01*
X161301D01*
G01X196845Y948830D02*
X196844Y948831D01*
X193141D01*
G01X216530Y964578D02*
X216328Y964780D01*
X212573D01*
G01X236215Y980326D02*
X236161Y980272D01*
X232282D01*
G01X251982Y1204697D02*
Y1200874D01*
G01X259735Y114168D02*
X255917D01*
X255915Y114170D01*
G01X259726Y129913D02*
X255920D01*
X255915Y129918D01*
G01X259726Y145661D02*
X255920D01*
X255915Y145666D01*
G01X255910Y460630D02*
X255918Y460622D01*
X259726D01*
G01X255910Y476378D02*
X255918Y476370D01*
X259726D01*
G01X255910Y492126D02*
X255918Y492118D01*
X259726D01*
G01X255910Y507874D02*
X255918Y507866D01*
X259726D01*
G01X255900Y767728D02*
X255926Y767753D01*
X259797D01*
G01X255900Y838594D02*
X259715D01*
G01X255900Y885838D02*
X255913Y885851D01*
X259728D01*
G01X255900Y917334D02*
X255995Y917429D01*
X259894D01*
G01X255900Y933082D02*
X255901Y933082D01*
X259734D01*
G01X255900Y948830D02*
X255940Y948870D01*
X259756D01*
G01X255900Y964578D02*
X256027Y964705D01*
X259791D01*
G01X255900Y980326D02*
X256007Y980219D01*
X259813D01*
G01X259718Y1059039D02*
X255925D01*
X255905Y1059060D01*
G01X259739Y1074808D02*
X255906D01*
X255905Y1074808D01*
G01Y1090556D02*
X255917Y1090543D01*
X259726D01*
G01X255908Y1185024D02*
X255921Y1185037D01*
X259749D01*
G01X255919Y1224385D02*
X255941Y1224407D01*
X259741D01*
G01X255906Y1417324D02*
X255920Y1417310D01*
X259477D01*
G01X255906Y1452757D02*
X255920Y1452743D01*
X259477D01*
G01X255906Y1487009D02*
X256592D01*
X256606Y1486995D01*
X259706D01*
G01X255906Y1518898D02*
X255920Y1518885D01*
X259477D01*
G01X255920Y1551168D02*
X259477D01*
G01X255906Y1551182D02*
X255920Y1551168D01*
G01X255906Y1572678D02*
X255920Y1572664D01*
X259477D01*
G01X255906Y1594489D02*
X255920Y1594474D01*
X259707D01*
G01X259850Y1173208D02*
X259849Y1173209D01*
Y1177032D01*
G01X259852Y1236204D02*
X259862Y1236194D01*
Y1232378D01*
G01X259477Y1417310D02*
X259706D01*
G01X259477Y1452743D02*
X259706D01*
G01X259477Y1518885D02*
X259706D01*
G01X259477Y1551168D02*
X259706D01*
G01X259477Y1572664D02*
X259706D01*
G01X291446Y114168D02*
X295283D01*
X295285Y114170D01*
G01X291448Y129918D02*
X295285D01*
G01X291455Y129913D02*
X295281D01*
X295285Y129918D01*
G01Y145666D02*
X295281Y145661D01*
X291455D01*
G01Y240149D02*
X295281D01*
X295285Y240154D01*
G01X291455Y255897D02*
X295280D01*
X295285Y255902D01*
G01X295280Y460630D02*
X295272Y460622D01*
X291455D01*
G01X295280Y476378D02*
X295272Y476370D01*
X291455D01*
G01X295280Y492126D02*
X295272Y492118D01*
X291455D01*
G01X295280Y507874D02*
X295272Y507866D01*
X291455D01*
G01X295270Y854342D02*
X295104Y854508D01*
X291544D01*
G01X295270Y901586D02*
X295267Y901589D01*
X291499D01*
G01X295275Y1059060D02*
Y1059059D01*
X295263Y1059047D01*
X291455D01*
G01X295275Y1074808D02*
X295266Y1074816D01*
X291435D01*
G01X295275Y1090556D02*
X295271Y1090551D01*
X291448D01*
G01X291480Y1185020D02*
X295274D01*
X295278Y1185024D01*
G01X291345Y1204706D02*
X291361Y1204690D01*
Y1200881D01*
G01X295287Y1224395D02*
X295274Y1224382D01*
X291467D01*
G01X291705Y1417310D02*
X295262D01*
X295276Y1417324D01*
G01X291705Y1417310D02*
X291476D01*
G01X291705Y1452743D02*
X295262D01*
X295276Y1452757D01*
G01X291705Y1452743D02*
X291476D01*
G01X291705Y1486995D02*
X294576D01*
X294590Y1487009D01*
X295276D01*
G01X291705Y1486995D02*
X291476D01*
G01X291705Y1518885D02*
X295262D01*
X295276Y1518898D01*
G01X291705Y1518885D02*
X291476D01*
G01X291705Y1551168D02*
X294576D01*
X294590Y1551182D01*
X295276D01*
G01X291705Y1551168D02*
X291476D01*
G01X291705Y1572664D02*
X295262D01*
X295276Y1572678D01*
G01X291705Y1572664D02*
X291476D01*
G01X295276Y1594489D02*
X295262Y1594474D01*
X291476D01*
G01X299224Y1173207D02*
X299238Y1173192D01*
Y1169392D01*
G01X299228Y1236211D02*
X299237Y1236201D01*
Y1232389D01*
G01X393696Y933082D02*
X393698Y933079D01*
X397522D01*
G01X433066Y948830D02*
X433065Y948831D01*
X429361D01*
G01X452751Y964578D02*
X452548Y964780D01*
X448794D01*
G01X472436Y980326D02*
X472381Y980272D01*
X468502D01*
G01X488202Y1204697D02*
Y1200874D01*
G01X495956Y114168D02*
X492138D01*
X492136Y114170D01*
G01X495947Y129913D02*
X492140D01*
X492136Y129918D01*
G01X495947Y145661D02*
X492141D01*
X492136Y145666D01*
G01X492131Y460630D02*
X492138Y460622D01*
X495947D01*
G01X492131Y476378D02*
X492138Y476370D01*
X495947D01*
G01X492131Y492126D02*
X492138Y492118D01*
X495947D01*
G01X492131Y507874D02*
X492138Y507866D01*
X495947D01*
G01X492121Y767728D02*
X492146Y767753D01*
X496018D01*
G01X492121Y838594D02*
X495936D01*
G01X492121Y885838D02*
X492134Y885851D01*
X495949D01*
G01X492121Y917334D02*
X492216Y917429D01*
X496115D01*
G01X492121Y933082D02*
X492122Y933082D01*
X495954D01*
G01X492121Y948830D02*
X492161Y948870D01*
X495977D01*
G01X492121Y964578D02*
X492248Y964705D01*
X496011D01*
G01X492121Y980326D02*
X492228Y980219D01*
X496034D01*
G01X495938Y1059039D02*
X492146D01*
X492126Y1059060D01*
G01X495960Y1074808D02*
X492126D01*
G01X492126Y1090556D02*
X492138Y1090543D01*
X495947D01*
G01X492129Y1185024D02*
X492142Y1185037D01*
X495970D01*
G01X492140Y1224385D02*
X492161Y1224407D01*
X495962D01*
G01X492127Y1417324D02*
X492140Y1417310D01*
X495698D01*
G01X492127Y1452757D02*
X492140Y1452743D01*
X495698D01*
G01X492127Y1487009D02*
X492813D01*
X492827Y1486995D01*
X495927D01*
G01X492127Y1518898D02*
X492140Y1518885D01*
X495698D01*
G01X492140Y1551168D02*
X492127Y1551182D01*
G01X492140Y1551168D02*
X495698D01*
G01X492127Y1572678D02*
X492140Y1572664D01*
X495698D01*
G01X492127Y1594489D02*
X492141Y1594474D01*
X495928D01*
G01X496071Y1173208D02*
X496070Y1173209D01*
Y1177032D01*
G01X496072Y1236204D02*
X496083Y1236194D01*
Y1232378D01*
G01X495698Y1417310D02*
X495927D01*
G01X495698Y1452743D02*
X495927D01*
G01X495698Y1518885D02*
X495927D01*
G01X495698Y1551168D02*
X495927D01*
G01X495698Y1572664D02*
X495927D01*
G01X527666Y114168D02*
X531504D01*
X531506Y114170D01*
G01X527668Y129918D02*
X531506D01*
G01X527676Y129913D02*
X531501D01*
X531506Y129918D01*
G01Y145666D02*
X531501Y145661D01*
X527676D01*
G01Y240149D02*
X531501D01*
X531506Y240154D01*
G01X527676Y255897D02*
X531501D01*
X531506Y255902D01*
G01X531501Y460630D02*
X531492Y460622D01*
X527676D01*
G01X531501Y476378D02*
X531492Y476370D01*
X527676D01*
G01X531501Y492126D02*
X531492Y492118D01*
X527676D01*
G01X531501Y507874D02*
X531492Y507866D01*
X527676D01*
G01X531491Y854342D02*
X531325Y854508D01*
X527764D01*
G01X531491Y901586D02*
X531488Y901589D01*
X527719D01*
G01X531496Y1059060D02*
Y1059059D01*
X531483Y1059047D01*
X527676D01*
G01X531496Y1074808D02*
X531487Y1074816D01*
X527655D01*
G01X531496Y1090556D02*
X531491Y1090551D01*
X527668D01*
G01X527700Y1185020D02*
X531494D01*
X531498Y1185024D01*
G01X527566Y1204706D02*
X527581Y1204690D01*
Y1200881D01*
G01X531508Y1224395D02*
X531495Y1224382D01*
X527688D01*
G01X527926Y1417310D02*
X531483D01*
X531497Y1417324D01*
G01X527926Y1417310D02*
X527696D01*
G01X527926Y1452743D02*
X531483D01*
X531497Y1452757D01*
G01X527926Y1452743D02*
X527696D01*
G01X527926Y1486995D02*
X530796D01*
X530810Y1487009D01*
X531497D01*
G01X527926Y1486995D02*
X527696D01*
G01X527926Y1518885D02*
X531483D01*
X531497Y1518898D01*
G01X527926Y1518885D02*
X527696D01*
G01X527926Y1551168D02*
X530796D01*
X530810Y1551182D01*
X531497D01*
G01X527926Y1551168D02*
X527696D01*
G01X527926Y1572664D02*
X531483D01*
X531497Y1572678D01*
G01X527926Y1572664D02*
X527696D01*
G01X531497Y1594489D02*
X531482Y1594474D01*
X527696D01*
G01X535444Y1173207D02*
X535458Y1173192D01*
Y1169392D01*
G01X535448Y1236211D02*
X535458Y1236201D01*
Y1232389D01*
G01X629916Y933082D02*
X629919Y933079D01*
X633742D01*
G01X669286Y948830D02*
X669285Y948831D01*
X665582D01*
G01X688971Y964578D02*
X688769Y964780D01*
X685014D01*
G01X708656Y980326D02*
X708602Y980272D01*
X704723D01*
G01X724423Y1204697D02*
Y1200874D01*
G01X732177Y114168D02*
X728358D01*
X728356Y114170D01*
G01X732167Y129913D02*
X728361D01*
X728356Y129918D01*
G01X732167Y145661D02*
X728361D01*
X728356Y145666D01*
G01X728351Y460630D02*
X728359Y460622D01*
X732167D01*
G01X728351Y476378D02*
X728359Y476370D01*
X732167D01*
G01X728351Y492126D02*
X728359Y492118D01*
X732167D01*
G01X728351Y507874D02*
X728359Y507866D01*
X732167D01*
G01X728341Y767728D02*
X728367Y767753D01*
X732238D01*
G01X728341Y838594D02*
X732156D01*
G01X728341Y885838D02*
X728355Y885851D01*
X732170D01*
G01X728341Y917334D02*
X728436Y917429D01*
X732336D01*
G01X728341Y933082D02*
X728342Y933082D01*
X732175D01*
G01X728341Y948830D02*
X728381Y948870D01*
X732198D01*
G01X728341Y964578D02*
X728468Y964705D01*
X732232D01*
G01X728341Y980326D02*
X728448Y980219D01*
X732255D01*
G01X732159Y1059039D02*
X728366D01*
X728346Y1059060D01*
G01X732180Y1074808D02*
X728347D01*
X728346Y1074808D01*
G01Y1090556D02*
X728358Y1090543D01*
X732167D01*
G01X728350Y1185024D02*
X728362Y1185037D01*
X732190D01*
G01X728360Y1224385D02*
X728382Y1224407D01*
X732182D01*
G01X731918Y1417310D02*
X728361D01*
X728347Y1417324D01*
G01X731918Y1452743D02*
X728361D01*
X728347Y1452757D01*
G01Y1487009D02*
X729033D01*
X729048Y1486995D01*
X732148D01*
G01X731918Y1518885D02*
X728361D01*
X728347Y1518898D01*
G01X728361Y1551168D02*
X728347Y1551182D01*
G01X728361Y1551168D02*
X731918D01*
G01Y1572664D02*
X728361D01*
X728347Y1572678D01*
G01Y1594489D02*
X728362Y1594474D01*
X732148D01*
G01X732292Y1173208D02*
X732290Y1173209D01*
Y1177032D01*
G01X732293Y1236204D02*
X732303Y1236194D01*
Y1232378D01*
G01X732148Y1417310D02*
X731918D01*
G01X732148Y1452743D02*
X731918D01*
G01X732148Y1518885D02*
X731918D01*
G01Y1551168D02*
X732148D01*
G01Y1572664D02*
X731918D01*
G01X763887Y114168D02*
X767724D01*
X767726Y114170D01*
G01X763889Y129918D02*
X767726D01*
G01X763896Y129913D02*
X767722D01*
X767726Y129918D01*
G01Y145666D02*
X767721Y145661D01*
X763896D01*
G01Y240149D02*
X767721D01*
X767726Y240154D01*
G01X763896Y255897D02*
X767721D01*
X767726Y255902D01*
G01X767721Y460630D02*
X767713Y460622D01*
X763896D01*
G01X767721Y476378D02*
X767713Y476370D01*
X763896D01*
G01X767721Y492126D02*
X767713Y492118D01*
X763896D01*
G01X767721Y507874D02*
X767713Y507866D01*
X763896D01*
G01X767711Y854342D02*
X767545Y854508D01*
X763984D01*
G01X767711Y901586D02*
X767708Y901589D01*
X763940D01*
G01X767716Y1059060D02*
Y1059059D01*
X767704Y1059047D01*
X763896D01*
G01X767716Y1074808D02*
X767707Y1074816D01*
X763875D01*
G01X767716Y1090556D02*
X767712Y1090551D01*
X763888D01*
G01X763920Y1185020D02*
X767715D01*
X767718Y1185024D01*
G01X763786Y1204706D02*
X763801Y1204690D01*
Y1200881D01*
G01X767728Y1224395D02*
X767715Y1224382D01*
X763908D01*
G01X764146Y1417310D02*
X767703D01*
X767717Y1417324D01*
G01X764146Y1417310D02*
X763917D01*
G01X764146Y1452743D02*
X767703D01*
X767717Y1452757D01*
G01X764146Y1452743D02*
X763917D01*
G01X764146Y1486995D02*
X767017D01*
X767031Y1487009D01*
X767717D01*
G01X764146Y1486995D02*
X763917D01*
G01X764146Y1518885D02*
X767703D01*
X767717Y1518898D01*
G01X764146Y1518885D02*
X763917D01*
G01X764146Y1551168D02*
X767017D01*
X767031Y1551182D01*
X767717D01*
G01X764146Y1551168D02*
X763917D01*
G01X764146Y1572664D02*
X767703D01*
X767717Y1572678D01*
G01X764146Y1572664D02*
X763917D01*
G01X767717Y1594489D02*
X767702Y1594474D01*
X763916D01*
G01X771665Y1173207D02*
X771679Y1173192D01*
Y1169392D01*
G01X771669Y1236211D02*
X771678Y1236201D01*
Y1232389D01*
G01X866136Y933082D02*
X866139Y933079D01*
X869962D01*
G01X905507Y948830D02*
X905506Y948831D01*
X901802D01*
G01X925192Y964578D02*
X924989Y964780D01*
X921235D01*
G01X944877Y980326D02*
X944822Y980272D01*
X940943D01*
G01X960643Y1204697D02*
Y1200874D01*
G01X968397Y114168D02*
X964579D01*
X964577Y114170D01*
G01X968388Y129913D02*
X964581D01*
X964577Y129918D01*
G01X968388Y145661D02*
X964582D01*
X964577Y145666D01*
G01X964571Y460630D02*
X964579Y460622D01*
X968388D01*
G01X964571Y476378D02*
X964579Y476370D01*
X968388D01*
G01X964571Y492126D02*
X964579Y492118D01*
X968388D01*
G01X964571Y507874D02*
X964579Y507866D01*
X968388D01*
G01X964562Y767728D02*
X964587Y767753D01*
X968459D01*
G01X964562Y838594D02*
X968377D01*
G01X964562Y885838D02*
X964575Y885851D01*
X968390D01*
G01X964562Y917334D02*
X964657Y917429D01*
X968556D01*
G01X964562Y933082D02*
X968395Y933082D01*
G01X964562Y948830D02*
X964602Y948870D01*
X968418D01*
G01X964562Y964578D02*
X964689Y964705D01*
X968452D01*
G01X964562Y980326D02*
X964668Y980219D01*
X968475D01*
G01X968379Y1059039D02*
X964587D01*
X964566Y1059060D01*
G01X968401Y1074808D02*
X964567D01*
X964566Y1074808D01*
G01Y1090556D02*
X964579Y1090543D01*
X968388D01*
G01X964570Y1185024D02*
X964582Y1185037D01*
X968411D01*
G01X964581Y1224385D02*
X964602Y1224407D01*
X968403D01*
G01X964567Y1417324D02*
X964581Y1417310D01*
X968139D01*
G01X964567Y1452757D02*
X964581Y1452743D01*
X968139D01*
G01X964567Y1487009D02*
X965254D01*
X965268Y1486995D01*
X968368D01*
G01X964567Y1518898D02*
X964581Y1518885D01*
X968139D01*
G01X964581Y1551168D02*
X964567Y1551182D01*
G01X964581Y1551168D02*
X968139D01*
G01X964567Y1572678D02*
X964581Y1572664D01*
X968139D01*
G01X964567Y1594489D02*
X964582Y1594474D01*
X968368D01*
G01X968512Y1173208D02*
X968510Y1173209D01*
Y1177032D01*
G01X968513Y1236204D02*
X968523Y1236194D01*
Y1232378D01*
G01X968139Y1417310D02*
X968368D01*
G01X968139Y1452743D02*
X968368D01*
G01X968139Y1518885D02*
X968368D01*
G01X968139Y1551168D02*
X968368D01*
G01X968139Y1572664D02*
X968368D01*
G01X1000107Y114168D02*
X1003945D01*
X1003947Y114170D01*
G01X1000109Y129918D02*
X1003947D01*
G01X1000117Y129913D02*
X1003942D01*
X1003947Y129918D01*
G01Y145666D02*
X1003942Y145661D01*
X1000117D01*
G01Y240149D02*
X1003942D01*
X1003947Y240154D01*
G01X1000117Y255897D02*
X1003941D01*
X1003947Y255902D01*
G01X1003941Y460630D02*
X1003933Y460622D01*
X1000117D01*
G01X1003941Y476378D02*
X1003933Y476370D01*
X1000117D01*
G01X1003941Y492126D02*
X1003933Y492118D01*
X1000117D01*
G01X1003941Y507874D02*
X1003933Y507866D01*
X1000117D01*
G01X1003932Y854342D02*
X1003766Y854508D01*
X1000205D01*
G01X1003932Y901586D02*
X1003928Y901589D01*
X1000160D01*
G01X1003936Y1059060D02*
Y1059059D01*
X1003924Y1059047D01*
X1000117D01*
G01X1003936Y1074808D02*
X1003928Y1074816D01*
X1000096D01*
G01X1003936Y1090556D02*
X1003932Y1090551D01*
X1000109D01*
G01X1000141Y1185020D02*
X1003935D01*
X1003939Y1185024D01*
G01X1000006Y1204706D02*
X1000022Y1204690D01*
Y1200881D01*
G01X1003949Y1224395D02*
X1003936Y1224382D01*
X1000128D01*
G01X1000366Y1417310D02*
X1003924D01*
X1003938Y1417324D01*
G01X1000366Y1417310D02*
X1000137D01*
G01X1000366Y1452743D02*
X1003924D01*
X1003938Y1452757D01*
G01X1000366Y1452743D02*
X1000137D01*
G01X1000366Y1486995D02*
X1003237D01*
X1003251Y1487009D01*
X1003938D01*
G01X1000366Y1486995D02*
X1000137D01*
G01X1000366Y1518885D02*
X1003924D01*
X1003938Y1518898D01*
G01X1000366Y1518885D02*
X1000137D01*
G01X1000366Y1551168D02*
X1003237D01*
X1003251Y1551182D01*
X1003938D01*
G01X1000366Y1551168D02*
X1000137D01*
G01X1000366Y1572664D02*
X1003924D01*
X1003938Y1572678D01*
G01X1000366Y1572664D02*
X1000137D01*
G01X1003938Y1594489D02*
X1003923Y1594474D01*
X1000137D01*
G01X1007885Y1173207D02*
X1007899Y1173192D01*
Y1169392D01*
G01X1007889Y1236211D02*
X1007899Y1236201D01*
Y1232389D01*
G01X1102357Y933082D02*
X1102360Y933079D01*
X1106183D01*
G01X1141727Y948830D02*
X1141726Y948831D01*
X1138023D01*
G01X1161412Y964578D02*
X1161210Y964780D01*
X1157455D01*
G01X1181097Y980326D02*
X1181043Y980272D01*
X1177164D01*
G01X1196864Y1204697D02*
Y1200874D01*
G01X1204617Y114168D02*
X1200799D01*
X1200797Y114170D01*
G01X1204608Y129913D02*
X1200802D01*
X1200797Y129918D01*
G01X1204608Y145661D02*
X1200802D01*
X1200797Y145666D01*
G01X1200792Y460630D02*
X1200800Y460622D01*
X1204608D01*
G01X1200792Y476378D02*
X1200800Y476370D01*
X1204608D01*
G01X1200792Y492126D02*
X1200800Y492118D01*
X1204608D01*
G01X1200792Y507874D02*
X1200800Y507866D01*
X1204608D01*
G01X1200782Y767728D02*
X1200808Y767753D01*
X1204679D01*
G01X1200782Y838594D02*
X1204597D01*
G01X1200782Y885838D02*
X1200795Y885851D01*
X1204610D01*
G01X1200782Y917334D02*
X1200877Y917429D01*
X1204776D01*
G01X1200782Y933082D02*
X1200783Y933082D01*
X1204616D01*
G01X1200782Y948830D02*
X1200822Y948870D01*
X1204638D01*
G01X1200782Y964578D02*
X1200909Y964705D01*
X1204673D01*
G01X1200782Y980326D02*
X1200889Y980219D01*
X1204695D01*
G01X1204600Y1059039D02*
X1200807D01*
X1200787Y1059060D01*
G01X1204621Y1074808D02*
X1200788D01*
X1200787Y1074808D01*
G01Y1090556D02*
X1200799Y1090543D01*
X1204608D01*
G01X1200790Y1185024D02*
X1200803Y1185037D01*
X1204631D01*
G01X1200801Y1224385D02*
X1200823Y1224407D01*
X1204623D01*
G01X1200788Y1417324D02*
X1200802Y1417310D01*
X1204359D01*
G01X1200788Y1452757D02*
X1200802Y1452743D01*
X1204359D01*
G01X1200788Y1487009D02*
X1201474D01*
X1201488Y1486995D01*
X1204588D01*
G01X1200788Y1518898D02*
X1200802Y1518885D01*
X1204359D01*
G01X1200802Y1551168D02*
X1200788Y1551182D01*
G01X1200802Y1551168D02*
X1204359D01*
G01X1200788Y1572678D02*
X1200802Y1572664D01*
X1204359D01*
G01X1200788Y1594489D02*
X1200802Y1594474D01*
X1204589D01*
G01X1204732Y1173208D02*
X1204731Y1173209D01*
Y1177032D01*
G01X1204734Y1236204D02*
X1204744Y1236194D01*
Y1232378D01*
G01X1204359Y1417310D02*
X1204588D01*
G01X1204359Y1452743D02*
X1204588D01*
G01X1204359Y1518885D02*
X1204588D01*
G01X1204359Y1551168D02*
X1204588D01*
G01X1204359Y1572664D02*
X1204588D01*
G01X1236328Y114168D02*
X1240165D01*
X1240167Y114170D01*
G01X1236330Y129918D02*
X1240167D01*
G01X1236337Y129913D02*
X1240162D01*
X1240167Y129918D01*
G01Y145666D02*
X1240162Y145661D01*
X1236337D01*
G01Y240149D02*
X1240162D01*
X1240167Y240154D01*
G01X1236337Y255897D02*
X1240162D01*
X1240167Y255902D01*
G01X1240162Y460630D02*
X1240154Y460622D01*
X1236337D01*
G01X1240162Y476378D02*
X1240154Y476370D01*
X1236337D01*
G01X1240162Y492126D02*
X1240154Y492118D01*
X1236337D01*
G01X1240162Y507874D02*
X1240154Y507866D01*
X1236337D01*
G01X1240152Y854342D02*
X1239986Y854508D01*
X1236425D01*
G01X1240152Y901586D02*
X1240149Y901589D01*
X1236380D01*
G01X1240157Y1059060D02*
Y1059059D01*
X1240144Y1059047D01*
X1236337D01*
G01X1240157Y1074808D02*
X1240148Y1074816D01*
X1236316D01*
G01X1240157Y1090556D02*
X1240152Y1090551D01*
X1236329D01*
G01X1236361Y1185020D02*
X1240156D01*
X1240159Y1185024D01*
G01X1236227Y1204706D02*
X1236242Y1204690D01*
Y1200881D01*
G01X1240169Y1224395D02*
X1240156Y1224382D01*
X1236349D01*
G01X1236587Y1417310D02*
X1240144D01*
X1240158Y1417324D01*
G01X1236587Y1417310D02*
X1236358D01*
G01X1236587Y1452743D02*
X1240144D01*
X1240158Y1452757D01*
G01X1236587Y1452743D02*
X1236358D01*
G01X1236587Y1486995D02*
X1239458D01*
X1239472Y1487009D01*
X1240158D01*
G01X1236587Y1486995D02*
X1236358D01*
G01X1236587Y1518885D02*
X1240144D01*
X1240158Y1518898D01*
G01X1236587Y1518885D02*
X1236358D01*
G01X1236587Y1551168D02*
X1239458D01*
X1239472Y1551182D01*
X1240158D01*
G01X1236587Y1551168D02*
X1236358D01*
G01X1236587Y1572664D02*
X1240144D01*
X1240158Y1572678D01*
G01X1236587Y1572664D02*
X1236358D01*
G01X1240158Y1594489D02*
X1240143Y1594474D01*
X1236357D01*
G01X1244106Y1173207D02*
X1244120Y1173192D01*
Y1169392D01*
G01X1244110Y1236211D02*
X1244119Y1236201D01*
Y1232389D01*
G01X1338577Y933082D02*
X1338580Y933079D01*
X1342403D01*
G01X1377947Y948830D02*
X1377946Y948831D01*
X1374243D01*
G01X1397632Y964578D02*
X1397430Y964780D01*
X1393676D01*
G01X1417317Y980326D02*
X1417263Y980272D01*
X1413384D01*
G01X1433084Y1204697D02*
Y1200874D01*
G01X1440838Y114168D02*
X1437019D01*
X1437017Y114170D01*
G01X1440828Y129913D02*
X1437022D01*
X1437017Y129918D01*
G01X1440828Y145661D02*
X1437023D01*
X1437017Y145666D01*
G01X1437012Y460630D02*
X1437020Y460622D01*
X1440828D01*
G01X1437012Y476378D02*
X1437020Y476370D01*
X1440828D01*
G01X1437012Y492126D02*
X1437020Y492118D01*
X1440828D01*
G01X1437012Y507874D02*
X1437020Y507866D01*
X1440828D01*
G01X1437002Y767728D02*
X1437028Y767753D01*
X1440900D01*
G01X1437002Y838594D02*
X1440817D01*
G01X1437002Y885838D02*
X1437016Y885851D01*
X1440831D01*
G01X1437002Y917334D02*
X1437098Y917429D01*
X1440997D01*
G01X1437002Y933082D02*
X1437003Y933082D01*
X1440836D01*
G01X1437002Y948830D02*
X1437043Y948870D01*
X1440859D01*
G01X1437002Y964578D02*
X1437130Y964705D01*
X1440893D01*
G01X1437002Y980326D02*
X1437109Y980219D01*
X1440916D01*
G01X1440820Y1059039D02*
X1437028D01*
X1437007Y1059060D01*
G01X1440841Y1074808D02*
X1437008D01*
X1437007Y1074808D01*
G01Y1090556D02*
X1437020Y1090543D01*
X1440828D01*
G01X1437011Y1185024D02*
X1437023Y1185037D01*
X1440852D01*
G01X1437021Y1224385D02*
X1437043Y1224407D01*
X1440844D01*
G01X1437008Y1417324D02*
X1437022Y1417310D01*
X1440580D01*
G01X1437008Y1452757D02*
X1437022Y1452743D01*
X1440580D01*
G01X1437008Y1487009D02*
X1437694D01*
X1437709Y1486995D01*
X1440809D01*
G01X1437008Y1518898D02*
X1437022Y1518885D01*
X1440580D01*
G01X1437022Y1551168D02*
X1437008Y1551182D01*
G01X1437022Y1551168D02*
X1440580D01*
G01X1437008Y1572678D02*
X1437022Y1572664D01*
X1440580D01*
G01X1437008Y1594489D02*
X1437023Y1594474D01*
X1440809D01*
G01X1440953Y1173208D02*
X1440951Y1173209D01*
Y1177032D01*
G01X1440954Y1236204D02*
X1440964Y1236194D01*
Y1232378D01*
G01X1440580Y1417310D02*
X1440809D01*
G01X1440580Y1452743D02*
X1440809D01*
G01X1440580Y1518885D02*
X1440809D01*
G01X1440580Y1551168D02*
X1440809D01*
G01X1440580Y1572664D02*
X1440809D01*
X55135Y1125966D03*
X55124Y1204706D03*
X59065Y51178D03*
Y55115D03*
Y66926D03*
Y70863D03*
Y82674D03*
Y86611D03*
Y98422D03*
Y102359D03*
Y114170D03*
Y118107D03*
Y129918D03*
Y133855D03*
Y145666D03*
Y149603D03*
X59061Y161418D03*
Y165355D03*
X59065Y177162D03*
Y181099D03*
Y192910D03*
Y196847D03*
Y208658D03*
Y212595D03*
Y224406D03*
Y228343D03*
Y240154D03*
Y244091D03*
Y255902D03*
Y259839D03*
X59059Y397638D03*
Y401575D03*
Y413386D03*
Y417323D03*
Y429134D03*
Y433071D03*
Y444882D03*
Y448819D03*
Y460630D03*
Y464567D03*
Y476378D03*
Y480315D03*
Y492126D03*
Y496063D03*
Y507874D03*
Y511811D03*
X59058Y618111D03*
Y622048D03*
Y665355D03*
Y669292D03*
X59050Y854342D03*
Y858279D03*
Y901586D03*
Y905523D03*
X59054Y1011815D03*
Y1015752D03*
Y1059060D03*
Y1062996D03*
X59072Y1125966D03*
X59066Y1141710D03*
Y1145646D03*
X59069Y1157468D03*
X59066Y1173207D03*
X59057Y1185024D03*
Y1188961D03*
X59061Y1204706D03*
X59066Y1220458D03*
Y1224395D03*
X59070Y1236211D03*
X59057Y1266930D03*
Y1283466D03*
Y1299214D03*
Y1314962D03*
Y1320710D03*
Y1330710D03*
Y1342521D03*
Y1346458D03*
X59055Y1417324D03*
Y1440946D03*
Y1452757D03*
Y1472442D03*
Y1487009D03*
Y1503938D03*
Y1518898D03*
Y1535434D03*
Y1551182D03*
Y1566930D03*
Y1572678D03*
Y1582678D03*
Y1594489D03*
Y1598426D03*
X63006Y1157468D03*
X63003Y1173207D03*
X63007Y1236211D03*
X157483Y696851D03*
Y700788D03*
X157475Y933082D03*
Y937019D03*
X196853Y712599D03*
Y716536D03*
X196845Y948830D03*
Y952767D03*
X216538Y728347D03*
Y732284D03*
X216530Y964578D03*
Y968515D03*
X236223Y744095D03*
Y748032D03*
X236215Y980326D03*
Y984263D03*
X251982Y1125964D03*
X251982Y1204697D03*
X255915Y51178D03*
Y55115D03*
Y66926D03*
Y70863D03*
Y82674D03*
Y86611D03*
Y98422D03*
Y102359D03*
Y114170D03*
Y118107D03*
Y129918D03*
Y133855D03*
Y145666D03*
Y149603D03*
X255910Y397638D03*
Y401575D03*
Y413386D03*
Y417323D03*
Y429134D03*
Y433071D03*
Y444882D03*
Y448819D03*
Y460630D03*
Y464567D03*
Y476378D03*
Y480315D03*
Y492126D03*
Y496063D03*
Y507874D03*
Y511811D03*
X255908Y531497D03*
Y535434D03*
Y602363D03*
Y606300D03*
Y649607D03*
Y653544D03*
Y681103D03*
Y685040D03*
Y696851D03*
Y700788D03*
Y712599D03*
Y716536D03*
Y728347D03*
Y732284D03*
Y744095D03*
Y748032D03*
X255900Y767728D03*
Y771665D03*
Y838594D03*
Y842531D03*
Y885838D03*
Y889775D03*
Y917334D03*
Y921271D03*
Y933082D03*
Y937019D03*
Y948830D03*
Y952767D03*
Y964578D03*
Y968515D03*
Y980326D03*
Y984263D03*
X255905Y1011815D03*
Y1015752D03*
Y1059060D03*
Y1062996D03*
X255919Y1125964D03*
X255916Y1141710D03*
Y1145646D03*
X255923Y1157462D03*
X255913Y1173208D03*
X255908Y1185024D03*
Y1188961D03*
X255918Y1204697D03*
X255919Y1220448D03*
Y1224385D03*
X255915Y1236204D03*
X255907Y1266930D03*
Y1283466D03*
Y1299214D03*
Y1314962D03*
Y1320710D03*
Y1330710D03*
Y1342521D03*
Y1346458D03*
X255906Y1417324D03*
Y1440946D03*
Y1452757D03*
Y1472442D03*
Y1487009D03*
Y1503938D03*
Y1518898D03*
Y1535434D03*
Y1551182D03*
Y1566930D03*
Y1572678D03*
Y1582678D03*
Y1594489D03*
Y1598426D03*
X259860Y1157462D03*
X259850Y1173208D03*
X259852Y1236204D03*
X291355Y1125966D03*
X291345Y1204706D03*
X295285Y51178D03*
Y55115D03*
Y66926D03*
Y70863D03*
Y82674D03*
Y86611D03*
Y98422D03*
Y102359D03*
Y114170D03*
Y118107D03*
Y129918D03*
Y133855D03*
Y145666D03*
Y149603D03*
X295282Y161418D03*
Y165355D03*
X295285Y177162D03*
Y181099D03*
Y192910D03*
Y196847D03*
Y208658D03*
Y212595D03*
Y224406D03*
Y228343D03*
Y240154D03*
Y244091D03*
Y255902D03*
Y259839D03*
X295280Y397638D03*
Y401575D03*
Y413386D03*
Y417323D03*
Y429134D03*
Y433071D03*
Y444882D03*
Y448819D03*
Y460630D03*
Y464567D03*
Y476378D03*
Y480315D03*
Y492126D03*
Y496063D03*
Y507874D03*
Y511811D03*
X295278Y618111D03*
Y622048D03*
Y665355D03*
Y669292D03*
X295270Y854342D03*
Y858279D03*
Y901586D03*
Y905523D03*
X295275Y1011815D03*
Y1015752D03*
Y1059060D03*
Y1062996D03*
X295292Y1125966D03*
X295287Y1141710D03*
Y1145646D03*
X295290Y1157468D03*
X295287Y1173207D03*
X295278Y1185024D03*
Y1188961D03*
X295282Y1204706D03*
X295287Y1220458D03*
Y1224395D03*
X295291Y1236211D03*
X295278Y1266930D03*
Y1283466D03*
Y1299214D03*
Y1314962D03*
Y1320710D03*
Y1330710D03*
Y1342521D03*
Y1346458D03*
X295276Y1417324D03*
Y1440946D03*
Y1452757D03*
Y1472442D03*
Y1487009D03*
Y1503938D03*
Y1518898D03*
Y1535434D03*
Y1551182D03*
Y1566930D03*
Y1572678D03*
Y1582678D03*
Y1594489D03*
Y1598426D03*
X299227Y1157468D03*
X299224Y1173207D03*
X299228Y1236211D03*
X393704Y696851D03*
Y700788D03*
X393696Y933082D03*
Y937019D03*
X433074Y712599D03*
Y716536D03*
X433066Y948830D03*
Y952767D03*
X452759Y728347D03*
Y732284D03*
X452751Y964578D03*
Y968515D03*
X472444Y744095D03*
Y748032D03*
X472436Y980326D03*
Y984263D03*
X488203Y1125964D03*
X488202Y1204697D03*
X492136Y51178D03*
Y55115D03*
Y66926D03*
Y70863D03*
Y82674D03*
Y86611D03*
Y98422D03*
Y102359D03*
Y114170D03*
Y118107D03*
Y129918D03*
Y133855D03*
Y145666D03*
Y149603D03*
X492131Y397638D03*
Y401575D03*
Y413386D03*
Y417323D03*
Y429134D03*
Y433071D03*
Y444882D03*
Y448819D03*
Y460630D03*
Y464567D03*
Y476378D03*
Y480315D03*
Y492126D03*
Y496063D03*
Y507874D03*
Y511811D03*
X492129Y531497D03*
Y535434D03*
Y602363D03*
Y606300D03*
Y649607D03*
Y653544D03*
Y681103D03*
Y685040D03*
Y696851D03*
Y700788D03*
Y712599D03*
Y716536D03*
Y728347D03*
Y732284D03*
Y744095D03*
Y748032D03*
X492121Y767728D03*
Y771665D03*
Y838594D03*
Y842531D03*
Y885838D03*
Y889775D03*
Y917334D03*
Y921271D03*
Y933082D03*
Y937019D03*
Y948830D03*
Y952767D03*
Y964578D03*
Y968515D03*
Y980326D03*
Y984263D03*
X492126Y1011815D03*
Y1015752D03*
Y1059060D03*
Y1062996D03*
X492140Y1125964D03*
X492137Y1141710D03*
Y1145646D03*
X492144Y1157462D03*
X492134Y1173208D03*
X492129Y1185024D03*
Y1188961D03*
X492139Y1204697D03*
X492140Y1220448D03*
Y1224385D03*
X492135Y1236204D03*
X492128Y1266930D03*
Y1283466D03*
Y1299214D03*
Y1314962D03*
Y1320710D03*
Y1330710D03*
Y1342521D03*
Y1346458D03*
X492127Y1417324D03*
Y1440946D03*
Y1452757D03*
Y1472442D03*
Y1487009D03*
Y1503938D03*
Y1518898D03*
Y1535434D03*
Y1551182D03*
Y1566930D03*
Y1572678D03*
Y1582678D03*
Y1594489D03*
Y1598426D03*
X496081Y1157462D03*
X496071Y1173208D03*
X496072Y1236204D03*
X527576Y1125966D03*
X527566Y1204706D03*
X531506Y51178D03*
Y55115D03*
Y66926D03*
Y70863D03*
Y82674D03*
Y86611D03*
Y98422D03*
Y102359D03*
Y114170D03*
Y118107D03*
Y129918D03*
Y133855D03*
Y145666D03*
Y149603D03*
X531503Y161418D03*
Y165355D03*
X531506Y177162D03*
Y181099D03*
Y192910D03*
Y196847D03*
Y208658D03*
Y212595D03*
Y224406D03*
Y228343D03*
Y240154D03*
Y244091D03*
Y255902D03*
Y259839D03*
X531501Y397638D03*
Y401575D03*
Y413386D03*
Y417323D03*
Y429134D03*
Y433071D03*
Y444882D03*
Y448819D03*
Y460630D03*
Y464567D03*
Y476378D03*
Y480315D03*
Y492126D03*
Y496063D03*
Y507874D03*
Y511811D03*
X531499Y618111D03*
Y622048D03*
Y665355D03*
Y669292D03*
X531491Y854342D03*
Y858279D03*
Y901586D03*
Y905523D03*
X531496Y1011815D03*
Y1015752D03*
Y1059060D03*
Y1062996D03*
X531513Y1125966D03*
X531507Y1141710D03*
Y1145646D03*
X531510Y1157468D03*
X531507Y1173207D03*
X531498Y1185024D03*
Y1188961D03*
X531503Y1204706D03*
X531508Y1220458D03*
Y1224395D03*
X531511Y1236211D03*
X531498Y1266930D03*
Y1283466D03*
Y1299214D03*
Y1314962D03*
Y1320710D03*
Y1330710D03*
Y1342521D03*
Y1346458D03*
X531497Y1417324D03*
Y1440946D03*
Y1452757D03*
Y1472442D03*
Y1487009D03*
Y1503938D03*
Y1518898D03*
Y1535434D03*
Y1551182D03*
Y1566930D03*
Y1572678D03*
Y1582678D03*
Y1594489D03*
Y1598426D03*
X535448Y1157468D03*
X535444Y1173207D03*
X535448Y1236211D03*
X629924Y696851D03*
Y700788D03*
X629916Y933082D03*
Y937019D03*
X669294Y712599D03*
Y716536D03*
X669286Y948830D03*
Y952767D03*
X688979Y728347D03*
Y732284D03*
X688971Y964578D03*
Y968515D03*
X708664Y744095D03*
Y748032D03*
X708656Y980326D03*
Y984263D03*
X724424Y1125964D03*
X724423Y1204697D03*
X728356Y51178D03*
Y55115D03*
Y66926D03*
Y70863D03*
Y82674D03*
Y86611D03*
Y98422D03*
Y102359D03*
Y114170D03*
Y118107D03*
Y129918D03*
Y133855D03*
Y145666D03*
Y149603D03*
X728351Y397638D03*
Y401575D03*
Y413386D03*
Y417323D03*
Y429134D03*
Y433071D03*
Y444882D03*
Y448819D03*
Y460630D03*
Y464567D03*
Y476378D03*
Y480315D03*
Y492126D03*
Y496063D03*
Y507874D03*
Y511811D03*
X728349Y531497D03*
Y535434D03*
Y602363D03*
Y606300D03*
Y649607D03*
Y653544D03*
Y681103D03*
Y685040D03*
Y696851D03*
Y700788D03*
Y712599D03*
Y716536D03*
Y728347D03*
Y732284D03*
Y744095D03*
Y748032D03*
X728341Y767728D03*
Y771665D03*
Y838594D03*
Y842531D03*
Y885838D03*
Y889775D03*
Y917334D03*
Y921271D03*
Y933082D03*
Y937019D03*
Y948830D03*
Y952767D03*
Y964578D03*
Y968515D03*
Y980326D03*
Y984263D03*
X728346Y1011815D03*
Y1015752D03*
Y1059060D03*
Y1062996D03*
X728360Y1125964D03*
X728358Y1141710D03*
Y1145646D03*
X728364Y1157462D03*
X728355Y1173208D03*
X728350Y1185024D03*
Y1188961D03*
X728360Y1204697D03*
X728360Y1220448D03*
Y1224385D03*
X728356Y1236204D03*
X728348Y1266930D03*
Y1283466D03*
Y1299214D03*
Y1314962D03*
Y1320710D03*
Y1330710D03*
Y1342521D03*
Y1346458D03*
X728347Y1417324D03*
Y1440946D03*
Y1452757D03*
Y1472442D03*
Y1487009D03*
Y1503938D03*
Y1518898D03*
Y1535434D03*
Y1551182D03*
Y1566930D03*
Y1572678D03*
Y1582678D03*
Y1594489D03*
Y1598426D03*
X732301Y1157462D03*
X732292Y1173208D03*
X732293Y1236204D03*
X763796Y1125966D03*
X763786Y1204706D03*
X767726Y51178D03*
Y55115D03*
Y66926D03*
Y70863D03*
Y82674D03*
Y86611D03*
Y98422D03*
Y102359D03*
Y114170D03*
Y118107D03*
Y129918D03*
Y133855D03*
Y145666D03*
Y149603D03*
X767723Y161418D03*
Y165355D03*
X767726Y177162D03*
Y181099D03*
Y192910D03*
Y196847D03*
Y208658D03*
Y212595D03*
Y224406D03*
Y228343D03*
Y240154D03*
Y244091D03*
Y255902D03*
Y259839D03*
X767721Y397638D03*
Y401575D03*
Y413386D03*
Y417323D03*
Y429134D03*
Y433071D03*
Y444882D03*
Y448819D03*
Y460630D03*
Y464567D03*
Y476378D03*
Y480315D03*
Y492126D03*
Y496063D03*
Y507874D03*
Y511811D03*
X767719Y618111D03*
Y622048D03*
Y665355D03*
Y669292D03*
X767711Y854342D03*
Y858279D03*
Y901586D03*
Y905523D03*
X767716Y1011815D03*
Y1015752D03*
Y1059060D03*
Y1062996D03*
X767733Y1125966D03*
X767728Y1141710D03*
Y1145646D03*
X767731Y1157468D03*
X767728Y1173207D03*
X767718Y1185024D03*
Y1188961D03*
X767723Y1204706D03*
X767728Y1220458D03*
Y1224395D03*
X767732Y1236211D03*
X767718Y1266930D03*
Y1283466D03*
Y1299214D03*
Y1314962D03*
Y1320710D03*
Y1330710D03*
Y1342521D03*
Y1346458D03*
X767717Y1417324D03*
Y1440946D03*
Y1452757D03*
Y1472442D03*
Y1487009D03*
Y1503938D03*
Y1518898D03*
Y1535434D03*
Y1551182D03*
Y1566930D03*
Y1572678D03*
Y1582678D03*
Y1594489D03*
Y1598426D03*
X771668Y1157468D03*
X771665Y1173207D03*
X771669Y1236211D03*
X866144Y696851D03*
Y700788D03*
X866136Y933082D03*
Y937019D03*
X905514Y712599D03*
Y716536D03*
X905507Y948830D03*
Y952767D03*
X925199Y728347D03*
Y732284D03*
X925192Y964578D03*
Y968515D03*
X944884Y744095D03*
Y748032D03*
X944877Y980326D03*
Y984263D03*
X960644Y1125964D03*
X960643Y1204697D03*
X964577Y51178D03*
Y55115D03*
Y66926D03*
Y70863D03*
Y82674D03*
Y86611D03*
Y98422D03*
Y102359D03*
Y114170D03*
Y118107D03*
Y129918D03*
Y133855D03*
Y145666D03*
Y149603D03*
X964571Y397638D03*
Y401575D03*
Y413386D03*
Y417323D03*
Y429134D03*
Y433071D03*
Y444882D03*
Y448819D03*
Y460630D03*
Y464567D03*
Y476378D03*
Y480315D03*
Y492126D03*
Y496063D03*
Y507874D03*
Y511811D03*
X964570Y531497D03*
Y535434D03*
Y602363D03*
Y606300D03*
Y649607D03*
Y653544D03*
Y681103D03*
Y685040D03*
Y696851D03*
Y700788D03*
Y712599D03*
Y716536D03*
Y728347D03*
Y732284D03*
Y744095D03*
Y748032D03*
X964562Y767728D03*
Y771665D03*
Y838594D03*
Y842531D03*
Y885838D03*
Y889775D03*
Y917334D03*
Y921271D03*
Y933082D03*
Y937019D03*
Y948830D03*
Y952767D03*
Y964578D03*
Y968515D03*
Y980326D03*
Y984263D03*
X964566Y1011815D03*
Y1015752D03*
Y1059060D03*
Y1062996D03*
X964581Y1125964D03*
X964578Y1141710D03*
Y1145646D03*
X964585Y1157462D03*
X964575Y1173208D03*
X964570Y1185024D03*
Y1188961D03*
X964580Y1204697D03*
X964581Y1220448D03*
Y1224385D03*
X964576Y1236204D03*
X964569Y1266930D03*
Y1283466D03*
Y1299214D03*
Y1314962D03*
Y1320710D03*
Y1330710D03*
Y1342521D03*
Y1346458D03*
X964567Y1417324D03*
Y1440946D03*
Y1452757D03*
Y1472442D03*
Y1487009D03*
Y1503938D03*
Y1518898D03*
Y1535434D03*
Y1551182D03*
Y1566930D03*
Y1572678D03*
Y1582678D03*
Y1594489D03*
Y1598426D03*
X968522Y1157462D03*
X968512Y1173208D03*
X968513Y1236204D03*
X1000017Y1125966D03*
X1000006Y1204706D03*
X1003947Y51178D03*
Y55115D03*
Y66926D03*
Y70863D03*
Y82674D03*
Y86611D03*
Y98422D03*
Y102359D03*
Y114170D03*
Y118107D03*
Y129918D03*
Y133855D03*
Y145666D03*
Y149603D03*
X1003943Y161418D03*
Y165355D03*
X1003947Y177162D03*
Y181099D03*
Y192910D03*
Y196847D03*
Y208658D03*
Y212595D03*
Y224406D03*
Y228343D03*
Y240154D03*
Y244091D03*
Y255902D03*
Y259839D03*
X1003941Y397638D03*
Y401575D03*
Y413386D03*
Y417323D03*
Y429134D03*
Y433071D03*
Y444882D03*
Y448819D03*
Y460630D03*
Y464567D03*
Y476378D03*
Y480315D03*
Y492126D03*
Y496063D03*
Y507874D03*
Y511811D03*
X1003940Y618111D03*
Y622048D03*
Y665355D03*
Y669292D03*
X1003932Y854342D03*
Y858279D03*
Y901586D03*
Y905523D03*
X1003936Y1011815D03*
Y1015752D03*
Y1059060D03*
Y1062996D03*
X1003954Y1125966D03*
X1003948Y1141710D03*
Y1145646D03*
X1003951Y1157468D03*
X1003948Y1173207D03*
X1003939Y1185024D03*
Y1188961D03*
X1003943Y1204706D03*
X1003949Y1220458D03*
Y1224395D03*
X1003952Y1236211D03*
X1003939Y1266930D03*
Y1283466D03*
Y1299214D03*
Y1314962D03*
Y1320710D03*
Y1330710D03*
Y1342521D03*
Y1346458D03*
X1003938Y1417324D03*
Y1440946D03*
Y1452757D03*
Y1472442D03*
Y1487009D03*
Y1503938D03*
Y1518898D03*
Y1535434D03*
Y1551182D03*
Y1566930D03*
Y1572678D03*
Y1582678D03*
Y1594489D03*
Y1598426D03*
X1007888Y1157468D03*
X1007885Y1173207D03*
X1007889Y1236211D03*
X1102365Y696851D03*
Y700788D03*
X1102357Y933082D03*
Y937019D03*
X1141735Y712599D03*
Y716536D03*
X1141727Y948830D03*
Y952767D03*
X1161420Y728347D03*
Y732284D03*
X1161412Y964578D03*
Y968515D03*
X1181105Y744095D03*
Y748032D03*
X1181097Y980326D03*
Y984263D03*
X1196864Y1125964D03*
X1196864Y1204697D03*
X1200797Y51178D03*
Y55115D03*
Y66926D03*
Y70863D03*
Y82674D03*
Y86611D03*
Y98422D03*
Y102359D03*
Y114170D03*
Y118107D03*
Y129918D03*
Y133855D03*
Y145666D03*
Y149603D03*
X1200792Y397638D03*
Y401575D03*
Y413386D03*
Y417323D03*
Y429134D03*
Y433071D03*
Y444882D03*
Y448819D03*
Y460630D03*
Y464567D03*
Y476378D03*
Y480315D03*
Y492126D03*
Y496063D03*
Y507874D03*
Y511811D03*
X1200790Y531497D03*
Y535434D03*
Y602363D03*
Y606300D03*
Y649607D03*
Y653544D03*
Y681103D03*
Y685040D03*
Y696851D03*
Y700788D03*
Y712599D03*
Y716536D03*
Y728347D03*
Y732284D03*
Y744095D03*
Y748032D03*
X1200782Y767728D03*
Y771665D03*
Y838594D03*
Y842531D03*
Y885838D03*
Y889775D03*
Y917334D03*
Y921271D03*
Y933082D03*
Y937019D03*
Y948830D03*
Y952767D03*
Y964578D03*
Y968515D03*
Y980326D03*
Y984263D03*
X1200787Y1011815D03*
Y1015752D03*
Y1059060D03*
Y1062996D03*
X1200801Y1125964D03*
X1200799Y1141710D03*
Y1145646D03*
X1200805Y1157462D03*
X1200795Y1173208D03*
X1200790Y1185024D03*
Y1188961D03*
X1200800Y1204697D03*
X1200801Y1220448D03*
Y1224385D03*
X1200797Y1236204D03*
X1200789Y1266930D03*
Y1283466D03*
Y1299214D03*
Y1314962D03*
Y1320710D03*
Y1330710D03*
Y1342521D03*
Y1346458D03*
X1200788Y1417324D03*
Y1440946D03*
Y1452757D03*
Y1472442D03*
Y1487009D03*
Y1503938D03*
Y1518898D03*
Y1535434D03*
Y1551182D03*
Y1566930D03*
Y1572678D03*
Y1582678D03*
Y1594489D03*
Y1598426D03*
X1204742Y1157462D03*
X1204732Y1173208D03*
X1204734Y1236204D03*
X1236237Y1125966D03*
X1236227Y1204706D03*
X1240167Y51178D03*
Y55115D03*
Y66926D03*
Y70863D03*
Y82674D03*
Y86611D03*
Y98422D03*
Y102359D03*
Y114170D03*
Y118107D03*
Y129918D03*
Y133855D03*
Y145666D03*
Y149603D03*
X1240164Y161418D03*
Y165355D03*
X1240167Y177162D03*
Y181099D03*
Y192910D03*
Y196847D03*
Y208658D03*
Y212595D03*
Y224406D03*
Y228343D03*
Y240154D03*
Y244091D03*
Y255902D03*
Y259839D03*
X1240162Y397638D03*
Y401575D03*
Y413386D03*
Y417323D03*
Y429134D03*
Y433071D03*
Y444882D03*
Y448819D03*
Y460630D03*
Y464567D03*
Y476378D03*
Y480315D03*
Y492126D03*
Y496063D03*
Y507874D03*
Y511811D03*
X1240160Y618111D03*
Y622048D03*
Y665355D03*
Y669292D03*
X1240152Y854342D03*
Y858279D03*
Y901586D03*
Y905523D03*
X1240157Y1011815D03*
Y1015752D03*
Y1059060D03*
Y1062996D03*
X1240174Y1125966D03*
X1240168Y1141710D03*
Y1145646D03*
X1240172Y1157468D03*
X1240168Y1173207D03*
X1240159Y1185024D03*
Y1188961D03*
X1240164Y1204706D03*
X1240169Y1220458D03*
Y1224395D03*
X1240172Y1236211D03*
X1240159Y1266930D03*
Y1283466D03*
Y1299214D03*
Y1314962D03*
Y1320710D03*
Y1330710D03*
Y1342521D03*
Y1346458D03*
X1240158Y1417324D03*
Y1440946D03*
Y1452757D03*
Y1472442D03*
Y1487009D03*
Y1503938D03*
Y1518898D03*
Y1535434D03*
Y1551182D03*
Y1566930D03*
Y1572678D03*
Y1582678D03*
Y1594489D03*
Y1598426D03*
X1244109Y1157468D03*
X1244106Y1173207D03*
X1244110Y1236211D03*
X1338585Y696851D03*
Y700788D03*
X1338577Y933082D03*
Y937019D03*
X1377955Y712599D03*
Y716536D03*
X1377947Y948830D03*
Y952767D03*
X1397640Y728347D03*
Y732284D03*
X1397632Y964578D03*
Y968515D03*
X1417325Y744095D03*
Y748032D03*
X1417317Y980326D03*
Y984263D03*
X1433085Y1125964D03*
X1433084Y1204697D03*
X1437017Y51178D03*
Y55115D03*
Y66926D03*
Y70863D03*
Y82674D03*
Y86611D03*
Y98422D03*
Y102359D03*
Y114170D03*
Y118107D03*
Y129918D03*
Y133855D03*
Y145666D03*
Y149603D03*
X1437012Y397638D03*
Y401575D03*
Y413386D03*
Y417323D03*
Y429134D03*
Y433071D03*
Y444882D03*
Y448819D03*
Y460630D03*
Y464567D03*
Y476378D03*
Y480315D03*
Y492126D03*
Y496063D03*
Y507874D03*
Y511811D03*
X1437010Y531497D03*
Y535434D03*
Y602363D03*
Y606300D03*
Y649607D03*
Y653544D03*
Y681103D03*
Y685040D03*
Y696851D03*
Y700788D03*
Y712599D03*
Y716536D03*
Y728347D03*
Y732284D03*
Y744095D03*
Y748032D03*
X1437002Y767728D03*
Y771665D03*
Y838594D03*
Y842531D03*
Y885838D03*
Y889775D03*
Y917334D03*
Y921271D03*
Y933082D03*
Y937019D03*
Y948830D03*
Y952767D03*
Y964578D03*
Y968515D03*
Y980326D03*
Y984263D03*
X1437007Y1011815D03*
Y1015752D03*
Y1059060D03*
Y1062996D03*
X1437022Y1125964D03*
X1437019Y1141710D03*
Y1145646D03*
X1437026Y1157462D03*
X1437016Y1173208D03*
X1437011Y1185024D03*
Y1188961D03*
X1437021Y1204697D03*
X1437021Y1220448D03*
Y1224385D03*
X1437017Y1236204D03*
X1437010Y1266930D03*
Y1283466D03*
Y1299214D03*
Y1314962D03*
Y1320710D03*
Y1330710D03*
Y1342521D03*
Y1346458D03*
X1437008Y1417324D03*
Y1440946D03*
Y1452757D03*
Y1472442D03*
Y1487009D03*
Y1503938D03*
Y1518898D03*
Y1535434D03*
Y1551182D03*
Y1566930D03*
Y1572678D03*
Y1582678D03*
Y1594489D03*
Y1598426D03*
X1440963Y1157462D03*
X1440953Y1173208D03*
X1440954Y1236204D03*
G54D22*
G01X114178Y464567D02*
X177170D01*
G01X110241Y480315D02*
X157485D01*
G01X125989Y496063D02*
X157485D01*
G01X141737Y511811D02*
X157485D01*
G01X350398Y464567D02*
X413390D01*
G01X346461Y480315D02*
X393705D01*
G01X362209Y496063D02*
X393705D01*
G01X377957Y511811D02*
X393705D01*
G01X586619Y464567D02*
X649611D01*
G01X582682Y480315D02*
X629926D01*
G01X598430Y496063D02*
X629926D01*
G01X614178Y511811D02*
X629926D01*
G01X822839Y464567D02*
X885831D01*
G01X818902Y480315D02*
X866146D01*
G01X834650Y496063D02*
X866146D01*
G01X850398Y511811D02*
X866146D01*
G01X1059060Y464567D02*
X1122052D01*
G01X1055123Y480315D02*
X1102367D01*
G01X1070871Y496063D02*
X1102367D01*
G01X1086619Y511811D02*
X1102367D01*
G01X1295280Y464567D02*
X1358272D01*
G01X1291343Y480315D02*
X1338587D01*
G01X1307091Y496063D02*
X1338587D01*
G01X1322839Y511811D02*
X1338587D01*
G54D13*
X59055Y287402D03*
Y291339D03*
Y334646D03*
Y338583D03*
X255906Y287402D03*
Y291339D03*
Y334646D03*
Y338583D03*
X295276Y287402D03*
Y291339D03*
Y334646D03*
Y338583D03*
X492126Y287402D03*
Y291339D03*
Y334646D03*
Y338583D03*
X531496Y287402D03*
Y291339D03*
Y334646D03*
Y338583D03*
X728347Y287402D03*
Y291339D03*
Y334646D03*
Y338583D03*
X767717Y287402D03*
Y291339D03*
Y334646D03*
Y338583D03*
X964567Y287402D03*
Y291339D03*
Y334646D03*
Y338583D03*
X1003937Y287402D03*
Y291339D03*
Y334646D03*
Y338583D03*
X1200788Y287402D03*
Y291339D03*
Y334646D03*
Y338583D03*
X1240158Y287402D03*
Y291339D03*
Y334646D03*
Y338583D03*
X1437008Y287402D03*
Y291339D03*
Y334646D03*
Y338583D03*
G54D23*
G01X59065Y82674D02*
X60590D01*
X61771Y83855D01*
X253209D01*
X254390Y82674D01*
X255915D01*
G01Y86611D02*
X254390D01*
X253184Y85405D01*
X61796D01*
X60590Y86611D01*
X59065D01*
G01X295285Y82674D02*
X296811D01*
X297992Y83855D01*
X489430D01*
X490611Y82674D01*
X492136D01*
G01Y86611D02*
X490611D01*
X489405Y85405D01*
X298016D01*
X296811Y86611D01*
X295285D01*
G01X531506Y82674D02*
X533031D01*
X534212Y83855D01*
X725650D01*
X726831Y82674D01*
X728356D01*
G01Y86611D02*
X726831D01*
X725625Y85405D01*
X534237D01*
X533031Y86611D01*
X531506D01*
G01X767726Y82674D02*
X769251D01*
X770432Y83855D01*
X961870D01*
X963051Y82674D01*
X964577D01*
G01Y86611D02*
X963051D01*
X961846Y85405D01*
X770457D01*
X769251Y86611D01*
X767726D01*
G01X1003947Y82674D02*
X1005472D01*
X1006653Y83855D01*
X1198091D01*
X1199272Y82674D01*
X1200797D01*
G01Y86611D02*
X1199272D01*
X1198066Y85405D01*
X1006678D01*
X1005472Y86611D01*
X1003947D01*
G01X1240167Y82674D02*
X1241692D01*
X1242873Y83855D01*
X1434311D01*
X1435492Y82674D01*
X1437017D01*
G01Y86611D02*
X1435492D01*
X1434286Y85405D01*
X1242898D01*
X1241692Y86611D01*
X1240167D01*
G54D14*
X59055Y303150D03*
Y307087D03*
Y350394D03*
Y354331D03*
X255906Y303150D03*
Y307087D03*
Y350394D03*
Y354331D03*
X295276Y303150D03*
Y307087D03*
Y350394D03*
Y354331D03*
X492126Y303150D03*
Y307087D03*
Y350394D03*
Y354331D03*
X531496Y303150D03*
Y307087D03*
Y350394D03*
Y354331D03*
X728347Y303150D03*
Y307087D03*
Y350394D03*
Y354331D03*
X767717Y303150D03*
Y307087D03*
Y350394D03*
Y354331D03*
X964567Y303150D03*
Y307087D03*
Y350394D03*
Y354331D03*
X1003937Y303150D03*
Y307087D03*
Y350394D03*
Y354331D03*
X1200788Y303150D03*
Y307087D03*
Y350394D03*
Y354331D03*
X1240158Y303150D03*
Y307087D03*
Y350394D03*
Y354331D03*
X1437008Y303150D03*
Y307087D03*
Y350394D03*
Y354331D03*
G54D24*
G01X59056Y1417324D02*
X55499D01*
X55484Y1417310D01*
G01X59056Y1452758D02*
X55499D01*
X55484Y1452743D01*
G01X59056Y1487009D02*
X55499D01*
X55484Y1486995D01*
G01X59056Y1518899D02*
X55499D01*
X55484Y1518885D01*
G01X59056Y1551183D02*
X55499D01*
X55484Y1551168D01*
G01X59056Y1572679D02*
X55499D01*
X55484Y1572664D01*
G01X55255Y1612191D02*
X55484D01*
X55499Y1612206D01*
X59055D01*
G01X255893Y161418D02*
X59061D01*
G01Y165355D02*
X157477D01*
G01X255906Y174409D02*
X63600D01*
X60847Y177162D01*
X59065D01*
G01X255906Y178363D02*
X65032D01*
X62296Y181099D01*
X59065D01*
G01D02*
X59068Y181102D01*
G01X157480Y190158D02*
X63600D01*
X60847Y192910D01*
X59065D01*
G01X59068Y192913D02*
X59065Y192910D01*
G01Y196847D02*
X60665D01*
X60710Y196802D01*
X63584D01*
X66291Y194094D01*
X157480D01*
G01X59065Y212595D02*
X255902D01*
X255906Y212598D01*
Y208661D01*
X255902Y208658D01*
X59065D01*
G01Y224406D02*
X157480D01*
G01X59065Y228343D02*
X157480D01*
G01X255881Y241091D02*
X65735D01*
X62735Y244091D01*
X59065D01*
G01X157480Y257402D02*
X64751D01*
X62314Y259839D01*
X59065D01*
G01D02*
X59068Y259843D01*
G01X59031Y259873D02*
X59065Y259839D01*
G01X59059Y464567D02*
X114178D01*
G01X177170D02*
X255910D01*
G01X59059Y480315D02*
X110241D01*
G01X157485D02*
X255910D01*
G01X59059Y496063D02*
X125989D01*
G01X157485D02*
X255910D01*
G01X59059Y511811D02*
X141737D01*
G01X157485D02*
X255910D01*
G01X255900Y771665D02*
X218260D01*
X213162Y776763D01*
Y781317D01*
X212162Y782317D01*
X61383D01*
X60383Y783317D01*
Y786317D01*
X61383Y787317D01*
X212162D01*
X213162Y788317D01*
Y791317D01*
X212162Y792317D01*
X61383D01*
X60383Y793317D01*
Y796317D01*
X61383Y797317D01*
X212162D01*
X213162Y798317D01*
Y801317D01*
X212162Y802317D01*
X61383D01*
X60383Y803317D01*
Y806317D01*
X61383Y807317D01*
X212162D01*
X213162Y808317D01*
Y811317D01*
X212162Y812317D01*
X61383D01*
X60383Y813317D01*
Y816317D01*
X61383Y817317D01*
X212162D01*
X213162Y818317D01*
Y821317D01*
X212162Y822317D01*
X61383D01*
X60383Y823317D01*
Y826317D01*
X61383Y827317D01*
X212162D01*
X213162Y828317D01*
Y831317D01*
X212162Y832317D01*
X61383D01*
X60383Y833317D01*
Y836317D01*
X61383Y837317D01*
X212162D01*
X217375Y842531D01*
X255900D01*
G01Y889775D02*
X211358D01*
X210358Y888775D01*
Y860547D01*
X209358Y859547D01*
X207358D01*
X206358Y860547D01*
Y888775D01*
X205358Y889775D01*
X203358D01*
X202358Y888775D01*
Y860547D01*
X201358Y859547D01*
X199358D01*
X198358Y860547D01*
Y888775D01*
X197358Y889775D01*
X195358D01*
X194358Y888775D01*
Y860547D01*
X193358Y859547D01*
X191358D01*
X190358Y860547D01*
Y888775D01*
X189358Y889775D01*
X187358D01*
X186358Y888775D01*
Y860547D01*
X185358Y859547D01*
X183358D01*
X182358Y860547D01*
Y888775D01*
X181358Y889775D01*
X179358D01*
X178358Y888775D01*
Y860547D01*
X177358Y859547D01*
X175358D01*
X174358Y860547D01*
Y888775D01*
X173358Y889775D01*
X171358D01*
X170358Y888775D01*
Y860547D01*
X169358Y859547D01*
X167358D01*
X166358Y860547D01*
Y888775D01*
X165358Y889775D01*
X163358D01*
X162358Y888775D01*
Y860547D01*
X161358Y859547D01*
X159358D01*
X158358Y860547D01*
Y888775D01*
X157358Y889775D01*
X155358D01*
X154358Y888775D01*
Y860547D01*
X153358Y859547D01*
X151358D01*
X150358Y860547D01*
Y888775D01*
X149358Y889775D01*
X147358D01*
X146358Y888775D01*
Y860547D01*
X145358Y859547D01*
X143358D01*
X142358Y860547D01*
Y888775D01*
X141358Y889775D01*
X139358D01*
X138358Y888775D01*
Y860547D01*
X137358Y859547D01*
X135358D01*
X134358Y860547D01*
Y888775D01*
X133358Y889775D01*
X131358D01*
X130358Y888775D01*
Y860547D01*
X129358Y859547D01*
X127358D01*
X126358Y860547D01*
Y888775D01*
X125358Y889775D01*
X123358D01*
X122358Y888775D01*
Y860547D01*
X121358Y859547D01*
X119358D01*
X118358Y860547D01*
Y888775D01*
X117358Y889775D01*
X115358D01*
X114358Y888775D01*
Y860547D01*
X113358Y859547D01*
X111358D01*
X110358Y860547D01*
Y888775D01*
X109358Y889775D01*
X107543D01*
X106543Y888775D01*
Y859279D01*
X105543Y858279D01*
X59050D01*
G01X255900Y921271D02*
X218562D01*
X217562Y920271D01*
Y907561D01*
X216562Y906561D01*
X214562D01*
X213562Y907561D01*
Y920271D01*
X212562Y921271D01*
X210562D01*
X209562Y920271D01*
Y907561D01*
X208562Y906561D01*
X206562D01*
X205562Y907561D01*
Y920271D01*
X204562Y921271D01*
X202562D01*
X201562Y920271D01*
Y907561D01*
X200562Y906561D01*
X198562D01*
X197562Y907561D01*
Y920271D01*
X196562Y921271D01*
X194562D01*
X193562Y920271D01*
Y907561D01*
X192562Y906561D01*
X190562D01*
X189562Y907561D01*
Y920271D01*
X188562Y921271D01*
X186562D01*
X185562Y920271D01*
Y907561D01*
X184562Y906561D01*
X182562D01*
X181562Y907561D01*
Y920271D01*
X180562Y921271D01*
X178562D01*
X177562Y920271D01*
Y907561D01*
X176562Y906561D01*
X174562D01*
X173562Y907561D01*
Y920271D01*
X172562Y921271D01*
X170562D01*
X169562Y920271D01*
Y907561D01*
X168562Y906561D01*
X166562D01*
X165562Y907561D01*
Y920271D01*
X164562Y921271D01*
X162562D01*
X161562Y920271D01*
Y907561D01*
X160562Y906561D01*
X158562D01*
X157562Y907561D01*
Y920271D01*
X156562Y921271D01*
X154562D01*
X153562Y920271D01*
Y907561D01*
X152562Y906561D01*
X150562D01*
X149562Y907561D01*
Y920271D01*
X148562Y921271D01*
X146562D01*
X145562Y920271D01*
Y907561D01*
X144562Y906561D01*
X142562D01*
X141562Y907561D01*
Y920271D01*
X140562Y921271D01*
X138562D01*
X137562Y920271D01*
Y907561D01*
X136562Y906561D01*
X134562D01*
X133562Y907561D01*
Y920271D01*
X132562Y921271D01*
X130562D01*
X129562Y920271D01*
Y907561D01*
X128562Y906561D01*
X126562D01*
X125562Y907561D01*
Y920271D01*
X124562Y921271D01*
X122562D01*
X121562Y920271D01*
Y907561D01*
X120562Y906561D01*
X118562D01*
X117562Y907561D01*
Y920271D01*
X116562Y921271D01*
X114562D01*
X113562Y920271D01*
Y907561D01*
X112562Y906561D01*
X110562D01*
X109562Y907561D01*
Y920271D01*
X108562Y921271D01*
X105978D01*
X104978Y920271D01*
Y906523D01*
X103978Y905523D01*
X59050D01*
G01X59054Y1062996D02*
X255905D01*
G01Y1078744D02*
X59054D01*
G01X255905Y1094492D02*
X59054D01*
G01X255913Y1173208D02*
X226032Y1173205D01*
X223274Y1175961D01*
X60171D01*
X59066Y1174857D01*
Y1173207D01*
G01X255908Y1188961D02*
X59058D01*
X59057Y1188961D01*
G01X255918Y1204697D02*
X255910Y1204705D01*
Y1206334D01*
X255077Y1207167D01*
X223527D01*
X221068Y1204708D01*
X60664D01*
X60661Y1204706D01*
X59061D01*
G01X59066Y1220458D02*
X254309D01*
X254319Y1220448D01*
X255919D01*
G01X255915Y1236204D02*
X254315D01*
X254312Y1236206D01*
X226325D01*
X223906Y1238626D01*
X59894D01*
X59081Y1237813D01*
Y1236221D01*
X59070Y1236211D01*
G01X58998Y1417381D02*
X59055Y1417324D01*
G01X255906Y1440946D02*
X59055D01*
G01X59022Y1452790D02*
X59055Y1452757D01*
G01X255906Y1472442D02*
X59055D01*
G01X59020Y1486973D02*
X59055Y1487009D01*
G01X255906Y1503938D02*
X59055D01*
G01X255906Y1535434D02*
X59055D01*
G01X59040Y1551166D02*
X59055Y1551182D01*
G01X255906Y1566930D02*
X59055D01*
G01X255906Y1582678D02*
X59055D01*
G01X59046Y1594498D02*
X59055Y1594489D01*
G01X255906Y1598426D02*
X59055D01*
G01X59046Y1612196D02*
X59055Y1612206D01*
G01X255906Y1614174D02*
X59055D01*
G01X157480Y194094D02*
X255891D01*
G01X157480Y190158D02*
X255939D01*
G01X157480Y224406D02*
Y228343D01*
G01Y224406D02*
X255897D01*
G01X157480Y228343D02*
X255900D01*
G01X157480Y257402D02*
X255897D01*
G01X255906Y338583D02*
X157480D01*
G01Y354331D02*
X157441D01*
G01X255906D02*
X157480D01*
G01Y370079D02*
X157417D01*
G01X255906D02*
X157480D01*
G01X255900Y937019D02*
X157475D01*
G01X196841Y948826D02*
X196845Y948830D01*
G01X255900Y952767D02*
X196845D01*
G01X216512Y964560D02*
X216530Y964578D01*
G01X255900Y968515D02*
X216530D01*
G01X236117Y980228D02*
X236215Y980326D01*
G01Y984263D02*
X255900D01*
G01X255975Y838518D02*
X255900Y838594D01*
G01X255995Y885742D02*
X255900Y885838D01*
G01X256048Y948682D02*
X255900Y948830D01*
G01X255971Y964507D02*
X255900Y964578D01*
G01X259477Y1417310D02*
X259462Y1417324D01*
X255906D01*
G01X259477Y1452743D02*
X259462Y1452758D01*
X255906D01*
G01X255925Y1486990D02*
X255906Y1487009D01*
G01X259477Y1518885D02*
X259462Y1518899D01*
X255906D01*
G01X259477Y1551168D02*
X259462Y1551183D01*
X255906D01*
G01X255928Y1551160D02*
X255920Y1551168D01*
G01X259477Y1572664D02*
X259462Y1572679D01*
X255906D01*
G01X255909Y1594492D02*
X255906Y1594489D01*
G01Y1612206D02*
X259463D01*
X259478Y1612191D01*
X259707D01*
G01X295277Y1417324D02*
X291720D01*
X291705Y1417310D01*
G01X295277Y1452758D02*
X291720D01*
X291705Y1452743D01*
G01X295277Y1487009D02*
X291720D01*
X291705Y1486995D01*
G01X295277Y1518899D02*
X291720D01*
X291705Y1518885D01*
G01X295277Y1551183D02*
X291720D01*
X291705Y1551168D01*
G01X295277Y1572679D02*
X291720D01*
X291705Y1572664D01*
G01X291476Y1612191D02*
X291705D01*
X291720Y1612206D01*
X295276D01*
G01X492114Y161418D02*
X295282D01*
G01Y165355D02*
X393698D01*
G01X492126Y174409D02*
X299821D01*
X297068Y177162D01*
X295285D01*
G01X492126Y178363D02*
X301253D01*
X298516Y181099D01*
X295285D01*
G01D02*
X295288Y181102D01*
G01X393701Y190158D02*
X299821D01*
X297068Y192910D01*
X295285D01*
G01X295288Y192913D02*
X295285Y192910D01*
G01X393701Y194094D02*
X302512D01*
X299804Y196802D01*
X296931D01*
X296885Y196847D01*
X295285D01*
G01Y212595D02*
X492123D01*
X492126Y212598D01*
Y208661D01*
X492123Y208658D01*
X295285D01*
G01X393701Y224406D02*
X295285D01*
G01X393701Y228343D02*
X295285D01*
G01X492102Y241091D02*
X301956D01*
X298956Y244091D01*
X295285D01*
G01Y259839D02*
X295288Y259843D01*
G01X295252Y259873D02*
X295285Y259839D01*
G01X393701Y257402D02*
X300972D01*
X298535Y259839D01*
X295285D01*
G01X295280Y464567D02*
X350398D01*
G01X413390D02*
X492131D01*
G01X295280Y480315D02*
X346461D01*
G01X393705D02*
X492131D01*
G01X295280Y496063D02*
X362209D01*
G01X393705D02*
X492131D01*
G01X295280Y511811D02*
X377957D01*
G01X393705D02*
X492131D01*
G01X492121Y771665D02*
X454481D01*
X449383Y776763D01*
Y781317D01*
X448383Y782317D01*
X297604D01*
X296604Y783317D01*
Y786317D01*
X297604Y787317D01*
X448383D01*
X449383Y788317D01*
Y791317D01*
X448383Y792317D01*
X297604D01*
X296604Y793317D01*
Y796317D01*
X297604Y797317D01*
X448383D01*
X449383Y798317D01*
Y801317D01*
X448383Y802317D01*
X297604D01*
X296604Y803317D01*
Y806317D01*
X297604Y807317D01*
X448383D01*
X449383Y808317D01*
Y811317D01*
X448383Y812317D01*
X297604D01*
X296604Y813317D01*
Y816317D01*
X297604Y817317D01*
X448383D01*
X449383Y818317D01*
Y821317D01*
X448383Y822317D01*
X297604D01*
X296604Y823317D01*
Y826317D01*
X297604Y827317D01*
X448383D01*
X449383Y828317D01*
Y831317D01*
X448383Y832317D01*
X297604D01*
X296604Y833317D01*
Y836317D01*
X297604Y837317D01*
X448383D01*
X453596Y842531D01*
X492121D01*
G01Y889775D02*
X447579D01*
X446579Y888775D01*
Y860547D01*
X445579Y859547D01*
X443579D01*
X442579Y860547D01*
Y888775D01*
X441579Y889775D01*
X439579D01*
X438579Y888775D01*
Y860547D01*
X437579Y859547D01*
X435579D01*
X434579Y860547D01*
Y888775D01*
X433579Y889775D01*
X431579D01*
X430579Y888775D01*
Y860547D01*
X429579Y859547D01*
X427579D01*
X426579Y860547D01*
Y888775D01*
X425579Y889775D01*
X423579D01*
X422579Y888775D01*
Y860547D01*
X421579Y859547D01*
X419579D01*
X418579Y860547D01*
Y888775D01*
X417579Y889775D01*
X415579D01*
X414579Y888775D01*
Y860547D01*
X413579Y859547D01*
X411579D01*
X410579Y860547D01*
Y888775D01*
X409579Y889775D01*
X407579D01*
X406579Y888775D01*
Y860547D01*
X405579Y859547D01*
X403579D01*
X402579Y860547D01*
Y888775D01*
X401579Y889775D01*
X399579D01*
X398579Y888775D01*
Y860547D01*
X397579Y859547D01*
X395579D01*
X394579Y860547D01*
Y888775D01*
X393579Y889775D01*
X391579D01*
X390579Y888775D01*
Y860547D01*
X389579Y859547D01*
X387579D01*
X386579Y860547D01*
Y888775D01*
X385579Y889775D01*
X383579D01*
X382579Y888775D01*
Y860547D01*
X381579Y859547D01*
X379579D01*
X378579Y860547D01*
Y888775D01*
X377579Y889775D01*
X375579D01*
X374579Y888775D01*
Y860547D01*
X373579Y859547D01*
X371579D01*
X370579Y860547D01*
Y888775D01*
X369579Y889775D01*
X367579D01*
X366579Y888775D01*
Y860547D01*
X365579Y859547D01*
X363579D01*
X362579Y860547D01*
Y888775D01*
X361579Y889775D01*
X359579D01*
X358579Y888775D01*
Y860547D01*
X357579Y859547D01*
X355579D01*
X354579Y860547D01*
Y888775D01*
X353579Y889775D01*
X351579D01*
X350579Y888775D01*
Y860547D01*
X349579Y859547D01*
X347579D01*
X346579Y860547D01*
Y888775D01*
X345579Y889775D01*
X343764D01*
X342764Y888775D01*
Y859279D01*
X341764Y858279D01*
X295270D01*
G01X492121Y921271D02*
X454783D01*
X453783Y920271D01*
Y907561D01*
X452783Y906561D01*
X450783D01*
X449783Y907561D01*
Y920271D01*
X448783Y921271D01*
X446783D01*
X445783Y920271D01*
Y907561D01*
X444783Y906561D01*
X442783D01*
X441783Y907561D01*
Y920271D01*
X440783Y921271D01*
X438783D01*
X437783Y920271D01*
Y907561D01*
X436783Y906561D01*
X434783D01*
X433783Y907561D01*
Y920271D01*
X432783Y921271D01*
X430783D01*
X429783Y920271D01*
Y907561D01*
X428783Y906561D01*
X426783D01*
X425783Y907561D01*
Y920271D01*
X424783Y921271D01*
X422783D01*
X421783Y920271D01*
Y907561D01*
X420783Y906561D01*
X418783D01*
X417783Y907561D01*
Y920271D01*
X416783Y921271D01*
X414783D01*
X413783Y920271D01*
Y907561D01*
X412783Y906561D01*
X410783D01*
X409783Y907561D01*
Y920271D01*
X408783Y921271D01*
X406783D01*
X405783Y920271D01*
Y907561D01*
X404783Y906561D01*
X402783D01*
X401783Y907561D01*
Y920271D01*
X400783Y921271D01*
X398783D01*
X397783Y920271D01*
Y907561D01*
X396783Y906561D01*
X394783D01*
X393783Y907561D01*
Y920271D01*
X392783Y921271D01*
X390783D01*
X389783Y920271D01*
Y907561D01*
X388783Y906561D01*
X386783D01*
X385783Y907561D01*
Y920271D01*
X384783Y921271D01*
X382783D01*
X381783Y920271D01*
Y907561D01*
X380783Y906561D01*
X378783D01*
X377783Y907561D01*
Y920271D01*
X376783Y921271D01*
X374783D01*
X373783Y920271D01*
Y907561D01*
X372783Y906561D01*
X370783D01*
X369783Y907561D01*
Y920271D01*
X368783Y921271D01*
X366783D01*
X365783Y920271D01*
Y907561D01*
X364783Y906561D01*
X362783D01*
X361783Y907561D01*
Y920271D01*
X360783Y921271D01*
X358783D01*
X357783Y920271D01*
Y907561D01*
X356783Y906561D01*
X354783D01*
X353783Y907561D01*
Y920271D01*
X352783Y921271D01*
X350783D01*
X349783Y920271D01*
Y907561D01*
X348783Y906561D01*
X346783D01*
X345783Y907561D01*
Y920271D01*
X344783Y921271D01*
X342199D01*
X341199Y920271D01*
Y906523D01*
X340199Y905523D01*
X295270D01*
G01X295275Y1062996D02*
X492126D01*
G01Y1078744D02*
X295275D01*
G01X492126Y1094492D02*
X295275D01*
G01X492134Y1173208D02*
X462252Y1173205D01*
X459495Y1175961D01*
X296392D01*
X295287Y1174857D01*
Y1173207D01*
G01X492129Y1188961D02*
X295278D01*
G01X492139Y1204697D02*
X492131Y1204705D01*
Y1206334D01*
X491298Y1207167D01*
X459748D01*
X457289Y1204708D01*
X296885D01*
X296882Y1204706D01*
X295282D01*
G01X295287Y1220458D02*
X490530D01*
X490540Y1220448D01*
X492140D01*
G01X492135Y1236204D02*
X490535D01*
X490533Y1236206D01*
X462546D01*
X460126Y1238626D01*
X296114D01*
X295302Y1237813D01*
Y1236221D01*
X295291Y1236211D01*
G01X295219Y1417381D02*
X295276Y1417324D01*
G01X492127Y1440946D02*
X295276D01*
G01X295243Y1452790D02*
X295276Y1452757D01*
G01X492127Y1472442D02*
X295276D01*
G01X295240Y1486973D02*
X295276Y1487009D01*
G01X492127Y1503938D02*
X295276D01*
G01X492127Y1535434D02*
X295276D01*
G01X295261Y1551166D02*
X295276Y1551182D01*
G01X492127Y1566930D02*
X295276D01*
G01X492127Y1582678D02*
X295276D01*
G01X295267Y1594498D02*
X295276Y1594489D01*
G01X492127Y1598426D02*
X295276D01*
G01X295267Y1612196D02*
X295276Y1612206D01*
G01X492127Y1614174D02*
X295276D01*
G01X393662Y354331D02*
X393701D01*
G01X393638Y370079D02*
X393701D01*
G01Y190158D02*
X492160D01*
G01X492112Y194094D02*
X393701D01*
G01Y224406D02*
X492117D01*
G01X393701Y228343D02*
Y224406D01*
G01X492121Y228343D02*
X393701D01*
G01X492118Y257402D02*
X393701D01*
G01X492126Y338583D02*
X393701D01*
G01Y354331D02*
X492126D01*
G01X393701Y370079D02*
X492126D01*
G01X492121Y937019D02*
X393696D01*
G01X433061Y948826D02*
X433066Y948830D01*
G01X492121Y952767D02*
X433066D01*
G01X452733Y964560D02*
X452751Y964578D01*
G01X492121Y968515D02*
X452751D01*
G01X472337Y980228D02*
X472436Y980326D01*
G01Y984263D02*
X492121D01*
G01X492196Y838518D02*
X492121Y838594D01*
G01X492216Y885742D02*
X492121Y885838D01*
G01X492268Y948682D02*
X492121Y948830D01*
G01X492192Y964507D02*
X492121Y964578D01*
G01X492126Y1417324D02*
X495683D01*
X495698Y1417310D01*
G01X492126Y1452758D02*
X495683D01*
X495698Y1452743D01*
G01X492146Y1486990D02*
X492127Y1487009D01*
G01X492126Y1518899D02*
X495683D01*
X495698Y1518885D01*
G01X492126Y1551183D02*
X495683D01*
X495698Y1551168D01*
G01X492149Y1551160D02*
X492140Y1551168D01*
G01X492126Y1572679D02*
X495683D01*
X495698Y1572664D01*
G01X492130Y1594492D02*
X492127Y1594489D01*
G01Y1612206D02*
X495683D01*
X495698Y1612191D01*
X495928D01*
G01X531497Y1417324D02*
X527940D01*
X527926Y1417310D01*
G01X531497Y1452758D02*
X527940D01*
X527926Y1452743D01*
G01X531497Y1487009D02*
X527940D01*
X527926Y1486995D01*
G01X531497Y1518899D02*
X527940D01*
X527926Y1518885D01*
G01X531497Y1551183D02*
X527940D01*
X527926Y1551168D01*
G01X531497Y1572679D02*
X527940D01*
X527926Y1572664D01*
G01X527696Y1612191D02*
X527925D01*
X527940Y1612206D01*
X531497D01*
G01X728335Y161418D02*
X531503D01*
G01Y165355D02*
X629918D01*
G01X728347Y174409D02*
X536041D01*
X533288Y177162D01*
X531506D01*
G01X728347Y178363D02*
X537473D01*
X534737Y181099D01*
X531506D01*
G01D02*
X531509Y181102D01*
G01X629922Y190158D02*
X536041D01*
X533288Y192910D01*
X531506D01*
G01X531509Y192913D02*
X531506Y192910D01*
G01X629922Y194094D02*
X538732D01*
X536025Y196802D01*
X533151D01*
X533106Y196847D01*
X531506D01*
G01Y212595D02*
X728344D01*
X728347Y212598D01*
Y208661D01*
X728344Y208658D01*
X531506D01*
G01X629922Y224406D02*
X531506D01*
G01X629922Y228343D02*
X531506D01*
G01X728322Y241091D02*
X538177D01*
X535177Y244091D01*
X531506D01*
G01Y259839D02*
X531509Y259843D01*
G01X531472Y259873D02*
X531506Y259839D01*
G01X629922Y257402D02*
X537192D01*
X534755Y259839D01*
X531506D01*
G01X531501Y464567D02*
X586619D01*
G01X649611D02*
X728351D01*
G01X531501Y480315D02*
X582682D01*
G01X629926D02*
X728351D01*
G01X531501Y496063D02*
X598430D01*
G01X629926D02*
X728351D01*
G01X531501Y511811D02*
X614178D01*
G01X629926D02*
X728351D01*
G01X728341Y771665D02*
X690701D01*
X685603Y776763D01*
Y781317D01*
X684603Y782317D01*
X533824D01*
X532824Y783317D01*
Y786317D01*
X533824Y787317D01*
X684603D01*
X685603Y788317D01*
Y791317D01*
X684603Y792317D01*
X533824D01*
X532824Y793317D01*
Y796317D01*
X533824Y797317D01*
X684603D01*
X685603Y798317D01*
Y801317D01*
X684603Y802317D01*
X533824D01*
X532824Y803317D01*
Y806317D01*
X533824Y807317D01*
X684603D01*
X685603Y808317D01*
Y811317D01*
X684603Y812317D01*
X533824D01*
X532824Y813317D01*
Y816317D01*
X533824Y817317D01*
X684603D01*
X685603Y818317D01*
Y821317D01*
X684603Y822317D01*
X533824D01*
X532824Y823317D01*
Y826317D01*
X533824Y827317D01*
X684603D01*
X685603Y828317D01*
Y831317D01*
X684603Y832317D01*
X533824D01*
X532824Y833317D01*
Y836317D01*
X533824Y837317D01*
X684603D01*
X689816Y842531D01*
X728341D01*
G01Y889775D02*
X683800D01*
X682800Y888775D01*
Y860547D01*
X681800Y859547D01*
X679800D01*
X678800Y860547D01*
Y888775D01*
X677800Y889775D01*
X675800D01*
X674800Y888775D01*
Y860547D01*
X673800Y859547D01*
X671800D01*
X670800Y860547D01*
Y888775D01*
X669800Y889775D01*
X667800D01*
X666800Y888775D01*
Y860547D01*
X665800Y859547D01*
X663800D01*
X662800Y860547D01*
Y888775D01*
X661800Y889775D01*
X659800D01*
X658800Y888775D01*
Y860547D01*
X657800Y859547D01*
X655800D01*
X654800Y860547D01*
Y888775D01*
X653800Y889775D01*
X651800D01*
X650800Y888775D01*
Y860547D01*
X649800Y859547D01*
X647800D01*
X646800Y860547D01*
Y888775D01*
X645800Y889775D01*
X643800D01*
X642800Y888775D01*
Y860547D01*
X641800Y859547D01*
X639800D01*
X638800Y860547D01*
Y888775D01*
X637800Y889775D01*
X635800D01*
X634800Y888775D01*
Y860547D01*
X633800Y859547D01*
X631800D01*
X630800Y860547D01*
Y888775D01*
X629800Y889775D01*
X627800D01*
X626800Y888775D01*
Y860547D01*
X625800Y859547D01*
X623800D01*
X622800Y860547D01*
Y888775D01*
X621800Y889775D01*
X619800D01*
X618800Y888775D01*
Y860547D01*
X617800Y859547D01*
X615800D01*
X614800Y860547D01*
Y888775D01*
X613800Y889775D01*
X611800D01*
X610800Y888775D01*
Y860547D01*
X609800Y859547D01*
X607800D01*
X606800Y860547D01*
Y888775D01*
X605800Y889775D01*
X603800D01*
X602800Y888775D01*
Y860547D01*
X601800Y859547D01*
X599800D01*
X598800Y860547D01*
Y888775D01*
X597800Y889775D01*
X595800D01*
X594800Y888775D01*
Y860547D01*
X593800Y859547D01*
X591800D01*
X590800Y860547D01*
Y888775D01*
X589800Y889775D01*
X587800D01*
X586800Y888775D01*
Y860547D01*
X585800Y859547D01*
X583800D01*
X582800Y860547D01*
Y888775D01*
X581800Y889775D01*
X579984D01*
X578984Y888775D01*
Y859279D01*
X577985Y858279D01*
X531491D01*
G01X728341Y921271D02*
X691003D01*
X690003Y920271D01*
Y907561D01*
X689003Y906561D01*
X687003D01*
X686003Y907561D01*
Y920271D01*
X685003Y921271D01*
X683003D01*
X682003Y920271D01*
Y907561D01*
X681003Y906561D01*
X679003D01*
X678003Y907561D01*
Y920271D01*
X677003Y921271D01*
X675003D01*
X674003Y920271D01*
Y907561D01*
X673003Y906561D01*
X671003D01*
X670003Y907561D01*
Y920271D01*
X669003Y921271D01*
X667003D01*
X666003Y920271D01*
Y907561D01*
X665003Y906561D01*
X663003D01*
X662003Y907561D01*
Y920271D01*
X661003Y921271D01*
X659003D01*
X658003Y920271D01*
Y907561D01*
X657003Y906561D01*
X655003D01*
X654003Y907561D01*
Y920271D01*
X653003Y921271D01*
X651003D01*
X650003Y920271D01*
Y907561D01*
X649003Y906561D01*
X647003D01*
X646003Y907561D01*
Y920271D01*
X645003Y921271D01*
X643003D01*
X642003Y920271D01*
Y907561D01*
X641003Y906561D01*
X639003D01*
X638003Y907561D01*
Y920271D01*
X637003Y921271D01*
X635003D01*
X634003Y920271D01*
Y907561D01*
X633003Y906561D01*
X631003D01*
X630003Y907561D01*
Y920271D01*
X629003Y921271D01*
X627003D01*
X626003Y920271D01*
Y907561D01*
X625003Y906561D01*
X623003D01*
X622003Y907561D01*
Y920271D01*
X621003Y921271D01*
X619003D01*
X618003Y920271D01*
Y907561D01*
X617003Y906561D01*
X615003D01*
X614003Y907561D01*
Y920271D01*
X613003Y921271D01*
X611003D01*
X610003Y920271D01*
Y907561D01*
X609003Y906561D01*
X607003D01*
X606003Y907561D01*
Y920271D01*
X605003Y921271D01*
X603003D01*
X602003Y920271D01*
Y907561D01*
X601003Y906561D01*
X599003D01*
X598003Y907561D01*
Y920271D01*
X597003Y921271D01*
X595003D01*
X594003Y920271D01*
Y907561D01*
X593003Y906561D01*
X591003D01*
X590003Y907561D01*
Y920271D01*
X589003Y921271D01*
X587003D01*
X586003Y920271D01*
Y907561D01*
X585003Y906561D01*
X583003D01*
X582003Y907561D01*
Y920271D01*
X581003Y921271D01*
X578419D01*
X577419Y920271D01*
Y906523D01*
X576419Y905523D01*
X531491D01*
G01X531496Y1062996D02*
X728346D01*
G01Y1078744D02*
X531496D01*
G01X728346Y1094492D02*
X531496D01*
G01X728355Y1173208D02*
X698473Y1173205D01*
X695716Y1175961D01*
X532612D01*
X531507Y1174857D01*
Y1173207D01*
G01X728350Y1188961D02*
X531499D01*
X531498Y1188961D01*
G01X728360Y1204697D02*
X728351Y1204705D01*
Y1206334D01*
X727518Y1207167D01*
X695968D01*
X693510Y1204708D01*
X533105D01*
X533103Y1204706D01*
X531503D01*
G01X531508Y1220458D02*
X726750D01*
X726760Y1220448D01*
X728360D01*
G01X728356Y1236204D02*
X726756D01*
X726753Y1236206D01*
X698766D01*
X696347Y1238626D01*
X532335D01*
X531522Y1237813D01*
Y1236221D01*
X531511Y1236211D01*
G01X531440Y1417381D02*
X531497Y1417324D01*
G01X728347Y1440946D02*
X531497D01*
G01X531464Y1452790D02*
X531497Y1452757D01*
G01X728347Y1472442D02*
X531497D01*
G01X531461Y1486973D02*
X531497Y1487009D01*
G01X728347Y1503938D02*
X531497D01*
G01X728347Y1535434D02*
X531497D01*
G01X531481Y1551166D02*
X531497Y1551182D01*
G01X728347Y1566930D02*
X531497D01*
G01X728347Y1582678D02*
X531497D01*
G01X531488Y1594498D02*
X531497Y1594489D01*
G01X728347Y1598426D02*
X531497D01*
G01X531487Y1612196D02*
X531497Y1612206D01*
G01X728347Y1614174D02*
X531497D01*
G01X728332Y194094D02*
X629922D01*
G01Y190158D02*
X728380D01*
G01X629922Y224406D02*
X728338D01*
G01X629922Y228343D02*
Y224406D01*
G01X728341Y228343D02*
X629922D01*
G01X728338Y257402D02*
X629922D01*
G01X728347Y338583D02*
X629922D01*
G01Y354331D02*
X728347D01*
G01X629882D02*
X629922D01*
G01Y370079D02*
X728347D01*
G01X629858D02*
X629922D01*
G01X728341Y937019D02*
X629916D01*
G01X669282Y948826D02*
X669286Y948830D01*
G01X728341Y952767D02*
X669286D01*
G01X688953Y964560D02*
X688971Y964578D01*
G01X728341Y968515D02*
X688971D01*
G01X708558Y980228D02*
X708656Y980326D01*
G01Y984263D02*
X728341D01*
G01X728416Y838518D02*
X728341Y838594D01*
G01X728436Y885742D02*
X728341Y885838D01*
G01X728489Y948682D02*
X728341Y948830D01*
G01X728412Y964507D02*
X728341Y964578D01*
G01X728347Y1417324D02*
X731903D01*
X731918Y1417310D01*
G01X728347Y1452758D02*
X731903D01*
X731918Y1452743D01*
G01X728366Y1486990D02*
X728347Y1487009D01*
G01X728347Y1518899D02*
X731903D01*
X731918Y1518885D01*
G01X728347Y1551183D02*
X731903D01*
X731918Y1551168D01*
G01X728369Y1551160D02*
X728361Y1551168D01*
G01X728347Y1572679D02*
X731903D01*
X731918Y1572664D01*
G01X728351Y1594492D02*
X728347Y1594489D01*
G01Y1612206D02*
X731904D01*
X731919Y1612191D01*
X732148D01*
G01X767718Y1417324D02*
X764161D01*
X764146Y1417310D01*
G01X767718Y1452758D02*
X764161D01*
X764146Y1452743D01*
G01X767718Y1487009D02*
X764161D01*
X764146Y1486995D01*
G01X767718Y1518899D02*
X764161D01*
X764146Y1518885D01*
G01X767718Y1551183D02*
X764161D01*
X764146Y1551168D01*
G01X767718Y1572679D02*
X764161D01*
X764146Y1572664D01*
G01X763916Y1612191D02*
X764146D01*
X764160Y1612206D01*
X767717D01*
G01X964555Y161418D02*
X767723D01*
G01Y165355D02*
X866139D01*
G01X964567Y174409D02*
X772262D01*
X769509Y177162D01*
X767726D01*
G01X964567Y178363D02*
X773694D01*
X770957Y181099D01*
X767726D01*
G01D02*
X767729Y181102D01*
G01X866142Y190158D02*
X772262D01*
X769509Y192910D01*
X767726D01*
G01X767729Y192913D02*
X767726Y192910D01*
G01X866142Y194094D02*
X774952D01*
X772245Y196802D01*
X769372D01*
X769326Y196847D01*
X767726D01*
G01Y212595D02*
X964564D01*
X964567Y212598D01*
Y208661D01*
X964564Y208658D01*
X767726D01*
G01X866142Y224406D02*
X767726D01*
G01X866142Y228343D02*
X767726D01*
G01X964543Y241091D02*
X774397D01*
X771397Y244091D01*
X767726D01*
G01Y259839D02*
X767729Y259843D01*
G01X767692Y259873D02*
X767726Y259839D01*
G01X866142Y257402D02*
X773413D01*
X770976Y259839D01*
X767726D01*
G01X767721Y464567D02*
X822839D01*
G01X885831D02*
X964571D01*
G01X767721Y480315D02*
X818902D01*
G01X866146D02*
X964571D01*
G01X767721Y496063D02*
X834650D01*
G01X866146D02*
X964571D01*
G01X767721Y511811D02*
X850398D01*
G01X866146D02*
X964571D01*
G01X964562Y771665D02*
X926921D01*
X921823Y776763D01*
Y781317D01*
X920823Y782317D01*
X770045D01*
X769045Y783317D01*
Y786317D01*
X770045Y787317D01*
X920823D01*
X921823Y788317D01*
Y791317D01*
X920823Y792317D01*
X770045D01*
X769045Y793317D01*
Y796317D01*
X770045Y797317D01*
X920823D01*
X921823Y798317D01*
Y801317D01*
X920823Y802317D01*
X770045D01*
X769045Y803317D01*
Y806317D01*
X770045Y807317D01*
X920823D01*
X921823Y808317D01*
Y811317D01*
X920823Y812317D01*
X770045D01*
X769045Y813317D01*
Y816317D01*
X770045Y817317D01*
X920823D01*
X921823Y818317D01*
Y821317D01*
X920823Y822317D01*
X770045D01*
X769045Y823317D01*
Y826317D01*
X770045Y827317D01*
X920823D01*
X921823Y828317D01*
Y831317D01*
X920823Y832317D01*
X770045D01*
X769045Y833317D01*
Y836317D01*
X770045Y837317D01*
X920823D01*
X926037Y842531D01*
X964562D01*
G01Y889775D02*
X920020D01*
X919020Y888775D01*
Y860547D01*
X918020Y859547D01*
X916020D01*
X915020Y860547D01*
Y888775D01*
X914020Y889775D01*
X912020D01*
X911020Y888775D01*
Y860547D01*
X910020Y859547D01*
X908020D01*
X907020Y860547D01*
Y888775D01*
X906020Y889775D01*
X904020D01*
X903020Y888775D01*
Y860547D01*
X902020Y859547D01*
X900020D01*
X899020Y860547D01*
Y888775D01*
X898020Y889775D01*
X896020D01*
X895020Y888775D01*
Y860547D01*
X894020Y859547D01*
X892020D01*
X891020Y860547D01*
Y888775D01*
X890020Y889775D01*
X888020D01*
X887020Y888775D01*
Y860547D01*
X886020Y859547D01*
X884020D01*
X883020Y860547D01*
Y888775D01*
X882020Y889775D01*
X880020D01*
X879020Y888775D01*
Y860547D01*
X878020Y859547D01*
X876020D01*
X875020Y860547D01*
Y888775D01*
X874020Y889775D01*
X872020D01*
X871020Y888775D01*
Y860547D01*
X870020Y859547D01*
X868020D01*
X867020Y860547D01*
Y888775D01*
X866020Y889775D01*
X864020D01*
X863020Y888775D01*
Y860547D01*
X862020Y859547D01*
X860020D01*
X859020Y860547D01*
Y888775D01*
X858020Y889775D01*
X856020D01*
X855020Y888775D01*
Y860547D01*
X854020Y859547D01*
X852020D01*
X851020Y860547D01*
Y888775D01*
X850020Y889775D01*
X848020D01*
X847020Y888775D01*
Y860547D01*
X846020Y859547D01*
X844020D01*
X843020Y860547D01*
Y888775D01*
X842020Y889775D01*
X840020D01*
X839020Y888775D01*
Y860547D01*
X838020Y859547D01*
X836020D01*
X835020Y860547D01*
Y888775D01*
X834020Y889775D01*
X832020D01*
X831020Y888775D01*
Y860547D01*
X830020Y859547D01*
X828020D01*
X827020Y860547D01*
Y888775D01*
X826020Y889775D01*
X824020D01*
X823020Y888775D01*
Y860547D01*
X822020Y859547D01*
X820020D01*
X819020Y860547D01*
Y888775D01*
X818020Y889775D01*
X816205D01*
X815205Y888775D01*
Y859279D01*
X814205Y858279D01*
X767711D01*
G01X964562Y921271D02*
X927223D01*
X926223Y920271D01*
Y907561D01*
X925223Y906561D01*
X923223D01*
X922223Y907561D01*
Y920271D01*
X921223Y921271D01*
X919223D01*
X918223Y920271D01*
Y907561D01*
X917223Y906561D01*
X915223D01*
X914223Y907561D01*
Y920271D01*
X913223Y921271D01*
X911223D01*
X910223Y920271D01*
Y907561D01*
X909223Y906561D01*
X907223D01*
X906223Y907561D01*
Y920271D01*
X905223Y921271D01*
X903223D01*
X902223Y920271D01*
Y907561D01*
X901223Y906561D01*
X899223D01*
X898223Y907561D01*
Y920271D01*
X897223Y921271D01*
X895223D01*
X894223Y920271D01*
Y907561D01*
X893223Y906561D01*
X891223D01*
X890223Y907561D01*
Y920271D01*
X889223Y921271D01*
X887223D01*
X886223Y920271D01*
Y907561D01*
X885223Y906561D01*
X883223D01*
X882223Y907561D01*
Y920271D01*
X881223Y921271D01*
X879223D01*
X878223Y920271D01*
Y907561D01*
X877223Y906561D01*
X875223D01*
X874223Y907561D01*
Y920271D01*
X873223Y921271D01*
X871223D01*
X870223Y920271D01*
Y907561D01*
X869223Y906561D01*
X867223D01*
X866223Y907561D01*
Y920271D01*
X865223Y921271D01*
X863223D01*
X862223Y920271D01*
Y907561D01*
X861223Y906561D01*
X859223D01*
X858223Y907561D01*
Y920271D01*
X857223Y921271D01*
X855223D01*
X854223Y920271D01*
Y907561D01*
X853223Y906561D01*
X851223D01*
X850223Y907561D01*
Y920271D01*
X849223Y921271D01*
X847223D01*
X846223Y920271D01*
Y907561D01*
X845223Y906561D01*
X843223D01*
X842223Y907561D01*
Y920271D01*
X841223Y921271D01*
X839223D01*
X838223Y920271D01*
Y907561D01*
X837223Y906561D01*
X835223D01*
X834223Y907561D01*
Y920271D01*
X833223Y921271D01*
X831223D01*
X830223Y920271D01*
Y907561D01*
X829223Y906561D01*
X827223D01*
X826223Y907561D01*
Y920271D01*
X825223Y921271D01*
X823223D01*
X822223Y920271D01*
Y907561D01*
X821223Y906561D01*
X819223D01*
X818223Y907561D01*
Y920271D01*
X817223Y921271D01*
X814640D01*
X813640Y920271D01*
Y906523D01*
X812640Y905523D01*
X767711D01*
G01X767716Y1062996D02*
X964566D01*
G01Y1078744D02*
X767716D01*
G01X964566Y1094492D02*
X767716D01*
G01X964575Y1173208D02*
X934693Y1173205D01*
X931936Y1175961D01*
X768833D01*
X767728Y1174857D01*
Y1173207D01*
G01X964570Y1188961D02*
X767719D01*
X767718Y1188961D01*
G01X964580Y1204697D02*
X964572Y1204705D01*
Y1206334D01*
X963739Y1207167D01*
X932189D01*
X929730Y1204708D01*
X769326D01*
X769323Y1204706D01*
X767723D01*
G01X767728Y1220458D02*
X962971D01*
X962981Y1220448D01*
X964581D01*
G01X964576Y1236204D02*
X962976D01*
X962974Y1236206D01*
X934987D01*
X932567Y1238626D01*
X768555D01*
X767742Y1237813D01*
Y1236221D01*
X767732Y1236211D01*
G01X767660Y1417381D02*
X767717Y1417324D01*
G01X964567Y1440946D02*
X767717D01*
G01X767684Y1452790D02*
X767717Y1452757D01*
G01X964567Y1472442D02*
X767717D01*
G01X767681Y1486973D02*
X767717Y1487009D01*
G01X964567Y1503938D02*
X767717D01*
G01X964567Y1535434D02*
X767717D01*
G01X767701Y1551166D02*
X767717Y1551182D01*
G01X964567Y1566930D02*
X767717D01*
G01X964567Y1582678D02*
X767717D01*
G01X767708Y1594498D02*
X767717Y1594489D01*
G01X964567Y1598426D02*
X767717D01*
G01X767708Y1612196D02*
X767717Y1612206D01*
G01X964567Y1614174D02*
X767717D01*
G01X964553Y194094D02*
X866142D01*
G01Y190158D02*
X964601D01*
G01X866142Y224406D02*
X964558D01*
G01X866142Y228343D02*
Y224406D01*
G01X964562Y228343D02*
X866142D01*
G01X964559Y257402D02*
X866142D01*
G01X964567Y338583D02*
X866142D01*
G01Y354331D02*
X964567D01*
G01X866103D02*
X866142D01*
G01Y370079D02*
X964567D01*
G01X866079D02*
X866142D01*
G01X964562Y937019D02*
X866136D01*
G01X905502Y948826D02*
X905507Y948830D01*
G01X964562Y952767D02*
X905507D01*
G01X925174Y964560D02*
X925192Y964578D01*
G01X964562Y968515D02*
X925192D01*
G01X944778Y980228D02*
X944877Y980326D01*
G01Y984263D02*
X964562D01*
G01X964637Y838518D02*
X964562Y838594D01*
G01X964657Y885742D02*
X964562Y885838D01*
G01X964709Y948682D02*
X964562Y948830D01*
G01X964633Y964507D02*
X964562Y964578D01*
G01X964567Y1417324D02*
X968124D01*
X968139Y1417310D01*
G01X964567Y1452758D02*
X968124D01*
X968139Y1452743D01*
G01X964587Y1486990D02*
X964567Y1487009D01*
G01X964567Y1518899D02*
X968124D01*
X968139Y1518885D01*
G01X964567Y1551183D02*
X968124D01*
X968139Y1551168D01*
G01X964590Y1551160D02*
X964581Y1551168D01*
G01X964567Y1572679D02*
X968124D01*
X968139Y1572664D01*
G01X964571Y1594492D02*
X964567Y1594489D01*
G01Y1612206D02*
X968124D01*
X968139Y1612191D01*
X968368D01*
G01X1003938Y1417324D02*
X1000381D01*
X1000366Y1417310D01*
G01X1003938Y1452758D02*
X1000381D01*
X1000366Y1452743D01*
G01X1003938Y1487009D02*
X1000381D01*
X1000366Y1486995D01*
G01X1003938Y1518899D02*
X1000381D01*
X1000366Y1518885D01*
G01X1003938Y1551183D02*
X1000381D01*
X1000366Y1551168D01*
G01X1003938Y1572679D02*
X1000381D01*
X1000366Y1572664D01*
G01X1000137Y1612191D02*
X1000366D01*
X1000381Y1612206D01*
X1003938D01*
G01X1200775Y161418D02*
X1003943D01*
G01Y165355D02*
X1102359D01*
G01X1200788Y174409D02*
X1008482D01*
X1005729Y177162D01*
X1003947D01*
G01X1200788Y178363D02*
X1009914D01*
X1007178Y181099D01*
X1003947D01*
G01D02*
X1003950Y181102D01*
G01X1102362Y190158D02*
X1008482D01*
X1005729Y192910D01*
X1003947D01*
G01X1003950Y192913D02*
X1003947Y192910D01*
G01X1102362Y194094D02*
X1011173D01*
X1008466Y196802D01*
X1005592D01*
X1005547Y196847D01*
X1003947D01*
G01Y212595D02*
X1200784D01*
X1200788Y212598D01*
Y208661D01*
X1200784Y208658D01*
X1003947D01*
G01X1102362Y224406D02*
X1003947D01*
G01X1102362Y228343D02*
X1003947D01*
G01X1200763Y241091D02*
X1010617D01*
X1007617Y244091D01*
X1003947D01*
G01Y259839D02*
X1003950Y259843D01*
G01X1003913Y259873D02*
X1003947Y259839D01*
G01X1102362Y257402D02*
X1009633D01*
X1007196Y259839D01*
X1003947D01*
G01X1003941Y464567D02*
X1059060D01*
G01X1122052D02*
X1200792D01*
G01X1003941Y480315D02*
X1055123D01*
G01X1102367D02*
X1200792D01*
G01X1003941Y496063D02*
X1070871D01*
G01X1102367D02*
X1200792D01*
G01X1003941Y511811D02*
X1086619D01*
G01X1102367D02*
X1200792D01*
G01X1200782Y771665D02*
X1163142D01*
X1158044Y776763D01*
Y781317D01*
X1157044Y782317D01*
X1006265D01*
X1005265Y783317D01*
Y786317D01*
X1006265Y787317D01*
X1157044D01*
X1158044Y788317D01*
Y791317D01*
X1157044Y792317D01*
X1006265D01*
X1005265Y793317D01*
Y796317D01*
X1006265Y797317D01*
X1157044D01*
X1158044Y798317D01*
Y801317D01*
X1157044Y802317D01*
X1006265D01*
X1005265Y803317D01*
Y806317D01*
X1006265Y807317D01*
X1157044D01*
X1158044Y808317D01*
Y811317D01*
X1157044Y812317D01*
X1006265D01*
X1005265Y813317D01*
Y816317D01*
X1006265Y817317D01*
X1157044D01*
X1158044Y818317D01*
Y821317D01*
X1157044Y822317D01*
X1006265D01*
X1005265Y823317D01*
Y826317D01*
X1006265Y827317D01*
X1157044D01*
X1158044Y828317D01*
Y831317D01*
X1157044Y832317D01*
X1006265D01*
X1005265Y833317D01*
Y836317D01*
X1006265Y837317D01*
X1157044D01*
X1162257Y842531D01*
X1200782D01*
G01Y889775D02*
X1156240D01*
X1155240Y888775D01*
Y860547D01*
X1154240Y859547D01*
X1152240D01*
X1151240Y860547D01*
Y888775D01*
X1150240Y889775D01*
X1148240D01*
X1147240Y888775D01*
Y860547D01*
X1146240Y859547D01*
X1144240D01*
X1143240Y860547D01*
Y888775D01*
X1142240Y889775D01*
X1140240D01*
X1139240Y888775D01*
Y860547D01*
X1138240Y859547D01*
X1136240D01*
X1135240Y860547D01*
Y888775D01*
X1134240Y889775D01*
X1132240D01*
X1131240Y888775D01*
Y860547D01*
X1130240Y859547D01*
X1128240D01*
X1127240Y860547D01*
Y888775D01*
X1126240Y889775D01*
X1124240D01*
X1123240Y888775D01*
Y860547D01*
X1122240Y859547D01*
X1120240D01*
X1119240Y860547D01*
Y888775D01*
X1118240Y889775D01*
X1116240D01*
X1115240Y888775D01*
Y860547D01*
X1114240Y859547D01*
X1112240D01*
X1111240Y860547D01*
Y888775D01*
X1110240Y889775D01*
X1108240D01*
X1107240Y888775D01*
Y860547D01*
X1106240Y859547D01*
X1104240D01*
X1103240Y860547D01*
Y888775D01*
X1102240Y889775D01*
X1100240D01*
X1099240Y888775D01*
Y860547D01*
X1098240Y859547D01*
X1096240D01*
X1095240Y860547D01*
Y888775D01*
X1094240Y889775D01*
X1092240D01*
X1091240Y888775D01*
Y860547D01*
X1090240Y859547D01*
X1088240D01*
X1087240Y860547D01*
Y888775D01*
X1086240Y889775D01*
X1084240D01*
X1083240Y888775D01*
Y860547D01*
X1082240Y859547D01*
X1080240D01*
X1079240Y860547D01*
Y888775D01*
X1078240Y889775D01*
X1076240D01*
X1075240Y888775D01*
Y860547D01*
X1074240Y859547D01*
X1072240D01*
X1071240Y860547D01*
Y888775D01*
X1070240Y889775D01*
X1068240D01*
X1067240Y888775D01*
Y860547D01*
X1066240Y859547D01*
X1064240D01*
X1063240Y860547D01*
Y888775D01*
X1062240Y889775D01*
X1060240D01*
X1059240Y888775D01*
Y860547D01*
X1058240Y859547D01*
X1056240D01*
X1055240Y860547D01*
Y888775D01*
X1054240Y889775D01*
X1052425D01*
X1051425Y888775D01*
Y859279D01*
X1050425Y858279D01*
X1003932D01*
G01X1200782Y921271D02*
X1163444D01*
X1162444Y920271D01*
Y907561D01*
X1161444Y906561D01*
X1159444D01*
X1158444Y907561D01*
Y920271D01*
X1157444Y921271D01*
X1155444D01*
X1154444Y920271D01*
Y907561D01*
X1153444Y906561D01*
X1151444D01*
X1150444Y907561D01*
Y920271D01*
X1149444Y921271D01*
X1147444D01*
X1146444Y920271D01*
Y907561D01*
X1145444Y906561D01*
X1143444D01*
X1142444Y907561D01*
Y920271D01*
X1141444Y921271D01*
X1139444D01*
X1138444Y920271D01*
Y907561D01*
X1137444Y906561D01*
X1135444D01*
X1134444Y907561D01*
Y920271D01*
X1133444Y921271D01*
X1131444D01*
X1130444Y920271D01*
Y907561D01*
X1129444Y906561D01*
X1127444D01*
X1126444Y907561D01*
Y920271D01*
X1125444Y921271D01*
X1123444D01*
X1122444Y920271D01*
Y907561D01*
X1121444Y906561D01*
X1119444D01*
X1118444Y907561D01*
Y920271D01*
X1117444Y921271D01*
X1115444D01*
X1114444Y920271D01*
Y907561D01*
X1113444Y906561D01*
X1111444D01*
X1110444Y907561D01*
Y920271D01*
X1109444Y921271D01*
X1107444D01*
X1106444Y920271D01*
Y907561D01*
X1105444Y906561D01*
X1103444D01*
X1102444Y907561D01*
Y920271D01*
X1101444Y921271D01*
X1099444D01*
X1098444Y920271D01*
Y907561D01*
X1097444Y906561D01*
X1095444D01*
X1094444Y907561D01*
Y920271D01*
X1093444Y921271D01*
X1091444D01*
X1090444Y920271D01*
Y907561D01*
X1089444Y906561D01*
X1087444D01*
X1086444Y907561D01*
Y920271D01*
X1085444Y921271D01*
X1083444D01*
X1082444Y920271D01*
Y907561D01*
X1081444Y906561D01*
X1079444D01*
X1078444Y907561D01*
Y920271D01*
X1077444Y921271D01*
X1075444D01*
X1074444Y920271D01*
Y907561D01*
X1073444Y906561D01*
X1071444D01*
X1070444Y907561D01*
Y920271D01*
X1069444Y921271D01*
X1067444D01*
X1066444Y920271D01*
Y907561D01*
X1065444Y906561D01*
X1063444D01*
X1062444Y907561D01*
Y920271D01*
X1061444Y921271D01*
X1059444D01*
X1058444Y920271D01*
Y907561D01*
X1057444Y906561D01*
X1055444D01*
X1054444Y907561D01*
Y920271D01*
X1053444Y921271D01*
X1050860D01*
X1049860Y920271D01*
Y906523D01*
X1048860Y905523D01*
X1003932D01*
G01X1003936Y1062996D02*
X1200787D01*
G01Y1078744D02*
X1003936D01*
G01X1200787Y1094492D02*
X1003936D01*
G01X1200795Y1173208D02*
X1170914Y1173205D01*
X1168156Y1175961D01*
X1005053D01*
X1003948Y1174857D01*
Y1173207D01*
G01X1200790Y1188961D02*
X1003940D01*
X1003939Y1188961D01*
G01X1200800Y1204697D02*
X1200792Y1204705D01*
Y1206334D01*
X1199959Y1207167D01*
X1168409D01*
X1165950Y1204708D01*
X1005546D01*
X1005543Y1204706D01*
X1003943D01*
G01X1003949Y1220458D02*
X1199191D01*
X1199201Y1220448D01*
X1200801D01*
G01X1200797Y1236204D02*
X1199197D01*
X1199194Y1236206D01*
X1171207D01*
X1168788Y1238626D01*
X1004776D01*
X1003963Y1237813D01*
Y1236221D01*
X1003952Y1236211D01*
G01X1003880Y1417381D02*
X1003938Y1417324D01*
G01X1200788Y1440946D02*
X1003938D01*
G01X1003904Y1452790D02*
X1003938Y1452757D01*
G01X1200788Y1472442D02*
X1003938D01*
G01X1003902Y1486973D02*
X1003938Y1487009D01*
G01X1200788Y1503938D02*
X1003938D01*
G01X1200788Y1535434D02*
X1003938D01*
G01X1003922Y1551166D02*
X1003938Y1551182D01*
G01X1200788Y1566930D02*
X1003938D01*
G01X1200788Y1582678D02*
X1003938D01*
G01X1003928Y1594498D02*
X1003938Y1594489D01*
G01X1200788Y1598426D02*
X1003938D01*
G01X1003928Y1612196D02*
X1003938Y1612206D01*
G01X1200788Y1614174D02*
X1003938D01*
G01X1200773Y194094D02*
X1102362D01*
G01Y190158D02*
X1200821D01*
G01X1102362Y224406D02*
X1200778D01*
G01X1102362Y228343D02*
Y224406D01*
G01X1200782Y228343D02*
X1102362D01*
G01X1200779Y257402D02*
X1102362D01*
G01X1200788Y338583D02*
X1102362D01*
G01Y354331D02*
X1200788D01*
G01X1102323D02*
X1102362D01*
G01Y370079D02*
X1200788D01*
G01X1102299D02*
X1102362D01*
G01X1200782Y937019D02*
X1102357D01*
G01X1141723Y948826D02*
X1141727Y948830D01*
G01X1200782Y952767D02*
X1141727D01*
G01X1161394Y964560D02*
X1161412Y964578D01*
G01X1200782Y968515D02*
X1161412D01*
G01X1180998Y980228D02*
X1181097Y980326D01*
G01Y984263D02*
X1200782D01*
G01X1200857Y838518D02*
X1200782Y838594D01*
G01X1200877Y885742D02*
X1200782Y885838D01*
G01X1200930Y948682D02*
X1200782Y948830D01*
G01X1200853Y964507D02*
X1200782Y964578D01*
G01X1200788Y1417324D02*
X1204344D01*
X1204359Y1417310D01*
G01X1200788Y1452758D02*
X1204344D01*
X1204359Y1452743D01*
G01X1200807Y1486990D02*
X1200788Y1487009D01*
G01X1200788Y1518899D02*
X1204344D01*
X1204359Y1518885D01*
G01X1200788Y1551183D02*
X1204344D01*
X1204359Y1551168D01*
G01X1200810Y1551160D02*
X1200802Y1551168D01*
G01X1200788Y1572679D02*
X1204344D01*
X1204359Y1572664D01*
G01X1200791Y1594492D02*
X1200788Y1594489D01*
G01Y1612206D02*
X1204345D01*
X1204360Y1612191D01*
X1204589D01*
G01X1240158Y1417324D02*
X1236602D01*
X1236587Y1417310D01*
G01X1240158Y1452758D02*
X1236602D01*
X1236587Y1452743D01*
G01X1240158Y1487009D02*
X1236602D01*
X1236587Y1486995D01*
G01X1240158Y1518899D02*
X1236602D01*
X1236587Y1518885D01*
G01X1240158Y1551183D02*
X1236602D01*
X1236587Y1551168D01*
G01X1240158Y1572679D02*
X1236602D01*
X1236587Y1572664D01*
G01X1236357Y1612191D02*
X1236586D01*
X1236601Y1612206D01*
X1240158D01*
G01X1436996Y161418D02*
X1240164D01*
G01Y165355D02*
X1338580D01*
G01X1437008Y174409D02*
X1244702D01*
X1241950Y177162D01*
X1240167D01*
G01Y181099D02*
X1240170Y181102D01*
G01X1437008Y178363D02*
X1246135D01*
X1243398Y181099D01*
X1240167D01*
G01X1338583Y190158D02*
X1244702D01*
X1241950Y192910D01*
X1240167D01*
G01X1240170Y192913D02*
X1240167Y192910D01*
G01X1338583Y194094D02*
X1247393D01*
X1244686Y196802D01*
X1241813D01*
X1241767Y196847D01*
X1240167D01*
G01Y212595D02*
X1437005D01*
X1437008Y212598D01*
Y208661D01*
X1437005Y208658D01*
X1240167D01*
G01X1338583Y224406D02*
X1240167D01*
G01X1338583Y228343D02*
X1240167D01*
G01X1436984Y241091D02*
X1246838D01*
X1243838Y244091D01*
X1240167D01*
G01Y259839D02*
X1240170Y259843D01*
G01X1240133Y259873D02*
X1240167Y259839D01*
G01X1338583Y257402D02*
X1245854D01*
X1243417Y259839D01*
X1240167D01*
G01X1240162Y464567D02*
X1295280D01*
G01X1358272D02*
X1437012D01*
G01X1240162Y480315D02*
X1291343D01*
G01X1338587D02*
X1437012D01*
G01X1240162Y496063D02*
X1307091D01*
G01X1338587D02*
X1437012D01*
G01X1240162Y511811D02*
X1322839D01*
G01X1338587D02*
X1437012D01*
G01X1437002Y771665D02*
X1399362D01*
X1394264Y776763D01*
Y781317D01*
X1393264Y782317D01*
X1242486D01*
X1241486Y783317D01*
Y786317D01*
X1242486Y787317D01*
X1393264D01*
X1394264Y788317D01*
Y791317D01*
X1393264Y792317D01*
X1242486D01*
X1241486Y793317D01*
Y796317D01*
X1242486Y797317D01*
X1393264D01*
X1394264Y798317D01*
Y801317D01*
X1393264Y802317D01*
X1242486D01*
X1241486Y803317D01*
Y806317D01*
X1242486Y807317D01*
X1393264D01*
X1394264Y808317D01*
Y811317D01*
X1393264Y812317D01*
X1242486D01*
X1241486Y813317D01*
Y816317D01*
X1242486Y817317D01*
X1393264D01*
X1394264Y818317D01*
Y821317D01*
X1393264Y822317D01*
X1242486D01*
X1241486Y823317D01*
Y826317D01*
X1242486Y827317D01*
X1393264D01*
X1394264Y828317D01*
Y831317D01*
X1393264Y832317D01*
X1242486D01*
X1241486Y833317D01*
Y836317D01*
X1242486Y837317D01*
X1393264D01*
X1398478Y842531D01*
X1437002D01*
G01Y889775D02*
X1392461D01*
X1391461Y888775D01*
Y860547D01*
X1390461Y859547D01*
X1388461D01*
X1387461Y860547D01*
Y888775D01*
X1386461Y889775D01*
X1384461D01*
X1383461Y888775D01*
Y860547D01*
X1382461Y859547D01*
X1380461D01*
X1379461Y860547D01*
Y888775D01*
X1378461Y889775D01*
X1376461D01*
X1375461Y888775D01*
Y860547D01*
X1374461Y859547D01*
X1372461D01*
X1371461Y860547D01*
Y888775D01*
X1370461Y889775D01*
X1368461D01*
X1367461Y888775D01*
Y860547D01*
X1366461Y859547D01*
X1364461D01*
X1363461Y860547D01*
Y888775D01*
X1362461Y889775D01*
X1360461D01*
X1359461Y888775D01*
Y860547D01*
X1358461Y859547D01*
X1356461D01*
X1355461Y860547D01*
Y888775D01*
X1354461Y889775D01*
X1352461D01*
X1351461Y888775D01*
Y860547D01*
X1350461Y859547D01*
X1348461D01*
X1347461Y860547D01*
Y888775D01*
X1346461Y889775D01*
X1344461D01*
X1343461Y888775D01*
Y860547D01*
X1342461Y859547D01*
X1340461D01*
X1339461Y860547D01*
Y888775D01*
X1338461Y889775D01*
X1336461D01*
X1335461Y888775D01*
Y860547D01*
X1334461Y859547D01*
X1332461D01*
X1331461Y860547D01*
Y888775D01*
X1330461Y889775D01*
X1328461D01*
X1327461Y888775D01*
Y860547D01*
X1326461Y859547D01*
X1324461D01*
X1323461Y860547D01*
Y888775D01*
X1322461Y889775D01*
X1320461D01*
X1319461Y888775D01*
Y860547D01*
X1318461Y859547D01*
X1316461D01*
X1315461Y860547D01*
Y888775D01*
X1314461Y889775D01*
X1312461D01*
X1311461Y888775D01*
Y860547D01*
X1310461Y859547D01*
X1308461D01*
X1307461Y860547D01*
Y888775D01*
X1306461Y889775D01*
X1304461D01*
X1303461Y888775D01*
Y860547D01*
X1302461Y859547D01*
X1300461D01*
X1299461Y860547D01*
Y888775D01*
X1298461Y889775D01*
X1296461D01*
X1295461Y888775D01*
Y860547D01*
X1294461Y859547D01*
X1292461D01*
X1291461Y860547D01*
Y888775D01*
X1290461Y889775D01*
X1288646D01*
X1287646Y888775D01*
Y859279D01*
X1286646Y858279D01*
X1240152D01*
G01X1437002Y921271D02*
X1399664D01*
X1398664Y920271D01*
Y907561D01*
X1397664Y906561D01*
X1395664D01*
X1394664Y907561D01*
Y920271D01*
X1393664Y921271D01*
X1391664D01*
X1390664Y920271D01*
Y907561D01*
X1389664Y906561D01*
X1387664D01*
X1386664Y907561D01*
Y920271D01*
X1385664Y921271D01*
X1383664D01*
X1382664Y920271D01*
Y907561D01*
X1381664Y906561D01*
X1379664D01*
X1378664Y907561D01*
Y920271D01*
X1377664Y921271D01*
X1375664D01*
X1374664Y920271D01*
Y907561D01*
X1373664Y906561D01*
X1371664D01*
X1370664Y907561D01*
Y920271D01*
X1369664Y921271D01*
X1367664D01*
X1366664Y920271D01*
Y907561D01*
X1365664Y906561D01*
X1363664D01*
X1362664Y907561D01*
Y920271D01*
X1361664Y921271D01*
X1359664D01*
X1358664Y920271D01*
Y907561D01*
X1357664Y906561D01*
X1355664D01*
X1354664Y907561D01*
Y920271D01*
X1353664Y921271D01*
X1351664D01*
X1350664Y920271D01*
Y907561D01*
X1349664Y906561D01*
X1347664D01*
X1346664Y907561D01*
Y920271D01*
X1345664Y921271D01*
X1343664D01*
X1342664Y920271D01*
Y907561D01*
X1341664Y906561D01*
X1339664D01*
X1338664Y907561D01*
Y920271D01*
X1337664Y921271D01*
X1335664D01*
X1334664Y920271D01*
Y907561D01*
X1333664Y906561D01*
X1331664D01*
X1330664Y907561D01*
Y920271D01*
X1329664Y921271D01*
X1327664D01*
X1326664Y920271D01*
Y907561D01*
X1325664Y906561D01*
X1323664D01*
X1322664Y907561D01*
Y920271D01*
X1321664Y921271D01*
X1319664D01*
X1318664Y920271D01*
Y907561D01*
X1317664Y906561D01*
X1315664D01*
X1314664Y907561D01*
Y920271D01*
X1313664Y921271D01*
X1311664D01*
X1310664Y920271D01*
Y907561D01*
X1309664Y906561D01*
X1307664D01*
X1306664Y907561D01*
Y920271D01*
X1305664Y921271D01*
X1303664D01*
X1302664Y920271D01*
Y907561D01*
X1301664Y906561D01*
X1299664D01*
X1298664Y907561D01*
Y920271D01*
X1297664Y921271D01*
X1295664D01*
X1294664Y920271D01*
Y907561D01*
X1293664Y906561D01*
X1291664D01*
X1290664Y907561D01*
Y920271D01*
X1289664Y921271D01*
X1287080D01*
X1286080Y920271D01*
Y906523D01*
X1285080Y905523D01*
X1240152D01*
G01X1240157Y1062996D02*
X1437007D01*
G01Y1078744D02*
X1240157D01*
G01X1437007Y1094492D02*
X1240157D01*
G01X1437016Y1173208D02*
X1407134Y1173205D01*
X1404377Y1175961D01*
X1241274D01*
X1240168Y1174857D01*
Y1173207D01*
G01X1437011Y1188961D02*
X1240160D01*
X1240159Y1188961D01*
G01X1437021Y1204697D02*
X1437013Y1204705D01*
Y1206334D01*
X1436180Y1207167D01*
X1404630D01*
X1402171Y1204708D01*
X1241767D01*
X1241764Y1204706D01*
X1240164D01*
G01X1240169Y1220458D02*
X1435412D01*
X1435421Y1220448D01*
X1437021D01*
G01X1437017Y1236204D02*
X1435417D01*
X1435415Y1236206D01*
X1407428D01*
X1405008Y1238626D01*
X1240996D01*
X1240183Y1237813D01*
Y1236221D01*
X1240172Y1236211D01*
G01X1240101Y1417381D02*
X1240158Y1417324D01*
G01X1437008Y1440946D02*
X1240158D01*
G01X1240125Y1452790D02*
X1240158Y1452757D01*
G01X1437008Y1472442D02*
X1240158D01*
G01X1240122Y1486973D02*
X1240158Y1487009D01*
G01X1437008Y1503938D02*
X1240158D01*
G01X1437008Y1535434D02*
X1240158D01*
G01X1240142Y1551166D02*
X1240158Y1551182D01*
G01X1437008Y1566930D02*
X1240158D01*
G01X1437008Y1582678D02*
X1240158D01*
G01X1240149Y1594498D02*
X1240158Y1594489D01*
G01X1437008Y1598426D02*
X1240158D01*
G01X1240148Y1612196D02*
X1240158Y1612206D01*
G01X1437008Y1614174D02*
X1240158D01*
G01X1436994Y194094D02*
X1338583D01*
G01Y190158D02*
X1437041D01*
G01X1338583Y224406D02*
X1436999D01*
G01X1338583Y228343D02*
Y224406D01*
G01X1437002Y228343D02*
X1338583D01*
G01X1437000Y257402D02*
X1338583D01*
G01X1437008Y338583D02*
X1338583D01*
G01Y354331D02*
X1437008D01*
G01X1338544D02*
X1338583D01*
G01Y370079D02*
X1437008D01*
G01X1338519D02*
X1338583D01*
G01X1437002Y937019D02*
X1338577D01*
G01X1377943Y948826D02*
X1377947Y948830D01*
G01X1437002Y952767D02*
X1377947D01*
G01X1397615Y964560D02*
X1397632Y964578D01*
G01X1437002Y968515D02*
X1397632D01*
G01X1417219Y980228D02*
X1417317Y980326D01*
G01Y984263D02*
X1437002D01*
G01X1437078Y838518D02*
X1437002Y838594D01*
G01X1437098Y885742D02*
X1437002Y885838D01*
G01X1437150Y948682D02*
X1437002Y948830D01*
G01X1437074Y964507D02*
X1437002Y964578D01*
G01X1437008Y1417324D02*
X1440565D01*
X1440580Y1417310D01*
G01X1437008Y1452758D02*
X1440565D01*
X1440580Y1452743D01*
G01X1437028Y1486990D02*
X1437008Y1487009D01*
G01X1437008Y1518899D02*
X1440565D01*
X1440580Y1518885D01*
G01X1437008Y1551183D02*
X1440565D01*
X1440580Y1551168D01*
G01X1437030Y1551160D02*
X1437022Y1551168D01*
G01X1437008Y1572679D02*
X1440565D01*
X1440580Y1572664D01*
G01X1437012Y1594492D02*
X1437008Y1594489D01*
G01Y1612206D02*
X1440565D01*
X1440580Y1612191D01*
X1440809D01*
G54D15*
X59055Y318898D03*
Y322835D03*
Y366142D03*
Y370079D03*
X255906Y318898D03*
Y322835D03*
Y366142D03*
Y370079D03*
X295276Y318898D03*
Y322835D03*
Y366142D03*
Y370079D03*
X492126Y318898D03*
Y322835D03*
Y366142D03*
Y370079D03*
X531496Y318898D03*
Y322835D03*
Y366142D03*
Y370079D03*
X728347Y318898D03*
Y322835D03*
Y366142D03*
Y370079D03*
X767717Y318898D03*
Y322835D03*
Y366142D03*
Y370079D03*
X964567Y318898D03*
Y322835D03*
Y366142D03*
Y370079D03*
X1003937Y318898D03*
Y322835D03*
Y366142D03*
Y370079D03*
X1200788Y318898D03*
Y322835D03*
Y366142D03*
Y370079D03*
X1240158Y318898D03*
Y322835D03*
Y366142D03*
Y370079D03*
X1437008Y318898D03*
Y322835D03*
Y366142D03*
Y370079D03*
G54D25*
G01X255915Y98422D02*
X254822Y99516D01*
X60158D01*
X59065Y98422D01*
G01X255915Y102359D02*
X254822Y101266D01*
X60158D01*
X59065Y102359D01*
G01X492136Y98422D02*
X491042Y99516D01*
X296379D01*
X295285Y98422D01*
G01X492136Y102359D02*
X491042Y101266D01*
X296379D01*
X295285Y102359D01*
G01X728356Y98422D02*
X727263Y99516D01*
X532600D01*
X531506Y98422D01*
G01X728356Y102359D02*
X727263Y101266D01*
X532600D01*
X531506Y102359D01*
G01X964577Y98422D02*
X963483Y99516D01*
X768820D01*
X767726Y98422D01*
G01X964577Y102359D02*
X963483Y101266D01*
X768820D01*
X767726Y102359D01*
G01X1200797Y98422D02*
X1199704Y99516D01*
X1005040D01*
X1003947Y98422D01*
G01X1200797Y102359D02*
X1199704Y101266D01*
X1005040D01*
X1003947Y102359D01*
G01X1437017Y98422D02*
X1435924Y99516D01*
X1241261D01*
X1240167Y98422D01*
G01X1437017Y102359D02*
X1435924Y101266D01*
X1241261D01*
X1240167Y102359D01*
G54D16*
X59054Y1027563D03*
Y1031500D03*
Y1074808D03*
Y1078744D03*
X59057Y1360237D03*
Y1362206D03*
Y1376773D03*
Y1377954D03*
X59055Y1614174D03*
Y1612206D03*
Y1628741D03*
Y1629922D03*
X255905Y1027563D03*
Y1031500D03*
Y1074808D03*
Y1078744D03*
X255907Y1360237D03*
Y1362206D03*
Y1376773D03*
Y1377954D03*
X255906Y1614174D03*
Y1612206D03*
Y1628741D03*
Y1629922D03*
X295275Y1027563D03*
Y1031500D03*
Y1074808D03*
Y1078744D03*
X295278Y1360237D03*
Y1362206D03*
Y1376773D03*
Y1377954D03*
X295276Y1612206D03*
Y1614174D03*
Y1628741D03*
Y1629922D03*
X492126Y1027563D03*
Y1031500D03*
Y1074808D03*
Y1078744D03*
X492128Y1360237D03*
Y1362206D03*
Y1376773D03*
Y1377954D03*
X492127Y1612206D03*
Y1614174D03*
Y1628741D03*
Y1629922D03*
X531496Y1027563D03*
Y1031500D03*
Y1074808D03*
Y1078744D03*
X531498Y1360237D03*
Y1362206D03*
Y1376773D03*
Y1377954D03*
X531497Y1612206D03*
Y1614174D03*
Y1628741D03*
Y1629922D03*
X728346Y1027563D03*
Y1031500D03*
Y1074808D03*
Y1078744D03*
X728348Y1360237D03*
Y1362206D03*
Y1376773D03*
Y1377954D03*
X728347Y1612206D03*
Y1614174D03*
Y1628741D03*
Y1629922D03*
X767716Y1027563D03*
Y1031500D03*
Y1074808D03*
Y1078744D03*
X767718Y1360237D03*
Y1362206D03*
Y1376773D03*
Y1377954D03*
X767717Y1612206D03*
Y1614174D03*
Y1628741D03*
Y1629922D03*
X964566Y1027563D03*
Y1031500D03*
Y1074808D03*
Y1078744D03*
X964569Y1360237D03*
Y1362206D03*
Y1376773D03*
Y1377954D03*
X964567Y1612206D03*
Y1614174D03*
Y1628741D03*
Y1629922D03*
X1003936Y1027563D03*
Y1031500D03*
Y1074808D03*
Y1078744D03*
X1003939Y1360237D03*
Y1362206D03*
Y1376773D03*
Y1377954D03*
X1003938Y1612206D03*
Y1614174D03*
Y1628741D03*
Y1629922D03*
X1200787Y1027563D03*
Y1031500D03*
Y1074808D03*
Y1078744D03*
X1200789Y1360237D03*
Y1362206D03*
Y1376773D03*
Y1377954D03*
X1200788Y1612206D03*
Y1614174D03*
Y1628741D03*
Y1629922D03*
X1240157Y1027563D03*
Y1031500D03*
Y1074808D03*
Y1078744D03*
X1240159Y1360237D03*
Y1362206D03*
Y1376773D03*
Y1377954D03*
X1240158Y1612206D03*
Y1614174D03*
Y1628741D03*
Y1629922D03*
X1437007Y1027563D03*
Y1031500D03*
Y1074808D03*
Y1078744D03*
X1437010Y1360237D03*
Y1362206D03*
Y1376773D03*
Y1377954D03*
X1437008Y1612206D03*
Y1614174D03*
Y1628741D03*
Y1629922D03*
G54D26*
G01X59065Y149603D02*
X255915D01*
G01X295285D02*
X492136D01*
G01X531506D02*
X728356D01*
G01X767726D02*
X964577D01*
G01X1003947D02*
X1200797D01*
G01X1240167D02*
X1437017D01*
G54D17*
G01X10000Y0D02*
X1486063D01*
G03X1496063Y10000I0J10000D01*
G01Y1690787D01*
G03X1486063Y1700787I-10000J0D01*
G01X10000D01*
G03X0Y1690787I0J-10000D01*
G01Y10000D01*
G03X10000Y0I10000J0D01*
G01X45424Y39391D02*
G03I-6000J0D01*
G01X45470Y1661436D02*
G03I-6000J0D01*
G01X255919Y1125964D02*
X254551Y1127332D01*
Y1128435D01*
X253248Y1129738D01*
X57798D01*
X56491Y1128432D01*
Y1127322D01*
X55135Y1125966D01*
G01X255915Y70863D02*
X254515D01*
X253359Y69707D01*
X61620D01*
X60465Y70863D01*
X59065D01*
G01Y66926D02*
X60465D01*
X61646Y68107D01*
X253334D01*
X254515Y66926D01*
X255915D01*
G01X59059Y397638D02*
X60428Y399006D01*
X114178D01*
G01X177170D02*
X254541D01*
X255910Y397638D01*
G01Y401575D02*
X254541Y400206D01*
X177170D01*
G01X114178D02*
X60428D01*
X59059Y401575D01*
G01Y417323D02*
X60428Y415954D01*
X110241D01*
G01X157485D02*
X254541D01*
X255910Y417323D01*
G01X59059Y413386D02*
X60428Y414754D01*
X110241D01*
G01X157485D02*
X254541D01*
X255910Y413386D01*
G01X59059Y429134D02*
X60428Y430502D01*
X125989D01*
G01X157485D02*
X254541D01*
X255910Y429134D01*
G01X59059Y433071D02*
X60428Y431702D01*
X125989D01*
G01X157485D02*
X254541D01*
X255910Y433071D01*
G01Y444882D02*
X254541Y446250D01*
X157485D01*
G01X141737D02*
X60428D01*
X59059Y444882D01*
G01X255910Y448819D02*
X254541Y447450D01*
X157485D01*
G01X141737D02*
X60428D01*
X59059Y448819D01*
G01X59058Y622048D02*
X60426Y620680D01*
X90181D01*
X90781Y621280D01*
Y650873D01*
X92084Y652176D01*
X97917D01*
X99220Y650873D01*
Y620247D01*
X99820Y619647D01*
X103220D01*
X103820Y620247D01*
Y650873D01*
X105123Y652176D01*
X109517D01*
X110820Y650873D01*
Y620247D01*
X111420Y619647D01*
X114820D01*
X115420Y620247D01*
Y650873D01*
X116723Y652176D01*
X121117D01*
X122420Y650873D01*
Y620247D01*
X123020Y619647D01*
X126420D01*
X127020Y620247D01*
Y650873D01*
X128323Y652176D01*
X132717D01*
X134020Y650873D01*
Y620247D01*
X134620Y619647D01*
X138020D01*
X138620Y620247D01*
Y650873D01*
X139923Y652176D01*
X144317D01*
X145620Y650873D01*
Y620247D01*
X146220Y619647D01*
X149620D01*
X150220Y620247D01*
Y650873D01*
X151523Y652176D01*
X155917D01*
X157220Y650873D01*
Y620247D01*
X157820Y619647D01*
X161220D01*
X161820Y620247D01*
Y650873D01*
X163123Y652176D01*
X167517D01*
X168820Y650873D01*
Y620247D01*
X169420Y619647D01*
X172820D01*
X173420Y620247D01*
Y650873D01*
X174723Y652176D01*
X179117D01*
X180420Y650873D01*
Y620247D01*
X181020Y619647D01*
X184420D01*
X185020Y620247D01*
Y650873D01*
X186323Y652176D01*
X190717D01*
X192020Y650873D01*
Y620247D01*
X192620Y619647D01*
X196020D01*
X196620Y620247D01*
Y650873D01*
X197923Y652176D01*
X202317D01*
X203620Y650873D01*
Y620247D01*
X204220Y619647D01*
X207620D01*
X208220Y620247D01*
Y650873D01*
X209523Y652176D01*
X213917D01*
X215220Y650873D01*
Y620247D01*
X215820Y619647D01*
X219220D01*
X219820Y620247D01*
Y650873D01*
X221123Y652176D01*
X225517D01*
X226820Y650873D01*
Y620247D01*
X227420Y619647D01*
X230820D01*
X231420Y620247D01*
Y650873D01*
X232723Y652176D01*
X254539D01*
X255908Y653544D01*
G01X59058Y618111D02*
X60426Y619480D01*
X90678D01*
X91981Y620782D01*
Y650376D01*
X92581Y650976D01*
X97420D01*
X98020Y650376D01*
Y619750D01*
X99323Y618447D01*
X103717D01*
X105020Y619750D01*
Y650376D01*
X105620Y650976D01*
X109020D01*
X109620Y650376D01*
Y619750D01*
X110923Y618447D01*
X115317D01*
X116620Y619750D01*
Y650376D01*
X117220Y650976D01*
X120620D01*
X121220Y650376D01*
Y619750D01*
X122523Y618447D01*
X126917D01*
X128220Y619750D01*
Y650376D01*
X128820Y650976D01*
X132220D01*
X132820Y650376D01*
Y619750D01*
X134123Y618447D01*
X138517D01*
X139820Y619750D01*
Y650376D01*
X140420Y650976D01*
X143820D01*
X144420Y650376D01*
Y619750D01*
X145723Y618447D01*
X150117D01*
X151420Y619750D01*
Y650376D01*
X152020Y650976D01*
X155420D01*
X156020Y650376D01*
Y619750D01*
X157323Y618447D01*
X161717D01*
X163020Y619750D01*
Y650376D01*
X163620Y650976D01*
X167020D01*
X167620Y650376D01*
Y619750D01*
X168923Y618447D01*
X173317D01*
X174620Y619750D01*
Y650376D01*
X175220Y650976D01*
X178620D01*
X179220Y650376D01*
Y619750D01*
X180523Y618447D01*
X184917D01*
X186220Y619750D01*
Y650376D01*
X186820Y650976D01*
X190220D01*
X190820Y650376D01*
Y619750D01*
X192123Y618447D01*
X196517D01*
X197820Y619750D01*
Y650376D01*
X198420Y650976D01*
X201820D01*
X202420Y650376D01*
Y619750D01*
X203723Y618447D01*
X208117D01*
X209420Y619750D01*
Y650376D01*
X210020Y650976D01*
X213420D01*
X214020Y650376D01*
Y619750D01*
X215323Y618447D01*
X219717D01*
X221020Y619750D01*
Y650376D01*
X221620Y650976D01*
X225020D01*
X225620Y650376D01*
Y619750D01*
X226923Y618447D01*
X231317D01*
X232620Y619750D01*
Y650376D01*
X233220Y650976D01*
X254539D01*
X255908Y649607D01*
G01X59058Y665355D02*
X60426Y666724D01*
X93644D01*
X94947Y668026D01*
Y681872D01*
X95547Y682472D01*
X98337D01*
X98937Y681872D01*
Y669230D01*
X100240Y667928D01*
X103634D01*
X104937Y669230D01*
Y681872D01*
X105537Y682472D01*
X107937D01*
X108537Y681872D01*
Y669230D01*
X109840Y667928D01*
X113234D01*
X114537Y669230D01*
Y681872D01*
X115137Y682472D01*
X117537D01*
X118137Y681872D01*
Y669230D01*
X119440Y667928D01*
X122834D01*
X124137Y669230D01*
Y681872D01*
X124737Y682472D01*
X127137D01*
X127737Y681872D01*
Y669230D01*
X129040Y667928D01*
X132434D01*
X133737Y669230D01*
Y681872D01*
X134337Y682472D01*
X136737D01*
X137337Y681872D01*
Y669230D01*
X138640Y667928D01*
X142034D01*
X143337Y669230D01*
Y681872D01*
X143937Y682472D01*
X146337D01*
X146937Y681872D01*
Y669230D01*
X148240Y667928D01*
X151634D01*
X152937Y669230D01*
Y681872D01*
X153537Y682472D01*
X155937D01*
X156537Y681872D01*
Y669230D01*
X157840Y667928D01*
X161234D01*
X162537Y669230D01*
Y681872D01*
X163137Y682472D01*
X165537D01*
X166137Y681872D01*
Y669230D01*
X167440Y667928D01*
X170834D01*
X172137Y669230D01*
Y681872D01*
X172737Y682472D01*
X175137D01*
X175737Y681872D01*
Y669230D01*
X177040Y667928D01*
X180434D01*
X181737Y669230D01*
Y681872D01*
X182337Y682472D01*
X184737D01*
X185337Y681872D01*
Y669230D01*
X186640Y667928D01*
X190034D01*
X191337Y669230D01*
Y681872D01*
X191937Y682472D01*
X194337D01*
X194937Y681872D01*
Y669230D01*
X196240Y667928D01*
X199634D01*
X200937Y669230D01*
Y681872D01*
X201537Y682472D01*
X203937D01*
X204537Y681872D01*
Y669230D01*
X205840Y667928D01*
X209234D01*
X210537Y669230D01*
Y681872D01*
X211137Y682472D01*
X213537D01*
X214137Y681872D01*
Y669230D01*
X215440Y667928D01*
X218834D01*
X220137Y669230D01*
Y681872D01*
X220737Y682472D01*
X223137D01*
X223737Y681872D01*
Y669230D01*
X225040Y667928D01*
X228434D01*
X229737Y669230D01*
Y681872D01*
X230337Y682472D01*
X254539D01*
X255908Y681103D01*
G01X59058Y669292D02*
X60426Y667924D01*
X93147D01*
X93747Y668524D01*
Y682369D01*
X95050Y683672D01*
X98834D01*
X100137Y682369D01*
Y669728D01*
X100737Y669128D01*
X103137D01*
X103737Y669728D01*
Y682369D01*
X105040Y683672D01*
X108434D01*
X109737Y682369D01*
Y669728D01*
X110337Y669128D01*
X112737D01*
X113337Y669728D01*
Y682369D01*
X114640Y683672D01*
X118034D01*
X119337Y682369D01*
Y669728D01*
X119937Y669128D01*
X122337D01*
X122937Y669728D01*
Y682369D01*
X124240Y683672D01*
X127634D01*
X128937Y682369D01*
Y669728D01*
X129537Y669128D01*
X131937D01*
X132537Y669728D01*
Y682369D01*
X133840Y683672D01*
X137234D01*
X138537Y682369D01*
Y669728D01*
X139137Y669128D01*
X141537D01*
X142137Y669728D01*
Y682369D01*
X143440Y683672D01*
X146834D01*
X148137Y682369D01*
Y669728D01*
X148737Y669128D01*
X151137D01*
X151737Y669728D01*
Y682369D01*
X153040Y683672D01*
X156434D01*
X157737Y682369D01*
Y669728D01*
X158337Y669128D01*
X160737D01*
X161337Y669728D01*
Y682369D01*
X162640Y683672D01*
X166034D01*
X167337Y682369D01*
Y669728D01*
X167937Y669128D01*
X170337D01*
X170937Y669728D01*
Y682369D01*
X172240Y683672D01*
X175634D01*
X176937Y682369D01*
Y669728D01*
X177537Y669128D01*
X179937D01*
X180537Y669728D01*
Y682369D01*
X181840Y683672D01*
X185234D01*
X186537Y682369D01*
Y669728D01*
X187137Y669128D01*
X189537D01*
X190137Y669728D01*
Y682369D01*
X191440Y683672D01*
X194834D01*
X196137Y682369D01*
Y669728D01*
X196737Y669128D01*
X199137D01*
X199737Y669728D01*
Y682369D01*
X201040Y683672D01*
X204434D01*
X205737Y682369D01*
Y669728D01*
X206337Y669128D01*
X208737D01*
X209337Y669728D01*
Y682369D01*
X210640Y683672D01*
X214034D01*
X215337Y682369D01*
Y669728D01*
X215937Y669128D01*
X218337D01*
X218937Y669728D01*
Y682369D01*
X220240Y683672D01*
X223634D01*
X224937Y682369D01*
Y669728D01*
X225537Y669128D01*
X227937D01*
X228537Y669728D01*
Y682369D01*
X229840Y683672D01*
X254539D01*
X255908Y685040D01*
G01X255905Y1015752D02*
X254536Y1014384D01*
X60423D01*
X59054Y1015752D01*
G01X255905Y1011815D02*
X254536Y1013184D01*
X60423D01*
X59054Y1011815D01*
G01Y1027563D02*
X60423Y1028932D01*
X254536D01*
X255905Y1027563D01*
G01X59054Y1031500D02*
X60423Y1030132D01*
X254536D01*
X255905Y1031500D01*
G01Y1043311D02*
X254536Y1044680D01*
X60423D01*
X59054Y1043311D01*
G01X255905Y1047248D02*
X254536Y1045880D01*
X60423D01*
X59054Y1047248D01*
G01X59072Y1125966D02*
X57821Y1127216D01*
Y1128065D01*
X58295Y1128538D01*
X252751D01*
X253351Y1127938D01*
Y1127333D01*
X251982Y1125964D01*
G01X59066Y1141710D02*
Y1141709D01*
X60435Y1143078D01*
X254548D01*
X255916Y1141709D01*
Y1141710D01*
G01Y1145646D02*
X254548Y1144278D01*
X60435D01*
X59066Y1145646D01*
G01X255923Y1157462D02*
X257292Y1158831D01*
Y1160247D01*
X256692Y1160847D01*
X62238D01*
X61638Y1160247D01*
Y1158837D01*
X63006Y1157468D01*
G01X259860Y1157462D02*
X258492Y1158831D01*
Y1160744D01*
X257189Y1162047D01*
X61741D01*
X60438Y1160744D01*
Y1158837D01*
X59069Y1157468D01*
G01X59057Y1266930D02*
Y1272798D01*
X60857Y1274598D01*
X254107D01*
X255907Y1272798D01*
Y1266930D01*
G01X59057Y1283466D02*
Y1277598D01*
X60857Y1275798D01*
X254107D01*
X255907Y1277598D01*
Y1283466D01*
G01X59057Y1299214D02*
Y1304688D01*
X60857Y1306488D01*
X254107D01*
X255907Y1304688D01*
Y1299214D01*
G01X59057Y1314962D02*
Y1309488D01*
X60857Y1307688D01*
X254107D01*
X255907Y1309488D01*
Y1314962D01*
G01X59057Y1320710D02*
Y1323310D01*
X60857Y1325110D01*
X254107D01*
X255907Y1323310D01*
Y1320710D01*
G01X59057Y1330710D02*
Y1328110D01*
X60857Y1326310D01*
X254107D01*
X255907Y1328110D01*
Y1330710D01*
G01Y1342521D02*
X254539Y1343889D01*
X60425D01*
X59057Y1342521D01*
G01X255907Y1346458D02*
X254539Y1345089D01*
X60425D01*
X59057Y1346458D01*
G01X255907Y1360237D02*
X254802D01*
X254418Y1360622D01*
X60546D01*
X60161Y1360237D01*
X59057D01*
G01X255907Y1362206D02*
X254802D01*
X254418Y1361822D01*
X60546D01*
X60161Y1362206D01*
X59057D01*
G01X255907Y1377954D02*
X59057D01*
G01X255907Y1376773D02*
X59057D01*
G01X59089Y1625799D02*
X59055Y1625832D01*
Y1628741D01*
G01Y1629922D02*
X255906D01*
G01D02*
X59055D01*
G01Y1644686D02*
Y1642643D01*
X59054Y1642642D01*
Y1641886D01*
X59054Y1641885D01*
G01X59055Y1645670D02*
X255906D01*
G01X255908Y531497D02*
X254539Y532865D01*
X236833D01*
X232738Y536960D01*
Y543595D01*
X232138Y544195D01*
X78309D01*
X77006Y545498D01*
Y548892D01*
X78309Y550195D01*
X232138D01*
X232738Y550795D01*
Y553195D01*
X232138Y553795D01*
X78309D01*
X77006Y555098D01*
Y558492D01*
X78309Y559795D01*
X232138D01*
X232738Y560395D01*
Y562795D01*
X232138Y563395D01*
X78309D01*
X77006Y564698D01*
Y568092D01*
X78309Y569395D01*
X232138D01*
X232738Y569995D01*
Y572395D01*
X232138Y572995D01*
X78309D01*
X77006Y574298D01*
Y577692D01*
X78309Y578995D01*
X232138D01*
X232738Y579595D01*
Y581995D01*
X232138Y582595D01*
X78309D01*
X77006Y583898D01*
Y587292D01*
X78309Y588595D01*
X232138D01*
X232738Y589195D01*
Y591595D01*
X232138Y592195D01*
X78309D01*
X77006Y593498D01*
Y596892D01*
X78309Y598195D01*
X232138D01*
X232738Y598795D01*
Y600837D01*
X236833Y604932D01*
X254539D01*
X255908Y606300D01*
G01Y535434D02*
X254539Y534065D01*
X237330D01*
X233938Y537458D01*
Y544092D01*
X232635Y545395D01*
X78806D01*
X78206Y545995D01*
Y548395D01*
X78806Y548995D01*
X232635D01*
X233938Y550298D01*
Y553692D01*
X232635Y554995D01*
X78806D01*
X78206Y555595D01*
Y557995D01*
X78806Y558595D01*
X232635D01*
X233938Y559898D01*
Y563292D01*
X232635Y564595D01*
X78806D01*
X78206Y565195D01*
Y567595D01*
X78806Y568195D01*
X232635D01*
X233938Y569498D01*
Y572892D01*
X232635Y574195D01*
X78806D01*
X78206Y574795D01*
Y577195D01*
X78806Y577795D01*
X232635D01*
X233938Y579098D01*
Y582492D01*
X232635Y583795D01*
X78806D01*
X78206Y584395D01*
Y586795D01*
X78806Y587395D01*
X232635D01*
X233938Y588698D01*
Y592092D01*
X232635Y593395D01*
X78806D01*
X78206Y593995D01*
Y596395D01*
X78806Y596995D01*
X232635D01*
X233938Y598298D01*
Y600339D01*
X237330Y603732D01*
X254539D01*
X255908Y602363D01*
G01X157482Y287289D02*
X158963Y288770D01*
X254537D01*
X255906Y287402D01*
G01X157482Y291451D02*
X158963Y289970D01*
X254537D01*
X255906Y291339D01*
G01X157457Y303037D02*
X158938Y304518D01*
X254537D01*
X255906Y303150D01*
G01X157457Y307199D02*
X158938Y305718D01*
X254537D01*
X255906Y307087D01*
G01X157521Y318785D02*
X159002Y320266D01*
X254537D01*
X255906Y318898D01*
G01X157521Y322947D02*
X159002Y321466D01*
X254537D01*
X255906Y322835D01*
G01X255908Y696851D02*
X254539Y698220D01*
X158851D01*
X157483Y696851D01*
G01X255908Y700788D02*
X254539Y699420D01*
X158851D01*
X157483Y700788D01*
G01X255908Y716536D02*
X254539Y715168D01*
X198221D01*
X196853Y716536D01*
G01X255908Y712599D02*
X254539Y713968D01*
X198221D01*
X196853Y712599D01*
G01X216538Y728347D02*
X217906Y729716D01*
X254539D01*
X255908Y728347D01*
G01X216538Y732284D02*
X217906Y730916D01*
X254539D01*
X255908Y732284D01*
G01X236223Y748032D02*
X237591Y746664D01*
X254539D01*
X255908Y748032D01*
G01X236223Y744095D02*
X237591Y745464D01*
X254539D01*
X255908Y744095D01*
G01X255906Y1628741D02*
Y1625735D01*
X255934Y1625707D01*
G01X255911Y1641885D02*
X255911Y1641954D01*
X255906Y1641959D01*
Y1644686D01*
G01X255919Y1641877D02*
X255911Y1641885D01*
G01X492140Y1125964D02*
X490772Y1127332D01*
Y1128435D01*
X489469Y1129738D01*
X294018D01*
X292712Y1128432D01*
Y1127322D01*
X291355Y1125966D01*
G01X295285Y66926D02*
X296685D01*
X297866Y68107D01*
X489555D01*
X490736Y66926D01*
X492136D01*
G01Y70863D02*
X490736D01*
X489580Y69707D01*
X297841D01*
X296685Y70863D01*
X295285D01*
G01X295280Y397638D02*
X296649Y399006D01*
X350398D01*
G01X413390D02*
X490762D01*
X492131Y397638D01*
G01Y401575D02*
X490762Y400206D01*
X413390D01*
G01X350398D02*
X296649D01*
X295280Y401575D01*
G01Y413386D02*
X296649Y414754D01*
X346461D01*
G01X393705D02*
X490762D01*
X492131Y413386D01*
G01X295280Y417323D02*
X296649Y415954D01*
X346461D01*
G01X393705D02*
X490762D01*
X492131Y417323D01*
G01X295280Y429134D02*
X296649Y430502D01*
X362209D01*
G01X393705D02*
X490762D01*
X492131Y429134D01*
G01X295280Y433071D02*
X296649Y431702D01*
X362209D01*
G01X393705D02*
X490762D01*
X492131Y433071D01*
G01Y444882D02*
X490762Y446250D01*
X393705D01*
G01X377957D02*
X296649D01*
X295280Y444882D01*
G01X492131Y448819D02*
X490762Y447450D01*
X393705D01*
G01X377957D02*
X296649D01*
X295280Y448819D01*
G01X295278Y618111D02*
X296647Y619480D01*
X326899D01*
X328202Y620782D01*
Y650376D01*
X328802Y650976D01*
X333641D01*
X334241Y650376D01*
Y619750D01*
X335544Y618447D01*
X339938D01*
X341241Y619750D01*
Y650376D01*
X341841Y650976D01*
X345241D01*
X345841Y650376D01*
Y619750D01*
X347144Y618447D01*
X351538D01*
X352841Y619750D01*
Y650376D01*
X353441Y650976D01*
X356841D01*
X357441Y650376D01*
Y619750D01*
X358744Y618447D01*
X363138D01*
X364441Y619750D01*
Y650376D01*
X365041Y650976D01*
X368441D01*
X369041Y650376D01*
Y619750D01*
X370344Y618447D01*
X374738D01*
X376041Y619750D01*
Y650376D01*
X376641Y650976D01*
X380041D01*
X380641Y650376D01*
Y619750D01*
X381944Y618447D01*
X386338D01*
X387641Y619750D01*
Y650376D01*
X388241Y650976D01*
X391641D01*
X392241Y650376D01*
Y619750D01*
X393544Y618447D01*
X397938D01*
X399241Y619750D01*
Y650376D01*
X399841Y650976D01*
X403241D01*
X403841Y650376D01*
Y619750D01*
X405144Y618447D01*
X409538D01*
X410841Y619750D01*
Y650376D01*
X411441Y650976D01*
X414841D01*
X415441Y650376D01*
Y619750D01*
X416744Y618447D01*
X421138D01*
X422441Y619750D01*
Y650376D01*
X423041Y650976D01*
X426441D01*
X427041Y650376D01*
Y619750D01*
X428344Y618447D01*
X432738D01*
X434041Y619750D01*
Y650376D01*
X434641Y650976D01*
X438041D01*
X438641Y650376D01*
Y619750D01*
X439944Y618447D01*
X444338D01*
X445641Y619750D01*
Y650376D01*
X446241Y650976D01*
X449641D01*
X450241Y650376D01*
Y619750D01*
X451544Y618447D01*
X455938D01*
X457241Y619750D01*
Y650376D01*
X457841Y650976D01*
X461241D01*
X461841Y650376D01*
Y619750D01*
X463144Y618447D01*
X467538D01*
X468841Y619750D01*
Y650376D01*
X469441Y650976D01*
X490760D01*
X492129Y649607D01*
G01X295278Y622048D02*
X296647Y620680D01*
X326402D01*
X327002Y621280D01*
Y650873D01*
X328305Y652176D01*
X334138D01*
X335441Y650873D01*
Y620247D01*
X336041Y619647D01*
X339441D01*
X340041Y620247D01*
Y650873D01*
X341344Y652176D01*
X345738D01*
X347041Y650873D01*
Y620247D01*
X347641Y619647D01*
X351041D01*
X351641Y620247D01*
Y650873D01*
X352944Y652176D01*
X357338D01*
X358641Y650873D01*
Y620247D01*
X359241Y619647D01*
X362641D01*
X363241Y620247D01*
Y650873D01*
X364544Y652176D01*
X368938D01*
X370241Y650873D01*
Y620247D01*
X370841Y619647D01*
X374241D01*
X374841Y620247D01*
Y650873D01*
X376144Y652176D01*
X380538D01*
X381841Y650873D01*
Y620247D01*
X382441Y619647D01*
X385841D01*
X386441Y620247D01*
Y650873D01*
X387744Y652176D01*
X392138D01*
X393441Y650873D01*
Y620247D01*
X394041Y619647D01*
X397441D01*
X398041Y620247D01*
Y650873D01*
X399344Y652176D01*
X403738D01*
X405041Y650873D01*
Y620247D01*
X405641Y619647D01*
X409041D01*
X409641Y620247D01*
Y650873D01*
X410944Y652176D01*
X415338D01*
X416641Y650873D01*
Y620247D01*
X417241Y619647D01*
X420641D01*
X421241Y620247D01*
Y650873D01*
X422544Y652176D01*
X426938D01*
X428241Y650873D01*
Y620247D01*
X428841Y619647D01*
X432241D01*
X432841Y620247D01*
Y650873D01*
X434144Y652176D01*
X438538D01*
X439841Y650873D01*
Y620247D01*
X440441Y619647D01*
X443841D01*
X444441Y620247D01*
Y650873D01*
X445744Y652176D01*
X450138D01*
X451441Y650873D01*
Y620247D01*
X452041Y619647D01*
X455441D01*
X456041Y620247D01*
Y650873D01*
X457344Y652176D01*
X461738D01*
X463041Y650873D01*
Y620247D01*
X463641Y619647D01*
X467041D01*
X467641Y620247D01*
Y650873D01*
X468944Y652176D01*
X490760D01*
X492129Y653544D01*
G01X295278Y665355D02*
X296647Y666724D01*
X329865D01*
X331168Y668026D01*
Y681872D01*
X331768Y682472D01*
X334557D01*
X335157Y681872D01*
Y669230D01*
X336461Y667928D01*
X339855D01*
X341157Y669230D01*
Y681872D01*
X341757Y682472D01*
X344157D01*
X344757Y681872D01*
Y669230D01*
X346061Y667928D01*
X349455D01*
X350757Y669230D01*
Y681872D01*
X351357Y682472D01*
X353757D01*
X354357Y681872D01*
Y669230D01*
X355661Y667928D01*
X359055D01*
X360357Y669230D01*
Y681872D01*
X360957Y682472D01*
X363357D01*
X363957Y681872D01*
Y669230D01*
X365261Y667928D01*
X368655D01*
X369957Y669230D01*
Y681872D01*
X370557Y682472D01*
X372957D01*
X373557Y681872D01*
Y669230D01*
X374861Y667928D01*
X378255D01*
X379557Y669230D01*
Y681872D01*
X380157Y682472D01*
X382557D01*
X383157Y681872D01*
Y669230D01*
X384461Y667928D01*
X387855D01*
X389157Y669230D01*
Y681872D01*
X389757Y682472D01*
X392157D01*
X392757Y681872D01*
Y669230D01*
X394061Y667928D01*
X397455D01*
X398757Y669230D01*
Y681872D01*
X399357Y682472D01*
X401757D01*
X402357Y681872D01*
Y669230D01*
X403661Y667928D01*
X407055D01*
X408357Y669230D01*
Y681872D01*
X408957Y682472D01*
X411357D01*
X411957Y681872D01*
Y669230D01*
X413261Y667928D01*
X416655D01*
X417957Y669230D01*
Y681872D01*
X418557Y682472D01*
X420957D01*
X421557Y681872D01*
Y669230D01*
X422861Y667928D01*
X426255D01*
X427557Y669230D01*
Y681872D01*
X428157Y682472D01*
X430557D01*
X431157Y681872D01*
Y669230D01*
X432461Y667928D01*
X435855D01*
X437157Y669230D01*
Y681872D01*
X437757Y682472D01*
X440157D01*
X440757Y681872D01*
Y669230D01*
X442061Y667928D01*
X445455D01*
X446757Y669230D01*
Y681872D01*
X447357Y682472D01*
X449757D01*
X450357Y681872D01*
Y669230D01*
X451661Y667928D01*
X455055D01*
X456357Y669230D01*
Y681872D01*
X456957Y682472D01*
X459357D01*
X459957Y681872D01*
Y669230D01*
X461261Y667928D01*
X464655D01*
X465957Y669230D01*
Y681872D01*
X466557Y682472D01*
X490760D01*
X492129Y681103D01*
G01X295278Y669292D02*
X296647Y667924D01*
X329368D01*
X329968Y668524D01*
Y682369D01*
X331271Y683672D01*
X335055D01*
X336357Y682369D01*
Y669728D01*
X336957Y669128D01*
X339357D01*
X339957Y669728D01*
Y682369D01*
X341261Y683672D01*
X344655D01*
X345957Y682369D01*
Y669728D01*
X346557Y669128D01*
X348957D01*
X349557Y669728D01*
Y682369D01*
X350861Y683672D01*
X354255D01*
X355557Y682369D01*
Y669728D01*
X356157Y669128D01*
X358557D01*
X359157Y669728D01*
Y682369D01*
X360461Y683672D01*
X363855D01*
X365157Y682369D01*
Y669728D01*
X365757Y669128D01*
X368157D01*
X368757Y669728D01*
Y682369D01*
X370061Y683672D01*
X373455D01*
X374757Y682369D01*
Y669728D01*
X375357Y669128D01*
X377757D01*
X378357Y669728D01*
Y682369D01*
X379661Y683672D01*
X383055D01*
X384357Y682369D01*
Y669728D01*
X384957Y669128D01*
X387357D01*
X387957Y669728D01*
Y682369D01*
X389261Y683672D01*
X392655D01*
X393957Y682369D01*
Y669728D01*
X394557Y669128D01*
X396957D01*
X397557Y669728D01*
Y682369D01*
X398861Y683672D01*
X402255D01*
X403557Y682369D01*
Y669728D01*
X404157Y669128D01*
X406557D01*
X407157Y669728D01*
Y682369D01*
X408461Y683672D01*
X411855D01*
X413157Y682369D01*
Y669728D01*
X413757Y669128D01*
X416157D01*
X416757Y669728D01*
Y682369D01*
X418061Y683672D01*
X421455D01*
X422757Y682369D01*
Y669728D01*
X423357Y669128D01*
X425757D01*
X426357Y669728D01*
Y682369D01*
X427661Y683672D01*
X431055D01*
X432357Y682369D01*
Y669728D01*
X432957Y669128D01*
X435357D01*
X435957Y669728D01*
Y682369D01*
X437261Y683672D01*
X440655D01*
X441957Y682369D01*
Y669728D01*
X442557Y669128D01*
X444957D01*
X445557Y669728D01*
Y682369D01*
X446861Y683672D01*
X450255D01*
X451557Y682369D01*
Y669728D01*
X452157Y669128D01*
X454557D01*
X455157Y669728D01*
Y682369D01*
X456461Y683672D01*
X459855D01*
X461157Y682369D01*
Y669728D01*
X461757Y669128D01*
X464157D01*
X464757Y669728D01*
Y682369D01*
X466061Y683672D01*
X490760D01*
X492129Y685040D01*
G01X492126Y1011815D02*
X490757Y1013184D01*
X296644D01*
X295275Y1011815D01*
G01X492126Y1015752D02*
X490757Y1014384D01*
X296644D01*
X295275Y1015752D01*
G01Y1027563D02*
X296644Y1028932D01*
X490757D01*
X492126Y1027563D01*
G01X295275Y1031500D02*
X296644Y1030132D01*
X490757D01*
X492126Y1031500D01*
G01Y1043311D02*
X490757Y1044680D01*
X296644D01*
X295275Y1043311D01*
G01X492126Y1047248D02*
X490757Y1045880D01*
X296644D01*
X295275Y1047248D01*
G01X295292Y1125966D02*
X294042Y1127216D01*
Y1128065D01*
X294516Y1128538D01*
X488972D01*
X489572Y1127938D01*
Y1127333D01*
X488203Y1125964D01*
G01X295287Y1141710D02*
Y1141709D01*
X296655Y1143078D01*
X490769D01*
X492137Y1141709D01*
Y1141710D01*
G01Y1145646D02*
X490769Y1144278D01*
X296655D01*
X295287Y1145646D01*
G01X496081Y1157462D02*
X494712Y1158831D01*
Y1160744D01*
X493410Y1162047D01*
X297961D01*
X296659Y1160744D01*
Y1158837D01*
X295290Y1157468D01*
G01X492144Y1157462D02*
X493512Y1158831D01*
Y1160247D01*
X492912Y1160847D01*
X298459D01*
X297859Y1160247D01*
Y1158837D01*
X299227Y1157468D01*
G01X295278Y1266930D02*
Y1272798D01*
X297078Y1274598D01*
X490328D01*
X492128Y1272798D01*
Y1266930D01*
G01X295278Y1283466D02*
Y1277598D01*
X297078Y1275798D01*
X490328D01*
X492128Y1277598D01*
Y1283466D01*
G01X295278Y1299214D02*
Y1304688D01*
X297078Y1306488D01*
X490328D01*
X492128Y1304688D01*
Y1299214D01*
G01X295278Y1314962D02*
Y1309488D01*
X297078Y1307688D01*
X490328D01*
X492128Y1309488D01*
Y1314962D01*
G01X295278Y1320710D02*
Y1323310D01*
X297078Y1325110D01*
X490328D01*
X492128Y1323310D01*
Y1320710D01*
G01X295278Y1330710D02*
Y1328110D01*
X297078Y1326310D01*
X490328D01*
X492128Y1328110D01*
Y1330710D01*
G01Y1342521D02*
X490759Y1343889D01*
X296646D01*
X295278Y1342521D01*
G01X492128Y1346458D02*
X490759Y1345089D01*
X296646D01*
X295278Y1346458D01*
G01X492128Y1360237D02*
X491023D01*
X490639Y1360622D01*
X296766D01*
X296382Y1360237D01*
X295278D01*
G01X492128Y1362206D02*
X491023D01*
X490639Y1361822D01*
X296766D01*
X296382Y1362206D01*
X295278D01*
G01X492128Y1377954D02*
X295278D01*
G01X492128Y1376773D02*
X295278D01*
G01X295280Y1625708D02*
X295276Y1625711D01*
Y1628741D01*
G01X492127Y1629922D02*
X295276D01*
G01Y1644686D02*
Y1641775D01*
X295280Y1641771D01*
G01X295276Y1645670D02*
X492127D01*
G01X492129Y535434D02*
X490760Y534065D01*
X473551D01*
X470159Y537458D01*
Y544092D01*
X468856Y545395D01*
X315027D01*
X314427Y545995D01*
Y548395D01*
X315027Y548995D01*
X468856D01*
X470159Y550298D01*
Y553692D01*
X468856Y554995D01*
X315027D01*
X314427Y555595D01*
Y557995D01*
X315027Y558595D01*
X468856D01*
X470159Y559898D01*
Y563292D01*
X468856Y564595D01*
X315027D01*
X314427Y565195D01*
Y567595D01*
X315027Y568195D01*
X468856D01*
X470159Y569498D01*
Y572892D01*
X468856Y574195D01*
X315027D01*
X314427Y574795D01*
Y577195D01*
X315027Y577795D01*
X468856D01*
X470159Y579098D01*
Y582492D01*
X468856Y583795D01*
X315027D01*
X314427Y584395D01*
Y586795D01*
X315027Y587395D01*
X468856D01*
X470159Y588698D01*
Y592092D01*
X468856Y593395D01*
X315027D01*
X314427Y593995D01*
Y596395D01*
X315027Y596995D01*
X468856D01*
X470159Y598298D01*
Y600339D01*
X473551Y603732D01*
X490760D01*
X492129Y602363D01*
G01Y531497D02*
X490760Y532865D01*
X473054D01*
X468959Y536960D01*
Y543595D01*
X468359Y544195D01*
X314530D01*
X313227Y545498D01*
Y548892D01*
X314530Y550195D01*
X468359D01*
X468959Y550795D01*
Y553195D01*
X468359Y553795D01*
X314530D01*
X313227Y555098D01*
Y558492D01*
X314530Y559795D01*
X468359D01*
X468959Y560395D01*
Y562795D01*
X468359Y563395D01*
X314530D01*
X313227Y564698D01*
Y568092D01*
X314530Y569395D01*
X468359D01*
X468959Y569995D01*
Y572395D01*
X468359Y572995D01*
X314530D01*
X313227Y574298D01*
Y577692D01*
X314530Y578995D01*
X468359D01*
X468959Y579595D01*
Y581995D01*
X468359Y582595D01*
X314530D01*
X313227Y583898D01*
Y587292D01*
X314530Y588595D01*
X468359D01*
X468959Y589195D01*
Y591595D01*
X468359Y592195D01*
X314530D01*
X313227Y593498D01*
Y596892D01*
X314530Y598195D01*
X468359D01*
X468959Y598795D01*
Y600837D01*
X473054Y604932D01*
X490760D01*
X492129Y606300D01*
G01X393703Y287289D02*
X395183Y288770D01*
X490758D01*
X492126Y287402D01*
G01X393703Y291451D02*
X395183Y289970D01*
X490758D01*
X492126Y291339D01*
G01X393678Y303037D02*
X395159Y304518D01*
X490758D01*
X492126Y303150D01*
G01X393678Y307199D02*
X395159Y305718D01*
X490758D01*
X492126Y307087D01*
G01X393742Y318785D02*
X395223Y320266D01*
X490758D01*
X492126Y318898D01*
G01X393742Y322947D02*
X395223Y321466D01*
X490758D01*
X492126Y322835D01*
G01X492129Y696851D02*
X490760Y698220D01*
X395072D01*
X393704Y696851D01*
G01X492129Y700788D02*
X490760Y699420D01*
X395072D01*
X393704Y700788D01*
G01X492129Y712599D02*
X490760Y713968D01*
X434442D01*
X433074Y712599D01*
G01X492129Y716536D02*
X490760Y715168D01*
X434442D01*
X433074Y716536D01*
G01X452759Y728347D02*
X454127Y729716D01*
X490760D01*
X492129Y728347D01*
G01X452759Y732284D02*
X454127Y730916D01*
X490760D01*
X492129Y732284D01*
G01X472444Y744095D02*
X473812Y745464D01*
X490760D01*
X492129Y744095D01*
G01X472444Y748032D02*
X473812Y746664D01*
X490760D01*
X492129Y748032D01*
G01X492127Y1628741D02*
Y1625912D01*
X492194Y1625845D01*
Y1625841D01*
G01X492148Y1641864D02*
X492127Y1641885D01*
Y1644686D01*
G01X492175Y1641837D02*
X492148Y1641864D01*
G01X728360Y1125964D02*
X726992Y1127332D01*
Y1128435D01*
X725689Y1129738D01*
X530239D01*
X528932Y1128432D01*
Y1127322D01*
X527576Y1125966D01*
G01X531506Y66926D02*
X532906D01*
X534087Y68107D01*
X725775D01*
X726956Y66926D01*
X728356D01*
G01Y70863D02*
X726956D01*
X725800Y69707D01*
X534062D01*
X532906Y70863D01*
X531506D01*
G01X531501Y397638D02*
X532869Y399006D01*
X586619D01*
G01X649611D02*
X726982D01*
X728351Y397638D01*
G01Y401575D02*
X726982Y400206D01*
X649611D01*
G01X586619D02*
X532869D01*
X531501Y401575D01*
G01Y413386D02*
X532869Y414754D01*
X582682D01*
G01X629926D02*
X726982D01*
X728351Y413386D01*
G01X531501Y417323D02*
X532869Y415954D01*
X582682D01*
G01X629926D02*
X726982D01*
X728351Y417323D01*
G01X531501Y429134D02*
X532869Y430502D01*
X598430D01*
G01X629926D02*
X726982D01*
X728351Y429134D01*
G01X531501Y433071D02*
X532869Y431702D01*
X598430D01*
G01X629926D02*
X726982D01*
X728351Y433071D01*
G01Y444882D02*
X726982Y446250D01*
X629926D01*
G01X614178D02*
X532869D01*
X531501Y444882D01*
G01X728351Y448819D02*
X726982Y447450D01*
X629926D01*
G01X614178D02*
X532869D01*
X531501Y448819D01*
G01X531499Y618111D02*
X532867Y619480D01*
X563119D01*
X564422Y620782D01*
Y650376D01*
X565022Y650976D01*
X569861D01*
X570461Y650376D01*
Y619750D01*
X571764Y618447D01*
X576158D01*
X577461Y619750D01*
Y650376D01*
X578061Y650976D01*
X581461D01*
X582061Y650376D01*
Y619750D01*
X583364Y618447D01*
X587758D01*
X589061Y619750D01*
Y650376D01*
X589661Y650976D01*
X593061D01*
X593661Y650376D01*
Y619750D01*
X594964Y618447D01*
X599358D01*
X600661Y619750D01*
Y650376D01*
X601261Y650976D01*
X604661D01*
X605261Y650376D01*
Y619750D01*
X606564Y618447D01*
X610958D01*
X612261Y619750D01*
Y650376D01*
X612861Y650976D01*
X616261D01*
X616861Y650376D01*
Y619750D01*
X618164Y618447D01*
X622558D01*
X623861Y619750D01*
Y650376D01*
X624461Y650976D01*
X627861D01*
X628461Y650376D01*
Y619750D01*
X629764Y618447D01*
X634158D01*
X635461Y619750D01*
Y650376D01*
X636061Y650976D01*
X639461D01*
X640061Y650376D01*
Y619750D01*
X641364Y618447D01*
X645758D01*
X647061Y619750D01*
Y650376D01*
X647661Y650976D01*
X651061D01*
X651661Y650376D01*
Y619750D01*
X652964Y618447D01*
X657358D01*
X658661Y619750D01*
Y650376D01*
X659261Y650976D01*
X662661D01*
X663261Y650376D01*
Y619750D01*
X664564Y618447D01*
X668958D01*
X670261Y619750D01*
Y650376D01*
X670861Y650976D01*
X674261D01*
X674861Y650376D01*
Y619750D01*
X676164Y618447D01*
X680558D01*
X681861Y619750D01*
Y650376D01*
X682461Y650976D01*
X685861D01*
X686461Y650376D01*
Y619750D01*
X687764Y618447D01*
X692158D01*
X693461Y619750D01*
Y650376D01*
X694061Y650976D01*
X697461D01*
X698061Y650376D01*
Y619750D01*
X699364Y618447D01*
X703758D01*
X705061Y619750D01*
Y650376D01*
X705661Y650976D01*
X726981D01*
X728349Y649607D01*
G01X531499Y622048D02*
X532867Y620680D01*
X562622D01*
X563222Y621280D01*
Y650873D01*
X564525Y652176D01*
X570358D01*
X571661Y650873D01*
Y620247D01*
X572261Y619647D01*
X575661D01*
X576261Y620247D01*
Y650873D01*
X577564Y652176D01*
X581958D01*
X583261Y650873D01*
Y620247D01*
X583861Y619647D01*
X587261D01*
X587861Y620247D01*
Y650873D01*
X589164Y652176D01*
X593558D01*
X594861Y650873D01*
Y620247D01*
X595461Y619647D01*
X598861D01*
X599461Y620247D01*
Y650873D01*
X600764Y652176D01*
X605158D01*
X606461Y650873D01*
Y620247D01*
X607061Y619647D01*
X610461D01*
X611061Y620247D01*
Y650873D01*
X612364Y652176D01*
X616758D01*
X618061Y650873D01*
Y620247D01*
X618661Y619647D01*
X622061D01*
X622661Y620247D01*
Y650873D01*
X623964Y652176D01*
X628358D01*
X629661Y650873D01*
Y620247D01*
X630261Y619647D01*
X633661D01*
X634261Y620247D01*
Y650873D01*
X635564Y652176D01*
X639958D01*
X641261Y650873D01*
Y620247D01*
X641861Y619647D01*
X645261D01*
X645861Y620247D01*
Y650873D01*
X647164Y652176D01*
X651558D01*
X652861Y650873D01*
Y620247D01*
X653461Y619647D01*
X656861D01*
X657461Y620247D01*
Y650873D01*
X658764Y652176D01*
X663158D01*
X664461Y650873D01*
Y620247D01*
X665061Y619647D01*
X668461D01*
X669061Y620247D01*
Y650873D01*
X670364Y652176D01*
X674758D01*
X676061Y650873D01*
Y620247D01*
X676661Y619647D01*
X680061D01*
X680661Y620247D01*
Y650873D01*
X681964Y652176D01*
X686358D01*
X687661Y650873D01*
Y620247D01*
X688261Y619647D01*
X691661D01*
X692261Y620247D01*
Y650873D01*
X693564Y652176D01*
X697958D01*
X699261Y650873D01*
Y620247D01*
X699861Y619647D01*
X703261D01*
X703861Y620247D01*
Y650873D01*
X705164Y652176D01*
X726981D01*
X728349Y653544D01*
G01X531499Y665355D02*
X532867Y666724D01*
X566085D01*
X567388Y668026D01*
Y681872D01*
X567988Y682472D01*
X570778D01*
X571378Y681872D01*
Y669230D01*
X572681Y667928D01*
X576075D01*
X577378Y669230D01*
Y681872D01*
X577978Y682472D01*
X580378D01*
X580978Y681872D01*
Y669230D01*
X582281Y667928D01*
X585675D01*
X586978Y669230D01*
Y681872D01*
X587578Y682472D01*
X589978D01*
X590578Y681872D01*
Y669230D01*
X591881Y667928D01*
X595275D01*
X596578Y669230D01*
Y681872D01*
X597178Y682472D01*
X599578D01*
X600178Y681872D01*
Y669230D01*
X601481Y667928D01*
X604875D01*
X606178Y669230D01*
Y681872D01*
X606778Y682472D01*
X609178D01*
X609778Y681872D01*
Y669230D01*
X611081Y667928D01*
X614475D01*
X615778Y669230D01*
Y681872D01*
X616378Y682472D01*
X618778D01*
X619378Y681872D01*
Y669230D01*
X620681Y667928D01*
X624075D01*
X625378Y669230D01*
Y681872D01*
X625978Y682472D01*
X628378D01*
X628978Y681872D01*
Y669230D01*
X630281Y667928D01*
X633675D01*
X634978Y669230D01*
Y681872D01*
X635578Y682472D01*
X637978D01*
X638578Y681872D01*
Y669230D01*
X639881Y667928D01*
X643275D01*
X644578Y669230D01*
Y681872D01*
X645178Y682472D01*
X647578D01*
X648178Y681872D01*
Y669230D01*
X649481Y667928D01*
X652875D01*
X654178Y669230D01*
Y681872D01*
X654778Y682472D01*
X657178D01*
X657778Y681872D01*
Y669230D01*
X659081Y667928D01*
X662475D01*
X663778Y669230D01*
Y681872D01*
X664378Y682472D01*
X666778D01*
X667378Y681872D01*
Y669230D01*
X668681Y667928D01*
X672075D01*
X673378Y669230D01*
Y681872D01*
X673978Y682472D01*
X676378D01*
X676978Y681872D01*
Y669230D01*
X678281Y667928D01*
X681675D01*
X682978Y669230D01*
Y681872D01*
X683578Y682472D01*
X685978D01*
X686578Y681872D01*
Y669230D01*
X687881Y667928D01*
X691275D01*
X692578Y669230D01*
Y681872D01*
X693178Y682472D01*
X695578D01*
X696178Y681872D01*
Y669230D01*
X697481Y667928D01*
X700875D01*
X702178Y669230D01*
Y681872D01*
X702778Y682472D01*
X726981D01*
X728349Y681103D01*
G01X531499Y669292D02*
X532867Y667924D01*
X565588D01*
X566188Y668524D01*
Y682369D01*
X567491Y683672D01*
X571275D01*
X572578Y682369D01*
Y669728D01*
X573178Y669128D01*
X575578D01*
X576178Y669728D01*
Y682369D01*
X577481Y683672D01*
X580875D01*
X582178Y682369D01*
Y669728D01*
X582778Y669128D01*
X585178D01*
X585778Y669728D01*
Y682369D01*
X587081Y683672D01*
X590475D01*
X591778Y682369D01*
Y669728D01*
X592378Y669128D01*
X594778D01*
X595378Y669728D01*
Y682369D01*
X596681Y683672D01*
X600075D01*
X601378Y682369D01*
Y669728D01*
X601978Y669128D01*
X604378D01*
X604978Y669728D01*
Y682369D01*
X606281Y683672D01*
X609675D01*
X610978Y682369D01*
Y669728D01*
X611578Y669128D01*
X613978D01*
X614578Y669728D01*
Y682369D01*
X615881Y683672D01*
X619275D01*
X620578Y682369D01*
Y669728D01*
X621178Y669128D01*
X623578D01*
X624178Y669728D01*
Y682369D01*
X625481Y683672D01*
X628875D01*
X630178Y682369D01*
Y669728D01*
X630778Y669128D01*
X633178D01*
X633778Y669728D01*
Y682369D01*
X635081Y683672D01*
X638475D01*
X639778Y682369D01*
Y669728D01*
X640378Y669128D01*
X642778D01*
X643378Y669728D01*
Y682369D01*
X644681Y683672D01*
X648075D01*
X649378Y682369D01*
Y669728D01*
X649978Y669128D01*
X652378D01*
X652978Y669728D01*
Y682369D01*
X654281Y683672D01*
X657675D01*
X658978Y682369D01*
Y669728D01*
X659578Y669128D01*
X661978D01*
X662578Y669728D01*
Y682369D01*
X663881Y683672D01*
X667275D01*
X668578Y682369D01*
Y669728D01*
X669178Y669128D01*
X671578D01*
X672178Y669728D01*
Y682369D01*
X673481Y683672D01*
X676875D01*
X678178Y682369D01*
Y669728D01*
X678778Y669128D01*
X681178D01*
X681778Y669728D01*
Y682369D01*
X683081Y683672D01*
X686475D01*
X687778Y682369D01*
Y669728D01*
X688378Y669128D01*
X690778D01*
X691378Y669728D01*
Y682369D01*
X692681Y683672D01*
X696075D01*
X697378Y682369D01*
Y669728D01*
X697978Y669128D01*
X700378D01*
X700978Y669728D01*
Y682369D01*
X702281Y683672D01*
X726981D01*
X728349Y685040D01*
G01X728346Y1011815D02*
X726977Y1013184D01*
X532864D01*
X531496Y1011815D01*
G01X728346Y1015752D02*
X726977Y1014384D01*
X532864D01*
X531496Y1015752D01*
G01Y1027563D02*
X532864Y1028932D01*
X726977D01*
X728346Y1027563D01*
G01X531496Y1031500D02*
X532864Y1030132D01*
X726977D01*
X728346Y1031500D01*
G01Y1043311D02*
X726977Y1044680D01*
X532864D01*
X531496Y1043311D01*
G01X728346Y1047248D02*
X726977Y1045880D01*
X532864D01*
X531496Y1047248D01*
G01X531513Y1125966D02*
X530262Y1127216D01*
Y1128065D01*
X530736Y1128538D01*
X725192D01*
X725792Y1127938D01*
Y1127333D01*
X724424Y1125964D01*
G01X531507Y1141710D02*
Y1141709D01*
X532876Y1143078D01*
X726989D01*
X728358Y1141709D01*
Y1141710D01*
G01Y1145646D02*
X726989Y1144278D01*
X532876D01*
X531507Y1145646D01*
G01X732301Y1157462D02*
X730933Y1158831D01*
Y1160744D01*
X729630Y1162047D01*
X534182D01*
X532879Y1160744D01*
Y1158837D01*
X531510Y1157468D01*
G01X728364Y1157462D02*
X729733Y1158831D01*
Y1160247D01*
X729133Y1160847D01*
X534679D01*
X534079Y1160247D01*
Y1158837D01*
X535448Y1157468D01*
G01X531498Y1266930D02*
Y1272798D01*
X533298Y1274598D01*
X726548D01*
X728348Y1272798D01*
Y1266930D01*
G01X531498Y1283466D02*
Y1277598D01*
X533298Y1275798D01*
X726548D01*
X728348Y1277598D01*
Y1283466D01*
G01X531498Y1299214D02*
Y1304688D01*
X533298Y1306488D01*
X726548D01*
X728348Y1304688D01*
Y1299214D01*
G01X531498Y1314962D02*
Y1309488D01*
X533298Y1307688D01*
X726548D01*
X728348Y1309488D01*
Y1314962D01*
G01X531498Y1320710D02*
Y1323310D01*
X533298Y1325110D01*
X726548D01*
X728348Y1323310D01*
Y1320710D01*
G01X531498Y1330710D02*
Y1328110D01*
X533298Y1326310D01*
X726548D01*
X728348Y1328110D01*
Y1330710D01*
G01Y1342521D02*
X726980Y1343889D01*
X532866D01*
X531498Y1342521D01*
G01X728348Y1346458D02*
X726980Y1345089D01*
X532866D01*
X531498Y1346458D01*
G01X728348Y1360237D02*
X727244D01*
X726859Y1360622D01*
X532987D01*
X532603Y1360237D01*
X531498D01*
G01X728348Y1362206D02*
X727244D01*
X726859Y1361822D01*
X532987D01*
X532603Y1362206D01*
X531498D01*
G01X728348Y1377954D02*
X531498D01*
G01X728348Y1376773D02*
X531498D01*
G01X531542Y1625840D02*
X531540Y1625842D01*
Y1625960D01*
X531497Y1626004D01*
Y1628741D01*
G01X728347Y1629922D02*
X531497D01*
G01Y1644686D02*
Y1642042D01*
X531528Y1642011D01*
Y1641886D01*
X531529Y1641885D01*
G01X531497Y1645670D02*
X728347D01*
G01X728349Y535434D02*
X726981Y534065D01*
X709771D01*
X706379Y537458D01*
Y544092D01*
X705076Y545395D01*
X551247D01*
X550647Y545995D01*
Y548395D01*
X551247Y548995D01*
X705076D01*
X706379Y550298D01*
Y553692D01*
X705076Y554995D01*
X551247D01*
X550647Y555595D01*
Y557995D01*
X551247Y558595D01*
X705076D01*
X706379Y559898D01*
Y563292D01*
X705076Y564595D01*
X551247D01*
X550647Y565195D01*
Y567595D01*
X551247Y568195D01*
X705076D01*
X706379Y569498D01*
Y572892D01*
X705076Y574195D01*
X551247D01*
X550647Y574795D01*
Y577195D01*
X551247Y577795D01*
X705076D01*
X706379Y579098D01*
Y582492D01*
X705076Y583795D01*
X551247D01*
X550647Y584395D01*
Y586795D01*
X551247Y587395D01*
X705076D01*
X706379Y588698D01*
Y592092D01*
X705076Y593395D01*
X551247D01*
X550647Y593995D01*
Y596395D01*
X551247Y596995D01*
X705076D01*
X706379Y598298D01*
Y600339D01*
X709771Y603732D01*
X726981D01*
X728349Y602363D01*
G01Y531497D02*
X726981Y532865D01*
X709274D01*
X705179Y536960D01*
Y543595D01*
X704579Y544195D01*
X550750D01*
X549447Y545498D01*
Y548892D01*
X550750Y550195D01*
X704579D01*
X705179Y550795D01*
Y553195D01*
X704579Y553795D01*
X550750D01*
X549447Y555098D01*
Y558492D01*
X550750Y559795D01*
X704579D01*
X705179Y560395D01*
Y562795D01*
X704579Y563395D01*
X550750D01*
X549447Y564698D01*
Y568092D01*
X550750Y569395D01*
X704579D01*
X705179Y569995D01*
Y572395D01*
X704579Y572995D01*
X550750D01*
X549447Y574298D01*
Y577692D01*
X550750Y578995D01*
X704579D01*
X705179Y579595D01*
Y581995D01*
X704579Y582595D01*
X550750D01*
X549447Y583898D01*
Y587292D01*
X550750Y588595D01*
X704579D01*
X705179Y589195D01*
Y591595D01*
X704579Y592195D01*
X550750D01*
X549447Y593498D01*
Y596892D01*
X550750Y598195D01*
X704579D01*
X705179Y598795D01*
Y600837D01*
X709274Y604932D01*
X726981D01*
X728349Y606300D01*
G01X629923Y287289D02*
X631404Y288770D01*
X726978D01*
X728347Y287402D01*
G01X629923Y291451D02*
X631404Y289970D01*
X726978D01*
X728347Y291339D01*
G01X629898Y303037D02*
X631379Y304518D01*
X726978D01*
X728347Y303150D01*
G01X629898Y307199D02*
X631379Y305718D01*
X726978D01*
X728347Y307087D01*
G01X629962Y318785D02*
X631443Y320266D01*
X726978D01*
X728347Y318898D01*
G01X629962Y322947D02*
X631443Y321466D01*
X726978D01*
X728347Y322835D01*
G01X728349Y696851D02*
X726981Y698220D01*
X631292D01*
X629924Y696851D01*
G01X728349Y700788D02*
X726981Y699420D01*
X631292D01*
X629924Y700788D01*
G01X728349Y712599D02*
X726981Y713968D01*
X670662D01*
X669294Y712599D01*
G01X728349Y716536D02*
X726981Y715168D01*
X670662D01*
X669294Y716536D01*
G01X688979Y728347D02*
X690348Y729716D01*
X726981D01*
X728349Y728347D01*
G01X688979Y732284D02*
X690348Y730916D01*
X726981D01*
X728349Y732284D01*
G01X708664Y744095D02*
X710032Y745464D01*
X726981D01*
X728349Y744095D01*
G01X708664Y748032D02*
X710032Y746664D01*
X726981D01*
X728349Y748032D01*
G01X728347Y1628741D02*
Y1625701D01*
X728386Y1625662D01*
G01X728340Y1641566D02*
X728347Y1641573D01*
G01D02*
Y1644686D01*
G01X728431Y1641573D02*
X728347D01*
G01X753741Y39460D02*
G03I-6000J0D01*
G01X753694Y1661390D02*
G03I-6000J0D01*
G01X964581Y1125964D02*
X963213Y1127332D01*
Y1128435D01*
X961910Y1129738D01*
X766459D01*
X765153Y1128432D01*
Y1127322D01*
X763796Y1125966D01*
G01X767726Y66926D02*
X769126D01*
X770307Y68107D01*
X961996D01*
X963177Y66926D01*
X964577D01*
G01Y70863D02*
X963177D01*
X962021Y69707D01*
X770282D01*
X769126Y70863D01*
X767726D01*
G01X767721Y397638D02*
X769090Y399006D01*
X822839D01*
G01X885831D02*
X963203D01*
X964571Y397638D01*
G01Y401575D02*
X963203Y400206D01*
X885831D01*
G01X822839D02*
X769090D01*
X767721Y401575D01*
G01Y413386D02*
X769090Y414754D01*
X818902D01*
G01X866146D02*
X963203D01*
X964571Y413386D01*
G01X767721Y417323D02*
X769090Y415954D01*
X818902D01*
G01X866146D02*
X963203D01*
X964571Y417323D01*
G01X767721Y429134D02*
X769090Y430502D01*
X834650D01*
G01X866146D02*
X963203D01*
X964571Y429134D01*
G01X767721Y433071D02*
X769090Y431702D01*
X834650D01*
G01X866146D02*
X963203D01*
X964571Y433071D01*
G01Y444882D02*
X963203Y446250D01*
X866146D01*
G01X850398D02*
X769090D01*
X767721Y444882D01*
G01X964571Y448819D02*
X963203Y447450D01*
X866146D01*
G01X850398D02*
X769090D01*
X767721Y448819D01*
G01X767719Y618111D02*
X769088Y619480D01*
X799340D01*
X800643Y620782D01*
Y650376D01*
X801243Y650976D01*
X806082D01*
X806682Y650376D01*
Y619750D01*
X807984Y618447D01*
X812378D01*
X813682Y619750D01*
Y650376D01*
X814282Y650976D01*
X817682D01*
X818282Y650376D01*
Y619750D01*
X819584Y618447D01*
X823978D01*
X825282Y619750D01*
Y650376D01*
X825882Y650976D01*
X829282D01*
X829882Y650376D01*
Y619750D01*
X831184Y618447D01*
X835579D01*
X836882Y619750D01*
Y650376D01*
X837482Y650976D01*
X840882D01*
X841482Y650376D01*
Y619750D01*
X842784Y618447D01*
X847178D01*
X848482Y619750D01*
Y650376D01*
X849082Y650976D01*
X852482D01*
X853082Y650376D01*
Y619750D01*
X854384Y618447D01*
X858778D01*
X860082Y619750D01*
Y650376D01*
X860682Y650976D01*
X864082D01*
X864682Y650376D01*
Y619750D01*
X865984Y618447D01*
X870378D01*
X871682Y619750D01*
Y650376D01*
X872282Y650976D01*
X875682D01*
X876282Y650376D01*
Y619750D01*
X877584Y618447D01*
X881978D01*
X883282Y619750D01*
Y650376D01*
X883882Y650976D01*
X887282D01*
X887882Y650376D01*
Y619750D01*
X889184Y618447D01*
X893578D01*
X894882Y619750D01*
Y650376D01*
X895482Y650976D01*
X898882D01*
X899482Y650376D01*
Y619750D01*
X900784Y618447D01*
X905179D01*
X906482Y619750D01*
Y650376D01*
X907082Y650976D01*
X910482D01*
X911082Y650376D01*
Y619750D01*
X912384Y618447D01*
X916778D01*
X918082Y619750D01*
Y650376D01*
X918682Y650976D01*
X922082D01*
X922682Y650376D01*
Y619750D01*
X923984Y618447D01*
X928378D01*
X929682Y619750D01*
Y650376D01*
X930282Y650976D01*
X933682D01*
X934282Y650376D01*
Y619750D01*
X935584Y618447D01*
X939978D01*
X941282Y619750D01*
Y650376D01*
X941882Y650976D01*
X963201D01*
X964570Y649607D01*
G01X767719Y622048D02*
X769088Y620680D01*
X798843D01*
X799443Y621280D01*
Y650873D01*
X800746Y652176D01*
X806578D01*
X807882Y650873D01*
Y620247D01*
X808482Y619647D01*
X811882D01*
X812482Y620247D01*
Y650873D01*
X813784Y652176D01*
X818178D01*
X819482Y650873D01*
Y620247D01*
X820082Y619647D01*
X823482D01*
X824082Y620247D01*
Y650873D01*
X825384Y652176D01*
X829778D01*
X831082Y650873D01*
Y620247D01*
X831682Y619647D01*
X835082D01*
X835682Y620247D01*
Y650873D01*
X836984Y652176D01*
X841379D01*
X842682Y650873D01*
Y620247D01*
X843282Y619647D01*
X846682D01*
X847282Y620247D01*
Y650873D01*
X848584Y652176D01*
X852978D01*
X854282Y650873D01*
Y620247D01*
X854882Y619647D01*
X858282D01*
X858882Y620247D01*
Y650873D01*
X860184Y652176D01*
X864578D01*
X865882Y650873D01*
Y620247D01*
X866482Y619647D01*
X869882D01*
X870482Y620247D01*
Y650873D01*
X871784Y652176D01*
X876178D01*
X877482Y650873D01*
Y620247D01*
X878082Y619647D01*
X881482D01*
X882082Y620247D01*
Y650873D01*
X883384Y652176D01*
X887778D01*
X889082Y650873D01*
Y620247D01*
X889682Y619647D01*
X893082D01*
X893682Y620247D01*
Y650873D01*
X894984Y652176D01*
X899379D01*
X900682Y650873D01*
Y620247D01*
X901282Y619647D01*
X904682D01*
X905282Y620247D01*
Y650873D01*
X906584Y652176D01*
X910978D01*
X912282Y650873D01*
Y620247D01*
X912882Y619647D01*
X916282D01*
X916882Y620247D01*
Y650873D01*
X918184Y652176D01*
X922578D01*
X923882Y650873D01*
Y620247D01*
X924482Y619647D01*
X927882D01*
X928482Y620247D01*
Y650873D01*
X929784Y652176D01*
X934178D01*
X935482Y650873D01*
Y620247D01*
X936082Y619647D01*
X939482D01*
X940082Y620247D01*
Y650873D01*
X941384Y652176D01*
X963201D01*
X964570Y653544D01*
G01X767719Y665355D02*
X769088Y666724D01*
X802306D01*
X803608Y668026D01*
Y681872D01*
X804208Y682472D01*
X806998D01*
X807598Y681872D01*
Y669230D01*
X808901Y667928D01*
X812295D01*
X813598Y669230D01*
Y681872D01*
X814198Y682472D01*
X816598D01*
X817198Y681872D01*
Y669230D01*
X818501Y667928D01*
X821895D01*
X823198Y669230D01*
Y681872D01*
X823798Y682472D01*
X826198D01*
X826798Y681872D01*
Y669230D01*
X828101Y667928D01*
X831496D01*
X832798Y669230D01*
Y681872D01*
X833398Y682472D01*
X835798D01*
X836398Y681872D01*
Y669230D01*
X837701Y667928D01*
X841096D01*
X842398Y669230D01*
Y681872D01*
X842998Y682472D01*
X845398D01*
X845998Y681872D01*
Y669230D01*
X847301Y667928D01*
X850696D01*
X851998Y669230D01*
Y681872D01*
X852598Y682472D01*
X854998D01*
X855598Y681872D01*
Y669230D01*
X856901Y667928D01*
X860296D01*
X861598Y669230D01*
Y681872D01*
X862198Y682472D01*
X864598D01*
X865198Y681872D01*
Y669230D01*
X866501Y667928D01*
X869896D01*
X871198Y669230D01*
Y681872D01*
X871798Y682472D01*
X874198D01*
X874798Y681872D01*
Y669230D01*
X876101Y667928D01*
X879496D01*
X880798Y669230D01*
Y681872D01*
X881398Y682472D01*
X883798D01*
X884398Y681872D01*
Y669230D01*
X885701Y667928D01*
X889096D01*
X890398Y669230D01*
Y681872D01*
X890998Y682472D01*
X893398D01*
X893998Y681872D01*
Y669230D01*
X895301Y667928D01*
X898696D01*
X899998Y669230D01*
Y681872D01*
X900598Y682472D01*
X902998D01*
X903598Y681872D01*
Y669230D01*
X904901Y667928D01*
X908296D01*
X909598Y669230D01*
Y681872D01*
X910198Y682472D01*
X912598D01*
X913198Y681872D01*
Y669230D01*
X914501Y667928D01*
X917896D01*
X919198Y669230D01*
Y681872D01*
X919798Y682472D01*
X922198D01*
X922798Y681872D01*
Y669230D01*
X924101Y667928D01*
X927496D01*
X928798Y669230D01*
Y681872D01*
X929398Y682472D01*
X931798D01*
X932398Y681872D01*
Y669230D01*
X933701Y667928D01*
X937096D01*
X938398Y669230D01*
Y681872D01*
X938998Y682472D01*
X963201D01*
X964570Y681103D01*
G01X767719Y669292D02*
X769088Y667924D01*
X801809D01*
X802408Y668524D01*
Y682369D01*
X803712Y683672D01*
X807495D01*
X808798Y682369D01*
Y669728D01*
X809398Y669128D01*
X811798D01*
X812398Y669728D01*
Y682369D01*
X813701Y683672D01*
X817095D01*
X818398Y682369D01*
Y669728D01*
X818998Y669128D01*
X821398D01*
X821998Y669728D01*
Y682369D01*
X823301Y683672D01*
X826695D01*
X827998Y682369D01*
Y669728D01*
X828598Y669128D01*
X830998D01*
X831598Y669728D01*
Y682369D01*
X832901Y683672D01*
X836296D01*
X837598Y682369D01*
Y669728D01*
X838198Y669128D01*
X840598D01*
X841198Y669728D01*
Y682369D01*
X842501Y683672D01*
X845896D01*
X847198Y682369D01*
Y669728D01*
X847798Y669128D01*
X850198D01*
X850798Y669728D01*
Y682369D01*
X852101Y683672D01*
X855496D01*
X856798Y682369D01*
Y669728D01*
X857398Y669128D01*
X859798D01*
X860398Y669728D01*
Y682369D01*
X861701Y683672D01*
X865096D01*
X866398Y682369D01*
Y669728D01*
X866998Y669128D01*
X869398D01*
X869998Y669728D01*
Y682369D01*
X871301Y683672D01*
X874696D01*
X875998Y682369D01*
Y669728D01*
X876598Y669128D01*
X878998D01*
X879598Y669728D01*
Y682369D01*
X880901Y683672D01*
X884296D01*
X885598Y682369D01*
Y669728D01*
X886198Y669128D01*
X888598D01*
X889198Y669728D01*
Y682369D01*
X890501Y683672D01*
X893896D01*
X895198Y682369D01*
Y669728D01*
X895798Y669128D01*
X898198D01*
X898798Y669728D01*
Y682369D01*
X900101Y683672D01*
X903496D01*
X904798Y682369D01*
Y669728D01*
X905398Y669128D01*
X907798D01*
X908398Y669728D01*
Y682369D01*
X909701Y683672D01*
X913096D01*
X914398Y682369D01*
Y669728D01*
X914998Y669128D01*
X917398D01*
X917998Y669728D01*
Y682369D01*
X919301Y683672D01*
X922696D01*
X923998Y682369D01*
Y669728D01*
X924598Y669128D01*
X926998D01*
X927598Y669728D01*
Y682369D01*
X928901Y683672D01*
X932296D01*
X933598Y682369D01*
Y669728D01*
X934198Y669128D01*
X936598D01*
X937198Y669728D01*
Y682369D01*
X938501Y683672D01*
X963201D01*
X964570Y685040D01*
G01X964566Y1011815D02*
X963198Y1013184D01*
X769084D01*
X767716Y1011815D01*
G01X964566Y1015752D02*
X963198Y1014384D01*
X769084D01*
X767716Y1015752D01*
G01Y1027563D02*
X769084Y1028932D01*
X963198D01*
X964566Y1027563D01*
G01X767716Y1031500D02*
X769084Y1030132D01*
X963198D01*
X964566Y1031500D01*
G01Y1043311D02*
X963198Y1044680D01*
X769084D01*
X767716Y1043311D01*
G01X964566Y1047248D02*
X963198Y1045880D01*
X769084D01*
X767716Y1047248D01*
G01X767733Y1125966D02*
X766483Y1127216D01*
Y1128065D01*
X766956Y1128538D01*
X961413D01*
X962013Y1127938D01*
Y1127333D01*
X960644Y1125964D01*
G01X767728Y1141710D02*
Y1141709D01*
X769096Y1143078D01*
X963210D01*
X964578Y1141709D01*
Y1141710D01*
G01Y1145646D02*
X963210Y1144278D01*
X769096D01*
X767728Y1145646D01*
G01X968522Y1157462D02*
X967153Y1158831D01*
Y1160744D01*
X965851Y1162047D01*
X770402D01*
X769099Y1160744D01*
Y1158837D01*
X767731Y1157468D01*
G01X964585Y1157462D02*
X965953Y1158831D01*
Y1160247D01*
X965353Y1160847D01*
X770899D01*
X770299Y1160247D01*
Y1158837D01*
X771668Y1157468D01*
G01X767718Y1266930D02*
Y1272798D01*
X769518Y1274598D01*
X962769D01*
X964569Y1272798D01*
Y1266930D01*
G01X767718Y1283466D02*
Y1277598D01*
X769518Y1275798D01*
X962769D01*
X964569Y1277598D01*
Y1283466D01*
G01X767718Y1299214D02*
Y1304688D01*
X769518Y1306488D01*
X962769D01*
X964569Y1304688D01*
Y1299214D01*
G01X767718Y1314962D02*
Y1309488D01*
X769518Y1307688D01*
X962769D01*
X964569Y1309488D01*
Y1314962D01*
G01X767718Y1320710D02*
Y1323310D01*
X769518Y1325110D01*
X962769D01*
X964569Y1323310D01*
Y1320710D01*
G01X767718Y1330710D02*
Y1328110D01*
X769518Y1326310D01*
X962769D01*
X964569Y1328110D01*
Y1330710D01*
G01Y1342521D02*
X963200Y1343889D01*
X769087D01*
X767718Y1342521D01*
G01X964569Y1346458D02*
X963200Y1345089D01*
X769087D01*
X767718Y1346458D01*
G01X964569Y1360237D02*
X963464D01*
X963080Y1360622D01*
X769207D01*
X768823Y1360237D01*
X767718D01*
G01X964569Y1362206D02*
X963464D01*
X963080Y1361822D01*
X769207D01*
X768823Y1362206D01*
X767718D01*
G01X964569Y1377954D02*
X767718D01*
G01X964569Y1376773D02*
X767718D01*
G01X767686Y1625433D02*
X767717Y1625464D01*
Y1628741D01*
G01X964567Y1629922D02*
X767717D01*
G01Y1644686D02*
Y1641535D01*
X767755Y1641497D01*
G01X767717Y1645670D02*
X964567D01*
G01X964570Y535434D02*
X963201Y534065D01*
X945992D01*
X942599Y537458D01*
Y544092D01*
X941297Y545395D01*
X787468D01*
X786868Y545995D01*
Y548395D01*
X787468Y548995D01*
X941297D01*
X942599Y550298D01*
Y553692D01*
X941297Y554995D01*
X787468D01*
X786868Y555595D01*
Y557995D01*
X787468Y558595D01*
X941297D01*
X942599Y559898D01*
Y563292D01*
X941297Y564595D01*
X787468D01*
X786868Y565195D01*
Y567595D01*
X787468Y568195D01*
X941297D01*
X942599Y569498D01*
Y572892D01*
X941297Y574195D01*
X787468D01*
X786868Y574795D01*
Y577195D01*
X787468Y577795D01*
X941297D01*
X942599Y579098D01*
Y582492D01*
X941297Y583795D01*
X787468D01*
X786868Y584395D01*
Y586795D01*
X787468Y587395D01*
X941297D01*
X942599Y588698D01*
Y592092D01*
X941297Y593395D01*
X787468D01*
X786868Y593995D01*
Y596395D01*
X787468Y596995D01*
X941297D01*
X942599Y598298D01*
Y600339D01*
X945992Y603732D01*
X963201D01*
X964570Y602363D01*
G01Y531497D02*
X963201Y532865D01*
X945494D01*
X941399Y536960D01*
Y543595D01*
X940799Y544195D01*
X786970D01*
X785668Y545498D01*
Y548892D01*
X786970Y550195D01*
X940799D01*
X941399Y550795D01*
Y553195D01*
X940799Y553795D01*
X786970D01*
X785668Y555098D01*
Y558492D01*
X786970Y559795D01*
X940799D01*
X941399Y560395D01*
Y562795D01*
X940799Y563395D01*
X786970D01*
X785668Y564698D01*
Y568092D01*
X786970Y569395D01*
X940799D01*
X941399Y569995D01*
Y572395D01*
X940799Y572995D01*
X786970D01*
X785668Y574298D01*
Y577692D01*
X786970Y578995D01*
X940799D01*
X941399Y579595D01*
Y581995D01*
X940799Y582595D01*
X786970D01*
X785668Y583898D01*
Y587292D01*
X786970Y588595D01*
X940799D01*
X941399Y589195D01*
Y591595D01*
X940799Y592195D01*
X786970D01*
X785668Y593498D01*
Y596892D01*
X786970Y598195D01*
X940799D01*
X941399Y598795D01*
Y600837D01*
X945494Y604932D01*
X963201D01*
X964570Y606300D01*
G01X866143Y287289D02*
X867624Y288770D01*
X963199D01*
X964567Y287402D01*
G01X866143Y291451D02*
X867624Y289970D01*
X963199D01*
X964567Y291339D01*
G01X866119Y303037D02*
X867599Y304518D01*
X963199D01*
X964567Y303150D01*
G01X866119Y307199D02*
X867599Y305718D01*
X963199D01*
X964567Y307087D01*
G01X866183Y318785D02*
X867664Y320266D01*
X963199D01*
X964567Y318898D01*
G01X866183Y322947D02*
X867664Y321466D01*
X963199D01*
X964567Y322835D01*
G01X964570Y696851D02*
X963201Y698220D01*
X867513D01*
X866144Y696851D01*
G01X964570Y700788D02*
X963201Y699420D01*
X867513D01*
X866144Y700788D01*
G01X964570Y712599D02*
X963201Y713968D01*
X906883D01*
X905514Y712599D01*
G01X964570Y716536D02*
X963201Y715168D01*
X906883D01*
X905514Y716536D01*
G01X925199Y728347D02*
X926568Y729716D01*
X963201D01*
X964570Y728347D01*
G01X925199Y732284D02*
X926568Y730916D01*
X963201D01*
X964570Y732284D01*
G01X944884Y744095D02*
X946253Y745464D01*
X963201D01*
X964570Y744095D01*
G01X944884Y748032D02*
X946253Y746664D01*
X963201D01*
X964570Y748032D01*
G01X964567Y1628741D02*
Y1625695D01*
X964577Y1625685D01*
G01X964554Y1641497D02*
X964567Y1641511D01*
G01D02*
Y1644686D01*
G01X964604Y1641474D02*
X964567Y1641511D01*
G01X1200801Y1125964D02*
X1199433Y1127332D01*
Y1128435D01*
X1198130Y1129738D01*
X1002680D01*
X1001373Y1128432D01*
Y1127322D01*
X1000017Y1125966D01*
G01X1003947Y66926D02*
X1005347D01*
X1006528Y68107D01*
X1198216D01*
X1199397Y66926D01*
X1200797D01*
G01Y70863D02*
X1199397D01*
X1198241Y69707D01*
X1006502D01*
X1005347Y70863D01*
X1003947D01*
G01X1003941Y397638D02*
X1005310Y399006D01*
X1059060D01*
G01X1122052D02*
X1199423D01*
X1200792Y397638D01*
G01Y401575D02*
X1199423Y400206D01*
X1122052D01*
G01X1059060D02*
X1005310D01*
X1003941Y401575D01*
G01Y413386D02*
X1005310Y414754D01*
X1055123D01*
G01X1102367D02*
X1199423D01*
X1200792Y413386D01*
G01X1003941Y417323D02*
X1005310Y415954D01*
X1055123D01*
G01X1102367D02*
X1199423D01*
X1200792Y417323D01*
G01X1003941Y429134D02*
X1005310Y430502D01*
X1070871D01*
G01X1102367D02*
X1199423D01*
X1200792Y429134D01*
G01X1003941Y433071D02*
X1005310Y431702D01*
X1070871D01*
G01X1102367D02*
X1199423D01*
X1200792Y433071D01*
G01Y444882D02*
X1199423Y446250D01*
X1102367D01*
G01X1086619D02*
X1005310D01*
X1003941Y444882D01*
G01X1200792Y448819D02*
X1199423Y447450D01*
X1102367D01*
G01X1086619D02*
X1005310D01*
X1003941Y448819D01*
G01X1003940Y618111D02*
X1005308Y619480D01*
X1035560D01*
X1036863Y620782D01*
Y650376D01*
X1037463Y650976D01*
X1042302D01*
X1042902Y650376D01*
Y619750D01*
X1044205Y618447D01*
X1048599D01*
X1049902Y619750D01*
Y650376D01*
X1050502Y650976D01*
X1053902D01*
X1054502Y650376D01*
Y619750D01*
X1055805Y618447D01*
X1060199D01*
X1061502Y619750D01*
Y650376D01*
X1062102Y650976D01*
X1065502D01*
X1066102Y650376D01*
Y619750D01*
X1067405Y618447D01*
X1071799D01*
X1073102Y619750D01*
Y650376D01*
X1073702Y650976D01*
X1077102D01*
X1077702Y650376D01*
Y619750D01*
X1079005Y618447D01*
X1083399D01*
X1084702Y619750D01*
Y650376D01*
X1085302Y650976D01*
X1088702D01*
X1089302Y650376D01*
Y619750D01*
X1090605Y618447D01*
X1094999D01*
X1096302Y619750D01*
Y650376D01*
X1096902Y650976D01*
X1100302D01*
X1100902Y650376D01*
Y619750D01*
X1102205Y618447D01*
X1106599D01*
X1107902Y619750D01*
Y650376D01*
X1108502Y650976D01*
X1111902D01*
X1112502Y650376D01*
Y619750D01*
X1113805Y618447D01*
X1118199D01*
X1119502Y619750D01*
Y650376D01*
X1120102Y650976D01*
X1123502D01*
X1124102Y650376D01*
Y619750D01*
X1125405Y618447D01*
X1129799D01*
X1131102Y619750D01*
Y650376D01*
X1131702Y650976D01*
X1135102D01*
X1135702Y650376D01*
Y619750D01*
X1137005Y618447D01*
X1141399D01*
X1142702Y619750D01*
Y650376D01*
X1143302Y650976D01*
X1146702D01*
X1147302Y650376D01*
Y619750D01*
X1148605Y618447D01*
X1152999D01*
X1154302Y619750D01*
Y650376D01*
X1154902Y650976D01*
X1158302D01*
X1158902Y650376D01*
Y619750D01*
X1160205Y618447D01*
X1164599D01*
X1165902Y619750D01*
Y650376D01*
X1166502Y650976D01*
X1169902D01*
X1170502Y650376D01*
Y619750D01*
X1171805Y618447D01*
X1176199D01*
X1177502Y619750D01*
Y650376D01*
X1178102Y650976D01*
X1199421D01*
X1200790Y649607D01*
G01X1003940Y622048D02*
X1005308Y620680D01*
X1035063D01*
X1035663Y621280D01*
Y650873D01*
X1036966Y652176D01*
X1042799D01*
X1044102Y650873D01*
Y620247D01*
X1044702Y619647D01*
X1048102D01*
X1048702Y620247D01*
Y650873D01*
X1050005Y652176D01*
X1054399D01*
X1055702Y650873D01*
Y620247D01*
X1056302Y619647D01*
X1059702D01*
X1060302Y620247D01*
Y650873D01*
X1061605Y652176D01*
X1065999D01*
X1067302Y650873D01*
Y620247D01*
X1067902Y619647D01*
X1071302D01*
X1071902Y620247D01*
Y650873D01*
X1073205Y652176D01*
X1077599D01*
X1078902Y650873D01*
Y620247D01*
X1079502Y619647D01*
X1082902D01*
X1083502Y620247D01*
Y650873D01*
X1084805Y652176D01*
X1089199D01*
X1090502Y650873D01*
Y620247D01*
X1091102Y619647D01*
X1094502D01*
X1095102Y620247D01*
Y650873D01*
X1096405Y652176D01*
X1100799D01*
X1102102Y650873D01*
Y620247D01*
X1102702Y619647D01*
X1106102D01*
X1106702Y620247D01*
Y650873D01*
X1108005Y652176D01*
X1112399D01*
X1113702Y650873D01*
Y620247D01*
X1114302Y619647D01*
X1117702D01*
X1118302Y620247D01*
Y650873D01*
X1119605Y652176D01*
X1123999D01*
X1125302Y650873D01*
Y620247D01*
X1125902Y619647D01*
X1129302D01*
X1129902Y620247D01*
Y650873D01*
X1131205Y652176D01*
X1135599D01*
X1136902Y650873D01*
Y620247D01*
X1137502Y619647D01*
X1140902D01*
X1141502Y620247D01*
Y650873D01*
X1142805Y652176D01*
X1147199D01*
X1148502Y650873D01*
Y620247D01*
X1149102Y619647D01*
X1152502D01*
X1153102Y620247D01*
Y650873D01*
X1154405Y652176D01*
X1158799D01*
X1160102Y650873D01*
Y620247D01*
X1160702Y619647D01*
X1164102D01*
X1164702Y620247D01*
Y650873D01*
X1166005Y652176D01*
X1170399D01*
X1171702Y650873D01*
Y620247D01*
X1172302Y619647D01*
X1175702D01*
X1176302Y620247D01*
Y650873D01*
X1177605Y652176D01*
X1199421D01*
X1200790Y653544D01*
G01X1003940Y665355D02*
X1005308Y666724D01*
X1038526D01*
X1039829Y668026D01*
Y681872D01*
X1040429Y682472D01*
X1043219D01*
X1043819Y681872D01*
Y669230D01*
X1045122Y667928D01*
X1048516D01*
X1049819Y669230D01*
Y681872D01*
X1050419Y682472D01*
X1052819D01*
X1053419Y681872D01*
Y669230D01*
X1054722Y667928D01*
X1058116D01*
X1059419Y669230D01*
Y681872D01*
X1060019Y682472D01*
X1062419D01*
X1063019Y681872D01*
Y669230D01*
X1064322Y667928D01*
X1067716D01*
X1069019Y669230D01*
Y681872D01*
X1069619Y682472D01*
X1072019D01*
X1072619Y681872D01*
Y669230D01*
X1073922Y667928D01*
X1077316D01*
X1078619Y669230D01*
Y681872D01*
X1079219Y682472D01*
X1081619D01*
X1082219Y681872D01*
Y669230D01*
X1083522Y667928D01*
X1086916D01*
X1088219Y669230D01*
Y681872D01*
X1088819Y682472D01*
X1091219D01*
X1091819Y681872D01*
Y669230D01*
X1093122Y667928D01*
X1096516D01*
X1097819Y669230D01*
Y681872D01*
X1098419Y682472D01*
X1100819D01*
X1101419Y681872D01*
Y669230D01*
X1102722Y667928D01*
X1106116D01*
X1107419Y669230D01*
Y681872D01*
X1108019Y682472D01*
X1110419D01*
X1111019Y681872D01*
Y669230D01*
X1112322Y667928D01*
X1115716D01*
X1117019Y669230D01*
Y681872D01*
X1117619Y682472D01*
X1120019D01*
X1120619Y681872D01*
Y669230D01*
X1121922Y667928D01*
X1125316D01*
X1126619Y669230D01*
Y681872D01*
X1127219Y682472D01*
X1129619D01*
X1130219Y681872D01*
Y669230D01*
X1131522Y667928D01*
X1134916D01*
X1136219Y669230D01*
Y681872D01*
X1136819Y682472D01*
X1139219D01*
X1139819Y681872D01*
Y669230D01*
X1141122Y667928D01*
X1144516D01*
X1145819Y669230D01*
Y681872D01*
X1146419Y682472D01*
X1148819D01*
X1149419Y681872D01*
Y669230D01*
X1150722Y667928D01*
X1154116D01*
X1155419Y669230D01*
Y681872D01*
X1156019Y682472D01*
X1158419D01*
X1159019Y681872D01*
Y669230D01*
X1160322Y667928D01*
X1163716D01*
X1165019Y669230D01*
Y681872D01*
X1165619Y682472D01*
X1168019D01*
X1168619Y681872D01*
Y669230D01*
X1169922Y667928D01*
X1173316D01*
X1174619Y669230D01*
Y681872D01*
X1175219Y682472D01*
X1199421D01*
X1200790Y681103D01*
G01X1003940Y669292D02*
X1005308Y667924D01*
X1038029D01*
X1038629Y668524D01*
Y682369D01*
X1039932Y683672D01*
X1043716D01*
X1045019Y682369D01*
Y669728D01*
X1045619Y669128D01*
X1048019D01*
X1048619Y669728D01*
Y682369D01*
X1049922Y683672D01*
X1053316D01*
X1054619Y682369D01*
Y669728D01*
X1055219Y669128D01*
X1057619D01*
X1058219Y669728D01*
Y682369D01*
X1059522Y683672D01*
X1062916D01*
X1064219Y682369D01*
Y669728D01*
X1064819Y669128D01*
X1067219D01*
X1067819Y669728D01*
Y682369D01*
X1069122Y683672D01*
X1072516D01*
X1073819Y682369D01*
Y669728D01*
X1074419Y669128D01*
X1076819D01*
X1077419Y669728D01*
Y682369D01*
X1078722Y683672D01*
X1082116D01*
X1083419Y682369D01*
Y669728D01*
X1084019Y669128D01*
X1086419D01*
X1087019Y669728D01*
Y682369D01*
X1088322Y683672D01*
X1091716D01*
X1093019Y682369D01*
Y669728D01*
X1093619Y669128D01*
X1096019D01*
X1096619Y669728D01*
Y682369D01*
X1097922Y683672D01*
X1101316D01*
X1102619Y682369D01*
Y669728D01*
X1103219Y669128D01*
X1105619D01*
X1106219Y669728D01*
Y682369D01*
X1107522Y683672D01*
X1110916D01*
X1112219Y682369D01*
Y669728D01*
X1112819Y669128D01*
X1115219D01*
X1115819Y669728D01*
Y682369D01*
X1117122Y683672D01*
X1120516D01*
X1121819Y682369D01*
Y669728D01*
X1122419Y669128D01*
X1124819D01*
X1125419Y669728D01*
Y682369D01*
X1126722Y683672D01*
X1130116D01*
X1131419Y682369D01*
Y669728D01*
X1132019Y669128D01*
X1134419D01*
X1135019Y669728D01*
Y682369D01*
X1136322Y683672D01*
X1139716D01*
X1141019Y682369D01*
Y669728D01*
X1141619Y669128D01*
X1144019D01*
X1144619Y669728D01*
Y682369D01*
X1145922Y683672D01*
X1149316D01*
X1150619Y682369D01*
Y669728D01*
X1151219Y669128D01*
X1153619D01*
X1154219Y669728D01*
Y682369D01*
X1155522Y683672D01*
X1158916D01*
X1160219Y682369D01*
Y669728D01*
X1160819Y669128D01*
X1163219D01*
X1163819Y669728D01*
Y682369D01*
X1165122Y683672D01*
X1168516D01*
X1169819Y682369D01*
Y669728D01*
X1170419Y669128D01*
X1172819D01*
X1173419Y669728D01*
Y682369D01*
X1174722Y683672D01*
X1199421D01*
X1200790Y685040D01*
G01X1200787Y1011815D02*
X1199418Y1013184D01*
X1005305D01*
X1003936Y1011815D01*
G01X1200787Y1015752D02*
X1199418Y1014384D01*
X1005305D01*
X1003936Y1015752D01*
G01Y1027563D02*
X1005305Y1028932D01*
X1199418D01*
X1200787Y1027563D01*
G01X1003936Y1031500D02*
X1005305Y1030132D01*
X1199418D01*
X1200787Y1031500D01*
G01Y1043311D02*
X1199418Y1044680D01*
X1005305D01*
X1003936Y1043311D01*
G01X1200787Y1047248D02*
X1199418Y1045880D01*
X1005305D01*
X1003936Y1047248D01*
G01X1003954Y1125966D02*
X1002703Y1127216D01*
Y1128065D01*
X1003177Y1128538D01*
X1197633D01*
X1198233Y1127938D01*
Y1127333D01*
X1196864Y1125964D01*
G01X1003948Y1141710D02*
Y1141709D01*
X1005317Y1143078D01*
X1199430D01*
X1200799Y1141709D01*
Y1141710D01*
G01Y1145646D02*
X1199430Y1144278D01*
X1005317D01*
X1003948Y1145646D01*
G01X1204742Y1157462D02*
X1203374Y1158831D01*
Y1160744D01*
X1202071Y1162047D01*
X1006623D01*
X1005320Y1160744D01*
Y1158837D01*
X1003951Y1157468D01*
G01X1200805Y1157462D02*
X1202174Y1158831D01*
Y1160247D01*
X1201574Y1160847D01*
X1007120D01*
X1006520Y1160247D01*
Y1158837D01*
X1007888Y1157468D01*
G01X1003939Y1266930D02*
Y1272798D01*
X1005739Y1274598D01*
X1198989D01*
X1200789Y1272798D01*
Y1266930D01*
G01X1003939Y1283466D02*
Y1277598D01*
X1005739Y1275798D01*
X1198989D01*
X1200789Y1277598D01*
Y1283466D01*
G01X1003939Y1299214D02*
Y1304688D01*
X1005739Y1306488D01*
X1198989D01*
X1200789Y1304688D01*
Y1299214D01*
G01X1003939Y1314962D02*
Y1309488D01*
X1005739Y1307688D01*
X1198989D01*
X1200789Y1309488D01*
Y1314962D01*
G01X1003939Y1320710D02*
Y1323310D01*
X1005739Y1325110D01*
X1198989D01*
X1200789Y1323310D01*
Y1320710D01*
G01X1003939Y1330710D02*
Y1328110D01*
X1005739Y1326310D01*
X1198989D01*
X1200789Y1328110D01*
Y1330710D01*
G01Y1342521D02*
X1199421Y1343889D01*
X1005307D01*
X1003939Y1342521D01*
G01X1200789Y1346458D02*
X1199421Y1345089D01*
X1005307D01*
X1003939Y1346458D01*
G01X1200789Y1360237D02*
X1199684D01*
X1199300Y1360622D01*
X1005428D01*
X1005043Y1360237D01*
X1003939D01*
G01X1200789Y1362206D02*
X1199684D01*
X1199300Y1361822D01*
X1005428D01*
X1005043Y1362206D01*
X1003939D01*
G01X1200789Y1377954D02*
X1003939D01*
G01X1200789Y1376773D02*
X1003939D01*
G01X1003900Y1625640D02*
X1003938Y1625677D01*
Y1628741D01*
G01X1200788Y1629922D02*
X1003938D01*
G01Y1644686D02*
Y1641741D01*
X1003854Y1641658D01*
G01X1003938Y1645670D02*
X1200788D01*
G01X1200790Y535434D02*
X1199421Y534065D01*
X1182212D01*
X1178820Y537458D01*
Y544092D01*
X1177517Y545395D01*
X1023688D01*
X1023088Y545995D01*
Y548395D01*
X1023688Y548995D01*
X1177517D01*
X1178820Y550298D01*
Y553692D01*
X1177517Y554995D01*
X1023688D01*
X1023088Y555595D01*
Y557995D01*
X1023688Y558595D01*
X1177517D01*
X1178820Y559898D01*
Y563292D01*
X1177517Y564595D01*
X1023688D01*
X1023088Y565195D01*
Y567595D01*
X1023688Y568195D01*
X1177517D01*
X1178820Y569498D01*
Y572892D01*
X1177517Y574195D01*
X1023688D01*
X1023088Y574795D01*
Y577195D01*
X1023688Y577795D01*
X1177517D01*
X1178820Y579098D01*
Y582492D01*
X1177517Y583795D01*
X1023688D01*
X1023088Y584395D01*
Y586795D01*
X1023688Y587395D01*
X1177517D01*
X1178820Y588698D01*
Y592092D01*
X1177517Y593395D01*
X1023688D01*
X1023088Y593995D01*
Y596395D01*
X1023688Y596995D01*
X1177517D01*
X1178820Y598298D01*
Y600339D01*
X1182212Y603732D01*
X1199421D01*
X1200790Y602363D01*
G01Y531497D02*
X1199421Y532865D01*
X1181715D01*
X1177620Y536960D01*
Y543595D01*
X1177020Y544195D01*
X1023191D01*
X1021888Y545498D01*
Y548892D01*
X1023191Y550195D01*
X1177020D01*
X1177620Y550795D01*
Y553195D01*
X1177020Y553795D01*
X1023191D01*
X1021888Y555098D01*
Y558492D01*
X1023191Y559795D01*
X1177020D01*
X1177620Y560395D01*
Y562795D01*
X1177020Y563395D01*
X1023191D01*
X1021888Y564698D01*
Y568092D01*
X1023191Y569395D01*
X1177020D01*
X1177620Y569995D01*
Y572395D01*
X1177020Y572995D01*
X1023191D01*
X1021888Y574298D01*
Y577692D01*
X1023191Y578995D01*
X1177020D01*
X1177620Y579595D01*
Y581995D01*
X1177020Y582595D01*
X1023191D01*
X1021888Y583898D01*
Y587292D01*
X1023191Y588595D01*
X1177020D01*
X1177620Y589195D01*
Y591595D01*
X1177020Y592195D01*
X1023191D01*
X1021888Y593498D01*
Y596892D01*
X1023191Y598195D01*
X1177020D01*
X1177620Y598795D01*
Y600837D01*
X1181715Y604932D01*
X1199421D01*
X1200790Y606300D01*
G01X1102364Y287289D02*
X1103845Y288770D01*
X1199419D01*
X1200788Y287402D01*
G01X1102364Y291451D02*
X1103845Y289970D01*
X1199419D01*
X1200788Y291339D01*
G01X1102339Y303037D02*
X1103820Y304518D01*
X1199419D01*
X1200788Y303150D01*
G01X1102339Y307199D02*
X1103820Y305718D01*
X1199419D01*
X1200788Y307087D01*
G01X1102403Y318785D02*
X1103884Y320266D01*
X1199419D01*
X1200788Y318898D01*
G01X1102403Y322947D02*
X1103884Y321466D01*
X1199419D01*
X1200788Y322835D01*
G01X1200790Y696851D02*
X1199421Y698220D01*
X1103733D01*
X1102365Y696851D01*
G01X1200790Y700788D02*
X1199421Y699420D01*
X1103733D01*
X1102365Y700788D01*
G01X1200790Y712599D02*
X1199421Y713968D01*
X1143103D01*
X1141735Y712599D01*
G01X1200790Y716536D02*
X1199421Y715168D01*
X1143103D01*
X1141735Y716536D01*
G01X1161420Y728347D02*
X1162788Y729716D01*
X1199421D01*
X1200790Y728347D01*
G01X1161420Y732284D02*
X1162788Y730916D01*
X1199421D01*
X1200790Y732284D01*
G01X1181105Y744095D02*
X1182473Y745464D01*
X1199421D01*
X1200790Y744095D01*
G01X1181105Y748032D02*
X1182473Y746664D01*
X1199421D01*
X1200790Y748032D01*
G01X1200788Y1628741D02*
Y1625666D01*
X1200860Y1625594D01*
G01X1200734Y1641474D02*
X1200788Y1641529D01*
G01D02*
Y1644686D01*
G01X1200861Y1641456D02*
X1200788Y1641529D01*
G01X1437022Y1125964D02*
X1435654Y1127332D01*
Y1128435D01*
X1434350Y1129738D01*
X1238900D01*
X1237594Y1128432D01*
Y1127322D01*
X1236237Y1125966D01*
G01X1240167Y66926D02*
X1241567D01*
X1242748Y68107D01*
X1434436D01*
X1435617Y66926D01*
X1437017D01*
G01Y70863D02*
X1435617D01*
X1434462Y69707D01*
X1242723D01*
X1241567Y70863D01*
X1240167D01*
G01X1240162Y397638D02*
X1241530Y399006D01*
X1295280D01*
G01X1358272D02*
X1435644D01*
X1437012Y397638D01*
G01Y401575D02*
X1435644Y400206D01*
X1358272D01*
G01X1295280D02*
X1241530D01*
X1240162Y401575D01*
G01Y413386D02*
X1241530Y414754D01*
X1291343D01*
G01X1338587D02*
X1435644D01*
X1437012Y413386D01*
G01X1240162Y417323D02*
X1241530Y415954D01*
X1291343D01*
G01X1338587D02*
X1435644D01*
X1437012Y417323D01*
G01X1240162Y429134D02*
X1241530Y430502D01*
X1307091D01*
G01X1338587D02*
X1435644D01*
X1437012Y429134D01*
G01X1240162Y433071D02*
X1241530Y431702D01*
X1307091D01*
G01X1338587D02*
X1435644D01*
X1437012Y433071D01*
G01Y444882D02*
X1435644Y446250D01*
X1338587D01*
G01X1322839D02*
X1241530D01*
X1240162Y444882D01*
G01X1437012Y448819D02*
X1435644Y447450D01*
X1338587D01*
G01X1322839D02*
X1241530D01*
X1240162Y448819D01*
G01X1240160Y618111D02*
X1241528Y619480D01*
X1271780D01*
X1273084Y620782D01*
Y650376D01*
X1273684Y650976D01*
X1278522D01*
X1279122Y650376D01*
Y619750D01*
X1280425Y618447D01*
X1284819D01*
X1286122Y619750D01*
Y650376D01*
X1286723Y650976D01*
X1290122D01*
X1290722Y650376D01*
Y619750D01*
X1292025Y618447D01*
X1296419D01*
X1297722Y619750D01*
Y650376D01*
X1298322Y650976D01*
X1301722D01*
X1302322Y650376D01*
Y619750D01*
X1303625Y618447D01*
X1308019D01*
X1309322Y619750D01*
Y650376D01*
X1309922Y650976D01*
X1313323D01*
X1313923Y650376D01*
Y619750D01*
X1315225Y618447D01*
X1319619D01*
X1320922Y619750D01*
Y650376D01*
X1321522Y650976D01*
X1324922D01*
X1325522Y650376D01*
Y619750D01*
X1326825Y618447D01*
X1331219D01*
X1332523Y619750D01*
Y650376D01*
X1333122Y650976D01*
X1336522D01*
X1337122Y650376D01*
Y619750D01*
X1338425Y618447D01*
X1342819D01*
X1344122Y619750D01*
Y650376D01*
X1344723Y650976D01*
X1348122D01*
X1348722Y650376D01*
Y619750D01*
X1350025Y618447D01*
X1354419D01*
X1355722Y619750D01*
Y650376D01*
X1356322Y650976D01*
X1359722D01*
X1360322Y650376D01*
Y619750D01*
X1361625Y618447D01*
X1366019D01*
X1367322Y619750D01*
Y650376D01*
X1367922Y650976D01*
X1371323D01*
X1371922Y650376D01*
Y619750D01*
X1373225Y618447D01*
X1377619D01*
X1378922Y619750D01*
Y650376D01*
X1379522Y650976D01*
X1382922D01*
X1383523Y650376D01*
Y619750D01*
X1384825Y618447D01*
X1389219D01*
X1390523Y619750D01*
Y650376D01*
X1391122Y650976D01*
X1394522D01*
X1395122Y650376D01*
Y619750D01*
X1396425Y618447D01*
X1400819D01*
X1402122Y619750D01*
Y650376D01*
X1402723Y650976D01*
X1406122D01*
X1406722Y650376D01*
Y619750D01*
X1408025Y618447D01*
X1412419D01*
X1413722Y619750D01*
Y650376D01*
X1414322Y650976D01*
X1435642D01*
X1437010Y649607D01*
G01X1240160Y622048D02*
X1241528Y620680D01*
X1271284D01*
X1271883Y621280D01*
Y650873D01*
X1273186Y652176D01*
X1279019D01*
X1280323Y650873D01*
Y620247D01*
X1280923Y619647D01*
X1284322D01*
X1284922Y620247D01*
Y650873D01*
X1286225Y652176D01*
X1290619D01*
X1291922Y650873D01*
Y620247D01*
X1292522Y619647D01*
X1295922D01*
X1296522Y620247D01*
Y650873D01*
X1297825Y652176D01*
X1302219D01*
X1303522Y650873D01*
Y620247D01*
X1304122Y619647D01*
X1307523D01*
X1308122Y620247D01*
Y650873D01*
X1309425Y652176D01*
X1313819D01*
X1315122Y650873D01*
Y620247D01*
X1315722Y619647D01*
X1319122D01*
X1319723Y620247D01*
Y650873D01*
X1321025Y652176D01*
X1325419D01*
X1326722Y650873D01*
Y620247D01*
X1327322Y619647D01*
X1330722D01*
X1331322Y620247D01*
Y650873D01*
X1332625Y652176D01*
X1337019D01*
X1338323Y650873D01*
Y620247D01*
X1338923Y619647D01*
X1342322D01*
X1342922Y620247D01*
Y650873D01*
X1344225Y652176D01*
X1348619D01*
X1349922Y650873D01*
Y620247D01*
X1350522Y619647D01*
X1353922D01*
X1354522Y620247D01*
Y650873D01*
X1355825Y652176D01*
X1360219D01*
X1361522Y650873D01*
Y620247D01*
X1362122Y619647D01*
X1365523D01*
X1366122Y620247D01*
Y650873D01*
X1367425Y652176D01*
X1371819D01*
X1373122Y650873D01*
Y620247D01*
X1373722Y619647D01*
X1377122D01*
X1377723Y620247D01*
Y650873D01*
X1379025Y652176D01*
X1383419D01*
X1384722Y650873D01*
Y620247D01*
X1385322Y619647D01*
X1388722D01*
X1389322Y620247D01*
Y650873D01*
X1390625Y652176D01*
X1395019D01*
X1396323Y650873D01*
Y620247D01*
X1396922Y619647D01*
X1400322D01*
X1400922Y620247D01*
Y650873D01*
X1402225Y652176D01*
X1406619D01*
X1407922Y650873D01*
Y620247D01*
X1408523Y619647D01*
X1411922D01*
X1412522Y620247D01*
Y650873D01*
X1413825Y652176D01*
X1435642D01*
X1437010Y653544D01*
G01X1240160Y665355D02*
X1241528Y666724D01*
X1274746D01*
X1276049Y668026D01*
Y681872D01*
X1276649Y682472D01*
X1279439D01*
X1280039Y681872D01*
Y669230D01*
X1281342Y667928D01*
X1284736D01*
X1286039Y669230D01*
Y681872D01*
X1286639Y682472D01*
X1289039D01*
X1289639Y681872D01*
Y669230D01*
X1290942Y667928D01*
X1294336D01*
X1295639Y669230D01*
Y681872D01*
X1296239Y682472D01*
X1298639D01*
X1299239Y681872D01*
Y669230D01*
X1300542Y667928D01*
X1303936D01*
X1305239Y669230D01*
Y681872D01*
X1305839Y682472D01*
X1308239D01*
X1308839Y681872D01*
Y669230D01*
X1310142Y667928D01*
X1313536D01*
X1314839Y669230D01*
Y681872D01*
X1315439Y682472D01*
X1317839D01*
X1318439Y681872D01*
Y669230D01*
X1319742Y667928D01*
X1323136D01*
X1324439Y669230D01*
Y681872D01*
X1325039Y682472D01*
X1327439D01*
X1328039Y681872D01*
Y669230D01*
X1329342Y667928D01*
X1332736D01*
X1334039Y669230D01*
Y681872D01*
X1334639Y682472D01*
X1337039D01*
X1337639Y681872D01*
Y669230D01*
X1338942Y667928D01*
X1342336D01*
X1343639Y669230D01*
Y681872D01*
X1344239Y682472D01*
X1346639D01*
X1347239Y681872D01*
Y669230D01*
X1348542Y667928D01*
X1351936D01*
X1353239Y669230D01*
Y681872D01*
X1353839Y682472D01*
X1356239D01*
X1356839Y681872D01*
Y669230D01*
X1358142Y667928D01*
X1361536D01*
X1362839Y669230D01*
Y681872D01*
X1363439Y682472D01*
X1365839D01*
X1366439Y681872D01*
Y669230D01*
X1367742Y667928D01*
X1371136D01*
X1372439Y669230D01*
Y681872D01*
X1373039Y682472D01*
X1375439D01*
X1376039Y681872D01*
Y669230D01*
X1377342Y667928D01*
X1380736D01*
X1382039Y669230D01*
Y681872D01*
X1382639Y682472D01*
X1385039D01*
X1385639Y681872D01*
Y669230D01*
X1386942Y667928D01*
X1390336D01*
X1391639Y669230D01*
Y681872D01*
X1392239Y682472D01*
X1394639D01*
X1395239Y681872D01*
Y669230D01*
X1396542Y667928D01*
X1399936D01*
X1401239Y669230D01*
Y681872D01*
X1401839Y682472D01*
X1404239D01*
X1404839Y681872D01*
Y669230D01*
X1406142Y667928D01*
X1409536D01*
X1410839Y669230D01*
Y681872D01*
X1411439Y682472D01*
X1435642D01*
X1437010Y681103D01*
G01X1240160Y669292D02*
X1241528Y667924D01*
X1274249D01*
X1274849Y668524D01*
Y682369D01*
X1276152Y683672D01*
X1279936D01*
X1281239Y682369D01*
Y669728D01*
X1281839Y669128D01*
X1284239D01*
X1284839Y669728D01*
Y682369D01*
X1286142Y683672D01*
X1289536D01*
X1290839Y682369D01*
Y669728D01*
X1291439Y669128D01*
X1293839D01*
X1294439Y669728D01*
Y682369D01*
X1295742Y683672D01*
X1299136D01*
X1300439Y682369D01*
Y669728D01*
X1301039Y669128D01*
X1303439D01*
X1304039Y669728D01*
Y682369D01*
X1305342Y683672D01*
X1308736D01*
X1310039Y682369D01*
Y669728D01*
X1310639Y669128D01*
X1313039D01*
X1313639Y669728D01*
Y682369D01*
X1314942Y683672D01*
X1318336D01*
X1319639Y682369D01*
Y669728D01*
X1320239Y669128D01*
X1322639D01*
X1323239Y669728D01*
Y682369D01*
X1324542Y683672D01*
X1327936D01*
X1329239Y682369D01*
Y669728D01*
X1329839Y669128D01*
X1332239D01*
X1332839Y669728D01*
Y682369D01*
X1334142Y683672D01*
X1337536D01*
X1338839Y682369D01*
Y669728D01*
X1339439Y669128D01*
X1341839D01*
X1342439Y669728D01*
Y682369D01*
X1343742Y683672D01*
X1347136D01*
X1348439Y682369D01*
Y669728D01*
X1349039Y669128D01*
X1351439D01*
X1352039Y669728D01*
Y682369D01*
X1353342Y683672D01*
X1356736D01*
X1358039Y682369D01*
Y669728D01*
X1358639Y669128D01*
X1361039D01*
X1361639Y669728D01*
Y682369D01*
X1362942Y683672D01*
X1366336D01*
X1367639Y682369D01*
Y669728D01*
X1368239Y669128D01*
X1370639D01*
X1371239Y669728D01*
Y682369D01*
X1372542Y683672D01*
X1375936D01*
X1377239Y682369D01*
Y669728D01*
X1377839Y669128D01*
X1380239D01*
X1380839Y669728D01*
Y682369D01*
X1382142Y683672D01*
X1385536D01*
X1386839Y682369D01*
Y669728D01*
X1387439Y669128D01*
X1389839D01*
X1390439Y669728D01*
Y682369D01*
X1391742Y683672D01*
X1395136D01*
X1396439Y682369D01*
Y669728D01*
X1397039Y669128D01*
X1399439D01*
X1400039Y669728D01*
Y682369D01*
X1401342Y683672D01*
X1404736D01*
X1406039Y682369D01*
Y669728D01*
X1406639Y669128D01*
X1409039D01*
X1409639Y669728D01*
Y682369D01*
X1410942Y683672D01*
X1435642D01*
X1437010Y685040D01*
G01X1437007Y1011815D02*
X1435639Y1013184D01*
X1241525D01*
X1240157Y1011815D01*
G01X1437007Y1015752D02*
X1435639Y1014384D01*
X1241525D01*
X1240157Y1015752D01*
G01Y1027563D02*
X1241525Y1028932D01*
X1435639D01*
X1437007Y1027563D01*
G01X1240157Y1031500D02*
X1241525Y1030132D01*
X1435639D01*
X1437007Y1031500D01*
G01Y1043311D02*
X1435639Y1044680D01*
X1241525D01*
X1240157Y1043311D01*
G01X1437007Y1047248D02*
X1435639Y1045880D01*
X1241525D01*
X1240157Y1047248D01*
G01X1240174Y1125966D02*
X1238924Y1127216D01*
Y1128065D01*
X1239397Y1128538D01*
X1433854D01*
X1434454Y1127938D01*
Y1127333D01*
X1433085Y1125964D01*
G01X1240168Y1141710D02*
Y1141709D01*
X1241537Y1143078D01*
X1435650D01*
X1437019Y1141709D01*
Y1141710D01*
G01Y1145646D02*
X1435650Y1144278D01*
X1241537D01*
X1240168Y1145646D01*
G01X1440963Y1157462D02*
X1439594Y1158831D01*
Y1160744D01*
X1438291Y1162047D01*
X1242843D01*
X1241540Y1160744D01*
Y1158837D01*
X1240172Y1157468D01*
G01X1437026Y1157462D02*
X1438394Y1158831D01*
Y1160247D01*
X1437794Y1160847D01*
X1243340D01*
X1242740Y1160247D01*
Y1158837D01*
X1244109Y1157468D01*
G01X1240159Y1266930D02*
Y1272798D01*
X1241959Y1274598D01*
X1435210D01*
X1437010Y1272798D01*
Y1266930D01*
G01X1240159Y1283466D02*
Y1277598D01*
X1241959Y1275798D01*
X1435210D01*
X1437010Y1277598D01*
Y1283466D01*
G01X1240159Y1299214D02*
Y1304688D01*
X1241959Y1306488D01*
X1435210D01*
X1437010Y1304688D01*
Y1299214D01*
G01X1240159Y1314962D02*
Y1309488D01*
X1241959Y1307688D01*
X1435210D01*
X1437010Y1309488D01*
Y1314962D01*
G01X1240159Y1320710D02*
Y1323310D01*
X1241959Y1325110D01*
X1435210D01*
X1437010Y1323310D01*
Y1320710D01*
G01X1240159Y1330710D02*
Y1328110D01*
X1241959Y1326310D01*
X1435210D01*
X1437010Y1328110D01*
Y1330710D01*
G01Y1342521D02*
X1435641Y1343889D01*
X1241528D01*
X1240159Y1342521D01*
G01X1437010Y1346458D02*
X1435641Y1345089D01*
X1241528D01*
X1240159Y1346458D01*
G01X1437010Y1360237D02*
X1435905D01*
X1435520Y1360622D01*
X1241648D01*
X1241264Y1360237D01*
X1240159D01*
G01X1437010Y1362206D02*
X1435905D01*
X1435520Y1361822D01*
X1241648D01*
X1241264Y1362206D01*
X1240159D01*
G01X1437010Y1377954D02*
X1240159D01*
G01X1437010Y1376773D02*
X1240159D01*
G01X1240126Y1625594D02*
X1240158Y1625626D01*
Y1628741D01*
G01X1437008Y1629922D02*
X1240158D01*
G01Y1644686D02*
Y1641347D01*
X1240034Y1641223D01*
G01X1240158Y1645670D02*
X1437008D01*
G01X1437010Y535434D02*
X1435642Y534065D01*
X1418432D01*
X1415040Y537458D01*
Y544092D01*
X1413737Y545395D01*
X1259908D01*
X1259308Y545995D01*
Y548395D01*
X1259908Y548995D01*
X1413737D01*
X1415040Y550298D01*
Y553692D01*
X1413737Y554995D01*
X1259908D01*
X1259308Y555595D01*
Y557995D01*
X1259908Y558595D01*
X1413737D01*
X1415040Y559898D01*
Y563292D01*
X1413737Y564595D01*
X1259908D01*
X1259308Y565195D01*
Y567595D01*
X1259908Y568195D01*
X1413737D01*
X1415040Y569498D01*
Y572892D01*
X1413737Y574195D01*
X1259908D01*
X1259308Y574795D01*
Y577195D01*
X1259908Y577795D01*
X1413737D01*
X1415040Y579098D01*
Y582492D01*
X1413737Y583795D01*
X1259908D01*
X1259308Y584395D01*
Y586795D01*
X1259908Y587395D01*
X1413737D01*
X1415040Y588698D01*
Y592092D01*
X1413737Y593395D01*
X1259908D01*
X1259308Y593995D01*
Y596395D01*
X1259908Y596995D01*
X1413737D01*
X1415040Y598298D01*
Y600339D01*
X1418432Y603732D01*
X1435642D01*
X1437010Y602363D01*
G01Y531497D02*
X1435642Y532865D01*
X1417935D01*
X1413840Y536960D01*
Y543595D01*
X1413240Y544195D01*
X1259411D01*
X1258108Y545498D01*
Y548892D01*
X1259411Y550195D01*
X1413240D01*
X1413840Y550795D01*
Y553195D01*
X1413240Y553795D01*
X1259411D01*
X1258108Y555098D01*
Y558492D01*
X1259411Y559795D01*
X1413240D01*
X1413840Y560395D01*
Y562795D01*
X1413240Y563395D01*
X1259411D01*
X1258108Y564698D01*
Y568092D01*
X1259411Y569395D01*
X1413240D01*
X1413840Y569995D01*
Y572395D01*
X1413240Y572995D01*
X1259411D01*
X1258108Y574298D01*
Y577692D01*
X1259411Y578995D01*
X1413240D01*
X1413840Y579595D01*
Y581995D01*
X1413240Y582595D01*
X1259411D01*
X1258108Y583898D01*
Y587292D01*
X1259411Y588595D01*
X1413240D01*
X1413840Y589195D01*
Y591595D01*
X1413240Y592195D01*
X1259411D01*
X1258108Y593498D01*
Y596892D01*
X1259411Y598195D01*
X1413240D01*
X1413840Y598795D01*
Y600837D01*
X1417935Y604932D01*
X1435642D01*
X1437010Y606300D01*
G01X1437008Y287402D02*
X1435639Y288770D01*
X1340065D01*
G01X1338584Y287289D02*
X1340065Y288770D01*
G01X1437008Y291339D02*
X1435639Y289970D01*
X1340065D01*
G01X1338584Y291451D02*
X1340065Y289970D01*
G01X1338560Y303037D02*
X1340040Y304518D01*
G01X1437008Y303150D02*
X1435639Y304518D01*
X1340040D01*
G01X1437008Y307087D02*
X1435639Y305718D01*
X1340040D01*
G01X1338560Y307199D02*
X1340040Y305718D01*
G01X1437008Y318898D02*
X1435639Y320266D01*
X1340104D01*
G01X1338624Y318785D02*
X1340104Y320266D01*
G01X1437008Y322835D02*
X1435639Y321466D01*
X1340104D01*
G01X1338624Y322947D02*
X1340104Y321466D01*
G01X1437010Y696851D02*
X1435642Y698220D01*
X1339954D01*
X1338585Y696851D01*
G01X1437010Y700788D02*
X1435642Y699420D01*
X1339954D01*
X1338585Y700788D01*
G01X1437010Y712599D02*
X1435642Y713968D01*
X1379324D01*
X1377955Y712599D01*
G01X1437010Y716536D02*
X1435642Y715168D01*
X1379324D01*
X1377955Y716536D01*
G01X1397640Y728347D02*
X1399009Y729716D01*
X1435642D01*
X1437010Y728347D01*
G01X1397640Y732284D02*
X1399009Y730916D01*
X1435642D01*
X1437010Y732284D01*
G01X1417325Y744095D02*
X1418694Y745464D01*
X1435642D01*
X1437010Y744095D01*
G01X1417325Y748032D02*
X1418694Y746664D01*
X1435642D01*
X1437010Y748032D01*
G01X1437008Y1628741D02*
Y1625649D01*
X1437062Y1625594D01*
G01X1437051Y1641555D02*
X1437008Y1641598D01*
Y1644686D01*
G01X1437091Y1641515D02*
X1437051Y1641555D01*
G01X1462811Y39414D02*
G03I-6000J0D01*
G01X1462778Y1661344D02*
G03I-6000J0D01*
X59054Y1043311D03*
Y1047248D03*
Y1090556D03*
Y1094492D03*
X59057Y1392718D03*
Y1393702D03*
X59055Y1644686D03*
Y1645670D03*
X255905Y1043311D03*
Y1047248D03*
Y1090556D03*
Y1094492D03*
X255907Y1392718D03*
Y1393702D03*
X255906Y1644686D03*
Y1645670D03*
X295275Y1043311D03*
Y1047248D03*
Y1090556D03*
Y1094492D03*
X295278Y1392718D03*
Y1393702D03*
X295276Y1644686D03*
Y1645670D03*
X492126Y1043311D03*
Y1047248D03*
Y1090556D03*
Y1094492D03*
X492128Y1392718D03*
Y1393702D03*
X492127Y1645670D03*
Y1644686D03*
X531496Y1043311D03*
Y1047248D03*
Y1090556D03*
Y1094492D03*
X531498Y1392718D03*
Y1393702D03*
X531497Y1644686D03*
Y1645670D03*
X728346Y1043311D03*
Y1047248D03*
Y1090556D03*
Y1094492D03*
X728348Y1392718D03*
Y1393702D03*
X728347Y1645670D03*
Y1644686D03*
X767716Y1043311D03*
Y1047248D03*
Y1090556D03*
Y1094492D03*
X767718Y1392718D03*
Y1393702D03*
X767717Y1644686D03*
Y1645670D03*
X964566Y1043311D03*
Y1047248D03*
Y1090556D03*
Y1094492D03*
X964569Y1392718D03*
Y1393702D03*
X964567Y1645670D03*
Y1644686D03*
X1003936Y1043311D03*
Y1047248D03*
Y1090556D03*
Y1094492D03*
X1003939Y1392718D03*
Y1393702D03*
X1003938Y1644686D03*
Y1645670D03*
X1200787Y1043311D03*
Y1047248D03*
Y1090556D03*
Y1094492D03*
X1200789Y1392718D03*
Y1393702D03*
X1200788Y1645670D03*
Y1644686D03*
X1240157Y1043311D03*
Y1047248D03*
Y1090556D03*
Y1094492D03*
X1240159Y1392718D03*
Y1393702D03*
X1240158Y1644686D03*
Y1645670D03*
X1437007Y1043311D03*
Y1047248D03*
Y1090556D03*
Y1094492D03*
X1437010Y1392718D03*
Y1393702D03*
X1437008Y1645670D03*
Y1644686D03*
G54D27*
G01X59065Y133855D02*
X255915D01*
G01X295285D02*
X492136D01*
G01X531506D02*
X728356D01*
G01X767726D02*
X964577D01*
G01X1003947D02*
X1200797D01*
G01X1240167D02*
X1437017D01*
G54D18*
X153207Y286109D03*
X153127Y292434D03*
X153086Y302020D03*
X153127Y308384D03*
X152961Y317428D03*
X152946Y324013D03*
X157480Y190158D03*
Y194094D03*
Y199606D03*
Y203543D03*
Y257402D03*
Y262598D03*
X157482Y287289D03*
Y291451D03*
X157457Y303037D03*
Y307199D03*
X157521Y318785D03*
Y322947D03*
X157522Y334628D03*
X157480Y338583D03*
X157482Y350418D03*
X157480Y354331D03*
Y366142D03*
Y370079D03*
X255906Y174409D03*
Y178363D03*
Y183858D03*
X255886Y187769D03*
X255881Y241091D03*
X255913Y246850D03*
X389428Y286109D03*
X389348Y292434D03*
X389307Y302020D03*
X389348Y308384D03*
X389181Y317428D03*
X389166Y324013D03*
X393701Y190158D03*
Y194094D03*
Y199606D03*
Y203543D03*
Y257402D03*
Y262598D03*
X393703Y287289D03*
Y291451D03*
X393678Y303037D03*
Y307199D03*
X393742Y318785D03*
Y322947D03*
X393743Y334628D03*
X393701Y338583D03*
X393703Y350418D03*
X393701Y354331D03*
Y366142D03*
Y370079D03*
X492126Y174409D03*
Y178363D03*
Y183858D03*
X492107Y187769D03*
X492102Y241091D03*
X492134Y246850D03*
X625648Y286109D03*
X625568Y292434D03*
X625527Y302020D03*
X625568Y308384D03*
X625402Y317428D03*
X625387Y324013D03*
X629922Y190158D03*
Y194094D03*
Y199606D03*
Y203543D03*
Y257402D03*
Y262598D03*
X629923Y287289D03*
Y291451D03*
X629898Y303037D03*
Y307199D03*
X629962Y318785D03*
Y322947D03*
X629964Y334628D03*
X629922Y338583D03*
X629924Y350418D03*
X629922Y354331D03*
Y366142D03*
Y370079D03*
X728347Y174409D03*
Y178363D03*
Y183858D03*
X728327Y187769D03*
X728322Y241091D03*
X728354Y246850D03*
X861869Y286109D03*
X861788Y292434D03*
X861748Y302020D03*
X861788Y308384D03*
X861622Y317428D03*
X861607Y324013D03*
X866142Y190158D03*
Y194094D03*
Y199606D03*
Y203543D03*
Y257402D03*
Y262598D03*
X866143Y287289D03*
Y291451D03*
X866119Y303037D03*
Y307199D03*
X866183Y318785D03*
Y322947D03*
X866184Y334628D03*
X866142Y338583D03*
X866144Y350418D03*
X866142Y354331D03*
Y366142D03*
Y370079D03*
X964567Y174409D03*
Y178363D03*
Y183858D03*
X964548Y187769D03*
X964543Y241091D03*
X964575Y246850D03*
X1098089Y286109D03*
X1098009Y292434D03*
X1097968Y302020D03*
X1098009Y308384D03*
X1097843Y317428D03*
X1097828Y324013D03*
X1102362Y190158D03*
Y194094D03*
Y199606D03*
Y203543D03*
Y257402D03*
Y262598D03*
X1102364Y287289D03*
Y291451D03*
X1102339Y303037D03*
Y307199D03*
X1102403Y318785D03*
Y322947D03*
X1102404Y334628D03*
X1102362Y338583D03*
X1102364Y350418D03*
X1102362Y354331D03*
Y366142D03*
Y370079D03*
X1200788Y174409D03*
Y178363D03*
Y183858D03*
X1200768Y187769D03*
X1200763Y241091D03*
X1200795Y246850D03*
X1334310Y286109D03*
X1334229Y292434D03*
X1334189Y302020D03*
X1334229Y308384D03*
X1334063Y317428D03*
X1334048Y324013D03*
X1338583Y190158D03*
Y194094D03*
Y199606D03*
Y203543D03*
Y257402D03*
Y262598D03*
X1338584Y287289D03*
Y291451D03*
X1338560Y303037D03*
Y307199D03*
X1338624Y318785D03*
Y322947D03*
X1338625Y334628D03*
X1338583Y338583D03*
X1338585Y350418D03*
X1338583Y354331D03*
Y366142D03*
Y370079D03*
X1437008Y174409D03*
Y178363D03*
Y183858D03*
X1436989Y187769D03*
X1436984Y241091D03*
X1437015Y246850D03*
G54D19*
G01X114178Y399006D02*
X177170D01*
G01Y400206D02*
X176759Y400617D01*
X114589D01*
X114178Y400206D01*
G01X110241Y415954D02*
X110629Y416342D01*
X157096D01*
X157485Y415954D01*
G01X110241Y414754D02*
X157485D01*
G01X125989Y430502D02*
X157485D01*
G01X125989Y431702D02*
X126394Y432108D01*
X157079D01*
X157485Y431702D01*
G01Y446250D02*
X141737D01*
G01X157485Y447450D02*
X157080Y447855D01*
X142141D01*
X141737Y447450D01*
G01X255907Y1392718D02*
X59057D01*
G01X255907Y1393702D02*
X59057D01*
G01X350398Y399006D02*
X413390D01*
G01Y400206D02*
X412980Y400617D01*
X350809D01*
X350398Y400206D01*
G01X346461Y414754D02*
X393705D01*
G01X346461Y415954D02*
X346850Y416342D01*
X393317D01*
X393705Y415954D01*
G01X362209Y430502D02*
X393705D01*
G01X362209Y431702D02*
X362615Y432108D01*
X393300D01*
X393705Y431702D01*
G01Y446250D02*
X377957D01*
G01X393705Y447450D02*
X393301Y447855D01*
X378362D01*
X377957Y447450D01*
G01X492128Y1392718D02*
X295278D01*
G01X492128Y1393702D02*
X295278D01*
G01X586619Y399006D02*
X649611D01*
G01Y400206D02*
X649200Y400617D01*
X587030D01*
X586619Y400206D01*
G01X582682Y414754D02*
X629926D01*
G01X582682Y415954D02*
X583070Y416342D01*
X629538D01*
X629926Y415954D01*
G01X598430Y430502D02*
X629926D01*
G01X598430Y431702D02*
X598836Y432108D01*
X629520D01*
X629926Y431702D01*
G01Y446250D02*
X614178D01*
G01X629926Y447450D02*
X629521Y447855D01*
X614582D01*
X614178Y447450D01*
G01X728348Y1392718D02*
X531498D01*
G01X728348Y1393702D02*
X531498D01*
G01X822839Y399006D02*
X885831D01*
G01Y400206D02*
X885420Y400617D01*
X823250D01*
X822839Y400206D01*
G01X818902Y414754D02*
X866146D01*
G01X818902Y415954D02*
X819290Y416342D01*
X865758D01*
X866146Y415954D01*
G01X834650Y430502D02*
X866146D01*
G01X834650Y431702D02*
X835056Y432108D01*
X865740D01*
X866146Y431702D01*
G01Y446250D02*
X850398D01*
G01X866146Y447450D02*
X865742Y447855D01*
X850803D01*
X850398Y447450D01*
G01X964569Y1392718D02*
X767718D01*
G01X964569Y1393702D02*
X767718D01*
G01X1059060Y399006D02*
X1122052D01*
G01Y400206D02*
X1121641Y400617D01*
X1059471D01*
X1059060Y400206D01*
G01X1055123Y414754D02*
X1102367D01*
G01X1055123Y415954D02*
X1055511Y416342D01*
X1101978D01*
X1102367Y415954D01*
G01X1070871Y430502D02*
X1102367D01*
G01X1070871Y431702D02*
X1071276Y432108D01*
X1101961D01*
X1102367Y431702D01*
G01Y446250D02*
X1086619D01*
G01X1102367Y447450D02*
X1101962Y447855D01*
X1087023D01*
X1086619Y447450D01*
G01X1200789Y1392718D02*
X1003939D01*
G01X1200789Y1393702D02*
X1003939D01*
G01X1295280Y399006D02*
X1358272D01*
G01Y400206D02*
X1357861Y400617D01*
X1295691D01*
X1295280Y400206D01*
G01X1291343Y414754D02*
X1338587D01*
G01X1291343Y415954D02*
X1291731Y416342D01*
X1338199D01*
X1338587Y415954D01*
G01X1307091Y430502D02*
X1338587D01*
G01X1307091Y431702D02*
X1307497Y432108D01*
X1338181D01*
X1338587Y431702D01*
G01Y446250D02*
X1322839D01*
G01X1338587Y447450D02*
X1338182Y447855D01*
X1323244D01*
X1322839Y447450D01*
G01X1437010Y1392718D02*
X1240159D01*
G01X1437010Y1393702D02*
X1240159D01*
M02*
