G04 ================== begin FILE IDENTIFICATION RECORD ==================*
G04 Layout Name:  VGSophi_XNJZ V1.0.brd*
G04 Film Name:    DRILL*
G04 File Format:  Gerber RS274X*
G04 File Origin:  Cadence Allegro 16.6-P004*
G04 Origin Date:  Thu Jul 22 09:50:04 2021*
G04 *
G04 Layer:  MANUFACTURING/NCLEGEND-1-4*
G04 Layer:  MANUFACTURING/NCDRILL_FIGURE*
G04 Layer:  BOARD GEOMETRY/OUTLINE*
G04 Layer:  MANUFACTURING/NCDRILL_LEGEND*
G04 *
G04 Offset:    (0.000 0.000)*
G04 Mirror:    No*
G04 Mode:      Positive*
G04 Rotation:  0*
G04 FullContactRelief:  No*
G04 UndefLineWidth:     5.000*
G04 ================== end FILE IDENTIFICATION RECORD ====================*
%FSLAX25Y25*MOIN*%
%IR0*IPPOS*OFA0.00000B0.00000*MIA0B0*SFA1.00000B1.00000*%
%AMMACRO13*
1,1,.005,.003,0.0*
20,1,.005,.003,0.0,-.003,0.0,0.0*
1,1,.005,-.003,0.0*
1,1,.005,0.0,.003*
20,1,.005,0.0,.003,0.0,-.003,0.0*
1,1,.005,0.0,-.003*
%
%ADD13MACRO13*%
%AMMACRO12*
1,1,.005,.004,.004*
20,1,.005,.004,.004,.004,-.004,0.0*
1,1,.005,.004,-.004*
20,1,.005,.004,-.004,-.004,-.004,0.0*
1,1,.005,-.004,-.004*
20,1,.005,-.004,-.004,-.004,.004,0.0*
1,1,.005,-.004,.004*
20,1,.005,-.004,.004,.004,.004,0.0*
1,1,.005,.004,.004*
%
%ADD12MACRO12*%
%AMMACRO11*
1,1,.005,.006,0.0*
20,1,.005,.006,0.0,.003,.005196,0.0*
1,1,.005,.003,.005196*
20,1,.005,.003,.005196,-.003,.005196,0.0*
1,1,.005,-.003,.005196*
20,1,.005,-.003,.005196,-.006,0.0,0.0*
1,1,.005,-.006,0.0*
20,1,.005,-.006,0.0,-.003,-.005196,0.0*
1,1,.005,-.003,-.005196*
20,1,.005,-.003,-.005196,.003,-.005196,0.0*
1,1,.005,.003,-.005196*
20,1,.005,.003,-.005196,.006,0.0,0.0*
1,1,.005,.006,0.0*
%
%ADD11MACRO11*%
%AMMACRO14*
1,1,.005,0.0,.0075*
20,1,.005,0.0,.0075,-.006495,.00375,0.0*
1,1,.005,-.006495,.00375*
20,1,.005,-.006495,.00375,-.006495,-.00375,0.0*
1,1,.005,-.006495,-.00375*
20,1,.005,-.006495,-.00375,0.0,-.0075,0.0*
1,1,.005,0.0,-.0075*
20,1,.005,0.0,-.0075,.006495,-.00375,0.0*
1,1,.005,.006495,-.00375*
20,1,.005,.006495,-.00375,.006495,.00375,0.0*
1,1,.005,.006495,.00375*
20,1,.005,.006495,.00375,0.0,.0075,0.0*
1,1,.005,0.0,.0075*
%
%ADD14MACRO14*%
%AMMACRO10*
1,1,.005,.004142,-.01*
20,1,.005,.004142,-.01,-.004142,-.01,0.0*
1,1,.005,-.004142,-.01*
20,1,.005,-.004142,-.01,-.01,-.004142,0.0*
1,1,.005,-.01,-.004142*
20,1,.005,-.01,-.004142,-.01,.004142,0.0*
1,1,.005,-.01,.004142*
20,1,.005,-.01,.004142,-.004142,.01,0.0*
1,1,.005,-.004142,.01*
20,1,.005,-.004142,.01,.004142,.01,0.0*
1,1,.005,.004142,.01*
20,1,.005,.004142,.01,.01,.004142,0.0*
1,1,.005,.01,.004142*
20,1,.005,.01,.004142,.01,-.004142,0.0*
1,1,.005,.01,-.004142*
20,1,.005,.01,-.004142,.004142,-.01,0.0*
1,1,.005,.004142,-.01*
%
%ADD10MACRO10*%
%ADD15C,.006*%
%ADD16C,.005*%
G75*
%LPD*%
G75*
G54D10*
X55225Y114168D03*
X55235Y129913D03*
Y145661D03*
Y240149D03*
Y255897D03*
Y460622D03*
Y476370D03*
Y492118D03*
Y507866D03*
Y767708D03*
Y838574D03*
X55323Y854508D03*
X55235Y885818D03*
X55278Y901589D03*
X55235Y917315D03*
Y933063D03*
Y948811D03*
Y964559D03*
Y980307D03*
Y1059047D03*
X55214Y1074816D03*
X55227Y1090551D03*
X55259Y1185020D03*
X55140Y1200881D03*
X55247Y1224382D03*
X55255Y1417310D03*
Y1452743D03*
Y1486995D03*
Y1518885D03*
Y1551168D03*
Y1572664D03*
X55255Y1594474D03*
Y1612191D03*
X59089Y1625799D03*
X59054Y1641885D03*
X63017Y1169392D03*
X63016Y1232389D03*
X82561Y980323D03*
X102246Y964575D03*
X121930Y948827D03*
X161301Y933079D03*
X193141Y948831D03*
X212573Y964780D03*
X232282Y980272D03*
X251982Y1200874D03*
X255934Y1625707D03*
X255911Y1641885D03*
X259735Y114168D03*
X259726Y129913D03*
Y145661D03*
Y460622D03*
Y476370D03*
Y492118D03*
Y507866D03*
X259797Y767753D03*
X259715Y838594D03*
X259726Y854339D03*
X259728Y885851D03*
X259726Y901583D03*
X259894Y917429D03*
X259734Y933082D03*
X259756Y948870D03*
X259791Y964705D03*
X259813Y980219D03*
X259718Y1059039D03*
X259739Y1074808D03*
X259726Y1090543D03*
X259849Y1177032D03*
X259749Y1185037D03*
X259741Y1224407D03*
X259862Y1232378D03*
X259706Y1417310D03*
Y1452743D03*
Y1486995D03*
Y1518885D03*
Y1551168D03*
Y1572664D03*
X259707Y1594474D03*
Y1612191D03*
X291446Y114168D03*
X291455Y129913D03*
Y145661D03*
Y240149D03*
Y255897D03*
Y460622D03*
Y476370D03*
Y492118D03*
Y507866D03*
Y767708D03*
Y838574D03*
X291544Y854508D03*
X291455Y885818D03*
X291499Y901589D03*
X291455Y917315D03*
Y933063D03*
Y948811D03*
Y964559D03*
Y980307D03*
Y1059047D03*
X291435Y1074816D03*
X291448Y1090551D03*
X291480Y1185020D03*
X291361Y1200881D03*
X291467Y1224382D03*
X291476Y1417310D03*
Y1452743D03*
Y1486995D03*
Y1518885D03*
Y1551168D03*
Y1572664D03*
X291476Y1594474D03*
Y1612191D03*
X295280Y1625708D03*
Y1641771D03*
X299238Y1169392D03*
X299237Y1232389D03*
X318781Y980323D03*
X338466Y964575D03*
X358151Y948827D03*
X397522Y933079D03*
X429361Y948831D03*
X448794Y964780D03*
X468502Y980272D03*
X488202Y1200874D03*
X492194Y1625841D03*
X492148Y1641864D03*
X495956Y114168D03*
X495947Y129913D03*
Y145661D03*
Y460622D03*
Y476370D03*
Y492118D03*
Y507866D03*
X496018Y767753D03*
X495936Y838594D03*
X495947Y854339D03*
X495949Y885851D03*
X495947Y901583D03*
X496115Y917429D03*
X495954Y933082D03*
X495977Y948870D03*
X496011Y964705D03*
X496034Y980219D03*
X495938Y1059039D03*
X495960Y1074808D03*
X495947Y1090543D03*
X496070Y1177032D03*
X495970Y1185037D03*
X495962Y1224407D03*
X496083Y1232378D03*
X495927Y1417310D03*
Y1452743D03*
Y1486995D03*
Y1518885D03*
Y1551168D03*
Y1572664D03*
X495928Y1594474D03*
Y1612191D03*
X527666Y114168D03*
X527676Y129913D03*
Y145661D03*
Y240149D03*
Y255897D03*
Y460622D03*
Y476370D03*
Y492118D03*
Y507866D03*
Y767708D03*
Y838574D03*
X527764Y854508D03*
X527676Y885818D03*
X527719Y901589D03*
X527676Y917315D03*
Y933063D03*
Y948811D03*
Y964559D03*
Y980307D03*
Y1059047D03*
X527655Y1074816D03*
X527668Y1090551D03*
X527700Y1185020D03*
X527581Y1200881D03*
X527688Y1224382D03*
X527696Y1417310D03*
Y1452743D03*
Y1486995D03*
Y1518885D03*
Y1551168D03*
Y1572664D03*
X527696Y1594474D03*
Y1612191D03*
X531542Y1625840D03*
X531529Y1641885D03*
X535458Y1169392D03*
X535458Y1232389D03*
X555002Y980323D03*
X574687Y964575D03*
X594372Y948827D03*
X633742Y933079D03*
X665582Y948831D03*
X685014Y964780D03*
X704723Y980272D03*
X724423Y1200874D03*
X728386Y1625662D03*
X728340Y1641566D03*
X732177Y114168D03*
X732167Y129913D03*
Y145661D03*
Y460622D03*
Y476370D03*
Y492118D03*
Y507866D03*
X732238Y767753D03*
X732156Y838594D03*
X732167Y854339D03*
X732170Y885851D03*
X732167Y901583D03*
X732336Y917429D03*
X732175Y933082D03*
X732198Y948870D03*
X732232Y964705D03*
X732255Y980219D03*
X732159Y1059039D03*
X732180Y1074808D03*
X732167Y1090543D03*
X732290Y1177032D03*
X732190Y1185037D03*
X732182Y1224407D03*
X732303Y1232378D03*
X732148Y1417310D03*
Y1452743D03*
Y1486995D03*
Y1518885D03*
Y1551168D03*
Y1572664D03*
X732148Y1594474D03*
Y1612191D03*
X763887Y114168D03*
X763896Y129913D03*
Y145661D03*
Y240149D03*
Y255897D03*
Y460622D03*
Y476370D03*
Y492118D03*
Y507866D03*
Y767708D03*
Y838574D03*
X763984Y854508D03*
X763896Y885818D03*
X763940Y901589D03*
X763896Y917315D03*
Y933063D03*
Y948811D03*
Y964559D03*
Y980307D03*
Y1059047D03*
X763875Y1074816D03*
X763888Y1090551D03*
X763920Y1185020D03*
X763801Y1200881D03*
X763908Y1224382D03*
X763917Y1417310D03*
Y1452743D03*
Y1486995D03*
Y1518885D03*
Y1551168D03*
Y1572664D03*
X763916Y1594474D03*
Y1612191D03*
X767686Y1625433D03*
X767755Y1641497D03*
X771679Y1169392D03*
X771678Y1232389D03*
X791222Y980323D03*
X805622Y1821106D03*
X810907Y964575D03*
X830592Y948827D03*
X869962Y933079D03*
X901802Y948831D03*
X921235Y964780D03*
X940943Y980272D03*
X960643Y1200874D03*
X964577Y1625685D03*
X964554Y1641497D03*
X968397Y114168D03*
X968388Y129913D03*
Y145661D03*
Y460622D03*
Y476370D03*
Y492118D03*
Y507866D03*
X968459Y767753D03*
X968377Y838594D03*
X968388Y854339D03*
X968390Y885851D03*
X968388Y901583D03*
X968556Y917429D03*
X968395Y933082D03*
X968418Y948870D03*
X968452Y964705D03*
X968475Y980219D03*
X968379Y1059039D03*
X968401Y1074808D03*
X968388Y1090543D03*
X968510Y1177032D03*
X968411Y1185037D03*
X968403Y1224407D03*
X968523Y1232378D03*
X968368Y1417310D03*
Y1452743D03*
Y1486995D03*
Y1518885D03*
Y1551168D03*
Y1572664D03*
X968368Y1594474D03*
Y1612191D03*
X1000107Y114168D03*
X1000117Y129913D03*
Y145661D03*
Y240149D03*
Y255897D03*
Y460622D03*
Y476370D03*
Y492118D03*
Y507866D03*
Y767708D03*
Y838574D03*
X1000205Y854508D03*
X1000117Y885818D03*
X1000160Y901589D03*
X1000117Y917315D03*
Y933063D03*
Y948811D03*
Y964559D03*
Y980307D03*
Y1059047D03*
X1000096Y1074816D03*
X1000109Y1090551D03*
X1000141Y1185020D03*
X1000022Y1200881D03*
X1000128Y1224382D03*
X1000137Y1417310D03*
Y1452743D03*
Y1486995D03*
Y1518885D03*
Y1551168D03*
Y1572664D03*
X1000137Y1594474D03*
Y1612191D03*
X1003900Y1625640D03*
X1003854Y1641658D03*
X1007899Y1169392D03*
X1007899Y1232389D03*
X1027443Y980323D03*
X1047128Y964575D03*
X1066812Y948827D03*
X1106183Y933079D03*
X1138023Y948831D03*
X1157455Y964780D03*
X1177164Y980272D03*
X1196864Y1200874D03*
X1200860Y1625594D03*
X1200734Y1641474D03*
X1204617Y114168D03*
X1204608Y129913D03*
Y145661D03*
Y460622D03*
Y476370D03*
Y492118D03*
Y507866D03*
X1204679Y767753D03*
X1204597Y838594D03*
X1204608Y854339D03*
X1204610Y885851D03*
X1204608Y901583D03*
X1204776Y917429D03*
X1204616Y933082D03*
X1204638Y948870D03*
X1204673Y964705D03*
X1204695Y980219D03*
X1204600Y1059039D03*
X1204621Y1074808D03*
X1204608Y1090543D03*
X1204731Y1177032D03*
X1204631Y1185037D03*
X1204623Y1224407D03*
X1204744Y1232378D03*
X1204588Y1417310D03*
Y1452743D03*
Y1486995D03*
Y1518885D03*
Y1551168D03*
Y1572664D03*
X1204589Y1594474D03*
Y1612191D03*
X1236328Y114168D03*
X1236337Y129913D03*
Y145661D03*
Y240149D03*
Y255897D03*
Y460622D03*
Y476370D03*
Y492118D03*
Y507866D03*
Y767708D03*
Y838574D03*
X1236425Y854508D03*
X1236337Y885818D03*
X1236380Y901589D03*
X1236337Y917315D03*
Y933063D03*
Y948811D03*
Y964559D03*
Y980307D03*
Y1059047D03*
X1236316Y1074816D03*
X1236329Y1090551D03*
X1236361Y1185020D03*
X1236242Y1200881D03*
X1236349Y1224382D03*
X1236358Y1417310D03*
Y1452743D03*
Y1486995D03*
Y1518885D03*
Y1551168D03*
Y1572664D03*
X1236357Y1594474D03*
Y1612191D03*
X1240126Y1625594D03*
X1240034Y1641223D03*
X1244120Y1169392D03*
X1244119Y1232389D03*
X1263663Y980323D03*
X1283348Y964575D03*
X1303033Y948827D03*
X1342403Y933079D03*
X1374243Y948831D03*
X1393676Y964780D03*
X1413384Y980272D03*
X1433084Y1200874D03*
X1437062Y1625594D03*
X1437051Y1641555D03*
X1440838Y114168D03*
X1440828Y129913D03*
Y145661D03*
Y460622D03*
Y476370D03*
Y492118D03*
Y507866D03*
X1440900Y767753D03*
X1440817Y838594D03*
X1440828Y854339D03*
X1440831Y885851D03*
X1440828Y901583D03*
X1440997Y917429D03*
X1440836Y933082D03*
X1440859Y948870D03*
X1440893Y964705D03*
X1440916Y980219D03*
X1440820Y1059039D03*
X1440841Y1074808D03*
X1440828Y1090543D03*
X1440951Y1177032D03*
X1440852Y1185037D03*
X1440844Y1224407D03*
X1440964Y1232378D03*
X1440809Y1417310D03*
Y1452743D03*
Y1486995D03*
Y1518885D03*
Y1551168D03*
Y1572664D03*
X1440809Y1594474D03*
Y1612191D03*
G54D11*
X59055Y287402D03*
Y291339D03*
Y334646D03*
Y338583D03*
X255906Y287402D03*
Y291339D03*
Y334646D03*
Y338583D03*
X295276Y287402D03*
Y291339D03*
Y334646D03*
Y338583D03*
X492126Y287402D03*
Y291339D03*
Y334646D03*
Y338583D03*
X531496Y287402D03*
Y291339D03*
Y334646D03*
Y338583D03*
X728347Y287402D03*
Y291339D03*
Y334646D03*
Y338583D03*
X767717Y287402D03*
Y291339D03*
Y334646D03*
Y338583D03*
X805622Y1877306D03*
X964567Y287402D03*
Y291339D03*
Y334646D03*
Y338583D03*
X1003937Y287402D03*
Y291339D03*
Y334646D03*
Y338583D03*
X1200788Y287402D03*
Y291339D03*
Y334646D03*
Y338583D03*
X1240158Y287402D03*
Y291339D03*
Y334646D03*
Y338583D03*
X1437008Y287402D03*
Y291339D03*
Y334646D03*
Y338583D03*
G54D12*
X59055Y303150D03*
Y307087D03*
Y350394D03*
Y354331D03*
X255906Y303150D03*
Y307087D03*
Y350394D03*
Y354331D03*
X295276Y303150D03*
Y307087D03*
Y350394D03*
Y354331D03*
X492126Y303150D03*
Y307087D03*
Y350394D03*
Y354331D03*
X531496Y303150D03*
Y307087D03*
Y350394D03*
Y354331D03*
X728347Y303150D03*
Y307087D03*
Y350394D03*
Y354331D03*
X767717Y303150D03*
Y307087D03*
Y350394D03*
Y354331D03*
X805622Y1905406D03*
X964567Y303150D03*
Y307087D03*
Y350394D03*
Y354331D03*
X1003937Y303150D03*
Y307087D03*
Y350394D03*
Y354331D03*
X1200788Y303150D03*
Y307087D03*
Y350394D03*
Y354331D03*
X1240158Y303150D03*
Y307087D03*
Y350394D03*
Y354331D03*
X1437008Y303150D03*
Y307087D03*
Y350394D03*
Y354331D03*
G54D13*
X59055Y318898D03*
Y322835D03*
Y366142D03*
Y370079D03*
X255906Y318898D03*
Y322835D03*
Y366142D03*
Y370079D03*
X295276Y318898D03*
Y322835D03*
Y366142D03*
Y370079D03*
X492126Y318898D03*
Y322835D03*
Y366142D03*
Y370079D03*
X531496Y318898D03*
Y322835D03*
Y366142D03*
Y370079D03*
X728347Y318898D03*
Y322835D03*
Y366142D03*
Y370079D03*
X767717Y318898D03*
Y322835D03*
Y366142D03*
Y370079D03*
X805622Y1933506D03*
X964567Y318898D03*
Y322835D03*
Y366142D03*
Y370079D03*
X1003937Y318898D03*
Y322835D03*
Y366142D03*
Y370079D03*
X1200788Y318898D03*
Y322835D03*
Y366142D03*
Y370079D03*
X1240158Y318898D03*
Y322835D03*
Y366142D03*
Y370079D03*
X1437008Y318898D03*
Y322835D03*
Y366142D03*
Y370079D03*
G54D14*
X153207Y286109D03*
X153127Y292434D03*
X153086Y302020D03*
X153127Y308384D03*
X152961Y317428D03*
X152946Y324013D03*
X157480Y190158D03*
Y194094D03*
Y199606D03*
Y203543D03*
Y257402D03*
Y262598D03*
X157482Y287289D03*
Y291451D03*
X157457Y303037D03*
Y307199D03*
X157521Y318785D03*
Y322947D03*
X157522Y334628D03*
X157480Y338583D03*
X157482Y350418D03*
X157480Y354331D03*
Y366142D03*
Y370079D03*
X255906Y174409D03*
Y178363D03*
Y183858D03*
X255886Y187769D03*
X255881Y241091D03*
X255913Y246850D03*
X389428Y286109D03*
X389348Y292434D03*
X389307Y302020D03*
X389348Y308384D03*
X389181Y317428D03*
X389166Y324013D03*
X393701Y190158D03*
Y194094D03*
Y199606D03*
Y203543D03*
Y257402D03*
Y262598D03*
X393703Y287289D03*
Y291451D03*
X393678Y303037D03*
Y307199D03*
X393742Y318785D03*
Y322947D03*
X393743Y334628D03*
X393701Y338583D03*
X393703Y350418D03*
X393701Y354331D03*
Y366142D03*
Y370079D03*
X492126Y174409D03*
Y178363D03*
Y183858D03*
X492107Y187769D03*
X492102Y241091D03*
X492134Y246850D03*
X625648Y286109D03*
X625568Y292434D03*
X625527Y302020D03*
X625568Y308384D03*
X625402Y317428D03*
X625387Y324013D03*
X629922Y190158D03*
Y194094D03*
Y199606D03*
Y203543D03*
Y257402D03*
Y262598D03*
X629923Y287289D03*
Y291451D03*
X629898Y303037D03*
Y307199D03*
X629962Y318785D03*
Y322947D03*
X629964Y334628D03*
X629922Y338583D03*
X629924Y350418D03*
X629922Y354331D03*
Y366142D03*
Y370079D03*
X728347Y174409D03*
Y178363D03*
Y183858D03*
X728327Y187769D03*
X728322Y241091D03*
X728354Y246850D03*
X805622Y1849206D03*
X861869Y286109D03*
X861788Y292434D03*
X861748Y302020D03*
X861788Y308384D03*
X861622Y317428D03*
X861607Y324013D03*
X866142Y190158D03*
Y194094D03*
Y199606D03*
Y203543D03*
Y257402D03*
Y262598D03*
X866143Y287289D03*
Y291451D03*
X866119Y303037D03*
Y307199D03*
X866183Y318785D03*
Y322947D03*
X866184Y334628D03*
X866142Y338583D03*
X866144Y350418D03*
X866142Y354331D03*
Y366142D03*
Y370079D03*
X964567Y174409D03*
Y178363D03*
Y183858D03*
X964548Y187769D03*
X964543Y241091D03*
X964575Y246850D03*
X1098089Y286109D03*
X1098009Y292434D03*
X1097968Y302020D03*
X1098009Y308384D03*
X1097843Y317428D03*
X1097828Y324013D03*
X1102362Y190158D03*
Y194094D03*
Y199606D03*
Y203543D03*
Y257402D03*
Y262598D03*
X1102364Y287289D03*
Y291451D03*
X1102339Y303037D03*
Y307199D03*
X1102403Y318785D03*
Y322947D03*
X1102404Y334628D03*
X1102362Y338583D03*
X1102364Y350418D03*
X1102362Y354331D03*
Y366142D03*
Y370079D03*
X1200788Y174409D03*
Y178363D03*
Y183858D03*
X1200768Y187769D03*
X1200763Y241091D03*
X1200795Y246850D03*
X1334310Y286109D03*
X1334229Y292434D03*
X1334189Y302020D03*
X1334229Y308384D03*
X1334063Y317428D03*
X1334048Y324013D03*
X1338583Y190158D03*
Y194094D03*
Y199606D03*
Y203543D03*
Y257402D03*
Y262598D03*
X1338584Y287289D03*
Y291451D03*
X1338560Y303037D03*
Y307199D03*
X1338624Y318785D03*
Y322947D03*
X1338625Y334628D03*
X1338583Y338583D03*
X1338585Y350418D03*
X1338583Y354331D03*
Y366142D03*
Y370079D03*
X1437008Y174409D03*
Y178363D03*
Y183858D03*
X1436989Y187769D03*
X1436984Y241091D03*
X1437015Y246850D03*
G54D15*
G01X10000Y0D02*
X1486063D01*
G03X1496063Y10000I0J10000D01*
G01Y1690787D01*
G03X1486063Y1700787I-10000J0D01*
G01X10000D01*
G03X0Y1690787I0J-10000D01*
G01Y10000D01*
G03X10000Y0I10000J0D01*
G01X45424Y39391D02*
G03I-6000J0D01*
G01X45470Y1661436D02*
G03I-6000J0D01*
G01X753741Y39460D02*
G03I-6000J0D01*
G01X753694Y1661390D02*
G03I-6000J0D01*
G01X1462811Y39414D02*
G03I-6000J0D01*
G01X1462778Y1661344D02*
G03I-6000J0D01*
G54D16*
G01X760672Y1807056D02*
Y2028756D01*
X1433372D01*
Y1807056D01*
X760672D01*
G01Y1835156D02*
X1433372D01*
G01X760672Y1863256D02*
X1433372D01*
G01X760672Y1891356D02*
X1433372D01*
G01X760672Y1919456D02*
X1433372D01*
G01X760672Y1947556D02*
X1433372D01*
G01X760672Y1975656D02*
X1433372D01*
G01X760672Y2003756D02*
X1433372D01*
G01X771677Y1956906D02*
Y1969406D01*
X777567D01*
G01X775397Y1963364D02*
X771677D01*
G01X785162Y1969406D02*
X788882D01*
G01X787022D02*
Y1956906D01*
G01X785162D02*
X788882D01*
G01X800352Y1963155D02*
X803452D01*
Y1959405D01*
X802522Y1958155D01*
X801437Y1957322D01*
X799887Y1956906D01*
X798337Y1957322D01*
X797252Y1958155D01*
X796322Y1959405D01*
X795702Y1960864D01*
X795392Y1962530D01*
Y1963989D01*
X795702Y1965239D01*
X796322Y1966697D01*
X797252Y1967947D01*
X798182Y1968780D01*
X799422Y1969406D01*
X800507D01*
X801747Y1968989D01*
X802677Y1968156D01*
G01X808412Y1969406D02*
Y1960447D01*
X809032Y1958572D01*
X810272Y1957322D01*
X811822Y1956906D01*
X813372Y1957322D01*
X814612Y1958572D01*
X815232Y1960447D01*
Y1969406D01*
G01X821122Y1956906D02*
Y1969406D01*
X824997D01*
X826237Y1968780D01*
X827012Y1967947D01*
X827322Y1966281D01*
X827012Y1964614D01*
X826082Y1963572D01*
X824997Y1962947D01*
X821122D01*
G01X824997D02*
X827322Y1956906D01*
G01X839722D02*
X833522D01*
Y1969406D01*
X839722D01*
G01X837242Y1963364D02*
X833522D01*
G01X850572Y1975656D02*
Y1807056D01*
G01X923577Y1825272D02*
X924507Y1826522D01*
X925592Y1827147D01*
X926832Y1827356D01*
X928382Y1826939D01*
X929467Y1825897D01*
X929777Y1824648D01*
X929622Y1823397D01*
X929002Y1822356D01*
X925902Y1820272D01*
X924507Y1818814D01*
X923577Y1816730D01*
X923267Y1814856D01*
X929777D01*
G01X938922Y1827356D02*
X937682Y1826939D01*
X936752Y1825897D01*
X936132Y1824648D01*
X935667Y1822980D01*
X935512Y1821105D01*
X935667Y1819230D01*
X936132Y1817564D01*
X936752Y1816314D01*
X937682Y1815272D01*
X938922Y1814856D01*
X940162Y1815272D01*
X941092Y1816314D01*
X941712Y1817564D01*
X942177Y1819230D01*
X942332Y1821105D01*
X942177Y1822980D01*
X941712Y1824648D01*
X941092Y1825897D01*
X940162Y1826939D01*
X938922Y1827356D01*
G01X951322Y1814439D02*
X951012Y1814647D01*
Y1815064D01*
X951322Y1815272D01*
X951632Y1815064D01*
Y1814647D01*
X951322Y1814439D01*
G01X963722Y1827356D02*
X962482Y1826939D01*
X961552Y1825897D01*
X960932Y1824648D01*
X960467Y1822980D01*
X960312Y1821105D01*
X960467Y1819230D01*
X960932Y1817564D01*
X961552Y1816314D01*
X962482Y1815272D01*
X963722Y1814856D01*
X964962Y1815272D01*
X965892Y1816314D01*
X966512Y1817564D01*
X966977Y1819230D01*
X967132Y1821105D01*
X966977Y1822980D01*
X966512Y1824648D01*
X965892Y1825897D01*
X964962Y1826939D01*
X963722Y1827356D01*
G01X926522Y1842956D02*
Y1855456D01*
X924662Y1852956D01*
G01Y1842956D02*
X928382D01*
G01X935512Y1844830D02*
X936442Y1843789D01*
X937527Y1843164D01*
X938922Y1842956D01*
X940317Y1843372D01*
X941402Y1844205D01*
X942177Y1845664D01*
X942332Y1847330D01*
X942022Y1848997D01*
X941247Y1850039D01*
X940162Y1850872D01*
X939077Y1851080D01*
X937992Y1850872D01*
X936597Y1850039D01*
X937062Y1855456D01*
X941247D01*
G01X951322Y1842539D02*
X951012Y1842747D01*
Y1843164D01*
X951322Y1843372D01*
X951632Y1843164D01*
Y1842747D01*
X951322Y1842539D01*
G01X963722Y1855456D02*
X962482Y1855039D01*
X961552Y1853997D01*
X960932Y1852748D01*
X960467Y1851080D01*
X960312Y1849205D01*
X960467Y1847330D01*
X960932Y1845664D01*
X961552Y1844414D01*
X962482Y1843372D01*
X963722Y1842956D01*
X964962Y1843372D01*
X965892Y1844414D01*
X966512Y1845664D01*
X966977Y1847330D01*
X967132Y1849205D01*
X966977Y1851080D01*
X966512Y1852748D01*
X965892Y1853997D01*
X964962Y1855039D01*
X963722Y1855456D01*
G01X926522Y1871056D02*
Y1883556D01*
X924662Y1881056D01*
G01Y1871056D02*
X928382D01*
G01X935977Y1881472D02*
X936907Y1882722D01*
X937992Y1883347D01*
X939232Y1883556D01*
X940782Y1883139D01*
X941867Y1882097D01*
X942177Y1880847D01*
X942022Y1879597D01*
X941402Y1878556D01*
X938302Y1876472D01*
X936907Y1875014D01*
X935977Y1872930D01*
X935667Y1871056D01*
X942177D01*
G01X951322Y1870639D02*
X951012Y1870847D01*
Y1871264D01*
X951322Y1871472D01*
X951632Y1871264D01*
Y1870847D01*
X951322Y1870639D01*
G01X963722Y1883556D02*
X962482Y1883139D01*
X961552Y1882097D01*
X960932Y1880847D01*
X960467Y1879180D01*
X960312Y1877305D01*
X960467Y1875430D01*
X960932Y1873764D01*
X961552Y1872514D01*
X962482Y1871472D01*
X963722Y1871056D01*
X964962Y1871472D01*
X965892Y1872514D01*
X966512Y1873764D01*
X966977Y1875430D01*
X967132Y1877305D01*
X966977Y1879180D01*
X966512Y1880847D01*
X965892Y1882097D01*
X964962Y1883139D01*
X963722Y1883556D01*
G01X923267Y1958572D02*
X924507Y1957530D01*
X925902Y1956906D01*
X927142D01*
X928382Y1957530D01*
X929312Y1958572D01*
X929777Y1960031D01*
X929467Y1961489D01*
X928692Y1962739D01*
X927297Y1963572D01*
X925437Y1963989D01*
X924352Y1964822D01*
X923887Y1966281D01*
X924197Y1967739D01*
X924972Y1968780D01*
X926057Y1969406D01*
X927142D01*
X928227Y1968989D01*
X929157Y1967947D01*
G01X937062Y1969406D02*
X940782D01*
G01X938922D02*
Y1956906D01*
G01X937062D02*
X940782D01*
G01X948377Y1969406D02*
X954267D01*
X948377Y1956906D01*
X954267D01*
G01X966822D02*
X960622D01*
Y1969406D01*
X966822D01*
G01X964342Y1963364D02*
X960622D01*
G01X932722Y1899156D02*
X933807Y1899364D01*
X935047Y1899989D01*
X935822Y1901030D01*
X936132Y1902489D01*
X935822Y1903947D01*
X934892Y1905197D01*
X933497Y1905822D01*
X931947D01*
X931017Y1906239D01*
X930242Y1907280D01*
X929932Y1908739D01*
X930397Y1910197D01*
X931482Y1911239D01*
X932722Y1911656D01*
X933962Y1911239D01*
X935047Y1910197D01*
X935512Y1908739D01*
X935202Y1907280D01*
X934427Y1906239D01*
X933497Y1905822D01*
X931947D01*
X930552Y1905197D01*
X929622Y1903947D01*
X929312Y1902489D01*
X929622Y1901030D01*
X930397Y1899989D01*
X931637Y1899364D01*
X932722Y1899156D01*
G01X945122Y1898739D02*
X944812Y1898947D01*
Y1899364D01*
X945122Y1899572D01*
X945432Y1899364D01*
Y1898947D01*
X945122Y1898739D01*
G01X957522Y1911656D02*
X956282Y1911239D01*
X955352Y1910197D01*
X954732Y1908948D01*
X954267Y1907280D01*
X954112Y1905405D01*
X954267Y1903530D01*
X954732Y1901864D01*
X955352Y1900614D01*
X956282Y1899572D01*
X957522Y1899156D01*
X958762Y1899572D01*
X959692Y1900614D01*
X960312Y1901864D01*
X960777Y1903530D01*
X960932Y1905405D01*
X960777Y1907280D01*
X960312Y1908948D01*
X959692Y1910197D01*
X958762Y1911239D01*
X957522Y1911656D01*
G01X929777Y1932464D02*
X930862Y1933922D01*
X931792Y1934756D01*
X933032Y1935172D01*
X934117Y1934756D01*
X934892Y1933922D01*
X935512Y1932672D01*
X935667Y1931214D01*
X935512Y1929964D01*
X934892Y1928714D01*
X933962Y1927672D01*
X932877Y1927256D01*
X931637Y1927672D01*
X930552Y1928922D01*
X929932Y1930797D01*
X929777Y1932880D01*
X930087Y1935589D01*
X930552Y1937048D01*
X931327Y1938506D01*
X932412Y1939547D01*
X933497Y1939756D01*
X934582Y1939339D01*
X935357Y1938297D01*
G01X945122Y1926839D02*
X944812Y1927047D01*
Y1927464D01*
X945122Y1927672D01*
X945432Y1927464D01*
Y1927047D01*
X945122Y1926839D01*
G01X957522Y1939756D02*
X956282Y1939339D01*
X955352Y1938297D01*
X954732Y1937048D01*
X954267Y1935380D01*
X954112Y1933505D01*
X954267Y1931630D01*
X954732Y1929964D01*
X955352Y1928714D01*
X956282Y1927672D01*
X957522Y1927256D01*
X958762Y1927672D01*
X959692Y1928714D01*
X960312Y1929964D01*
X960777Y1931630D01*
X960932Y1933505D01*
X960777Y1935380D01*
X960312Y1937048D01*
X959692Y1938297D01*
X958762Y1939339D01*
X957522Y1939756D01*
G01X938612Y2010006D02*
Y2022506D01*
X941712D01*
X942952Y2021880D01*
X943882Y2021047D01*
X944657Y2019798D01*
X945277Y2018339D01*
X945432Y2016255D01*
X945277Y2014172D01*
X944657Y2012714D01*
X943882Y2011464D01*
X942952Y2010630D01*
X941712Y2010006D01*
X938612D01*
G01X951322D02*
Y2022506D01*
X955197D01*
X956437Y2021880D01*
X957212Y2021047D01*
X957522Y2019380D01*
X957212Y2017714D01*
X956282Y2016672D01*
X955197Y2016047D01*
X951322D01*
G01X955197D02*
X957522Y2010006D01*
G01X964962Y2022506D02*
X968682D01*
G01X966822D02*
Y2010006D01*
G01X964962D02*
X968682D01*
G01X976122Y2022506D02*
Y2010006D01*
X982322D01*
G01X988522Y2022506D02*
Y2010006D01*
X994722D01*
G01X1019832Y2021464D02*
X1018902Y2022089D01*
X1017817Y2022506D01*
X1016577D01*
X1015182Y2021880D01*
X1014097Y2020839D01*
X1013322Y2019589D01*
X1012702Y2017506D01*
X1012547Y2015630D01*
X1012857Y2013756D01*
X1013322Y2012505D01*
X1014252Y2011255D01*
X1015337Y2010422D01*
X1016422Y2010006D01*
X1017507D01*
X1018592Y2010422D01*
X1019522Y2011047D01*
X1020297Y2011880D01*
G01X1025567Y2010006D02*
Y2022506D01*
G01X1032077D02*
Y2010006D01*
G01Y2016255D02*
X1025567D01*
G01X1037347Y2010006D02*
X1041222Y2022506D01*
X1045097Y2010006D01*
G01X1043702Y2014380D02*
X1038742D01*
G01X1050522Y2010006D02*
Y2022506D01*
X1054397D01*
X1055637Y2021880D01*
X1056412Y2021047D01*
X1056722Y2019380D01*
X1056412Y2017714D01*
X1055482Y2016672D01*
X1054397Y2016047D01*
X1050522D01*
G01X1054397D02*
X1056722Y2010006D01*
G01X1066022Y2022506D02*
Y2010006D01*
G01X1062457Y2022506D02*
X1069587D01*
G01X1078422Y2009589D02*
X1078112Y2009797D01*
Y2010214D01*
X1078422Y2010422D01*
X1078732Y2010214D01*
Y2009797D01*
X1078422Y2009589D01*
G01Y2015214D02*
X1078112Y2015422D01*
Y2015839D01*
X1078422Y2016047D01*
X1078732Y2015839D01*
Y2015422D01*
X1078422Y2015214D01*
G01X1103222Y2022506D02*
Y2010006D01*
G01X1099657Y2022506D02*
X1106787D01*
G01X1115622Y2010006D02*
X1114382Y2010214D01*
X1113297Y2011047D01*
X1112367Y2012297D01*
X1111747Y2013756D01*
X1111437Y2015422D01*
Y2017089D01*
X1111747Y2018756D01*
X1112367Y2020214D01*
X1113297Y2021464D01*
X1114382Y2022297D01*
X1115622Y2022506D01*
X1116862Y2022297D01*
X1117947Y2021464D01*
X1118877Y2020214D01*
X1119497Y2018756D01*
X1119807Y2017089D01*
Y2015422D01*
X1119497Y2013756D01*
X1118877Y2012297D01*
X1117947Y2011047D01*
X1116862Y2010214D01*
X1115622Y2010006D01*
G01X1124922D02*
Y2022506D01*
X1128642D01*
X1129882Y2021880D01*
X1130812Y2020422D01*
X1131122Y2018756D01*
X1130812Y2017089D01*
X1130037Y2015839D01*
X1128642Y2015214D01*
X1124922D01*
G01X1152822Y2022506D02*
Y2010006D01*
G01X1150652Y2018339D02*
X1154992D01*
G01X1165222Y2010006D02*
X1164292Y2010214D01*
X1163362Y2011047D01*
X1162742Y2012505D01*
X1162432Y2014172D01*
X1162742Y2015839D01*
X1163362Y2017297D01*
X1164292Y2018130D01*
X1165222Y2018339D01*
X1166152Y2018130D01*
X1167082Y2017297D01*
X1167702Y2015839D01*
X1167857Y2014172D01*
X1167702Y2012505D01*
X1167082Y2011047D01*
X1166152Y2010214D01*
X1165222Y2010006D01*
G01X1191262Y2016672D02*
X1191882Y2017297D01*
X1192347Y2018339D01*
X1192657Y2019798D01*
X1192347Y2021047D01*
X1191727Y2021880D01*
X1190642Y2022506D01*
X1186457D01*
Y2010006D01*
X1191572D01*
X1192657Y2010839D01*
X1193277Y2012089D01*
X1193587Y2013547D01*
X1193277Y2015005D01*
X1192347Y2016255D01*
X1191262Y2016672D01*
X1186457D01*
G01X1202422Y2010006D02*
X1201182Y2010214D01*
X1200097Y2011047D01*
X1199167Y2012297D01*
X1198547Y2013756D01*
X1198237Y2015422D01*
Y2017089D01*
X1198547Y2018756D01*
X1199167Y2020214D01*
X1200097Y2021464D01*
X1201182Y2022297D01*
X1202422Y2022506D01*
X1203662Y2022297D01*
X1204747Y2021464D01*
X1205677Y2020214D01*
X1206297Y2018756D01*
X1206607Y2017089D01*
Y2015422D01*
X1206297Y2013756D01*
X1205677Y2012297D01*
X1204747Y2011047D01*
X1203662Y2010214D01*
X1202422Y2010006D01*
G01X1214822Y2022506D02*
Y2010006D01*
G01X1211257Y2022506D02*
X1218387D01*
G01X1227222D02*
Y2010006D01*
G01X1223657Y2022506D02*
X1230787D01*
G01X1239622Y2010006D02*
X1238382Y2010214D01*
X1237297Y2011047D01*
X1236367Y2012297D01*
X1235747Y2013756D01*
X1235437Y2015422D01*
Y2017089D01*
X1235747Y2018756D01*
X1236367Y2020214D01*
X1237297Y2021464D01*
X1238382Y2022297D01*
X1239622Y2022506D01*
X1240862Y2022297D01*
X1241947Y2021464D01*
X1242877Y2020214D01*
X1243497Y2018756D01*
X1243807Y2017089D01*
Y2015422D01*
X1243497Y2013756D01*
X1242877Y2012297D01*
X1241947Y2011047D01*
X1240862Y2010214D01*
X1239622Y2010006D01*
G01X1247992D02*
Y2022506D01*
X1252022Y2012089D01*
X1256052Y2022506D01*
Y2010006D01*
G01X969147Y1985006D02*
X973022Y1997506D01*
X976897Y1985006D01*
G01X975502Y1989380D02*
X970542D01*
G01X982322Y1997506D02*
Y1985006D01*
X988522D01*
G01X994722Y1997506D02*
Y1985006D01*
X1000922D01*
G01X1019212Y1997506D02*
Y1988547D01*
X1019832Y1986672D01*
X1021072Y1985422D01*
X1022622Y1985006D01*
X1024172Y1985422D01*
X1025412Y1986672D01*
X1026032Y1988547D01*
Y1997506D01*
G01X1031457Y1985006D02*
Y1997506D01*
X1038587Y1985006D01*
Y1997506D01*
G01X1045562D02*
X1049282D01*
G01X1047422D02*
Y1985006D01*
G01X1045562D02*
X1049282D01*
G01X1059822Y1997506D02*
Y1985006D01*
G01X1056257Y1997506D02*
X1063387D01*
G01X1068967Y1986672D02*
X1070207Y1985630D01*
X1071602Y1985006D01*
X1072842D01*
X1074082Y1985630D01*
X1075012Y1986672D01*
X1075477Y1988131D01*
X1075167Y1989589D01*
X1074392Y1990839D01*
X1072997Y1991672D01*
X1071137Y1992089D01*
X1070052Y1992922D01*
X1069587Y1994380D01*
X1069897Y1995839D01*
X1070672Y1996880D01*
X1071757Y1997506D01*
X1072842D01*
X1073927Y1997089D01*
X1074857Y1996047D01*
G01X1093147Y1985006D02*
X1097022Y1997506D01*
X1100897Y1985006D01*
G01X1099502Y1989380D02*
X1094542D01*
G01X1106322Y1985006D02*
Y1997506D01*
X1110197D01*
X1111437Y1996880D01*
X1112212Y1996047D01*
X1112522Y1994380D01*
X1112212Y1992714D01*
X1111282Y1991672D01*
X1110197Y1991047D01*
X1106322D01*
G01X1110197D02*
X1112522Y1985006D01*
G01X1124922D02*
X1118722D01*
Y1997506D01*
X1124922D01*
G01X1122442Y1991464D02*
X1118722D01*
G01X1144762Y1997506D02*
X1148482D01*
G01X1146622D02*
Y1985006D01*
G01X1144762D02*
X1148482D01*
G01X1155457D02*
Y1997506D01*
X1162587Y1985006D01*
Y1997506D01*
G01X1179792Y1985006D02*
Y1997506D01*
X1183822Y1987089D01*
X1187852Y1997506D01*
Y1985006D01*
G01X1194362Y1997506D02*
X1198082D01*
G01X1196222D02*
Y1985006D01*
G01X1194362D02*
X1198082D01*
G01X1205522Y1997506D02*
Y1985006D01*
X1211722D01*
G01X1217767Y1986672D02*
X1219007Y1985630D01*
X1220402Y1985006D01*
X1221642D01*
X1222882Y1985630D01*
X1223812Y1986672D01*
X1224277Y1988131D01*
X1223967Y1989589D01*
X1223192Y1990839D01*
X1221797Y1991672D01*
X1219937Y1992089D01*
X1218852Y1992922D01*
X1218387Y1994380D01*
X1218697Y1995839D01*
X1219472Y1996880D01*
X1220557Y1997506D01*
X1221642D01*
X1222727Y1997089D01*
X1223657Y1996047D01*
G01X1039672Y1975656D02*
Y1807056D01*
G01X1070517Y1819022D02*
X1074237D01*
G01X1072222Y1821731D02*
Y1816314D01*
G01X1084622Y1827356D02*
X1083382Y1826939D01*
X1082452Y1825897D01*
X1081832Y1824648D01*
X1081367Y1822980D01*
X1081212Y1821105D01*
X1081367Y1819230D01*
X1081832Y1817564D01*
X1082452Y1816314D01*
X1083382Y1815272D01*
X1084622Y1814856D01*
X1085862Y1815272D01*
X1086792Y1816314D01*
X1087412Y1817564D01*
X1087877Y1819230D01*
X1088032Y1821105D01*
X1087877Y1822980D01*
X1087412Y1824648D01*
X1086792Y1825897D01*
X1085862Y1826939D01*
X1084622Y1827356D01*
G01X1097022Y1814439D02*
X1096712Y1814647D01*
Y1815064D01*
X1097022Y1815272D01*
X1097332Y1815064D01*
Y1814647D01*
X1097022Y1814439D01*
G01X1109422Y1814856D02*
Y1827356D01*
X1107562Y1824856D01*
G01Y1814856D02*
X1111282D01*
G01X1118412Y1816730D02*
X1119342Y1815689D01*
X1120427Y1815064D01*
X1121822Y1814856D01*
X1123217Y1815272D01*
X1124302Y1816105D01*
X1125077Y1817564D01*
X1125232Y1819230D01*
X1124922Y1820897D01*
X1124147Y1821939D01*
X1123062Y1822772D01*
X1121977Y1822980D01*
X1120892Y1822772D01*
X1119497Y1821939D01*
X1119962Y1827356D01*
X1124147D01*
G01X1131432Y1814439D02*
X1137012Y1827356D01*
G01X1144607Y1819022D02*
X1148637D01*
G01X1159022Y1827356D02*
X1157782Y1826939D01*
X1156852Y1825897D01*
X1156232Y1824648D01*
X1155767Y1822980D01*
X1155612Y1821105D01*
X1155767Y1819230D01*
X1156232Y1817564D01*
X1156852Y1816314D01*
X1157782Y1815272D01*
X1159022Y1814856D01*
X1160262Y1815272D01*
X1161192Y1816314D01*
X1161812Y1817564D01*
X1162277Y1819230D01*
X1162432Y1821105D01*
X1162277Y1822980D01*
X1161812Y1824648D01*
X1161192Y1825897D01*
X1160262Y1826939D01*
X1159022Y1827356D01*
G01X1171422Y1814439D02*
X1171112Y1814647D01*
Y1815064D01*
X1171422Y1815272D01*
X1171732Y1815064D01*
Y1814647D01*
X1171422Y1814439D01*
G01X1183822Y1814856D02*
Y1827356D01*
X1181962Y1824856D01*
G01Y1814856D02*
X1185682D01*
G01X1192812Y1816730D02*
X1193742Y1815689D01*
X1194827Y1815064D01*
X1196222Y1814856D01*
X1197617Y1815272D01*
X1198702Y1816105D01*
X1199477Y1817564D01*
X1199632Y1819230D01*
X1199322Y1820897D01*
X1198547Y1821939D01*
X1197462Y1822772D01*
X1196377Y1822980D01*
X1195292Y1822772D01*
X1193897Y1821939D01*
X1194362Y1827356D01*
X1198547D01*
G01X1070517Y1847122D02*
X1074237D01*
G01X1072222Y1849831D02*
Y1844414D01*
G01X1084622Y1855456D02*
X1083382Y1855039D01*
X1082452Y1853997D01*
X1081832Y1852748D01*
X1081367Y1851080D01*
X1081212Y1849205D01*
X1081367Y1847330D01*
X1081832Y1845664D01*
X1082452Y1844414D01*
X1083382Y1843372D01*
X1084622Y1842956D01*
X1085862Y1843372D01*
X1086792Y1844414D01*
X1087412Y1845664D01*
X1087877Y1847330D01*
X1088032Y1849205D01*
X1087877Y1851080D01*
X1087412Y1852748D01*
X1086792Y1853997D01*
X1085862Y1855039D01*
X1084622Y1855456D01*
G01X1097022Y1842539D02*
X1096712Y1842747D01*
Y1843164D01*
X1097022Y1843372D01*
X1097332Y1843164D01*
Y1842747D01*
X1097022Y1842539D01*
G01X1109422Y1842956D02*
Y1855456D01*
X1107562Y1852956D01*
G01Y1842956D02*
X1111282D01*
G01X1118412Y1844830D02*
X1119342Y1843789D01*
X1120427Y1843164D01*
X1121822Y1842956D01*
X1123217Y1843372D01*
X1124302Y1844205D01*
X1125077Y1845664D01*
X1125232Y1847330D01*
X1124922Y1848997D01*
X1124147Y1850039D01*
X1123062Y1850872D01*
X1121977Y1851080D01*
X1120892Y1850872D01*
X1119497Y1850039D01*
X1119962Y1855456D01*
X1124147D01*
G01X1131432Y1842539D02*
X1137012Y1855456D01*
G01X1144607Y1847122D02*
X1148637D01*
G01X1159022Y1855456D02*
X1157782Y1855039D01*
X1156852Y1853997D01*
X1156232Y1852748D01*
X1155767Y1851080D01*
X1155612Y1849205D01*
X1155767Y1847330D01*
X1156232Y1845664D01*
X1156852Y1844414D01*
X1157782Y1843372D01*
X1159022Y1842956D01*
X1160262Y1843372D01*
X1161192Y1844414D01*
X1161812Y1845664D01*
X1162277Y1847330D01*
X1162432Y1849205D01*
X1162277Y1851080D01*
X1161812Y1852748D01*
X1161192Y1853997D01*
X1160262Y1855039D01*
X1159022Y1855456D01*
G01X1171422Y1842539D02*
X1171112Y1842747D01*
Y1843164D01*
X1171422Y1843372D01*
X1171732Y1843164D01*
Y1842747D01*
X1171422Y1842539D01*
G01X1183822Y1842956D02*
Y1855456D01*
X1181962Y1852956D01*
G01Y1842956D02*
X1185682D01*
G01X1192812Y1844830D02*
X1193742Y1843789D01*
X1194827Y1843164D01*
X1196222Y1842956D01*
X1197617Y1843372D01*
X1198702Y1844205D01*
X1199477Y1845664D01*
X1199632Y1847330D01*
X1199322Y1848997D01*
X1198547Y1850039D01*
X1197462Y1850872D01*
X1196377Y1851080D01*
X1195292Y1850872D01*
X1193897Y1850039D01*
X1194362Y1855456D01*
X1198547D01*
G01X1070517Y1875222D02*
X1074237D01*
G01X1072222Y1877931D02*
Y1872514D01*
G01X1084622Y1883556D02*
X1083382Y1883139D01*
X1082452Y1882097D01*
X1081832Y1880847D01*
X1081367Y1879180D01*
X1081212Y1877305D01*
X1081367Y1875430D01*
X1081832Y1873764D01*
X1082452Y1872514D01*
X1083382Y1871472D01*
X1084622Y1871056D01*
X1085862Y1871472D01*
X1086792Y1872514D01*
X1087412Y1873764D01*
X1087877Y1875430D01*
X1088032Y1877305D01*
X1087877Y1879180D01*
X1087412Y1880847D01*
X1086792Y1882097D01*
X1085862Y1883139D01*
X1084622Y1883556D01*
G01X1097022Y1870639D02*
X1096712Y1870847D01*
Y1871264D01*
X1097022Y1871472D01*
X1097332Y1871264D01*
Y1870847D01*
X1097022Y1870639D01*
G01X1109422Y1871056D02*
Y1883556D01*
X1107562Y1881056D01*
G01Y1871056D02*
X1111282D01*
G01X1118412Y1872930D02*
X1119342Y1871889D01*
X1120427Y1871264D01*
X1121822Y1871056D01*
X1123217Y1871472D01*
X1124302Y1872305D01*
X1125077Y1873764D01*
X1125232Y1875430D01*
X1124922Y1877097D01*
X1124147Y1878139D01*
X1123062Y1878972D01*
X1121977Y1879180D01*
X1120892Y1878972D01*
X1119497Y1878139D01*
X1119962Y1883556D01*
X1124147D01*
G01X1131432Y1870639D02*
X1137012Y1883556D01*
G01X1144607Y1875222D02*
X1148637D01*
G01X1159022Y1883556D02*
X1157782Y1883139D01*
X1156852Y1882097D01*
X1156232Y1880847D01*
X1155767Y1879180D01*
X1155612Y1877305D01*
X1155767Y1875430D01*
X1156232Y1873764D01*
X1156852Y1872514D01*
X1157782Y1871472D01*
X1159022Y1871056D01*
X1160262Y1871472D01*
X1161192Y1872514D01*
X1161812Y1873764D01*
X1162277Y1875430D01*
X1162432Y1877305D01*
X1162277Y1879180D01*
X1161812Y1880847D01*
X1161192Y1882097D01*
X1160262Y1883139D01*
X1159022Y1883556D01*
G01X1171422Y1870639D02*
X1171112Y1870847D01*
Y1871264D01*
X1171422Y1871472D01*
X1171732Y1871264D01*
Y1870847D01*
X1171422Y1870639D01*
G01X1183822Y1871056D02*
Y1883556D01*
X1181962Y1881056D01*
G01Y1871056D02*
X1185682D01*
G01X1192812Y1872930D02*
X1193742Y1871889D01*
X1194827Y1871264D01*
X1196222Y1871056D01*
X1197617Y1871472D01*
X1198702Y1872305D01*
X1199477Y1873764D01*
X1199632Y1875430D01*
X1199322Y1877097D01*
X1198547Y1878139D01*
X1197462Y1878972D01*
X1196377Y1879180D01*
X1195292Y1878972D01*
X1193897Y1878139D01*
X1194362Y1883556D01*
X1198547D01*
G01X1070517Y1903322D02*
X1074237D01*
G01X1072222Y1906031D02*
Y1900614D01*
G01X1084622Y1911656D02*
X1083382Y1911239D01*
X1082452Y1910197D01*
X1081832Y1908948D01*
X1081367Y1907280D01*
X1081212Y1905405D01*
X1081367Y1903530D01*
X1081832Y1901864D01*
X1082452Y1900614D01*
X1083382Y1899572D01*
X1084622Y1899156D01*
X1085862Y1899572D01*
X1086792Y1900614D01*
X1087412Y1901864D01*
X1087877Y1903530D01*
X1088032Y1905405D01*
X1087877Y1907280D01*
X1087412Y1908948D01*
X1086792Y1910197D01*
X1085862Y1911239D01*
X1084622Y1911656D01*
G01X1097022Y1898739D02*
X1096712Y1898947D01*
Y1899364D01*
X1097022Y1899572D01*
X1097332Y1899364D01*
Y1898947D01*
X1097022Y1898739D01*
G01X1109422Y1899156D02*
Y1911656D01*
X1107562Y1909156D01*
G01Y1899156D02*
X1111282D01*
G01X1118412Y1901030D02*
X1119342Y1899989D01*
X1120427Y1899364D01*
X1121822Y1899156D01*
X1123217Y1899572D01*
X1124302Y1900405D01*
X1125077Y1901864D01*
X1125232Y1903530D01*
X1124922Y1905197D01*
X1124147Y1906239D01*
X1123062Y1907072D01*
X1121977Y1907280D01*
X1120892Y1907072D01*
X1119497Y1906239D01*
X1119962Y1911656D01*
X1124147D01*
G01X1131432Y1898739D02*
X1137012Y1911656D01*
G01X1144607Y1903322D02*
X1148637D01*
G01X1159022Y1911656D02*
X1157782Y1911239D01*
X1156852Y1910197D01*
X1156232Y1908948D01*
X1155767Y1907280D01*
X1155612Y1905405D01*
X1155767Y1903530D01*
X1156232Y1901864D01*
X1156852Y1900614D01*
X1157782Y1899572D01*
X1159022Y1899156D01*
X1160262Y1899572D01*
X1161192Y1900614D01*
X1161812Y1901864D01*
X1162277Y1903530D01*
X1162432Y1905405D01*
X1162277Y1907280D01*
X1161812Y1908948D01*
X1161192Y1910197D01*
X1160262Y1911239D01*
X1159022Y1911656D01*
G01X1171422Y1898739D02*
X1171112Y1898947D01*
Y1899364D01*
X1171422Y1899572D01*
X1171732Y1899364D01*
Y1898947D01*
X1171422Y1898739D01*
G01X1183822Y1899156D02*
Y1911656D01*
X1181962Y1909156D01*
G01Y1899156D02*
X1185682D01*
G01X1192812Y1901030D02*
X1193742Y1899989D01*
X1194827Y1899364D01*
X1196222Y1899156D01*
X1197617Y1899572D01*
X1198702Y1900405D01*
X1199477Y1901864D01*
X1199632Y1903530D01*
X1199322Y1905197D01*
X1198547Y1906239D01*
X1197462Y1907072D01*
X1196377Y1907280D01*
X1195292Y1907072D01*
X1193897Y1906239D01*
X1194362Y1911656D01*
X1198547D01*
G01X1070517Y1931422D02*
X1074237D01*
G01X1072222Y1934131D02*
Y1928714D01*
G01X1084622Y1939756D02*
X1083382Y1939339D01*
X1082452Y1938297D01*
X1081832Y1937048D01*
X1081367Y1935380D01*
X1081212Y1933505D01*
X1081367Y1931630D01*
X1081832Y1929964D01*
X1082452Y1928714D01*
X1083382Y1927672D01*
X1084622Y1927256D01*
X1085862Y1927672D01*
X1086792Y1928714D01*
X1087412Y1929964D01*
X1087877Y1931630D01*
X1088032Y1933505D01*
X1087877Y1935380D01*
X1087412Y1937048D01*
X1086792Y1938297D01*
X1085862Y1939339D01*
X1084622Y1939756D01*
G01X1097022Y1926839D02*
X1096712Y1927047D01*
Y1927464D01*
X1097022Y1927672D01*
X1097332Y1927464D01*
Y1927047D01*
X1097022Y1926839D01*
G01X1109422Y1927256D02*
Y1939756D01*
X1107562Y1937256D01*
G01Y1927256D02*
X1111282D01*
G01X1118412Y1929130D02*
X1119342Y1928089D01*
X1120427Y1927464D01*
X1121822Y1927256D01*
X1123217Y1927672D01*
X1124302Y1928505D01*
X1125077Y1929964D01*
X1125232Y1931630D01*
X1124922Y1933297D01*
X1124147Y1934339D01*
X1123062Y1935172D01*
X1121977Y1935380D01*
X1120892Y1935172D01*
X1119497Y1934339D01*
X1119962Y1939756D01*
X1124147D01*
G01X1131432Y1926839D02*
X1137012Y1939756D01*
G01X1144607Y1931422D02*
X1148637D01*
G01X1159022Y1939756D02*
X1157782Y1939339D01*
X1156852Y1938297D01*
X1156232Y1937048D01*
X1155767Y1935380D01*
X1155612Y1933505D01*
X1155767Y1931630D01*
X1156232Y1929964D01*
X1156852Y1928714D01*
X1157782Y1927672D01*
X1159022Y1927256D01*
X1160262Y1927672D01*
X1161192Y1928714D01*
X1161812Y1929964D01*
X1162277Y1931630D01*
X1162432Y1933505D01*
X1162277Y1935380D01*
X1161812Y1937048D01*
X1161192Y1938297D01*
X1160262Y1939339D01*
X1159022Y1939756D01*
G01X1171422Y1926839D02*
X1171112Y1927047D01*
Y1927464D01*
X1171422Y1927672D01*
X1171732Y1927464D01*
Y1927047D01*
X1171422Y1926839D01*
G01X1183822Y1927256D02*
Y1939756D01*
X1181962Y1937256D01*
G01Y1927256D02*
X1185682D01*
G01X1192812Y1929130D02*
X1193742Y1928089D01*
X1194827Y1927464D01*
X1196222Y1927256D01*
X1197617Y1927672D01*
X1198702Y1928505D01*
X1199477Y1929964D01*
X1199632Y1931630D01*
X1199322Y1933297D01*
X1198547Y1934339D01*
X1197462Y1935172D01*
X1196377Y1935380D01*
X1195292Y1935172D01*
X1193897Y1934339D01*
X1194362Y1939756D01*
X1198547D01*
G01X1084622Y1969406D02*
Y1956906D01*
G01X1081057Y1969406D02*
X1088187D01*
G01X1097022Y1956906D02*
X1095782Y1957114D01*
X1094697Y1957947D01*
X1093767Y1959197D01*
X1093147Y1960656D01*
X1092837Y1962322D01*
Y1963989D01*
X1093147Y1965656D01*
X1093767Y1967114D01*
X1094697Y1968364D01*
X1095782Y1969197D01*
X1097022Y1969406D01*
X1098262Y1969197D01*
X1099347Y1968364D01*
X1100277Y1967114D01*
X1100897Y1965656D01*
X1101207Y1963989D01*
Y1962322D01*
X1100897Y1960656D01*
X1100277Y1959197D01*
X1099347Y1957947D01*
X1098262Y1957114D01*
X1097022Y1956906D01*
G01X1106322Y1969406D02*
Y1956906D01*
X1112522D01*
G01X1124922D02*
X1118722D01*
Y1969406D01*
X1124922D01*
G01X1122442Y1963364D02*
X1118722D01*
G01X1131122Y1956906D02*
Y1969406D01*
X1134997D01*
X1136237Y1968780D01*
X1137012Y1967947D01*
X1137322Y1966281D01*
X1137012Y1964614D01*
X1136082Y1963572D01*
X1134997Y1962947D01*
X1131122D01*
G01X1134997D02*
X1137322Y1956906D01*
G01X1142747D02*
X1146622Y1969406D01*
X1150497Y1956906D01*
G01X1149102Y1961280D02*
X1144142D01*
G01X1155457Y1956906D02*
Y1969406D01*
X1162587Y1956906D01*
Y1969406D01*
G01X1174832Y1968364D02*
X1173902Y1968989D01*
X1172817Y1969406D01*
X1171577D01*
X1170182Y1968780D01*
X1169097Y1967739D01*
X1168322Y1966489D01*
X1167702Y1964406D01*
X1167547Y1962530D01*
X1167857Y1960656D01*
X1168322Y1959405D01*
X1169252Y1958155D01*
X1170337Y1957322D01*
X1171422Y1956906D01*
X1172507D01*
X1173592Y1957322D01*
X1174522Y1957947D01*
X1175297Y1958780D01*
G01X1186922Y1956906D02*
X1180722D01*
Y1969406D01*
X1186922D01*
G01X1184442Y1963364D02*
X1180722D01*
G01X1228772Y1975656D02*
Y1807056D01*
G01X1258222Y1814856D02*
Y1827356D01*
X1261942D01*
X1263182Y1826730D01*
X1264112Y1825272D01*
X1264422Y1823606D01*
X1264112Y1821939D01*
X1263337Y1820689D01*
X1261942Y1820064D01*
X1258222D01*
G01X1270622Y1827356D02*
Y1814856D01*
X1276822D01*
G01X1282247D02*
X1286122Y1827356D01*
X1289997Y1814856D01*
G01X1288602Y1819230D02*
X1283642D01*
G01X1298522Y1827356D02*
Y1814856D01*
G01X1294957Y1827356D02*
X1302087D01*
G01X1314022Y1814856D02*
X1307822D01*
Y1827356D01*
X1314022D01*
G01X1311542Y1821314D02*
X1307822D01*
G01X1319912Y1814856D02*
Y1827356D01*
X1323012D01*
X1324252Y1826730D01*
X1325182Y1825897D01*
X1325957Y1824648D01*
X1326577Y1823189D01*
X1326732Y1821105D01*
X1326577Y1819022D01*
X1325957Y1817564D01*
X1325182Y1816314D01*
X1324252Y1815480D01*
X1323012Y1814856D01*
X1319912D01*
G01X1258222Y1842956D02*
Y1855456D01*
X1261942D01*
X1263182Y1854830D01*
X1264112Y1853372D01*
X1264422Y1851706D01*
X1264112Y1850039D01*
X1263337Y1848789D01*
X1261942Y1848164D01*
X1258222D01*
G01X1270622Y1855456D02*
Y1842956D01*
X1276822D01*
G01X1282247D02*
X1286122Y1855456D01*
X1289997Y1842956D01*
G01X1288602Y1847330D02*
X1283642D01*
G01X1298522Y1855456D02*
Y1842956D01*
G01X1294957Y1855456D02*
X1302087D01*
G01X1314022Y1842956D02*
X1307822D01*
Y1855456D01*
X1314022D01*
G01X1311542Y1849414D02*
X1307822D01*
G01X1319912Y1842956D02*
Y1855456D01*
X1323012D01*
X1324252Y1854830D01*
X1325182Y1853997D01*
X1325957Y1852748D01*
X1326577Y1851289D01*
X1326732Y1849205D01*
X1326577Y1847122D01*
X1325957Y1845664D01*
X1325182Y1844414D01*
X1324252Y1843581D01*
X1323012Y1842956D01*
X1319912D01*
G01X1258222Y1871056D02*
Y1883556D01*
X1261942D01*
X1263182Y1882930D01*
X1264112Y1881472D01*
X1264422Y1879806D01*
X1264112Y1878139D01*
X1263337Y1876889D01*
X1261942Y1876264D01*
X1258222D01*
G01X1270622Y1883556D02*
Y1871056D01*
X1276822D01*
G01X1282247D02*
X1286122Y1883556D01*
X1289997Y1871056D01*
G01X1288602Y1875430D02*
X1283642D01*
G01X1298522Y1883556D02*
Y1871056D01*
G01X1294957Y1883556D02*
X1302087D01*
G01X1314022Y1871056D02*
X1307822D01*
Y1883556D01*
X1314022D01*
G01X1311542Y1877514D02*
X1307822D01*
G01X1319912Y1871056D02*
Y1883556D01*
X1323012D01*
X1324252Y1882930D01*
X1325182Y1882097D01*
X1325957Y1880847D01*
X1326577Y1879389D01*
X1326732Y1877305D01*
X1326577Y1875222D01*
X1325957Y1873764D01*
X1325182Y1872514D01*
X1324252Y1871680D01*
X1323012Y1871056D01*
X1319912D01*
G01X1258222Y1899156D02*
Y1911656D01*
X1261942D01*
X1263182Y1911030D01*
X1264112Y1909572D01*
X1264422Y1907906D01*
X1264112Y1906239D01*
X1263337Y1904989D01*
X1261942Y1904364D01*
X1258222D01*
G01X1270622Y1911656D02*
Y1899156D01*
X1276822D01*
G01X1282247D02*
X1286122Y1911656D01*
X1289997Y1899156D01*
G01X1288602Y1903530D02*
X1283642D01*
G01X1298522Y1911656D02*
Y1899156D01*
G01X1294957Y1911656D02*
X1302087D01*
G01X1314022Y1899156D02*
X1307822D01*
Y1911656D01*
X1314022D01*
G01X1311542Y1905614D02*
X1307822D01*
G01X1319912Y1899156D02*
Y1911656D01*
X1323012D01*
X1324252Y1911030D01*
X1325182Y1910197D01*
X1325957Y1908948D01*
X1326577Y1907489D01*
X1326732Y1905405D01*
X1326577Y1903322D01*
X1325957Y1901864D01*
X1325182Y1900614D01*
X1324252Y1899780D01*
X1323012Y1899156D01*
X1319912D01*
G01X1258222Y1927256D02*
Y1939756D01*
X1261942D01*
X1263182Y1939130D01*
X1264112Y1937672D01*
X1264422Y1936006D01*
X1264112Y1934339D01*
X1263337Y1933089D01*
X1261942Y1932464D01*
X1258222D01*
G01X1270622Y1939756D02*
Y1927256D01*
X1276822D01*
G01X1282247D02*
X1286122Y1939756D01*
X1289997Y1927256D01*
G01X1288602Y1931630D02*
X1283642D01*
G01X1298522Y1939756D02*
Y1927256D01*
G01X1294957Y1939756D02*
X1302087D01*
G01X1314022Y1927256D02*
X1307822D01*
Y1939756D01*
X1314022D01*
G01X1311542Y1933714D02*
X1307822D01*
G01X1319912Y1927256D02*
Y1939756D01*
X1323012D01*
X1324252Y1939130D01*
X1325182Y1938297D01*
X1325957Y1937048D01*
X1326577Y1935589D01*
X1326732Y1933505D01*
X1326577Y1931422D01*
X1325957Y1929964D01*
X1325182Y1928714D01*
X1324252Y1927881D01*
X1323012Y1927256D01*
X1319912D01*
G01X1258222Y1956906D02*
Y1969406D01*
X1261942D01*
X1263182Y1968780D01*
X1264112Y1967322D01*
X1264422Y1965656D01*
X1264112Y1963989D01*
X1263337Y1962739D01*
X1261942Y1962114D01*
X1258222D01*
G01X1270622Y1969406D02*
Y1956906D01*
X1276822D01*
G01X1282247D02*
X1286122Y1969406D01*
X1289997Y1956906D01*
G01X1288602Y1961280D02*
X1283642D01*
G01X1298522Y1969406D02*
Y1956906D01*
G01X1294957Y1969406D02*
X1302087D01*
G01X1314022Y1956906D02*
X1307822D01*
Y1969406D01*
X1314022D01*
G01X1311542Y1963364D02*
X1307822D01*
G01X1319912Y1956906D02*
Y1969406D01*
X1323012D01*
X1324252Y1968780D01*
X1325182Y1967947D01*
X1325957Y1966697D01*
X1326577Y1965239D01*
X1326732Y1963155D01*
X1326577Y1961072D01*
X1325957Y1959614D01*
X1325182Y1958364D01*
X1324252Y1957530D01*
X1323012Y1956906D01*
X1319912D01*
G01X1355872Y1975656D02*
Y1807056D01*
G01X1384082Y1814856D02*
Y1827356D01*
X1378347Y1818397D01*
X1386097D01*
G01X1394312Y1814856D02*
X1394622Y1817564D01*
X1395087Y1819855D01*
X1395707Y1821939D01*
X1396482Y1824231D01*
X1397722Y1827356D01*
X1391522D01*
G01X1408882Y1814856D02*
Y1827356D01*
X1403147Y1818397D01*
X1410897D01*
G01X1382222Y1842956D02*
Y1855456D01*
X1380362Y1852956D01*
G01Y1842956D02*
X1384082D01*
G01X1394622D02*
X1395707Y1843164D01*
X1396947Y1843789D01*
X1397722Y1844830D01*
X1398032Y1846289D01*
X1397722Y1847747D01*
X1396792Y1848997D01*
X1395397Y1849622D01*
X1393847D01*
X1392917Y1850039D01*
X1392142Y1851080D01*
X1391832Y1852539D01*
X1392297Y1853997D01*
X1393382Y1855039D01*
X1394622Y1855456D01*
X1395862Y1855039D01*
X1396947Y1853997D01*
X1397412Y1852539D01*
X1397102Y1851080D01*
X1396327Y1850039D01*
X1395397Y1849622D01*
X1393847D01*
X1392452Y1848997D01*
X1391522Y1847747D01*
X1391212Y1846289D01*
X1391522Y1844830D01*
X1392297Y1843789D01*
X1393537Y1843164D01*
X1394622Y1842956D01*
G01X1407022Y1855456D02*
X1405782Y1855039D01*
X1404852Y1853997D01*
X1404232Y1852748D01*
X1403767Y1851080D01*
X1403612Y1849205D01*
X1403767Y1847330D01*
X1404232Y1845664D01*
X1404852Y1844414D01*
X1405782Y1843372D01*
X1407022Y1842956D01*
X1408262Y1843372D01*
X1409192Y1844414D01*
X1409812Y1845664D01*
X1410277Y1847330D01*
X1410432Y1849205D01*
X1410277Y1851080D01*
X1409812Y1852748D01*
X1409192Y1853997D01*
X1408262Y1855039D01*
X1407022Y1855456D01*
G01X1382222Y1956906D02*
X1380982Y1957114D01*
X1379897Y1957947D01*
X1378967Y1959197D01*
X1378347Y1960656D01*
X1378037Y1962322D01*
Y1963989D01*
X1378347Y1965656D01*
X1378967Y1967114D01*
X1379897Y1968364D01*
X1380982Y1969197D01*
X1382222Y1969406D01*
X1383462Y1969197D01*
X1384547Y1968364D01*
X1385477Y1967114D01*
X1386097Y1965656D01*
X1386407Y1963989D01*
Y1962322D01*
X1386097Y1960656D01*
X1385477Y1959197D01*
X1384547Y1957947D01*
X1383462Y1957114D01*
X1382222Y1956906D01*
G01X1383462Y1960239D02*
X1385322Y1956906D01*
G01X1394622Y1969406D02*
Y1956906D01*
G01X1391057Y1969406D02*
X1398187D01*
G01X1407022Y1956906D02*
Y1962530D01*
X1403922Y1969406D01*
G01X1410122D02*
X1407022Y1962530D01*
G01X1390282Y1871056D02*
Y1883556D01*
X1384547Y1874597D01*
X1392297D01*
G01X1400822Y1871056D02*
X1401907Y1871264D01*
X1403147Y1871889D01*
X1403922Y1872930D01*
X1404232Y1874389D01*
X1403922Y1875847D01*
X1402992Y1877097D01*
X1401597Y1877722D01*
X1400047D01*
X1399117Y1878139D01*
X1398342Y1879180D01*
X1398032Y1880639D01*
X1398497Y1882097D01*
X1399582Y1883139D01*
X1400822Y1883556D01*
X1402062Y1883139D01*
X1403147Y1882097D01*
X1403612Y1880639D01*
X1403302Y1879180D01*
X1402527Y1878139D01*
X1401597Y1877722D01*
X1400047D01*
X1398652Y1877097D01*
X1397722Y1875847D01*
X1397412Y1874389D01*
X1397722Y1872930D01*
X1398497Y1871889D01*
X1399737Y1871264D01*
X1400822Y1871056D01*
G01X1390282Y1899156D02*
Y1911656D01*
X1384547Y1902697D01*
X1392297D01*
G01X1400822Y1899156D02*
X1401907Y1899364D01*
X1403147Y1899989D01*
X1403922Y1901030D01*
X1404232Y1902489D01*
X1403922Y1903947D01*
X1402992Y1905197D01*
X1401597Y1905822D01*
X1400047D01*
X1399117Y1906239D01*
X1398342Y1907280D01*
X1398032Y1908739D01*
X1398497Y1910197D01*
X1399582Y1911239D01*
X1400822Y1911656D01*
X1402062Y1911239D01*
X1403147Y1910197D01*
X1403612Y1908739D01*
X1403302Y1907280D01*
X1402527Y1906239D01*
X1401597Y1905822D01*
X1400047D01*
X1398652Y1905197D01*
X1397722Y1903947D01*
X1397412Y1902489D01*
X1397722Y1901030D01*
X1398497Y1899989D01*
X1399737Y1899364D01*
X1400822Y1899156D01*
G01X1390282Y1927256D02*
Y1939756D01*
X1384547Y1930797D01*
X1392297D01*
G01X1400822Y1927256D02*
X1401907Y1927464D01*
X1403147Y1928089D01*
X1403922Y1929130D01*
X1404232Y1930589D01*
X1403922Y1932047D01*
X1402992Y1933297D01*
X1401597Y1933922D01*
X1400047D01*
X1399117Y1934339D01*
X1398342Y1935380D01*
X1398032Y1936839D01*
X1398497Y1938297D01*
X1399582Y1939339D01*
X1400822Y1939756D01*
X1402062Y1939339D01*
X1403147Y1938297D01*
X1403612Y1936839D01*
X1403302Y1935380D01*
X1402527Y1934339D01*
X1401597Y1933922D01*
X1400047D01*
X1398652Y1933297D01*
X1397722Y1932047D01*
X1397412Y1930589D01*
X1397722Y1929130D01*
X1398497Y1928089D01*
X1399737Y1927464D01*
X1400822Y1927256D01*
M02*
