G04 ================== begin FILE IDENTIFICATION RECORD ==================*
G04 Layout Name:  VGSophi_XNJZ V1.0.brd*
G04 Film Name:    SOLDER-BOTTOM*
G04 File Format:  Gerber RS274X*
G04 File Origin:  Cadence Allegro 16.6-P004*
G04 Origin Date:  Thu Jul 22 09:50:04 2021*
G04 *
G04 Layer:  PIN/SOLDERMASK_TOP*
G04 Layer:  PACKAGE GEOMETRY/SOLDERMASK_TOP*
G04 Layer:  BOARD GEOMETRY/OUTLINE*
G04 Layer:  BOARD GEOMETRY/SOLDERMASK_BOTTOM*
G04 *
G04 Offset:    (0.000 0.000)*
G04 Mirror:    No*
G04 Mode:      Positive*
G04 Rotation:  0*
G04 FullContactRelief:  No*
G04 UndefLineWidth:     5.000*
G04 ================== end FILE IDENTIFICATION RECORD ====================*
%FSLAX25Y25*MOIN*%
%IR0*IPPOS*OFA0.00000B0.00000*MIA0B0*SFA1.00000B1.00000*%
%ADD10C,.11811*%
%ADD17C,.008*%
%ADD16C,.01*%
%ADD13C,.02*%
%ADD15C,.012*%
%ADD12C,.024*%
%ADD11C,.016*%
%ADD14C,.018*%
%ADD18C,.006*%
G75*
%LPD*%
G75*
G54D10*
X59055Y39370D03*
Y1661417D03*
X255906Y39370D03*
Y1661417D03*
X295276Y39370D03*
Y1661417D03*
X492126Y39370D03*
Y1661417D03*
X531496Y39370D03*
Y1661417D03*
X728347Y39370D03*
Y1661417D03*
X767717Y39370D03*
Y1661417D03*
X964567Y39370D03*
Y1661417D03*
X1003937Y39370D03*
Y1661417D03*
X1200788Y39370D03*
Y1661417D03*
X1240158Y39370D03*
Y1661417D03*
X1437008Y39370D03*
Y1661417D03*
G54D11*
X55133Y1125967D03*
X55130Y1204702D03*
X59055Y51181D03*
Y55118D03*
Y66929D03*
Y70866D03*
Y82677D03*
Y86614D03*
Y98425D03*
Y102362D03*
Y114173D03*
Y118110D03*
Y129921D03*
Y133858D03*
Y145669D03*
Y149606D03*
X59052Y161421D03*
Y165358D03*
X59055Y177165D03*
Y181102D03*
Y192913D03*
Y196850D03*
Y208661D03*
Y212598D03*
Y224409D03*
Y228346D03*
Y240157D03*
Y244094D03*
Y255906D03*
Y259843D03*
Y397638D03*
Y401575D03*
Y413386D03*
Y417323D03*
Y429134D03*
Y433071D03*
Y444882D03*
Y448819D03*
Y460630D03*
Y464567D03*
Y476378D03*
Y480315D03*
Y492126D03*
Y496063D03*
Y507874D03*
Y511811D03*
Y531496D03*
Y535433D03*
Y602362D03*
Y606299D03*
Y649606D03*
Y653543D03*
Y681102D03*
Y685039D03*
Y696850D03*
Y700787D03*
Y712598D03*
Y716535D03*
Y728346D03*
Y732284D03*
Y744094D03*
Y748032D03*
Y767716D03*
Y771654D03*
Y838583D03*
Y842520D03*
Y885827D03*
Y889764D03*
Y917323D03*
Y921260D03*
Y933071D03*
Y937008D03*
Y948819D03*
Y952756D03*
Y964567D03*
Y968504D03*
Y980315D03*
Y984252D03*
Y1011811D03*
Y1015748D03*
Y1059055D03*
Y1062992D03*
X59070Y1125967D03*
Y1141715D03*
Y1145652D03*
Y1157463D03*
X59072Y1173213D03*
X59078Y1185030D03*
Y1188966D03*
X59067Y1204702D03*
X59067Y1220454D03*
Y1224391D03*
X59071Y1236209D03*
X59055Y1266929D03*
Y1283465D03*
Y1299213D03*
Y1314961D03*
Y1320709D03*
Y1330709D03*
Y1342520D03*
Y1346457D03*
Y1417323D03*
Y1440945D03*
Y1452756D03*
Y1472441D03*
Y1487008D03*
Y1503937D03*
Y1518898D03*
Y1535433D03*
Y1551181D03*
Y1566929D03*
Y1572677D03*
Y1582677D03*
Y1594488D03*
Y1598425D03*
X63007Y1157463D03*
X63009Y1173213D03*
X63008Y1236209D03*
X78740Y744094D03*
Y748032D03*
Y980315D03*
Y984252D03*
X98425Y728346D03*
Y732284D03*
Y964567D03*
Y968504D03*
X118110Y712598D03*
Y716535D03*
Y948819D03*
Y952756D03*
X157480Y696850D03*
Y700787D03*
Y933071D03*
Y937008D03*
X251984Y1125964D03*
X251987Y1204711D03*
X255906Y51181D03*
Y55118D03*
Y66929D03*
Y70866D03*
Y82677D03*
Y86614D03*
Y98425D03*
Y102362D03*
Y114173D03*
Y118110D03*
Y129921D03*
Y133858D03*
Y145669D03*
Y149606D03*
Y397638D03*
Y401575D03*
Y413386D03*
Y417323D03*
Y429134D03*
Y433071D03*
Y444882D03*
Y448819D03*
Y460630D03*
Y464567D03*
Y476378D03*
Y480315D03*
Y492126D03*
Y496063D03*
Y507874D03*
Y511811D03*
Y618110D03*
Y622047D03*
Y665354D03*
Y669291D03*
Y854331D03*
Y858268D03*
Y901575D03*
Y905512D03*
Y1011811D03*
Y1015748D03*
Y1059055D03*
Y1062992D03*
X255920Y1125964D03*
X255920Y1141715D03*
Y1145652D03*
X255925Y1157461D03*
X255920Y1173212D03*
X255929Y1185029D03*
Y1188966D03*
X255924Y1204711D03*
X255920Y1220463D03*
Y1224400D03*
X255916Y1236200D03*
X255906Y1266929D03*
Y1283465D03*
Y1299213D03*
Y1314961D03*
Y1320709D03*
Y1330709D03*
Y1342520D03*
Y1346457D03*
Y1417323D03*
Y1440945D03*
Y1452756D03*
Y1472441D03*
Y1487008D03*
Y1503937D03*
Y1518898D03*
Y1535433D03*
Y1551181D03*
Y1566929D03*
Y1572677D03*
Y1582677D03*
Y1594488D03*
Y1598425D03*
X259862Y1157461D03*
X259857Y1173212D03*
X259853Y1236200D03*
X291354Y1125967D03*
X291351Y1204702D03*
X295276Y51181D03*
Y55118D03*
Y66929D03*
Y70866D03*
Y82677D03*
Y86614D03*
Y98425D03*
Y102362D03*
Y114173D03*
Y118110D03*
Y129921D03*
Y133858D03*
Y145669D03*
Y149606D03*
X295273Y161421D03*
Y165358D03*
X295276Y177165D03*
Y181102D03*
Y192913D03*
Y196850D03*
Y208661D03*
Y212598D03*
Y224409D03*
Y228346D03*
Y240157D03*
Y244094D03*
Y255906D03*
Y259843D03*
Y397638D03*
Y401575D03*
Y413386D03*
Y417323D03*
Y429134D03*
Y433071D03*
Y444882D03*
Y448819D03*
Y460630D03*
Y464567D03*
Y476378D03*
Y480315D03*
Y492126D03*
Y496063D03*
Y507874D03*
Y511811D03*
Y531496D03*
Y535433D03*
Y602362D03*
Y606299D03*
Y649606D03*
Y653543D03*
Y681102D03*
Y685039D03*
Y696850D03*
Y700787D03*
Y712598D03*
Y716535D03*
Y728346D03*
Y732284D03*
Y744094D03*
Y748032D03*
Y767716D03*
Y771654D03*
Y838583D03*
Y842520D03*
Y885827D03*
Y889764D03*
Y917323D03*
Y921260D03*
Y933071D03*
Y937008D03*
Y948819D03*
Y952756D03*
Y964567D03*
Y968504D03*
Y980315D03*
Y984252D03*
Y1011811D03*
Y1015748D03*
Y1059055D03*
Y1062992D03*
X295291Y1125967D03*
Y1141715D03*
Y1145652D03*
Y1157463D03*
X295293Y1173213D03*
X295298Y1185030D03*
Y1188966D03*
X295288Y1204702D03*
X295288Y1220454D03*
Y1224391D03*
X295292Y1236209D03*
X295276Y1266929D03*
Y1283465D03*
Y1299213D03*
Y1314961D03*
Y1320709D03*
Y1330709D03*
Y1342520D03*
Y1346457D03*
Y1417323D03*
Y1440945D03*
Y1452756D03*
Y1472441D03*
Y1487008D03*
Y1503937D03*
Y1518898D03*
Y1535433D03*
Y1551181D03*
Y1566929D03*
Y1572677D03*
Y1582677D03*
Y1594488D03*
Y1598425D03*
X299228Y1157463D03*
X299230Y1173213D03*
X299229Y1236209D03*
X314961Y744094D03*
Y748032D03*
Y980315D03*
Y984252D03*
X334646Y728346D03*
Y732284D03*
Y964567D03*
Y968504D03*
X354331Y712598D03*
Y716535D03*
Y948819D03*
Y952756D03*
X393701Y696850D03*
Y700787D03*
Y933071D03*
Y937008D03*
X488204Y1125964D03*
X488208Y1204711D03*
X492126Y51181D03*
Y55118D03*
Y66929D03*
Y70866D03*
Y82677D03*
Y86614D03*
Y98425D03*
Y102362D03*
Y114173D03*
Y118110D03*
Y129921D03*
Y133858D03*
Y145669D03*
Y149606D03*
Y397638D03*
Y401575D03*
Y413386D03*
Y417323D03*
Y429134D03*
Y433071D03*
Y444882D03*
Y448819D03*
Y460630D03*
Y464567D03*
Y476378D03*
Y480315D03*
Y492126D03*
Y496063D03*
Y507874D03*
Y511811D03*
Y618110D03*
Y622047D03*
Y665354D03*
Y669291D03*
Y854331D03*
Y858268D03*
Y901575D03*
Y905512D03*
Y1011811D03*
Y1015748D03*
Y1059055D03*
Y1062992D03*
X492141Y1125964D03*
X492141Y1141715D03*
Y1145652D03*
X492146Y1157461D03*
X492141Y1173212D03*
X492150Y1185029D03*
Y1188966D03*
X492145Y1204711D03*
X492140Y1220463D03*
Y1224400D03*
X492136Y1236200D03*
X492126Y1266929D03*
Y1283465D03*
Y1299213D03*
Y1314961D03*
Y1320709D03*
Y1330709D03*
Y1342520D03*
Y1346457D03*
Y1417323D03*
Y1440945D03*
Y1452756D03*
Y1472441D03*
Y1487008D03*
Y1503937D03*
Y1518898D03*
Y1535433D03*
Y1551181D03*
Y1566929D03*
Y1572677D03*
Y1582677D03*
Y1594488D03*
Y1598425D03*
X496083Y1157461D03*
X496078Y1173212D03*
X496073Y1236200D03*
X527574Y1125967D03*
X527572Y1204702D03*
X531496Y51181D03*
Y55118D03*
Y66929D03*
Y70866D03*
Y82677D03*
Y86614D03*
Y98425D03*
Y102362D03*
Y114173D03*
Y118110D03*
Y129921D03*
Y133858D03*
Y145669D03*
Y149606D03*
X531493Y161421D03*
Y165358D03*
X531496Y177165D03*
Y181102D03*
Y192913D03*
Y196850D03*
Y208661D03*
Y212598D03*
Y224409D03*
Y228346D03*
Y240157D03*
Y244094D03*
Y255906D03*
Y259843D03*
Y397638D03*
Y401575D03*
Y413386D03*
Y417323D03*
Y429134D03*
Y433071D03*
Y444882D03*
Y448819D03*
Y460630D03*
Y464567D03*
Y476378D03*
Y480315D03*
Y492126D03*
Y496063D03*
Y507874D03*
Y511811D03*
Y531496D03*
Y535433D03*
Y602362D03*
Y606299D03*
Y649606D03*
Y653543D03*
Y681102D03*
Y685039D03*
Y696850D03*
Y700787D03*
Y712598D03*
Y716535D03*
Y728346D03*
Y732284D03*
Y744094D03*
Y748032D03*
Y767716D03*
Y771654D03*
Y838583D03*
Y842520D03*
Y885827D03*
Y889764D03*
Y917323D03*
Y921260D03*
Y933071D03*
Y937008D03*
Y948819D03*
Y952756D03*
Y964567D03*
Y968504D03*
Y980315D03*
Y984252D03*
Y1011811D03*
Y1015748D03*
Y1059055D03*
Y1062992D03*
X531511Y1125967D03*
Y1141715D03*
Y1145652D03*
Y1157463D03*
X531514Y1173213D03*
X531519Y1185030D03*
Y1188966D03*
X531508Y1204702D03*
X531508Y1220454D03*
Y1224391D03*
X531512Y1236209D03*
X531496Y1266929D03*
Y1283465D03*
Y1299213D03*
Y1314961D03*
Y1320709D03*
Y1330709D03*
Y1342520D03*
Y1346457D03*
Y1417323D03*
Y1440945D03*
Y1452756D03*
Y1472441D03*
Y1487008D03*
Y1503937D03*
Y1518898D03*
Y1535433D03*
Y1551181D03*
Y1566929D03*
Y1572677D03*
Y1582677D03*
Y1594488D03*
Y1598425D03*
X535448Y1157463D03*
X535451Y1173213D03*
X535450Y1236209D03*
X551181Y744094D03*
Y748032D03*
Y980315D03*
Y984252D03*
X570866Y728346D03*
Y732284D03*
Y964567D03*
Y968504D03*
X590551Y712598D03*
Y716535D03*
Y948819D03*
Y952756D03*
X629922Y696850D03*
Y700787D03*
Y933071D03*
Y937008D03*
X724425Y1125964D03*
X724429Y1204711D03*
X728347Y51181D03*
Y55118D03*
Y66929D03*
Y70866D03*
Y82677D03*
Y86614D03*
Y98425D03*
Y102362D03*
Y114173D03*
Y118110D03*
Y129921D03*
Y133858D03*
Y145669D03*
Y149606D03*
Y397638D03*
Y401575D03*
Y413386D03*
Y417323D03*
Y429134D03*
Y433071D03*
Y444882D03*
Y448819D03*
Y460630D03*
Y464567D03*
Y476378D03*
Y480315D03*
Y492126D03*
Y496063D03*
Y507874D03*
Y511811D03*
Y618110D03*
Y622047D03*
Y665354D03*
Y669291D03*
Y854331D03*
Y858268D03*
Y901575D03*
Y905512D03*
Y1011811D03*
Y1015748D03*
Y1059055D03*
Y1062992D03*
X728362Y1125964D03*
X728361Y1141715D03*
Y1145652D03*
X728366Y1157461D03*
X728361Y1173212D03*
X728370Y1185029D03*
Y1188966D03*
X728366Y1204711D03*
X728361Y1220463D03*
Y1224400D03*
X728357Y1236200D03*
X728347Y1266929D03*
Y1283465D03*
Y1299213D03*
Y1314961D03*
Y1320709D03*
Y1330709D03*
Y1342520D03*
Y1346457D03*
Y1417323D03*
Y1440945D03*
Y1452756D03*
Y1472441D03*
Y1487008D03*
Y1503937D03*
Y1518898D03*
Y1535433D03*
Y1551181D03*
Y1566929D03*
Y1572677D03*
Y1582677D03*
Y1594488D03*
Y1598425D03*
X732303Y1157461D03*
X732298Y1173212D03*
X732294Y1236200D03*
X763794Y1125967D03*
X763792Y1204702D03*
X767717Y51181D03*
Y55118D03*
Y66929D03*
Y70866D03*
Y82677D03*
Y86614D03*
Y98425D03*
Y102362D03*
Y114173D03*
Y118110D03*
Y129921D03*
Y133858D03*
Y145669D03*
Y149606D03*
X767714Y161421D03*
Y165358D03*
X767717Y177165D03*
Y181102D03*
Y192913D03*
Y196850D03*
Y208661D03*
Y212598D03*
Y224409D03*
Y228346D03*
Y240157D03*
Y244094D03*
Y255906D03*
Y259843D03*
Y397638D03*
Y401575D03*
Y413386D03*
Y417323D03*
Y429134D03*
Y433071D03*
Y444882D03*
Y448819D03*
Y460630D03*
Y464567D03*
Y476378D03*
Y480315D03*
Y492126D03*
Y496063D03*
Y507874D03*
Y511811D03*
Y531496D03*
Y535433D03*
Y602362D03*
Y606299D03*
Y649606D03*
Y653543D03*
Y681102D03*
Y685039D03*
Y696850D03*
Y700787D03*
Y712598D03*
Y716535D03*
Y728346D03*
Y732284D03*
Y744094D03*
Y748032D03*
Y767716D03*
Y771654D03*
Y838583D03*
Y842520D03*
Y885827D03*
Y889764D03*
Y917323D03*
Y921260D03*
Y933071D03*
Y937008D03*
Y948819D03*
Y952756D03*
Y964567D03*
Y968504D03*
Y980315D03*
Y984252D03*
Y1011811D03*
Y1015748D03*
Y1059055D03*
Y1062992D03*
X767731Y1125967D03*
Y1141715D03*
Y1145652D03*
Y1157463D03*
X767734Y1173213D03*
X767739Y1185030D03*
Y1188966D03*
X767729Y1204702D03*
X767728Y1220454D03*
Y1224391D03*
X767733Y1236209D03*
X767717Y1266929D03*
Y1283465D03*
Y1299213D03*
Y1314961D03*
Y1320709D03*
Y1330709D03*
Y1342520D03*
Y1346457D03*
Y1417323D03*
Y1440945D03*
Y1452756D03*
Y1472441D03*
Y1487008D03*
Y1503937D03*
Y1518898D03*
Y1535433D03*
Y1551181D03*
Y1566929D03*
Y1572677D03*
Y1582677D03*
Y1594488D03*
Y1598425D03*
X771668Y1157463D03*
X771671Y1173213D03*
X771670Y1236209D03*
X787402Y744094D03*
Y748032D03*
Y980315D03*
Y984252D03*
X807087Y728346D03*
Y732284D03*
Y964567D03*
Y968504D03*
X826772Y712598D03*
Y716535D03*
Y948819D03*
Y952756D03*
X866142Y696850D03*
Y700787D03*
Y933071D03*
Y937008D03*
X960645Y1125964D03*
X960649Y1204711D03*
X964567Y51181D03*
Y55118D03*
Y66929D03*
Y70866D03*
Y82677D03*
Y86614D03*
Y98425D03*
Y102362D03*
Y114173D03*
Y118110D03*
Y129921D03*
Y133858D03*
Y145669D03*
Y149606D03*
Y397638D03*
Y401575D03*
Y413386D03*
Y417323D03*
Y429134D03*
Y433071D03*
Y444882D03*
Y448819D03*
Y460630D03*
Y464567D03*
Y476378D03*
Y480315D03*
Y492126D03*
Y496063D03*
Y507874D03*
Y511811D03*
Y618110D03*
Y622047D03*
Y665354D03*
Y669291D03*
Y854331D03*
Y858268D03*
Y901575D03*
Y905512D03*
Y1011811D03*
Y1015748D03*
Y1059055D03*
Y1062992D03*
X964582Y1125964D03*
X964582Y1141715D03*
Y1145652D03*
X964586Y1157461D03*
X964582Y1173212D03*
X964591Y1185029D03*
Y1188966D03*
X964586Y1204711D03*
X964581Y1220463D03*
Y1224400D03*
X964577Y1236200D03*
X964567Y1266929D03*
Y1283465D03*
Y1299213D03*
Y1314961D03*
Y1320709D03*
Y1330709D03*
Y1342520D03*
Y1346457D03*
Y1417323D03*
Y1440945D03*
Y1452756D03*
Y1472441D03*
Y1487008D03*
Y1503937D03*
Y1518898D03*
Y1535433D03*
Y1551181D03*
Y1566929D03*
Y1572677D03*
Y1582677D03*
Y1594488D03*
Y1598425D03*
X968523Y1157461D03*
X968519Y1173212D03*
X968514Y1236200D03*
X1000015Y1125967D03*
X1000012Y1204702D03*
X1003937Y51181D03*
Y55118D03*
Y66929D03*
Y70866D03*
Y82677D03*
Y86614D03*
Y98425D03*
Y102362D03*
Y114173D03*
Y118110D03*
Y129921D03*
Y133858D03*
Y145669D03*
Y149606D03*
X1003934Y161421D03*
Y165358D03*
X1003937Y177165D03*
Y181102D03*
Y192913D03*
Y196850D03*
Y208661D03*
Y212598D03*
Y224409D03*
Y228346D03*
Y240157D03*
Y244094D03*
Y255906D03*
Y259843D03*
Y397638D03*
Y401575D03*
Y413386D03*
Y417323D03*
Y429134D03*
Y433071D03*
Y444882D03*
Y448819D03*
Y460630D03*
Y464567D03*
Y476378D03*
Y480315D03*
Y492126D03*
Y496063D03*
Y507874D03*
Y511811D03*
Y531496D03*
Y535433D03*
Y602362D03*
Y606299D03*
Y649606D03*
Y653543D03*
Y681102D03*
Y685039D03*
Y696850D03*
Y700787D03*
Y712598D03*
Y716535D03*
Y728346D03*
Y732284D03*
Y744094D03*
Y748032D03*
Y767716D03*
Y771654D03*
Y838583D03*
Y842520D03*
Y885827D03*
Y889764D03*
Y917323D03*
Y921260D03*
Y933071D03*
Y937008D03*
Y948819D03*
Y952756D03*
Y964567D03*
Y968504D03*
Y980315D03*
Y984252D03*
Y1011811D03*
Y1015748D03*
Y1059055D03*
Y1062992D03*
X1003952Y1125967D03*
Y1141715D03*
Y1145652D03*
Y1157463D03*
X1003954Y1173213D03*
X1003960Y1185030D03*
Y1188966D03*
X1003949Y1204702D03*
X1003949Y1220454D03*
Y1224391D03*
X1003953Y1236209D03*
X1003937Y1266929D03*
Y1283465D03*
Y1299213D03*
Y1314961D03*
Y1320709D03*
Y1330709D03*
Y1342520D03*
Y1346457D03*
Y1417323D03*
Y1440945D03*
Y1452756D03*
Y1472441D03*
Y1487008D03*
Y1503937D03*
Y1518898D03*
Y1535433D03*
Y1551181D03*
Y1566929D03*
Y1572677D03*
Y1582677D03*
Y1594488D03*
Y1598425D03*
X1007889Y1157463D03*
X1007891Y1173213D03*
X1007890Y1236209D03*
X1023622Y744094D03*
Y748032D03*
Y980315D03*
Y984252D03*
X1043307Y728346D03*
Y732284D03*
Y964567D03*
Y968504D03*
X1062992Y712598D03*
Y716535D03*
Y948819D03*
Y952756D03*
X1102362Y696850D03*
Y700787D03*
Y933071D03*
Y937008D03*
X1196866Y1125964D03*
X1196869Y1204711D03*
X1200788Y51181D03*
Y55118D03*
Y66929D03*
Y70866D03*
Y82677D03*
Y86614D03*
Y98425D03*
Y102362D03*
Y114173D03*
Y118110D03*
Y129921D03*
Y133858D03*
Y145669D03*
Y149606D03*
Y397638D03*
Y401575D03*
Y413386D03*
Y417323D03*
Y429134D03*
Y433071D03*
Y444882D03*
Y448819D03*
Y460630D03*
Y464567D03*
Y476378D03*
Y480315D03*
Y492126D03*
Y496063D03*
Y507874D03*
Y511811D03*
Y618110D03*
Y622047D03*
Y665354D03*
Y669291D03*
Y854331D03*
Y858268D03*
Y901575D03*
Y905512D03*
Y1011811D03*
Y1015748D03*
Y1059055D03*
Y1062992D03*
X1200802Y1125964D03*
X1200802Y1141715D03*
Y1145652D03*
X1200807Y1157461D03*
X1200802Y1173212D03*
X1200811Y1185029D03*
Y1188966D03*
X1200806Y1204711D03*
X1200802Y1220463D03*
Y1224400D03*
X1200798Y1236200D03*
X1200788Y1266929D03*
Y1283465D03*
Y1299213D03*
Y1314961D03*
Y1320709D03*
Y1330709D03*
Y1342520D03*
Y1346457D03*
Y1417323D03*
Y1440945D03*
Y1452756D03*
Y1472441D03*
Y1487008D03*
Y1503937D03*
Y1518898D03*
Y1535433D03*
Y1551181D03*
Y1566929D03*
Y1572677D03*
Y1582677D03*
Y1594488D03*
Y1598425D03*
X1204744Y1157461D03*
X1204739Y1173212D03*
X1204735Y1236200D03*
X1236235Y1125967D03*
X1236233Y1204702D03*
X1240158Y51181D03*
Y55118D03*
Y66929D03*
Y70866D03*
Y82677D03*
Y86614D03*
Y98425D03*
Y102362D03*
Y114173D03*
Y118110D03*
Y129921D03*
Y133858D03*
Y145669D03*
Y149606D03*
X1240154Y161421D03*
Y165358D03*
X1240158Y177165D03*
Y181102D03*
Y192913D03*
Y196850D03*
Y208661D03*
Y212598D03*
Y224409D03*
Y228346D03*
Y240157D03*
Y244094D03*
Y255906D03*
Y259843D03*
Y397638D03*
Y401575D03*
Y413386D03*
Y417323D03*
Y429134D03*
Y433071D03*
Y444882D03*
Y448819D03*
Y460630D03*
Y464567D03*
Y476378D03*
Y480315D03*
Y492126D03*
Y496063D03*
Y507874D03*
Y511811D03*
Y531496D03*
Y535433D03*
Y602362D03*
Y606299D03*
Y649606D03*
Y653543D03*
Y681102D03*
Y685039D03*
Y696850D03*
Y700787D03*
Y712598D03*
Y716535D03*
Y728346D03*
Y732284D03*
Y744094D03*
Y748032D03*
Y767716D03*
Y771654D03*
Y838583D03*
Y842520D03*
Y885827D03*
Y889764D03*
Y917323D03*
Y921260D03*
Y933071D03*
Y937008D03*
Y948819D03*
Y952756D03*
Y964567D03*
Y968504D03*
Y980315D03*
Y984252D03*
Y1011811D03*
Y1015748D03*
Y1059055D03*
Y1062992D03*
X1240172Y1125967D03*
Y1141715D03*
Y1145652D03*
Y1157463D03*
X1240175Y1173213D03*
X1240180Y1185030D03*
Y1188966D03*
X1240170Y1204702D03*
X1240169Y1220454D03*
Y1224391D03*
X1240174Y1236209D03*
X1240158Y1266929D03*
Y1283465D03*
Y1299213D03*
Y1314961D03*
Y1320709D03*
Y1330709D03*
Y1342520D03*
Y1346457D03*
Y1417323D03*
Y1440945D03*
Y1452756D03*
Y1472441D03*
Y1487008D03*
Y1503937D03*
Y1518898D03*
Y1535433D03*
Y1551181D03*
Y1566929D03*
Y1572677D03*
Y1582677D03*
Y1594488D03*
Y1598425D03*
X1244109Y1157463D03*
X1244112Y1173213D03*
X1244111Y1236209D03*
X1259843Y744094D03*
Y748032D03*
Y980315D03*
Y984252D03*
X1279528Y728346D03*
Y732284D03*
Y964567D03*
Y968504D03*
X1299213Y712598D03*
Y716535D03*
Y948819D03*
Y952756D03*
X1338583Y696850D03*
Y700787D03*
Y933071D03*
Y937008D03*
X1433086Y1125964D03*
X1433090Y1204711D03*
X1437008Y51181D03*
Y55118D03*
Y66929D03*
Y70866D03*
Y82677D03*
Y86614D03*
Y98425D03*
Y102362D03*
Y114173D03*
Y118110D03*
Y129921D03*
Y133858D03*
Y145669D03*
Y149606D03*
Y397638D03*
Y401575D03*
Y413386D03*
Y417323D03*
Y429134D03*
Y433071D03*
Y444882D03*
Y448819D03*
Y460630D03*
Y464567D03*
Y476378D03*
Y480315D03*
Y492126D03*
Y496063D03*
Y507874D03*
Y511811D03*
Y618110D03*
Y622047D03*
Y665354D03*
Y669291D03*
Y854331D03*
Y858268D03*
Y901575D03*
Y905512D03*
Y1011811D03*
Y1015748D03*
Y1059055D03*
Y1062992D03*
X1437023Y1125964D03*
X1437023Y1141715D03*
Y1145652D03*
X1437027Y1157461D03*
X1437023Y1173212D03*
X1437032Y1185029D03*
Y1188966D03*
X1437027Y1204711D03*
X1437022Y1220463D03*
Y1224400D03*
X1437018Y1236200D03*
X1437008Y1266929D03*
Y1283465D03*
Y1299213D03*
Y1314961D03*
Y1320709D03*
Y1330709D03*
Y1342520D03*
Y1346457D03*
Y1417323D03*
Y1440945D03*
Y1452756D03*
Y1472441D03*
Y1487008D03*
Y1503937D03*
Y1518898D03*
Y1535433D03*
Y1551181D03*
Y1566929D03*
Y1572677D03*
Y1582677D03*
Y1594488D03*
Y1598425D03*
X1440964Y1157461D03*
X1440960Y1173212D03*
X1440955Y1236200D03*
G54D12*
X59055Y287402D03*
Y291339D03*
Y334646D03*
Y338583D03*
X255906Y287402D03*
Y291339D03*
Y334646D03*
Y338583D03*
X295276Y287402D03*
Y291339D03*
Y334646D03*
Y338583D03*
X492126Y287402D03*
Y291339D03*
Y334646D03*
Y338583D03*
X531496Y287402D03*
Y291339D03*
Y334646D03*
Y338583D03*
X728347Y287402D03*
Y291339D03*
Y334646D03*
Y338583D03*
X767717Y287402D03*
Y291339D03*
Y334646D03*
Y338583D03*
X964567Y287402D03*
Y291339D03*
Y334646D03*
Y338583D03*
X1003937Y287402D03*
Y291339D03*
Y334646D03*
Y338583D03*
X1200788Y287402D03*
Y291339D03*
Y334646D03*
Y338583D03*
X1240158Y287402D03*
Y291339D03*
Y334646D03*
Y338583D03*
X1437008Y287402D03*
Y291339D03*
Y334646D03*
Y338583D03*
G54D13*
X59055Y303150D03*
Y307087D03*
Y350394D03*
Y354331D03*
X255906Y303150D03*
Y307087D03*
Y350394D03*
Y354331D03*
X295276Y303150D03*
Y307087D03*
Y350394D03*
Y354331D03*
X492126Y303150D03*
Y307087D03*
Y350394D03*
Y354331D03*
X531496Y303150D03*
Y307087D03*
Y350394D03*
Y354331D03*
X728347Y303150D03*
Y307087D03*
Y350394D03*
Y354331D03*
X767717Y303150D03*
Y307087D03*
Y350394D03*
Y354331D03*
X964567Y303150D03*
Y307087D03*
Y350394D03*
Y354331D03*
X1003937Y303150D03*
Y307087D03*
Y350394D03*
Y354331D03*
X1200788Y303150D03*
Y307087D03*
Y350394D03*
Y354331D03*
X1240158Y303150D03*
Y307087D03*
Y350394D03*
Y354331D03*
X1437008Y303150D03*
Y307087D03*
Y350394D03*
Y354331D03*
G54D14*
X59055Y318898D03*
Y322835D03*
Y366142D03*
Y370079D03*
X255906Y318898D03*
Y322835D03*
Y366142D03*
Y370079D03*
X295276Y318898D03*
Y322835D03*
Y366142D03*
Y370079D03*
X492126Y318898D03*
Y322835D03*
Y366142D03*
Y370079D03*
X531496Y318898D03*
Y322835D03*
Y366142D03*
Y370079D03*
X728347Y318898D03*
Y322835D03*
Y366142D03*
Y370079D03*
X767717Y318898D03*
Y322835D03*
Y366142D03*
Y370079D03*
X964567Y318898D03*
Y322835D03*
Y366142D03*
Y370079D03*
X1003937Y318898D03*
Y322835D03*
Y366142D03*
Y370079D03*
X1200788Y318898D03*
Y322835D03*
Y366142D03*
Y370079D03*
X1240158Y318898D03*
Y322835D03*
Y366142D03*
Y370079D03*
X1437008Y318898D03*
Y322835D03*
Y366142D03*
Y370079D03*
G54D15*
X59055Y1027559D03*
Y1031496D03*
Y1074803D03*
Y1078740D03*
Y1360236D03*
Y1362205D03*
Y1377953D03*
Y1376772D03*
Y1614173D03*
Y1612205D03*
Y1628740D03*
Y1629921D03*
X255906Y1027559D03*
Y1031496D03*
Y1074803D03*
Y1078740D03*
Y1360236D03*
Y1362205D03*
Y1377953D03*
Y1376772D03*
Y1614173D03*
Y1612205D03*
Y1628740D03*
Y1629921D03*
X295276Y1027559D03*
Y1031496D03*
Y1074803D03*
Y1078740D03*
Y1360236D03*
Y1362205D03*
Y1376772D03*
Y1377953D03*
Y1612205D03*
Y1614173D03*
Y1628740D03*
Y1629921D03*
X492126Y1027559D03*
Y1031496D03*
Y1074803D03*
Y1078740D03*
Y1360236D03*
Y1362205D03*
Y1376772D03*
Y1377953D03*
Y1612205D03*
Y1614173D03*
Y1628740D03*
Y1629921D03*
X531496Y1027559D03*
Y1031496D03*
Y1074803D03*
Y1078740D03*
Y1360236D03*
Y1362205D03*
Y1376772D03*
Y1377953D03*
Y1612205D03*
Y1614173D03*
Y1628740D03*
Y1629921D03*
X728347Y1027559D03*
Y1031496D03*
Y1074803D03*
Y1078740D03*
Y1360236D03*
Y1362205D03*
Y1376772D03*
Y1377953D03*
Y1612205D03*
Y1614173D03*
Y1628740D03*
Y1629921D03*
X767717Y1027559D03*
Y1031496D03*
Y1074803D03*
Y1078740D03*
Y1360236D03*
Y1362205D03*
Y1376772D03*
Y1377953D03*
Y1612205D03*
Y1614173D03*
Y1628740D03*
Y1629921D03*
X964567Y1027559D03*
Y1031496D03*
Y1074803D03*
Y1078740D03*
Y1360236D03*
Y1362205D03*
Y1376772D03*
Y1377953D03*
Y1612205D03*
Y1614173D03*
Y1628740D03*
Y1629921D03*
X1003937Y1027559D03*
Y1031496D03*
Y1074803D03*
Y1078740D03*
Y1360236D03*
Y1362205D03*
Y1376772D03*
Y1377953D03*
Y1612205D03*
Y1614173D03*
Y1628740D03*
Y1629921D03*
X1200788Y1027559D03*
Y1031496D03*
Y1074803D03*
Y1078740D03*
Y1360236D03*
Y1362205D03*
Y1376772D03*
Y1377953D03*
Y1612205D03*
Y1614173D03*
Y1628740D03*
Y1629921D03*
X1240158Y1027559D03*
Y1031496D03*
Y1074803D03*
Y1078740D03*
Y1360236D03*
Y1362205D03*
Y1376772D03*
Y1377953D03*
Y1612205D03*
Y1614173D03*
Y1628740D03*
Y1629921D03*
X1437008Y1027559D03*
Y1031496D03*
Y1074803D03*
Y1078740D03*
Y1360236D03*
Y1362205D03*
Y1376772D03*
Y1377953D03*
Y1612205D03*
Y1614173D03*
Y1628740D03*
Y1629921D03*
G54D16*
X59055Y1043307D03*
Y1047244D03*
Y1090551D03*
Y1094488D03*
X255906Y1043307D03*
Y1047244D03*
Y1090551D03*
Y1094488D03*
X295276Y1043307D03*
Y1047244D03*
Y1090551D03*
Y1094488D03*
X492126Y1043307D03*
Y1047244D03*
Y1090551D03*
Y1094488D03*
X531496Y1043307D03*
Y1047244D03*
Y1090551D03*
Y1094488D03*
X728347Y1043307D03*
Y1047244D03*
Y1090551D03*
Y1094488D03*
X767717Y1043307D03*
Y1047244D03*
Y1090551D03*
Y1094488D03*
X964567Y1043307D03*
Y1047244D03*
Y1090551D03*
Y1094488D03*
X1003937Y1043307D03*
Y1047244D03*
Y1090551D03*
Y1094488D03*
X1200788Y1043307D03*
Y1047244D03*
Y1090551D03*
Y1094488D03*
X1240158Y1043307D03*
Y1047244D03*
Y1090551D03*
Y1094488D03*
X1437008Y1043307D03*
Y1047244D03*
Y1090551D03*
Y1094488D03*
G54D17*
X59055Y1392716D03*
Y1393701D03*
Y1645669D03*
Y1644685D03*
X255906Y1392716D03*
Y1393701D03*
Y1644685D03*
Y1645669D03*
X295276Y1392716D03*
Y1393701D03*
Y1644685D03*
Y1645669D03*
X492126Y1392716D03*
Y1393701D03*
Y1644685D03*
Y1645669D03*
X531496Y1392716D03*
Y1393701D03*
Y1644685D03*
Y1645669D03*
X728347Y1392716D03*
Y1393701D03*
Y1644685D03*
Y1645669D03*
X767717Y1392716D03*
Y1393701D03*
Y1644685D03*
Y1645669D03*
X964567Y1392716D03*
Y1393701D03*
Y1644685D03*
Y1645669D03*
X1003937Y1392716D03*
Y1393701D03*
Y1644685D03*
Y1645669D03*
X1200788Y1392716D03*
Y1393701D03*
Y1644685D03*
Y1645669D03*
X1240158Y1392716D03*
Y1393701D03*
Y1644685D03*
Y1645669D03*
X1437008Y1392716D03*
Y1393701D03*
Y1644685D03*
Y1645669D03*
G54D18*
G01X10000Y0D02*
X1486063D01*
G03X1496063Y10000I0J10000D01*
G01Y1690787D01*
G03X1486063Y1700787I-10000J0D01*
G01X10000D01*
G03X0Y1690787I0J-10000D01*
G01Y10000D01*
G03X10000Y0I10000J0D01*
G01X45424Y39391D02*
G03I-6000J0D01*
G01X45470Y1661436D02*
G03I-6000J0D01*
G01X753741Y39460D02*
G03I-6000J0D01*
G01X753694Y1661390D02*
G03I-6000J0D01*
G01X1462811Y39414D02*
G03I-6000J0D01*
G01X1462778Y1661344D02*
G03I-6000J0D01*
M02*
