G04 ================== begin FILE IDENTIFICATION RECORD ==================*
G04 Layout Name:  VGSophi_XNJZ V1.0.brd*
G04 Film Name:    TOP*
G04 File Format:  Gerber RS274X*
G04 File Origin:  Cadence Allegro 16.6-P004*
G04 Origin Date:  Thu Jul 22 09:50:04 2021*
G04 *
G04 Layer:  BOARD GEOMETRY/OUTLINE*
G04 Layer:  ETCH/TOP*
G04 Layer:  PIN/TOP*
G04 Layer:  VIA CLASS/TOP*
G04 *
G04 Offset:    (0.000 0.000)*
G04 Mirror:    No*
G04 Mode:      Positive*
G04 Rotation:  0*
G04 FullContactRelief:  No*
G04 UndefLineWidth:     5.000*
G04 ================== end FILE IDENTIFICATION RECORD ====================*
%FSLAX25Y25*MOIN*%
%IR0*IPPOS*OFA0.00000B0.00000*MIA0B0*SFA1.00000B1.00000*%
%ADD17C,.006*%
%ADD16C,.008*%
%ADD14C,.02*%
%ADD18C,.03*%
%ADD12C,.012*%
%ADD11C,.04*%
%ADD13C,.024*%
%ADD15C,.018*%
%ADD10C,.03937*%
%ADD19C,.004*%
%ADD20C,.005*%
%ADD21C,.007*%
%ADD22C,.0045*%
%ADD23C,.0085*%
%ADD24C,.01*%
%ADD25C,.011*%
%ADD26C,.025*%
%ADD27C,.016*%
G75*
%LPD*%
G75*
G54D10*
X59055Y39370D03*
Y1661417D03*
X255906Y39370D03*
Y1661417D03*
X295276Y39370D03*
Y1661417D03*
X492126Y39370D03*
Y1661417D03*
X531496Y39370D03*
Y1661417D03*
X728347Y39370D03*
Y1661417D03*
X767717Y39370D03*
Y1661417D03*
X964567Y39370D03*
Y1661417D03*
X1003937Y39370D03*
Y1661417D03*
X1200788Y39370D03*
Y1661417D03*
X1240158Y39370D03*
Y1661417D03*
X1437008Y39370D03*
Y1661417D03*
G54D20*
G01X59055Y51181D02*
X60406D01*
X61579Y52354D01*
X253382D01*
X254555Y51181D01*
X255906D01*
G01X59055Y55118D02*
X60406D01*
X61569Y53954D01*
X253391D01*
X254555Y55118D01*
X255906D01*
G01X295276Y51181D02*
X296626D01*
X297800Y52354D01*
X489603D01*
X490776Y51181D01*
X492126D01*
G01X295276Y55118D02*
X296626D01*
X297790Y53954D01*
X489612D01*
X490776Y55118D01*
X492126D01*
G01X531496Y51181D02*
X532847D01*
X534020Y52354D01*
X725823D01*
X726996Y51181D01*
X728347D01*
G01X531496Y55118D02*
X532847D01*
X534010Y53954D01*
X725832D01*
X726996Y55118D01*
X728347D01*
G01X767717Y51181D02*
X769067D01*
X770240Y52354D01*
X962044D01*
X963217Y51181D01*
X964567D01*
G01X767717Y55118D02*
X769067D01*
X770231Y53954D01*
X962053D01*
X963217Y55118D01*
X964567D01*
G01X1003937Y51181D02*
X1005288D01*
X1006461Y52354D01*
X1198264D01*
X1199437Y51181D01*
X1200788D01*
G01X1003937Y55118D02*
X1005288D01*
X1006451Y53954D01*
X1198273D01*
X1199437Y55118D01*
X1200788D01*
G01X1240158Y51181D02*
X1241508D01*
X1242681Y52354D01*
X1434484D01*
X1435658Y51181D01*
X1437008D01*
G01X1240158Y55118D02*
X1241508D01*
X1242672Y53954D01*
X1434494D01*
X1435658Y55118D01*
X1437008D01*
G54D11*
X55225Y114168D03*
X55235Y129913D03*
Y145661D03*
Y240149D03*
Y255897D03*
Y460622D03*
Y476370D03*
Y492118D03*
Y507866D03*
Y767708D03*
Y838574D03*
X55323Y854508D03*
X55235Y885818D03*
X55278Y901589D03*
X55235Y917315D03*
Y933063D03*
Y948811D03*
Y964559D03*
Y980307D03*
Y1059047D03*
X55214Y1074816D03*
X55227Y1090551D03*
X55259Y1185020D03*
X55140Y1200881D03*
X55247Y1224382D03*
X55255Y1417310D03*
Y1452743D03*
Y1486995D03*
Y1518885D03*
Y1551168D03*
Y1572664D03*
X55255Y1594474D03*
Y1612191D03*
X59089Y1625799D03*
X59054Y1641885D03*
X63017Y1169392D03*
X63016Y1232389D03*
X82561Y980323D03*
X102246Y964575D03*
X121930Y948827D03*
X161301Y933079D03*
X193141Y948831D03*
X212573Y964780D03*
X232282Y980272D03*
X251982Y1200874D03*
X255934Y1625707D03*
X255911Y1641885D03*
X259735Y114168D03*
X259726Y129913D03*
Y145661D03*
Y460622D03*
Y476370D03*
Y492118D03*
Y507866D03*
X259797Y767753D03*
X259715Y838594D03*
X259726Y854339D03*
X259728Y885851D03*
X259726Y901583D03*
X259894Y917429D03*
X259734Y933082D03*
X259756Y948870D03*
X259791Y964705D03*
X259813Y980219D03*
X259718Y1059039D03*
X259739Y1074808D03*
X259726Y1090543D03*
X259849Y1177032D03*
X259749Y1185037D03*
X259741Y1224407D03*
X259862Y1232378D03*
X259706Y1417310D03*
Y1452743D03*
Y1486995D03*
Y1518885D03*
Y1551168D03*
Y1572664D03*
X259707Y1594474D03*
Y1612191D03*
X291446Y114168D03*
X291455Y129913D03*
Y145661D03*
Y240149D03*
Y255897D03*
Y460622D03*
Y476370D03*
Y492118D03*
Y507866D03*
Y767708D03*
Y838574D03*
X291544Y854508D03*
X291455Y885818D03*
X291499Y901589D03*
X291455Y917315D03*
Y933063D03*
Y948811D03*
Y964559D03*
Y980307D03*
Y1059047D03*
X291435Y1074816D03*
X291448Y1090551D03*
X291480Y1185020D03*
X291361Y1200881D03*
X291467Y1224382D03*
X291476Y1417310D03*
Y1452743D03*
Y1486995D03*
Y1518885D03*
Y1551168D03*
Y1572664D03*
X291476Y1594474D03*
Y1612191D03*
X295280Y1625708D03*
Y1641771D03*
X299238Y1169392D03*
X299237Y1232389D03*
X318781Y980323D03*
X338466Y964575D03*
X358151Y948827D03*
X397522Y933079D03*
X429361Y948831D03*
X448794Y964780D03*
X468502Y980272D03*
X488202Y1200874D03*
X492194Y1625841D03*
X492148Y1641864D03*
X495956Y114168D03*
X495947Y129913D03*
Y145661D03*
Y460622D03*
Y476370D03*
Y492118D03*
Y507866D03*
X496018Y767753D03*
X495936Y838594D03*
X495947Y854339D03*
X495949Y885851D03*
X495947Y901583D03*
X496115Y917429D03*
X495954Y933082D03*
X495977Y948870D03*
X496011Y964705D03*
X496034Y980219D03*
X495938Y1059039D03*
X495960Y1074808D03*
X495947Y1090543D03*
X496070Y1177032D03*
X495970Y1185037D03*
X495962Y1224407D03*
X496083Y1232378D03*
X495927Y1417310D03*
Y1452743D03*
Y1486995D03*
Y1518885D03*
Y1551168D03*
Y1572664D03*
X495928Y1594474D03*
Y1612191D03*
X527666Y114168D03*
X527676Y129913D03*
Y145661D03*
Y240149D03*
Y255897D03*
Y460622D03*
Y476370D03*
Y492118D03*
Y507866D03*
Y767708D03*
Y838574D03*
X527764Y854508D03*
X527676Y885818D03*
X527719Y901589D03*
X527676Y917315D03*
Y933063D03*
Y948811D03*
Y964559D03*
Y980307D03*
Y1059047D03*
X527655Y1074816D03*
X527668Y1090551D03*
X527700Y1185020D03*
X527581Y1200881D03*
X527688Y1224382D03*
X527696Y1417310D03*
Y1452743D03*
Y1486995D03*
Y1518885D03*
Y1551168D03*
Y1572664D03*
X527696Y1594474D03*
Y1612191D03*
X531542Y1625840D03*
X531529Y1641885D03*
X535458Y1169392D03*
X535458Y1232389D03*
X555002Y980323D03*
X574687Y964575D03*
X594372Y948827D03*
X633742Y933079D03*
X665582Y948831D03*
X685014Y964780D03*
X704723Y980272D03*
X724423Y1200874D03*
X728386Y1625662D03*
X728340Y1641566D03*
X732177Y114168D03*
X732167Y129913D03*
Y145661D03*
Y460622D03*
Y476370D03*
Y492118D03*
Y507866D03*
X732238Y767753D03*
X732156Y838594D03*
X732167Y854339D03*
X732170Y885851D03*
X732167Y901583D03*
X732336Y917429D03*
X732175Y933082D03*
X732198Y948870D03*
X732232Y964705D03*
X732255Y980219D03*
X732159Y1059039D03*
X732180Y1074808D03*
X732167Y1090543D03*
X732290Y1177032D03*
X732190Y1185037D03*
X732182Y1224407D03*
X732303Y1232378D03*
X732148Y1417310D03*
Y1452743D03*
Y1486995D03*
Y1518885D03*
Y1551168D03*
Y1572664D03*
X732148Y1594474D03*
Y1612191D03*
X763887Y114168D03*
X763896Y129913D03*
Y145661D03*
Y240149D03*
Y255897D03*
Y460622D03*
Y476370D03*
Y492118D03*
Y507866D03*
Y767708D03*
Y838574D03*
X763984Y854508D03*
X763896Y885818D03*
X763940Y901589D03*
X763896Y917315D03*
Y933063D03*
Y948811D03*
Y964559D03*
Y980307D03*
Y1059047D03*
X763875Y1074816D03*
X763888Y1090551D03*
X763920Y1185020D03*
X763801Y1200881D03*
X763908Y1224382D03*
X763917Y1417310D03*
Y1452743D03*
Y1486995D03*
Y1518885D03*
Y1551168D03*
Y1572664D03*
X763916Y1594474D03*
Y1612191D03*
X767686Y1625433D03*
X767755Y1641497D03*
X771679Y1169392D03*
X771678Y1232389D03*
X791222Y980323D03*
X810907Y964575D03*
X830592Y948827D03*
X869962Y933079D03*
X901802Y948831D03*
X921235Y964780D03*
X940943Y980272D03*
X960643Y1200874D03*
X964577Y1625685D03*
X964554Y1641497D03*
X968397Y114168D03*
X968388Y129913D03*
Y145661D03*
Y460622D03*
Y476370D03*
Y492118D03*
Y507866D03*
X968459Y767753D03*
X968377Y838594D03*
X968388Y854339D03*
X968390Y885851D03*
X968388Y901583D03*
X968556Y917429D03*
X968395Y933082D03*
X968418Y948870D03*
X968452Y964705D03*
X968475Y980219D03*
X968379Y1059039D03*
X968401Y1074808D03*
X968388Y1090543D03*
X968510Y1177032D03*
X968411Y1185037D03*
X968403Y1224407D03*
X968523Y1232378D03*
X968368Y1417310D03*
Y1452743D03*
Y1486995D03*
Y1518885D03*
Y1551168D03*
Y1572664D03*
X968368Y1594474D03*
Y1612191D03*
X1000107Y114168D03*
X1000117Y129913D03*
Y145661D03*
Y240149D03*
Y255897D03*
Y460622D03*
Y476370D03*
Y492118D03*
Y507866D03*
Y767708D03*
Y838574D03*
X1000205Y854508D03*
X1000117Y885818D03*
X1000160Y901589D03*
X1000117Y917315D03*
Y933063D03*
Y948811D03*
Y964559D03*
Y980307D03*
Y1059047D03*
X1000096Y1074816D03*
X1000109Y1090551D03*
X1000141Y1185020D03*
X1000022Y1200881D03*
X1000128Y1224382D03*
X1000137Y1417310D03*
Y1452743D03*
Y1486995D03*
Y1518885D03*
Y1551168D03*
Y1572664D03*
X1000137Y1594474D03*
Y1612191D03*
X1003900Y1625640D03*
X1003854Y1641658D03*
X1007899Y1169392D03*
X1007899Y1232389D03*
X1027443Y980323D03*
X1047128Y964575D03*
X1066812Y948827D03*
X1106183Y933079D03*
X1138023Y948831D03*
X1157455Y964780D03*
X1177164Y980272D03*
X1196864Y1200874D03*
X1200860Y1625594D03*
X1200734Y1641474D03*
X1204617Y114168D03*
X1204608Y129913D03*
Y145661D03*
Y460622D03*
Y476370D03*
Y492118D03*
Y507866D03*
X1204679Y767753D03*
X1204597Y838594D03*
X1204608Y854339D03*
X1204610Y885851D03*
X1204608Y901583D03*
X1204776Y917429D03*
X1204616Y933082D03*
X1204638Y948870D03*
X1204673Y964705D03*
X1204695Y980219D03*
X1204600Y1059039D03*
X1204621Y1074808D03*
X1204608Y1090543D03*
X1204731Y1177032D03*
X1204631Y1185037D03*
X1204623Y1224407D03*
X1204744Y1232378D03*
X1204588Y1417310D03*
Y1452743D03*
Y1486995D03*
Y1518885D03*
Y1551168D03*
Y1572664D03*
X1204589Y1594474D03*
Y1612191D03*
X1236328Y114168D03*
X1236337Y129913D03*
Y145661D03*
Y240149D03*
Y255897D03*
Y460622D03*
Y476370D03*
Y492118D03*
Y507866D03*
Y767708D03*
Y838574D03*
X1236425Y854508D03*
X1236337Y885818D03*
X1236380Y901589D03*
X1236337Y917315D03*
Y933063D03*
Y948811D03*
Y964559D03*
Y980307D03*
Y1059047D03*
X1236316Y1074816D03*
X1236329Y1090551D03*
X1236361Y1185020D03*
X1236242Y1200881D03*
X1236349Y1224382D03*
X1236358Y1417310D03*
Y1452743D03*
Y1486995D03*
Y1518885D03*
Y1551168D03*
Y1572664D03*
X1236357Y1594474D03*
Y1612191D03*
X1240126Y1625594D03*
X1240034Y1641223D03*
X1244120Y1169392D03*
X1244119Y1232389D03*
X1263663Y980323D03*
X1283348Y964575D03*
X1303033Y948827D03*
X1342403Y933079D03*
X1374243Y948831D03*
X1393676Y964780D03*
X1413384Y980272D03*
X1433084Y1200874D03*
X1437062Y1625594D03*
X1437051Y1641555D03*
X1440838Y114168D03*
X1440828Y129913D03*
Y145661D03*
Y460622D03*
Y476370D03*
Y492118D03*
Y507866D03*
X1440900Y767753D03*
X1440817Y838594D03*
X1440828Y854339D03*
X1440831Y885851D03*
X1440828Y901583D03*
X1440997Y917429D03*
X1440836Y933082D03*
X1440859Y948870D03*
X1440893Y964705D03*
X1440916Y980219D03*
X1440820Y1059039D03*
X1440841Y1074808D03*
X1440828Y1090543D03*
X1440951Y1177032D03*
X1440852Y1185037D03*
X1440844Y1224407D03*
X1440964Y1232378D03*
X1440809Y1417310D03*
Y1452743D03*
Y1486995D03*
Y1518885D03*
Y1551168D03*
Y1572664D03*
X1440809Y1594474D03*
Y1612191D03*
G54D21*
G01X59055Y118110D02*
X255906D01*
G01X295276D02*
X492126D01*
G01X531496D02*
X728347D01*
G01X767717D02*
X964567D01*
G01X1003937D02*
X1200788D01*
G01X1240158D02*
X1437008D01*
G54D12*
G01X55225Y114168D02*
X59050D01*
X59055Y114173D01*
G01X55235Y129913D02*
X59047D01*
X59055Y129921D01*
G01Y145669D02*
X59047Y145661D01*
X55235D01*
G01D02*
X55243Y145669D01*
G01X59055Y240157D02*
X55243D01*
X55235Y240149D01*
G01X59055Y255906D02*
X55243D01*
X55235Y255897D01*
G01Y460622D02*
X55243Y460630D01*
X59055D01*
G01X55235Y476370D02*
X55243Y476378D01*
X59055D01*
G01X55235Y492118D02*
X55243Y492126D01*
X59055D01*
G01X55235Y507866D02*
X55243Y507874D01*
X59055D01*
G01Y767716D02*
X55243D01*
X55235Y767708D01*
G01Y838574D02*
X55243Y838583D01*
X59055D01*
G01X55331Y854516D02*
X55323Y854508D01*
G01X59055Y885827D02*
X55243D01*
X55235Y885818D01*
G01X55286Y901597D02*
X55278Y901589D01*
G01X59055Y917323D02*
X55243D01*
X55235Y917315D01*
G01X59055Y933071D02*
X55243D01*
X55235Y933063D01*
G01X59055Y948819D02*
X55243D01*
X55235Y948811D01*
G01X59055Y964567D02*
X55243D01*
X55235Y964559D01*
G01X59055Y980315D02*
X55243D01*
X55235Y980307D01*
G01Y1059047D02*
X55243Y1059055D01*
X59055D01*
G01X55214Y1074816D02*
X55222Y1074824D01*
X59034D01*
G01X55227Y1090551D02*
X55235Y1090559D01*
X59047D01*
G01X55266Y1185028D02*
X55259Y1185020D01*
G01D02*
X59068D01*
X59078Y1185030D01*
G01X55130Y1204702D02*
X55140Y1204693D01*
Y1200881D01*
G01X59067Y1224391D02*
X55255Y1224391D01*
X55247Y1224382D01*
G01X59055Y1417323D02*
X59042Y1417310D01*
X55255D01*
G01X59055Y1452756D02*
X59042Y1452743D01*
X55255D01*
G01X59055Y1487008D02*
X59042Y1486995D01*
X55255D01*
G01X59055Y1518898D02*
X59042Y1518885D01*
X55255D01*
G01X59055Y1551181D02*
X59042Y1551168D01*
X55255D01*
G01X59055Y1572677D02*
X59042Y1572664D01*
X55255D01*
G01X59055Y1594488D02*
X59041Y1594474D01*
X55255D01*
G01X59055Y1612205D02*
X59041Y1612191D01*
X55255D01*
G01X63017Y1169392D02*
X63009Y1169401D01*
Y1173213D01*
G01X63008Y1236209D02*
Y1232397D01*
X63016Y1232389D01*
G01X78740Y980315D02*
X82552D01*
X82561Y980323D01*
G01X98425Y964567D02*
X102237D01*
X102246Y964575D01*
G01X118110Y948819D02*
X121922D01*
X121930Y948827D01*
G01X157480Y933071D02*
X161292D01*
X161301Y933079D01*
G01X193148Y948839D02*
X193141Y948831D01*
G01X212582Y964789D02*
X212573Y964780D01*
G01X232289Y980280D02*
X232282Y980272D01*
G01X251987Y1204711D02*
X251982Y1204705D01*
Y1200874D01*
G01X259735Y114168D02*
X255911D01*
X255906Y114173D01*
G01X259726Y129913D02*
X255913D01*
X255906Y129921D01*
G01X259726Y145661D02*
X255914D01*
X255906Y145669D01*
G01Y460630D02*
X259718D01*
X259726Y460622D01*
G01X255906Y476378D02*
X259718D01*
X259726Y476370D01*
G01X255906Y492126D02*
X259718D01*
X259726Y492118D01*
G01X255906Y507874D02*
X259718D01*
X259726Y507866D01*
G01X255906Y854331D02*
X259718D01*
X259726Y854339D01*
G01X255906Y901575D02*
X259718D01*
X259726Y901583D01*
G01X259718Y1059039D02*
X255922D01*
X255906Y1059055D01*
G01X259739Y1074808D02*
X255911D01*
X255906Y1074803D01*
G01Y1090551D02*
X259718D01*
X259726Y1090543D01*
G01X255929Y1185029D02*
X259741D01*
X259749Y1185037D01*
G01X255920Y1224400D02*
X255926Y1224407D01*
X259741D01*
G01X255906Y1417323D02*
X255918Y1417310D01*
X259706D01*
G01X255906Y1452756D02*
X255918Y1452743D01*
X259706D01*
G01X255906Y1487008D02*
X255918Y1486995D01*
X259706D01*
G01X255906Y1518898D02*
X255918Y1518885D01*
X259706D01*
G01X255906Y1551181D02*
X255918Y1551168D01*
X259706D01*
G01X255906Y1572677D02*
X255918Y1572664D01*
X259706D01*
G01X255906Y1594488D02*
X255919Y1594474D01*
X259707D01*
G01X255906Y1612205D02*
X255919Y1612191D01*
X259707D01*
G01X259789Y767745D02*
X259797Y767753D01*
G01X259707Y838585D02*
X259715Y838594D01*
G01X259720Y885843D02*
X259728Y885851D01*
G01X259886Y917421D02*
X259894Y917429D01*
G01X259726Y933073D02*
X259734Y933082D01*
G01X259748Y948862D02*
X259756Y948870D01*
G01X259783Y964697D02*
X259791Y964705D01*
G01X259806Y980211D02*
X259813Y980219D01*
G01X259857Y1173212D02*
Y1177024D01*
X259849Y1177032D01*
G01X259733Y1224399D02*
X259741Y1224407D01*
G01X259862Y1232378D02*
X259853Y1232387D01*
Y1236200D01*
G01X291446Y114168D02*
X295271D01*
X295276Y114173D01*
G01X291455Y129913D02*
X295268D01*
X295276Y129921D01*
G01Y145669D02*
X295268Y145661D01*
X291455D01*
G01D02*
X291464Y145669D01*
G01X295276Y240157D02*
X291464D01*
X291455Y240149D01*
G01X295276Y255906D02*
X291464D01*
X291455Y255897D01*
G01Y460622D02*
X291464Y460630D01*
X295276D01*
G01X291455Y476370D02*
X291464Y476378D01*
X295276D01*
G01X291455Y492118D02*
X291464Y492126D01*
X295276D01*
G01X291455Y507866D02*
X291464Y507874D01*
X295276D01*
G01Y767716D02*
X291464D01*
X291455Y767708D01*
G01Y838574D02*
X291464Y838583D01*
X295276D01*
G01X291552Y854516D02*
X291544Y854508D01*
G01X295276Y885827D02*
X291464D01*
X291455Y885818D01*
G01X291507Y901597D02*
X291499Y901589D01*
G01X295276Y917323D02*
X291464D01*
X291455Y917315D01*
G01X295276Y933071D02*
X291464D01*
X291455Y933063D01*
G01X295276Y948819D02*
X291464D01*
X291455Y948811D01*
G01X295276Y964567D02*
X291464D01*
X291455Y964559D01*
G01X295276Y980315D02*
X291464D01*
X291455Y980307D01*
G01Y1059047D02*
X291464Y1059055D01*
X295276D01*
G01X291435Y1074816D02*
X291442Y1074824D01*
X295255D01*
G01X291448Y1090551D02*
X291456Y1090559D01*
X295268D01*
G01X291480Y1185020D02*
X295289D01*
X295298Y1185030D01*
G01X291487Y1185028D02*
X291480Y1185020D01*
G01X291351Y1204702D02*
X291361Y1204693D01*
Y1200881D01*
G01X295288Y1224391D02*
X291476Y1224391D01*
X291467Y1224382D01*
G01X295276Y1417323D02*
X295263Y1417310D01*
X291476D01*
G01X295276Y1452756D02*
X295263Y1452743D01*
X291476D01*
G01X295276Y1487008D02*
X295263Y1486995D01*
X291476D01*
G01X295276Y1518898D02*
X295263Y1518885D01*
X291476D01*
G01X295276Y1551181D02*
X295263Y1551168D01*
X291476D01*
G01X295276Y1572677D02*
X295263Y1572664D01*
X291476D01*
G01X295276Y1594488D02*
X295262Y1594474D01*
X291476D01*
G01X295276Y1612205D02*
X295262Y1612191D01*
X291476D01*
G01X299238Y1169392D02*
X299230Y1169401D01*
Y1173213D01*
G01X299229Y1236209D02*
Y1232397D01*
X299237Y1232389D01*
G01X314961Y980315D02*
X318773D01*
X318781Y980323D01*
G01X334646Y964567D02*
X338458D01*
X338466Y964575D01*
G01X354331Y948819D02*
X358143D01*
X358151Y948827D01*
G01X393701Y933071D02*
X397513D01*
X397522Y933079D01*
G01X429369Y948839D02*
X429361Y948831D01*
G01X448802Y964789D02*
X448794Y964780D01*
G01X468510Y980280D02*
X468502Y980272D01*
G01X488208Y1204711D02*
X488202Y1204705D01*
Y1200874D01*
G01X495956Y114168D02*
X492131D01*
X492126Y114173D01*
G01X495947Y129913D02*
X492134D01*
X492126Y129921D01*
G01X495947Y145661D02*
X492135D01*
X492126Y145669D01*
G01Y460630D02*
X495938D01*
X495947Y460622D01*
G01X492126Y476378D02*
X495938D01*
X495947Y476370D01*
G01X492126Y492126D02*
X495938D01*
X495947Y492118D01*
G01X492126Y507874D02*
X495938D01*
X495947Y507866D01*
G01X492126Y854331D02*
X495938D01*
X495947Y854339D01*
G01X492126Y901575D02*
X495938D01*
X495947Y901583D01*
G01X495938Y1059039D02*
X492142D01*
X492126Y1059055D01*
G01X495960Y1074808D02*
X492131D01*
X492126Y1074803D01*
G01Y1090551D02*
X495938D01*
X495947Y1090543D01*
G01X492150Y1185029D02*
X495962D01*
X495970Y1185037D01*
G01X495962Y1224407D02*
X492147D01*
X492140Y1224400D01*
G01X492126Y1417323D02*
X492139Y1417310D01*
X495927D01*
G01X492126Y1452756D02*
X492139Y1452743D01*
X495927D01*
G01X492126Y1487008D02*
X492139Y1486995D01*
X495927D01*
G01X492126Y1518898D02*
X492139Y1518885D01*
X495927D01*
G01X492126Y1551181D02*
X492139Y1551168D01*
X495927D01*
G01X492126Y1572677D02*
X492139Y1572664D01*
X495927D01*
G01X492126Y1594488D02*
X492140Y1594474D01*
X495928D01*
G01X492126Y1612205D02*
X492140Y1612191D01*
X495928D01*
G01X496010Y767745D02*
X496018Y767753D01*
G01X495928Y838585D02*
X495936Y838594D01*
G01X495941Y885843D02*
X495949Y885851D01*
G01X496107Y917421D02*
X496115Y917429D01*
G01X495946Y933073D02*
X495954Y933082D01*
G01X495969Y948862D02*
X495977Y948870D01*
G01X496003Y964697D02*
X496011Y964705D01*
G01X496026Y980211D02*
X496034Y980219D01*
G01X496078Y1173212D02*
Y1177024D01*
X496070Y1177032D01*
G01X495954Y1224399D02*
X495962Y1224407D01*
G01X496083Y1232378D02*
X496073Y1232387D01*
Y1236200D01*
G01X527666Y114168D02*
X531491D01*
X531496Y114173D01*
G01X527676Y129913D02*
X531488D01*
X531496Y129921D01*
G01Y145669D02*
X531488Y145661D01*
X527676D01*
G01D02*
X527684Y145669D01*
G01X531496Y240157D02*
X527684D01*
X527676Y240149D01*
G01X531496Y255906D02*
X527684D01*
X527676Y255897D01*
G01Y460622D02*
X527684Y460630D01*
X531496D01*
G01X527676Y476370D02*
X527684Y476378D01*
X531496D01*
G01X527676Y492118D02*
X527684Y492126D01*
X531496D01*
G01X527676Y507866D02*
X527684Y507874D01*
X531496D01*
G01Y767716D02*
X527684D01*
X527676Y767708D01*
G01Y838574D02*
X527684Y838583D01*
X531496D01*
G01X527772Y854516D02*
X527764Y854508D01*
G01X531496Y885827D02*
X527684D01*
X527676Y885818D01*
G01X527727Y901597D02*
X527719Y901589D01*
G01X531496Y917323D02*
X527684D01*
X527676Y917315D01*
G01X531496Y933071D02*
X527684D01*
X527676Y933063D01*
G01X531496Y948819D02*
X527684D01*
X527676Y948811D01*
G01X531496Y964567D02*
X527684D01*
X527676Y964559D01*
G01X531496Y980315D02*
X527684D01*
X527676Y980307D01*
G01Y1059047D02*
X527684Y1059055D01*
X531496D01*
G01X527655Y1074816D02*
X527663Y1074824D01*
X531475D01*
G01X527668Y1090551D02*
X527676Y1090559D01*
X531488D01*
G01X527700Y1185020D02*
X531509D01*
X531519Y1185030D01*
G01X527708Y1185028D02*
X527700Y1185020D01*
G01X527572Y1204702D02*
X527581Y1204693D01*
Y1200881D01*
G01X531508Y1224391D02*
X527696Y1224391D01*
X527688Y1224382D01*
G01X531496Y1417323D02*
X531483Y1417310D01*
X527696D01*
G01X531496Y1452756D02*
X531483Y1452743D01*
X527696D01*
G01X531496Y1487008D02*
X531483Y1486995D01*
X527696D01*
G01X531496Y1518898D02*
X531483Y1518885D01*
X527696D01*
G01X531496Y1551181D02*
X531483Y1551168D01*
X527696D01*
G01X531496Y1572677D02*
X531483Y1572664D01*
X527696D01*
G01X531496Y1594488D02*
X531482Y1594474D01*
X527696D01*
G01X531496Y1612205D02*
X531482Y1612191D01*
X527696D01*
G01X535458Y1169392D02*
X535451Y1169401D01*
Y1173213D01*
G01X535450Y1236209D02*
Y1232397D01*
X535458Y1232389D01*
G01X551181Y980315D02*
X554994D01*
X555002Y980323D01*
G01X570866Y964567D02*
X574679D01*
X574687Y964575D01*
G01X590551Y948819D02*
X594364D01*
X594372Y948827D01*
G01X629922Y933071D02*
X633734D01*
X633742Y933079D01*
G01X665590Y948839D02*
X665582Y948831D01*
G01X685023Y964789D02*
X685014Y964780D01*
G01X704731Y980280D02*
X704723Y980272D01*
G01X724429Y1204711D02*
X724423Y1204705D01*
Y1200874D01*
G01X732177Y114168D02*
X728352D01*
X728347Y114173D01*
G01X732167Y129913D02*
X728355D01*
X728347Y129921D01*
G01X732167Y145661D02*
X728355D01*
X728347Y145669D01*
G01Y460630D02*
X732159D01*
X732167Y460622D01*
G01X728347Y476378D02*
X732159D01*
X732167Y476370D01*
G01X728347Y492126D02*
X732159D01*
X732167Y492118D01*
G01X728347Y507874D02*
X732159D01*
X732167Y507866D01*
G01X728347Y854331D02*
X732159D01*
X732167Y854339D01*
G01X728347Y901575D02*
X732159D01*
X732167Y901583D01*
G01X732159Y1059039D02*
X728363D01*
X728347Y1059055D01*
G01X732180Y1074808D02*
X728352D01*
X728347Y1074803D01*
G01Y1090551D02*
X732159D01*
X732167Y1090543D01*
G01X728370Y1185029D02*
X732182D01*
X732190Y1185037D01*
G01X732182Y1224407D02*
X728368D01*
X728361Y1224400D01*
G01X728347Y1417323D02*
X728360Y1417310D01*
X732148D01*
G01X728347Y1452756D02*
X728360Y1452743D01*
X732148D01*
G01X728347Y1487008D02*
X728360Y1486995D01*
X732148D01*
G01X728347Y1518898D02*
X728360Y1518885D01*
X732148D01*
G01X728347Y1551181D02*
X728360Y1551168D01*
X732148D01*
G01X728347Y1572677D02*
X728360Y1572664D01*
X732148D01*
G01X728347Y1594488D02*
X728360Y1594474D01*
X732148D01*
G01X728347Y1612205D02*
X728360Y1612191D01*
X732148D01*
G01X732230Y767745D02*
X732238Y767753D01*
G01X732148Y838585D02*
X732156Y838594D01*
G01X732161Y885843D02*
X732170Y885851D01*
G01X732327Y917421D02*
X732336Y917429D01*
G01X732167Y933073D02*
X732175Y933082D01*
G01X732189Y948862D02*
X732198Y948870D01*
G01X732224Y964697D02*
X732232Y964705D01*
G01X732247Y980211D02*
X732255Y980219D01*
G01X732298Y1173212D02*
Y1177024D01*
X732290Y1177032D01*
G01X732174Y1224399D02*
X732182Y1224407D01*
G01X732303Y1232378D02*
X732294Y1232387D01*
Y1236200D01*
G01X763887Y114168D02*
X767712D01*
X767717Y114173D01*
G01X763896Y129913D02*
X767709D01*
X767717Y129921D01*
G01Y145669D02*
X767708Y145661D01*
X763896D01*
G01D02*
X763904Y145669D01*
G01X767717Y240157D02*
X763904D01*
X763896Y240149D01*
G01X767717Y255906D02*
X763904D01*
X763896Y255897D01*
G01Y460622D02*
X763904Y460630D01*
X767717D01*
G01X763896Y476370D02*
X763904Y476378D01*
X767717D01*
G01X763896Y492118D02*
X763904Y492126D01*
X767717D01*
G01X763896Y507866D02*
X763904Y507874D01*
X767717D01*
G01Y767716D02*
X763904D01*
X763896Y767708D01*
G01Y838574D02*
X763904Y838583D01*
X767717D01*
G01X763993Y854516D02*
X763984Y854508D01*
G01X767717Y885827D02*
X763904D01*
X763896Y885818D01*
G01X763948Y901597D02*
X763940Y901589D01*
G01X767717Y917323D02*
X763904D01*
X763896Y917315D01*
G01X767717Y933071D02*
X763904D01*
X763896Y933063D01*
G01X767717Y948819D02*
X763904D01*
X763896Y948811D01*
G01X767717Y964567D02*
X763904D01*
X763896Y964559D01*
G01X767717Y980315D02*
X763904D01*
X763896Y980307D01*
G01Y1059047D02*
X763904Y1059055D01*
X767717D01*
G01X763875Y1074816D02*
X763883Y1074824D01*
X767696D01*
G01X763888Y1090551D02*
X763897Y1090559D01*
X767709D01*
G01X763920Y1185020D02*
X767730D01*
X767739Y1185030D01*
G01X763928Y1185028D02*
X763920Y1185020D01*
G01X763792Y1204702D02*
X763801Y1204693D01*
Y1200881D01*
G01X767728Y1224391D02*
X763916Y1224391D01*
X763908Y1224382D01*
G01X767717Y1417323D02*
X767704Y1417310D01*
X763917D01*
G01X767717Y1452756D02*
X767704Y1452743D01*
X763917D01*
G01X767717Y1487008D02*
X767704Y1486995D01*
X763917D01*
G01X767717Y1518898D02*
X767704Y1518885D01*
X763917D01*
G01X767717Y1551181D02*
X767704Y1551168D01*
X763917D01*
G01X767717Y1572677D02*
X767704Y1572664D01*
X763917D01*
G01X767717Y1594488D02*
X767703Y1594474D01*
X763916D01*
G01X767717Y1612205D02*
X767703Y1612191D01*
X763916D01*
G01X771679Y1169392D02*
X771671Y1169401D01*
Y1173213D01*
G01X771670Y1236209D02*
Y1232397D01*
X771678Y1232389D01*
G01X787402Y980315D02*
X791214D01*
X791222Y980323D01*
G01X807087Y964567D02*
X810899D01*
X810907Y964575D01*
G01X826772Y948819D02*
X830584D01*
X830592Y948827D01*
G01X866142Y933071D02*
X869954D01*
X869962Y933079D01*
G01X901810Y948839D02*
X901802Y948831D01*
G01X921243Y964789D02*
X921235Y964780D01*
G01X940951Y980280D02*
X940943Y980272D01*
G01X960649Y1204711D02*
X960643Y1204705D01*
Y1200874D01*
G01X968397Y114168D02*
X964572D01*
X964567Y114173D01*
G01X968388Y129913D02*
X964575D01*
X964567Y129921D01*
G01X968388Y145661D02*
X964575D01*
X964567Y145669D01*
G01Y460630D02*
X968379D01*
X968388Y460622D01*
G01X964567Y476378D02*
X968379D01*
X968388Y476370D01*
G01X964567Y492126D02*
X968379D01*
X968388Y492118D01*
G01X964567Y507874D02*
X968379D01*
X968388Y507866D01*
G01X964567Y854331D02*
X968379D01*
X968388Y854339D01*
G01X964567Y901575D02*
X968379D01*
X968388Y901583D01*
G01X968379Y1059039D02*
X964583D01*
X964567Y1059055D01*
G01X968401Y1074808D02*
X964572D01*
X964567Y1074803D01*
G01Y1090551D02*
X968379D01*
X968388Y1090543D01*
G01X964591Y1185029D02*
X968403D01*
X968411Y1185037D01*
G01X968403Y1224407D02*
X964588D01*
X964581Y1224400D01*
G01X964567Y1417323D02*
X964580Y1417310D01*
X968368D01*
G01X964567Y1452756D02*
X964580Y1452743D01*
X968368D01*
G01X964567Y1487008D02*
X964580Y1486995D01*
X968368D01*
G01X964567Y1518898D02*
X964580Y1518885D01*
X968368D01*
G01X964567Y1551181D02*
X964580Y1551168D01*
X968368D01*
G01X964567Y1572677D02*
X964580Y1572664D01*
X968368D01*
G01X964567Y1594488D02*
X964581Y1594474D01*
X968368D01*
G01X964567Y1612205D02*
X964581Y1612191D01*
X968368D01*
G01X968451Y767745D02*
X968459Y767753D01*
G01X968368Y838585D02*
X968377Y838594D01*
G01X968382Y885843D02*
X968390Y885851D01*
G01X968548Y917421D02*
X968556Y917429D01*
G01X968387Y933073D02*
X968395Y933082D01*
G01X968410Y948862D02*
X968418Y948870D01*
G01X968444Y964697D02*
X968452Y964705D01*
G01X968467Y980211D02*
X968475Y980219D01*
G01X968519Y1173212D02*
Y1177024D01*
X968510Y1177032D01*
G01X968395Y1224399D02*
X968403Y1224407D01*
G01X968523Y1232378D02*
X968514Y1232387D01*
Y1236200D01*
G01X1000107Y114168D02*
X1003932D01*
X1003937Y114173D01*
G01X1000117Y129913D02*
X1003929D01*
X1003937Y129921D01*
G01Y145669D02*
X1003929Y145661D01*
X1000117D01*
G01D02*
X1000125Y145669D01*
G01X1003937Y240157D02*
X1000125D01*
X1000117Y240149D01*
G01X1003937Y255906D02*
X1000125D01*
X1000117Y255897D01*
G01Y460622D02*
X1000125Y460630D01*
X1003937D01*
G01X1000117Y476370D02*
X1000125Y476378D01*
X1003937D01*
G01X1000117Y492118D02*
X1000125Y492126D01*
X1003937D01*
G01X1000117Y507866D02*
X1000125Y507874D01*
X1003937D01*
G01Y767716D02*
X1000125D01*
X1000117Y767708D01*
G01Y838574D02*
X1000125Y838583D01*
X1003937D01*
G01X1000213Y854516D02*
X1000205Y854508D01*
G01X1003937Y885827D02*
X1000125D01*
X1000117Y885818D01*
G01X1000168Y901597D02*
X1000160Y901589D01*
G01X1003937Y917323D02*
X1000125D01*
X1000117Y917315D01*
G01X1003937Y933071D02*
X1000125D01*
X1000117Y933063D01*
G01X1003937Y948819D02*
X1000125D01*
X1000117Y948811D01*
G01X1003937Y964567D02*
X1000125D01*
X1000117Y964559D01*
G01X1003937Y980315D02*
X1000125D01*
X1000117Y980307D01*
G01Y1059047D02*
X1000125Y1059055D01*
X1003937D01*
G01X1000096Y1074816D02*
X1000104Y1074824D01*
X1003916D01*
G01X1000109Y1090551D02*
X1000117Y1090559D01*
X1003929D01*
G01X1000141Y1185020D02*
X1003950D01*
X1003960Y1185030D01*
G01X1000149Y1185028D02*
X1000141Y1185020D01*
G01X1000012Y1204702D02*
X1000022Y1204693D01*
Y1200881D01*
G01X1003949Y1224391D02*
X1000137Y1224391D01*
X1000128Y1224382D01*
G01X1003937Y1417323D02*
X1003924Y1417310D01*
X1000137D01*
G01X1003937Y1452756D02*
X1003924Y1452743D01*
X1000137D01*
G01X1003937Y1487008D02*
X1003924Y1486995D01*
X1000137D01*
G01X1003937Y1518898D02*
X1003924Y1518885D01*
X1000137D01*
G01X1003937Y1551181D02*
X1003924Y1551168D01*
X1000137D01*
G01X1003937Y1572677D02*
X1003924Y1572664D01*
X1000137D01*
G01X1003937Y1594488D02*
X1003923Y1594474D01*
X1000137D01*
G01X1003937Y1612205D02*
X1003923Y1612191D01*
X1000137D01*
G01X1007899Y1169392D02*
X1007891Y1169401D01*
Y1173213D01*
G01X1007890Y1236209D02*
Y1232397D01*
X1007899Y1232389D01*
G01X1023622Y980315D02*
X1027434D01*
X1027443Y980323D01*
G01X1043307Y964567D02*
X1047119D01*
X1047128Y964575D01*
G01X1062992Y948819D02*
X1066804D01*
X1066812Y948827D01*
G01X1102362Y933071D02*
X1106174D01*
X1106183Y933079D01*
G01X1138030Y948839D02*
X1138023Y948831D01*
G01X1157464Y964789D02*
X1157455Y964780D01*
G01X1177171Y980280D02*
X1177164Y980272D01*
G01X1196869Y1204711D02*
X1196864Y1204705D01*
Y1200874D01*
G01X1204617Y114168D02*
X1200793D01*
X1200788Y114173D01*
G01X1204608Y129913D02*
X1200795D01*
X1200788Y129921D01*
G01X1204608Y145661D02*
X1200796D01*
X1200788Y145669D01*
G01Y460630D02*
X1204600D01*
X1204608Y460622D01*
G01X1200788Y476378D02*
X1204600D01*
X1204608Y476370D01*
G01X1200788Y492126D02*
X1204600D01*
X1204608Y492118D01*
G01X1200788Y507874D02*
X1204600D01*
X1204608Y507866D01*
G01X1200788Y854331D02*
X1204600D01*
X1204608Y854339D01*
G01X1200788Y901575D02*
X1204600D01*
X1204608Y901583D01*
G01X1204600Y1059039D02*
X1200804D01*
X1200788Y1059055D01*
G01X1204621Y1074808D02*
X1200793D01*
X1200788Y1074803D01*
G01Y1090551D02*
X1204600D01*
X1204608Y1090543D01*
G01X1200811Y1185029D02*
X1204623D01*
X1204631Y1185037D01*
G01X1204623Y1224407D02*
X1200808D01*
X1200802Y1224400D01*
G01X1200788Y1417323D02*
X1200800Y1417310D01*
X1204588D01*
G01X1200788Y1452756D02*
X1200800Y1452743D01*
X1204588D01*
G01X1200788Y1487008D02*
X1200800Y1486995D01*
X1204588D01*
G01X1200788Y1518898D02*
X1200800Y1518885D01*
X1204588D01*
G01X1200788Y1551181D02*
X1200800Y1551168D01*
X1204588D01*
G01X1200788Y1572677D02*
X1200800Y1572664D01*
X1204588D01*
G01X1200788Y1594488D02*
X1200801Y1594474D01*
X1204589D01*
G01X1200788Y1612205D02*
X1200801Y1612191D01*
X1204589D01*
G01X1204671Y767745D02*
X1204679Y767753D01*
G01X1204589Y838585D02*
X1204597Y838594D01*
G01X1204602Y885843D02*
X1204610Y885851D01*
G01X1204768Y917421D02*
X1204776Y917429D01*
G01X1204608Y933073D02*
X1204616Y933082D01*
G01X1204630Y948862D02*
X1204638Y948870D01*
G01X1204665Y964697D02*
X1204673Y964705D01*
G01X1204688Y980211D02*
X1204695Y980219D01*
G01X1204739Y1173212D02*
Y1177024D01*
X1204731Y1177032D01*
G01X1204615Y1224399D02*
X1204623Y1224407D01*
G01X1204744Y1232378D02*
X1204735Y1232387D01*
Y1236200D01*
G01X1236328Y114168D02*
X1240152D01*
X1240158Y114173D01*
G01X1236337Y129913D02*
X1240150D01*
X1240158Y129921D01*
G01Y145669D02*
X1240149Y145661D01*
X1236337D01*
G01D02*
X1236345Y145669D01*
G01X1240158Y240157D02*
X1236345D01*
X1236337Y240149D01*
G01X1240158Y255906D02*
X1236345D01*
X1236337Y255897D01*
G01Y460622D02*
X1236345Y460630D01*
X1240158D01*
G01X1236337Y476370D02*
X1236345Y476378D01*
X1240158D01*
G01X1236337Y492118D02*
X1236345Y492126D01*
X1240158D01*
G01X1236337Y507866D02*
X1236345Y507874D01*
X1240158D01*
G01Y767716D02*
X1236345D01*
X1236337Y767708D01*
G01Y838574D02*
X1236345Y838583D01*
X1240158D01*
G01X1236433Y854516D02*
X1236425Y854508D01*
G01X1240158Y885827D02*
X1236345D01*
X1236337Y885818D01*
G01X1236389Y901597D02*
X1236380Y901589D01*
G01X1240158Y917323D02*
X1236345D01*
X1236337Y917315D01*
G01X1240158Y933071D02*
X1236345D01*
X1236337Y933063D01*
G01X1240158Y948819D02*
X1236345D01*
X1236337Y948811D01*
G01X1240158Y964567D02*
X1236345D01*
X1236337Y964559D01*
G01X1240158Y980315D02*
X1236345D01*
X1236337Y980307D01*
G01Y1059047D02*
X1236345Y1059055D01*
X1240158D01*
G01X1236316Y1074816D02*
X1236324Y1074824D01*
X1240136D01*
G01X1236329Y1090551D02*
X1236337Y1090559D01*
X1240150D01*
G01X1236361Y1185020D02*
X1240171D01*
X1240180Y1185030D01*
G01X1236369Y1185028D02*
X1236361Y1185020D01*
G01X1236233Y1204702D02*
X1236242Y1204693D01*
Y1200881D01*
G01X1240169Y1224391D02*
X1236357Y1224391D01*
X1236349Y1224382D01*
G01X1240158Y1417323D02*
X1240144Y1417310D01*
X1236358D01*
G01X1240158Y1452756D02*
X1240144Y1452743D01*
X1236358D01*
G01X1240158Y1487008D02*
X1240144Y1486995D01*
X1236358D01*
G01X1240158Y1518898D02*
X1240144Y1518885D01*
X1236358D01*
G01X1240158Y1551181D02*
X1240144Y1551168D01*
X1236358D01*
G01X1240158Y1572677D02*
X1240144Y1572664D01*
X1236358D01*
G01X1240158Y1594488D02*
X1240144Y1594474D01*
X1236357D01*
G01X1240158Y1612205D02*
X1240144Y1612191D01*
X1236357D01*
G01X1244120Y1169392D02*
X1244112Y1169401D01*
Y1173213D01*
G01X1244111Y1236209D02*
Y1232397D01*
X1244119Y1232389D01*
G01X1259843Y980315D02*
X1263655D01*
X1263663Y980323D01*
G01X1279528Y964567D02*
X1283340D01*
X1283348Y964575D01*
G01X1299213Y948819D02*
X1303025D01*
X1303033Y948827D01*
G01X1338583Y933071D02*
X1342395D01*
X1342403Y933079D01*
G01X1374251Y948839D02*
X1374243Y948831D01*
G01X1393684Y964789D02*
X1393676Y964780D01*
G01X1413392Y980280D02*
X1413384Y980272D01*
G01X1433090Y1204711D02*
X1433084Y1204705D01*
Y1200874D01*
G01X1440838Y114168D02*
X1437013D01*
X1437008Y114173D01*
G01X1440828Y129913D02*
X1437016D01*
X1437008Y129921D01*
G01X1440828Y145661D02*
X1437016D01*
X1437008Y145669D01*
G01Y460630D02*
X1440820D01*
X1440828Y460622D01*
G01X1437008Y476378D02*
X1440820D01*
X1440828Y476370D01*
G01X1437008Y492126D02*
X1440820D01*
X1440828Y492118D01*
G01X1437008Y507874D02*
X1440820D01*
X1440828Y507866D01*
G01X1437008Y854331D02*
X1440820D01*
X1440828Y854339D01*
G01X1437008Y901575D02*
X1440820D01*
X1440828Y901583D01*
G01X1440820Y1059039D02*
X1437024D01*
X1437008Y1059055D01*
G01X1440841Y1074808D02*
X1437013D01*
X1437008Y1074803D01*
G01Y1090551D02*
X1440820D01*
X1440828Y1090543D01*
G01X1437032Y1185029D02*
X1440844D01*
X1440852Y1185037D01*
G01X1440844Y1224407D02*
X1437029D01*
X1437022Y1224400D01*
G01X1437008Y1417323D02*
X1437021Y1417310D01*
X1440809D01*
G01X1437008Y1452756D02*
X1437021Y1452743D01*
X1440809D01*
G01X1437008Y1487008D02*
X1437021Y1486995D01*
X1440809D01*
G01X1437008Y1518898D02*
X1437021Y1518885D01*
X1440809D01*
G01X1437008Y1551181D02*
X1437021Y1551168D01*
X1440809D01*
G01X1437008Y1572677D02*
X1437021Y1572664D01*
X1440809D01*
G01X1437008Y1594488D02*
X1437022Y1594474D01*
X1440809D01*
G01X1437008Y1612205D02*
X1437022Y1612191D01*
X1440809D01*
G01X1440891Y767745D02*
X1440900Y767753D01*
G01X1440809Y838585D02*
X1440817Y838594D01*
G01X1440822Y885843D02*
X1440831Y885851D01*
G01X1440989Y917421D02*
X1440997Y917429D01*
G01X1440828Y933073D02*
X1440836Y933082D01*
G01X1440850Y948862D02*
X1440859Y948870D01*
G01X1440885Y964697D02*
X1440893Y964705D01*
G01X1440908Y980211D02*
X1440916Y980219D01*
G01X1440960Y1173212D02*
Y1177024D01*
X1440951Y1177032D01*
G01X1440836Y1224399D02*
X1440844Y1224407D01*
G01X1440964Y1232378D02*
X1440955Y1232387D01*
Y1236200D01*
X55133Y1125967D03*
X55130Y1204702D03*
X59055Y51181D03*
Y55118D03*
Y66929D03*
Y70866D03*
Y82677D03*
Y86614D03*
Y98425D03*
Y102362D03*
Y114173D03*
Y118110D03*
Y129921D03*
Y133858D03*
Y145669D03*
Y149606D03*
X59052Y161421D03*
Y165358D03*
X59055Y177165D03*
Y181102D03*
Y192913D03*
Y196850D03*
Y208661D03*
Y212598D03*
Y224409D03*
Y228346D03*
Y240157D03*
Y244094D03*
Y255906D03*
Y259843D03*
Y397638D03*
Y401575D03*
Y413386D03*
Y417323D03*
Y429134D03*
Y433071D03*
Y444882D03*
Y448819D03*
Y460630D03*
Y464567D03*
Y476378D03*
Y480315D03*
Y492126D03*
Y496063D03*
Y507874D03*
Y511811D03*
Y531496D03*
Y535433D03*
Y602362D03*
Y606299D03*
Y649606D03*
Y653543D03*
Y681102D03*
Y685039D03*
Y696850D03*
Y700787D03*
Y712598D03*
Y716535D03*
Y728346D03*
Y732284D03*
Y744094D03*
Y748032D03*
Y767716D03*
Y771654D03*
Y838583D03*
Y842520D03*
Y885827D03*
Y889764D03*
Y917323D03*
Y921260D03*
Y933071D03*
Y937008D03*
Y948819D03*
Y952756D03*
Y964567D03*
Y968504D03*
Y980315D03*
Y984252D03*
Y1011811D03*
Y1015748D03*
Y1059055D03*
Y1062992D03*
X59070Y1125967D03*
Y1141715D03*
Y1145652D03*
Y1157463D03*
X59072Y1173213D03*
X59078Y1185030D03*
Y1188966D03*
X59067Y1204702D03*
X59067Y1220454D03*
Y1224391D03*
X59071Y1236209D03*
X59055Y1266929D03*
Y1283465D03*
Y1299213D03*
Y1314961D03*
Y1320709D03*
Y1330709D03*
Y1342520D03*
Y1346457D03*
Y1417323D03*
Y1440945D03*
Y1452756D03*
Y1472441D03*
Y1487008D03*
Y1503937D03*
Y1518898D03*
Y1535433D03*
Y1551181D03*
Y1566929D03*
Y1572677D03*
Y1582677D03*
Y1594488D03*
Y1598425D03*
X63007Y1157463D03*
X63009Y1173213D03*
X63008Y1236209D03*
X78740Y744094D03*
Y748032D03*
Y980315D03*
Y984252D03*
X98425Y728346D03*
Y732284D03*
Y964567D03*
Y968504D03*
X118110Y712598D03*
Y716535D03*
Y948819D03*
Y952756D03*
X157480Y696850D03*
Y700787D03*
Y933071D03*
Y937008D03*
X251984Y1125964D03*
X251987Y1204711D03*
X255906Y51181D03*
Y55118D03*
Y66929D03*
Y70866D03*
Y82677D03*
Y86614D03*
Y98425D03*
Y102362D03*
Y114173D03*
Y118110D03*
Y129921D03*
Y133858D03*
Y145669D03*
Y149606D03*
Y397638D03*
Y401575D03*
Y413386D03*
Y417323D03*
Y429134D03*
Y433071D03*
Y444882D03*
Y448819D03*
Y460630D03*
Y464567D03*
Y476378D03*
Y480315D03*
Y492126D03*
Y496063D03*
Y507874D03*
Y511811D03*
Y618110D03*
Y622047D03*
Y665354D03*
Y669291D03*
Y854331D03*
Y858268D03*
Y901575D03*
Y905512D03*
Y1011811D03*
Y1015748D03*
Y1059055D03*
Y1062992D03*
X255920Y1125964D03*
X255920Y1141715D03*
Y1145652D03*
X255925Y1157461D03*
X255920Y1173212D03*
X255929Y1185029D03*
Y1188966D03*
X255924Y1204711D03*
X255920Y1220463D03*
Y1224400D03*
X255916Y1236200D03*
X255906Y1266929D03*
Y1283465D03*
Y1299213D03*
Y1314961D03*
Y1320709D03*
Y1330709D03*
Y1342520D03*
Y1346457D03*
Y1417323D03*
Y1440945D03*
Y1452756D03*
Y1472441D03*
Y1487008D03*
Y1503937D03*
Y1518898D03*
Y1535433D03*
Y1551181D03*
Y1566929D03*
Y1572677D03*
Y1582677D03*
Y1594488D03*
Y1598425D03*
X259862Y1157461D03*
X259857Y1173212D03*
X259853Y1236200D03*
X291354Y1125967D03*
X291351Y1204702D03*
X295276Y51181D03*
Y55118D03*
Y66929D03*
Y70866D03*
Y82677D03*
Y86614D03*
Y98425D03*
Y102362D03*
Y114173D03*
Y118110D03*
Y129921D03*
Y133858D03*
Y145669D03*
Y149606D03*
X295273Y161421D03*
Y165358D03*
X295276Y177165D03*
Y181102D03*
Y192913D03*
Y196850D03*
Y208661D03*
Y212598D03*
Y224409D03*
Y228346D03*
Y240157D03*
Y244094D03*
Y255906D03*
Y259843D03*
Y397638D03*
Y401575D03*
Y413386D03*
Y417323D03*
Y429134D03*
Y433071D03*
Y444882D03*
Y448819D03*
Y460630D03*
Y464567D03*
Y476378D03*
Y480315D03*
Y492126D03*
Y496063D03*
Y507874D03*
Y511811D03*
Y531496D03*
Y535433D03*
Y602362D03*
Y606299D03*
Y649606D03*
Y653543D03*
Y681102D03*
Y685039D03*
Y696850D03*
Y700787D03*
Y712598D03*
Y716535D03*
Y728346D03*
Y732284D03*
Y744094D03*
Y748032D03*
Y767716D03*
Y771654D03*
Y838583D03*
Y842520D03*
Y885827D03*
Y889764D03*
Y917323D03*
Y921260D03*
Y933071D03*
Y937008D03*
Y948819D03*
Y952756D03*
Y964567D03*
Y968504D03*
Y980315D03*
Y984252D03*
Y1011811D03*
Y1015748D03*
Y1059055D03*
Y1062992D03*
X295291Y1125967D03*
Y1141715D03*
Y1145652D03*
Y1157463D03*
X295293Y1173213D03*
X295298Y1185030D03*
Y1188966D03*
X295288Y1204702D03*
X295288Y1220454D03*
Y1224391D03*
X295292Y1236209D03*
X295276Y1266929D03*
Y1283465D03*
Y1299213D03*
Y1314961D03*
Y1320709D03*
Y1330709D03*
Y1342520D03*
Y1346457D03*
Y1417323D03*
Y1440945D03*
Y1452756D03*
Y1472441D03*
Y1487008D03*
Y1503937D03*
Y1518898D03*
Y1535433D03*
Y1551181D03*
Y1566929D03*
Y1572677D03*
Y1582677D03*
Y1594488D03*
Y1598425D03*
X299228Y1157463D03*
X299230Y1173213D03*
X299229Y1236209D03*
X314961Y744094D03*
Y748032D03*
Y980315D03*
Y984252D03*
X334646Y728346D03*
Y732284D03*
Y964567D03*
Y968504D03*
X354331Y712598D03*
Y716535D03*
Y948819D03*
Y952756D03*
X393701Y696850D03*
Y700787D03*
Y933071D03*
Y937008D03*
X488204Y1125964D03*
X488208Y1204711D03*
X492126Y51181D03*
Y55118D03*
Y66929D03*
Y70866D03*
Y82677D03*
Y86614D03*
Y98425D03*
Y102362D03*
Y114173D03*
Y118110D03*
Y129921D03*
Y133858D03*
Y145669D03*
Y149606D03*
Y397638D03*
Y401575D03*
Y413386D03*
Y417323D03*
Y429134D03*
Y433071D03*
Y444882D03*
Y448819D03*
Y460630D03*
Y464567D03*
Y476378D03*
Y480315D03*
Y492126D03*
Y496063D03*
Y507874D03*
Y511811D03*
Y618110D03*
Y622047D03*
Y665354D03*
Y669291D03*
Y854331D03*
Y858268D03*
Y901575D03*
Y905512D03*
Y1011811D03*
Y1015748D03*
Y1059055D03*
Y1062992D03*
X492141Y1125964D03*
X492141Y1141715D03*
Y1145652D03*
X492146Y1157461D03*
X492141Y1173212D03*
X492150Y1185029D03*
Y1188966D03*
X492145Y1204711D03*
X492140Y1220463D03*
Y1224400D03*
X492136Y1236200D03*
X492126Y1266929D03*
Y1283465D03*
Y1299213D03*
Y1314961D03*
Y1320709D03*
Y1330709D03*
Y1342520D03*
Y1346457D03*
Y1417323D03*
Y1440945D03*
Y1452756D03*
Y1472441D03*
Y1487008D03*
Y1503937D03*
Y1518898D03*
Y1535433D03*
Y1551181D03*
Y1566929D03*
Y1572677D03*
Y1582677D03*
Y1594488D03*
Y1598425D03*
X496083Y1157461D03*
X496078Y1173212D03*
X496073Y1236200D03*
X527574Y1125967D03*
X527572Y1204702D03*
X531496Y51181D03*
Y55118D03*
Y66929D03*
Y70866D03*
Y82677D03*
Y86614D03*
Y98425D03*
Y102362D03*
Y114173D03*
Y118110D03*
Y129921D03*
Y133858D03*
Y145669D03*
Y149606D03*
X531493Y161421D03*
Y165358D03*
X531496Y177165D03*
Y181102D03*
Y192913D03*
Y196850D03*
Y208661D03*
Y212598D03*
Y224409D03*
Y228346D03*
Y240157D03*
Y244094D03*
Y255906D03*
Y259843D03*
Y397638D03*
Y401575D03*
Y413386D03*
Y417323D03*
Y429134D03*
Y433071D03*
Y444882D03*
Y448819D03*
Y460630D03*
Y464567D03*
Y476378D03*
Y480315D03*
Y492126D03*
Y496063D03*
Y507874D03*
Y511811D03*
Y531496D03*
Y535433D03*
Y602362D03*
Y606299D03*
Y649606D03*
Y653543D03*
Y681102D03*
Y685039D03*
Y696850D03*
Y700787D03*
Y712598D03*
Y716535D03*
Y728346D03*
Y732284D03*
Y744094D03*
Y748032D03*
Y767716D03*
Y771654D03*
Y838583D03*
Y842520D03*
Y885827D03*
Y889764D03*
Y917323D03*
Y921260D03*
Y933071D03*
Y937008D03*
Y948819D03*
Y952756D03*
Y964567D03*
Y968504D03*
Y980315D03*
Y984252D03*
Y1011811D03*
Y1015748D03*
Y1059055D03*
Y1062992D03*
X531511Y1125967D03*
Y1141715D03*
Y1145652D03*
Y1157463D03*
X531514Y1173213D03*
X531519Y1185030D03*
Y1188966D03*
X531508Y1204702D03*
X531508Y1220454D03*
Y1224391D03*
X531512Y1236209D03*
X531496Y1266929D03*
Y1283465D03*
Y1299213D03*
Y1314961D03*
Y1320709D03*
Y1330709D03*
Y1342520D03*
Y1346457D03*
Y1417323D03*
Y1440945D03*
Y1452756D03*
Y1472441D03*
Y1487008D03*
Y1503937D03*
Y1518898D03*
Y1535433D03*
Y1551181D03*
Y1566929D03*
Y1572677D03*
Y1582677D03*
Y1594488D03*
Y1598425D03*
X535448Y1157463D03*
X535451Y1173213D03*
X535450Y1236209D03*
X551181Y744094D03*
Y748032D03*
Y980315D03*
Y984252D03*
X570866Y728346D03*
Y732284D03*
Y964567D03*
Y968504D03*
X590551Y712598D03*
Y716535D03*
Y948819D03*
Y952756D03*
X629922Y696850D03*
Y700787D03*
Y933071D03*
Y937008D03*
X724425Y1125964D03*
X724429Y1204711D03*
X728347Y51181D03*
Y55118D03*
Y66929D03*
Y70866D03*
Y82677D03*
Y86614D03*
Y98425D03*
Y102362D03*
Y114173D03*
Y118110D03*
Y129921D03*
Y133858D03*
Y145669D03*
Y149606D03*
Y397638D03*
Y401575D03*
Y413386D03*
Y417323D03*
Y429134D03*
Y433071D03*
Y444882D03*
Y448819D03*
Y460630D03*
Y464567D03*
Y476378D03*
Y480315D03*
Y492126D03*
Y496063D03*
Y507874D03*
Y511811D03*
Y618110D03*
Y622047D03*
Y665354D03*
Y669291D03*
Y854331D03*
Y858268D03*
Y901575D03*
Y905512D03*
Y1011811D03*
Y1015748D03*
Y1059055D03*
Y1062992D03*
X728362Y1125964D03*
X728361Y1141715D03*
Y1145652D03*
X728366Y1157461D03*
X728361Y1173212D03*
X728370Y1185029D03*
Y1188966D03*
X728366Y1204711D03*
X728361Y1220463D03*
Y1224400D03*
X728357Y1236200D03*
X728347Y1266929D03*
Y1283465D03*
Y1299213D03*
Y1314961D03*
Y1320709D03*
Y1330709D03*
Y1342520D03*
Y1346457D03*
Y1417323D03*
Y1440945D03*
Y1452756D03*
Y1472441D03*
Y1487008D03*
Y1503937D03*
Y1518898D03*
Y1535433D03*
Y1551181D03*
Y1566929D03*
Y1572677D03*
Y1582677D03*
Y1594488D03*
Y1598425D03*
X732303Y1157461D03*
X732298Y1173212D03*
X732294Y1236200D03*
X763794Y1125967D03*
X763792Y1204702D03*
X767717Y51181D03*
Y55118D03*
Y66929D03*
Y70866D03*
Y82677D03*
Y86614D03*
Y98425D03*
Y102362D03*
Y114173D03*
Y118110D03*
Y129921D03*
Y133858D03*
Y145669D03*
Y149606D03*
X767714Y161421D03*
Y165358D03*
X767717Y177165D03*
Y181102D03*
Y192913D03*
Y196850D03*
Y208661D03*
Y212598D03*
Y224409D03*
Y228346D03*
Y240157D03*
Y244094D03*
Y255906D03*
Y259843D03*
Y397638D03*
Y401575D03*
Y413386D03*
Y417323D03*
Y429134D03*
Y433071D03*
Y444882D03*
Y448819D03*
Y460630D03*
Y464567D03*
Y476378D03*
Y480315D03*
Y492126D03*
Y496063D03*
Y507874D03*
Y511811D03*
Y531496D03*
Y535433D03*
Y602362D03*
Y606299D03*
Y649606D03*
Y653543D03*
Y681102D03*
Y685039D03*
Y696850D03*
Y700787D03*
Y712598D03*
Y716535D03*
Y728346D03*
Y732284D03*
Y744094D03*
Y748032D03*
Y767716D03*
Y771654D03*
Y838583D03*
Y842520D03*
Y885827D03*
Y889764D03*
Y917323D03*
Y921260D03*
Y933071D03*
Y937008D03*
Y948819D03*
Y952756D03*
Y964567D03*
Y968504D03*
Y980315D03*
Y984252D03*
Y1011811D03*
Y1015748D03*
Y1059055D03*
Y1062992D03*
X767731Y1125967D03*
Y1141715D03*
Y1145652D03*
Y1157463D03*
X767734Y1173213D03*
X767739Y1185030D03*
Y1188966D03*
X767729Y1204702D03*
X767728Y1220454D03*
Y1224391D03*
X767733Y1236209D03*
X767717Y1266929D03*
Y1283465D03*
Y1299213D03*
Y1314961D03*
Y1320709D03*
Y1330709D03*
Y1342520D03*
Y1346457D03*
Y1417323D03*
Y1440945D03*
Y1452756D03*
Y1472441D03*
Y1487008D03*
Y1503937D03*
Y1518898D03*
Y1535433D03*
Y1551181D03*
Y1566929D03*
Y1572677D03*
Y1582677D03*
Y1594488D03*
Y1598425D03*
X771668Y1157463D03*
X771671Y1173213D03*
X771670Y1236209D03*
X787402Y744094D03*
Y748032D03*
Y980315D03*
Y984252D03*
X807087Y728346D03*
Y732284D03*
Y964567D03*
Y968504D03*
X826772Y712598D03*
Y716535D03*
Y948819D03*
Y952756D03*
X866142Y696850D03*
Y700787D03*
Y933071D03*
Y937008D03*
X960645Y1125964D03*
X960649Y1204711D03*
X964567Y51181D03*
Y55118D03*
Y66929D03*
Y70866D03*
Y82677D03*
Y86614D03*
Y98425D03*
Y102362D03*
Y114173D03*
Y118110D03*
Y129921D03*
Y133858D03*
Y145669D03*
Y149606D03*
Y397638D03*
Y401575D03*
Y413386D03*
Y417323D03*
Y429134D03*
Y433071D03*
Y444882D03*
Y448819D03*
Y460630D03*
Y464567D03*
Y476378D03*
Y480315D03*
Y492126D03*
Y496063D03*
Y507874D03*
Y511811D03*
Y618110D03*
Y622047D03*
Y665354D03*
Y669291D03*
Y854331D03*
Y858268D03*
Y901575D03*
Y905512D03*
Y1011811D03*
Y1015748D03*
Y1059055D03*
Y1062992D03*
X964582Y1125964D03*
X964582Y1141715D03*
Y1145652D03*
X964586Y1157461D03*
X964582Y1173212D03*
X964591Y1185029D03*
Y1188966D03*
X964586Y1204711D03*
X964581Y1220463D03*
Y1224400D03*
X964577Y1236200D03*
X964567Y1266929D03*
Y1283465D03*
Y1299213D03*
Y1314961D03*
Y1320709D03*
Y1330709D03*
Y1342520D03*
Y1346457D03*
Y1417323D03*
Y1440945D03*
Y1452756D03*
Y1472441D03*
Y1487008D03*
Y1503937D03*
Y1518898D03*
Y1535433D03*
Y1551181D03*
Y1566929D03*
Y1572677D03*
Y1582677D03*
Y1594488D03*
Y1598425D03*
X968523Y1157461D03*
X968519Y1173212D03*
X968514Y1236200D03*
X1000015Y1125967D03*
X1000012Y1204702D03*
X1003937Y51181D03*
Y55118D03*
Y66929D03*
Y70866D03*
Y82677D03*
Y86614D03*
Y98425D03*
Y102362D03*
Y114173D03*
Y118110D03*
Y129921D03*
Y133858D03*
Y145669D03*
Y149606D03*
X1003934Y161421D03*
Y165358D03*
X1003937Y177165D03*
Y181102D03*
Y192913D03*
Y196850D03*
Y208661D03*
Y212598D03*
Y224409D03*
Y228346D03*
Y240157D03*
Y244094D03*
Y255906D03*
Y259843D03*
Y397638D03*
Y401575D03*
Y413386D03*
Y417323D03*
Y429134D03*
Y433071D03*
Y444882D03*
Y448819D03*
Y460630D03*
Y464567D03*
Y476378D03*
Y480315D03*
Y492126D03*
Y496063D03*
Y507874D03*
Y511811D03*
Y531496D03*
Y535433D03*
Y602362D03*
Y606299D03*
Y649606D03*
Y653543D03*
Y681102D03*
Y685039D03*
Y696850D03*
Y700787D03*
Y712598D03*
Y716535D03*
Y728346D03*
Y732284D03*
Y744094D03*
Y748032D03*
Y767716D03*
Y771654D03*
Y838583D03*
Y842520D03*
Y885827D03*
Y889764D03*
Y917323D03*
Y921260D03*
Y933071D03*
Y937008D03*
Y948819D03*
Y952756D03*
Y964567D03*
Y968504D03*
Y980315D03*
Y984252D03*
Y1011811D03*
Y1015748D03*
Y1059055D03*
Y1062992D03*
X1003952Y1125967D03*
Y1141715D03*
Y1145652D03*
Y1157463D03*
X1003954Y1173213D03*
X1003960Y1185030D03*
Y1188966D03*
X1003949Y1204702D03*
X1003949Y1220454D03*
Y1224391D03*
X1003953Y1236209D03*
X1003937Y1266929D03*
Y1283465D03*
Y1299213D03*
Y1314961D03*
Y1320709D03*
Y1330709D03*
Y1342520D03*
Y1346457D03*
Y1417323D03*
Y1440945D03*
Y1452756D03*
Y1472441D03*
Y1487008D03*
Y1503937D03*
Y1518898D03*
Y1535433D03*
Y1551181D03*
Y1566929D03*
Y1572677D03*
Y1582677D03*
Y1594488D03*
Y1598425D03*
X1007889Y1157463D03*
X1007891Y1173213D03*
X1007890Y1236209D03*
X1023622Y744094D03*
Y748032D03*
Y980315D03*
Y984252D03*
X1043307Y728346D03*
Y732284D03*
Y964567D03*
Y968504D03*
X1062992Y712598D03*
Y716535D03*
Y948819D03*
Y952756D03*
X1102362Y696850D03*
Y700787D03*
Y933071D03*
Y937008D03*
X1196866Y1125964D03*
X1196869Y1204711D03*
X1200788Y51181D03*
Y55118D03*
Y66929D03*
Y70866D03*
Y82677D03*
Y86614D03*
Y98425D03*
Y102362D03*
Y114173D03*
Y118110D03*
Y129921D03*
Y133858D03*
Y145669D03*
Y149606D03*
Y397638D03*
Y401575D03*
Y413386D03*
Y417323D03*
Y429134D03*
Y433071D03*
Y444882D03*
Y448819D03*
Y460630D03*
Y464567D03*
Y476378D03*
Y480315D03*
Y492126D03*
Y496063D03*
Y507874D03*
Y511811D03*
Y618110D03*
Y622047D03*
Y665354D03*
Y669291D03*
Y854331D03*
Y858268D03*
Y901575D03*
Y905512D03*
Y1011811D03*
Y1015748D03*
Y1059055D03*
Y1062992D03*
X1200802Y1125964D03*
X1200802Y1141715D03*
Y1145652D03*
X1200807Y1157461D03*
X1200802Y1173212D03*
X1200811Y1185029D03*
Y1188966D03*
X1200806Y1204711D03*
X1200802Y1220463D03*
Y1224400D03*
X1200798Y1236200D03*
X1200788Y1266929D03*
Y1283465D03*
Y1299213D03*
Y1314961D03*
Y1320709D03*
Y1330709D03*
Y1342520D03*
Y1346457D03*
Y1417323D03*
Y1440945D03*
Y1452756D03*
Y1472441D03*
Y1487008D03*
Y1503937D03*
Y1518898D03*
Y1535433D03*
Y1551181D03*
Y1566929D03*
Y1572677D03*
Y1582677D03*
Y1594488D03*
Y1598425D03*
X1204744Y1157461D03*
X1204739Y1173212D03*
X1204735Y1236200D03*
X1236235Y1125967D03*
X1236233Y1204702D03*
X1240158Y51181D03*
Y55118D03*
Y66929D03*
Y70866D03*
Y82677D03*
Y86614D03*
Y98425D03*
Y102362D03*
Y114173D03*
Y118110D03*
Y129921D03*
Y133858D03*
Y145669D03*
Y149606D03*
X1240154Y161421D03*
Y165358D03*
X1240158Y177165D03*
Y181102D03*
Y192913D03*
Y196850D03*
Y208661D03*
Y212598D03*
Y224409D03*
Y228346D03*
Y240157D03*
Y244094D03*
Y255906D03*
Y259843D03*
Y397638D03*
Y401575D03*
Y413386D03*
Y417323D03*
Y429134D03*
Y433071D03*
Y444882D03*
Y448819D03*
Y460630D03*
Y464567D03*
Y476378D03*
Y480315D03*
Y492126D03*
Y496063D03*
Y507874D03*
Y511811D03*
Y531496D03*
Y535433D03*
Y602362D03*
Y606299D03*
Y649606D03*
Y653543D03*
Y681102D03*
Y685039D03*
Y696850D03*
Y700787D03*
Y712598D03*
Y716535D03*
Y728346D03*
Y732284D03*
Y744094D03*
Y748032D03*
Y767716D03*
Y771654D03*
Y838583D03*
Y842520D03*
Y885827D03*
Y889764D03*
Y917323D03*
Y921260D03*
Y933071D03*
Y937008D03*
Y948819D03*
Y952756D03*
Y964567D03*
Y968504D03*
Y980315D03*
Y984252D03*
Y1011811D03*
Y1015748D03*
Y1059055D03*
Y1062992D03*
X1240172Y1125967D03*
Y1141715D03*
Y1145652D03*
Y1157463D03*
X1240175Y1173213D03*
X1240180Y1185030D03*
Y1188966D03*
X1240170Y1204702D03*
X1240169Y1220454D03*
Y1224391D03*
X1240174Y1236209D03*
X1240158Y1266929D03*
Y1283465D03*
Y1299213D03*
Y1314961D03*
Y1320709D03*
Y1330709D03*
Y1342520D03*
Y1346457D03*
Y1417323D03*
Y1440945D03*
Y1452756D03*
Y1472441D03*
Y1487008D03*
Y1503937D03*
Y1518898D03*
Y1535433D03*
Y1551181D03*
Y1566929D03*
Y1572677D03*
Y1582677D03*
Y1594488D03*
Y1598425D03*
X1244109Y1157463D03*
X1244112Y1173213D03*
X1244111Y1236209D03*
X1259843Y744094D03*
Y748032D03*
Y980315D03*
Y984252D03*
X1279528Y728346D03*
Y732284D03*
Y964567D03*
Y968504D03*
X1299213Y712598D03*
Y716535D03*
Y948819D03*
Y952756D03*
X1338583Y696850D03*
Y700787D03*
Y933071D03*
Y937008D03*
X1433086Y1125964D03*
X1433090Y1204711D03*
X1437008Y51181D03*
Y55118D03*
Y66929D03*
Y70866D03*
Y82677D03*
Y86614D03*
Y98425D03*
Y102362D03*
Y114173D03*
Y118110D03*
Y129921D03*
Y133858D03*
Y145669D03*
Y149606D03*
Y397638D03*
Y401575D03*
Y413386D03*
Y417323D03*
Y429134D03*
Y433071D03*
Y444882D03*
Y448819D03*
Y460630D03*
Y464567D03*
Y476378D03*
Y480315D03*
Y492126D03*
Y496063D03*
Y507874D03*
Y511811D03*
Y618110D03*
Y622047D03*
Y665354D03*
Y669291D03*
Y854331D03*
Y858268D03*
Y901575D03*
Y905512D03*
Y1011811D03*
Y1015748D03*
Y1059055D03*
Y1062992D03*
X1437023Y1125964D03*
X1437023Y1141715D03*
Y1145652D03*
X1437027Y1157461D03*
X1437023Y1173212D03*
X1437032Y1185029D03*
Y1188966D03*
X1437027Y1204711D03*
X1437022Y1220463D03*
Y1224400D03*
X1437018Y1236200D03*
X1437008Y1266929D03*
Y1283465D03*
Y1299213D03*
Y1314961D03*
Y1320709D03*
Y1330709D03*
Y1342520D03*
Y1346457D03*
Y1417323D03*
Y1440945D03*
Y1452756D03*
Y1472441D03*
Y1487008D03*
Y1503937D03*
Y1518898D03*
Y1535433D03*
Y1551181D03*
Y1566929D03*
Y1572677D03*
Y1582677D03*
Y1594488D03*
Y1598425D03*
X1440964Y1157461D03*
X1440960Y1173212D03*
X1440955Y1236200D03*
G54D22*
G01X200787Y464567D02*
X137795D01*
G01X204724Y480315D02*
X157480D01*
G01X188976Y496063D02*
X157480D01*
G01X173228Y511811D02*
X157480D01*
G01X437008Y464567D02*
X374016D01*
G01X440945Y480315D02*
X393701D01*
G01X425197Y496063D02*
X393701D01*
G01X409449Y511811D02*
X393701D01*
G01X673229Y464567D02*
X610236D01*
G01X677166Y480315D02*
X629922D01*
G01X661418Y496063D02*
X629922D01*
G01X645670Y511811D02*
X629922D01*
G01X909449Y464567D02*
X846457D01*
G01X913386Y480315D02*
X866142D01*
G01X897638Y496063D02*
X866142D01*
G01X881890Y511811D02*
X866142D01*
G01X1145669Y464567D02*
X1082677D01*
G01X1149606Y480315D02*
X1102362D01*
G01X1133858Y496063D02*
X1102362D01*
G01X1118110Y511811D02*
X1102362D01*
G01X1381890Y464567D02*
X1318898D01*
G01X1385827Y480315D02*
X1338583D01*
G01X1370079Y496063D02*
X1338583D01*
G01X1354331Y511811D02*
X1338583D01*
G54D13*
X59055Y287402D03*
Y291339D03*
Y334646D03*
Y338583D03*
X255906Y287402D03*
Y291339D03*
Y334646D03*
Y338583D03*
X295276Y287402D03*
Y291339D03*
Y334646D03*
Y338583D03*
X492126Y287402D03*
Y291339D03*
Y334646D03*
Y338583D03*
X531496Y287402D03*
Y291339D03*
Y334646D03*
Y338583D03*
X728347Y287402D03*
Y291339D03*
Y334646D03*
Y338583D03*
X767717Y287402D03*
Y291339D03*
Y334646D03*
Y338583D03*
X964567Y287402D03*
Y291339D03*
Y334646D03*
Y338583D03*
X1003937Y287402D03*
Y291339D03*
Y334646D03*
Y338583D03*
X1200788Y287402D03*
Y291339D03*
Y334646D03*
Y338583D03*
X1240158Y287402D03*
Y291339D03*
Y334646D03*
Y338583D03*
X1437008Y287402D03*
Y291339D03*
Y334646D03*
Y338583D03*
G54D23*
G01X255906Y82677D02*
X254380D01*
X253206Y83851D01*
X61754D01*
X60580Y82677D01*
X59055D01*
G01X255906Y86614D02*
X254380D01*
X253167Y85401D01*
X61793D01*
X60580Y86614D01*
X59055D01*
G01X492126Y82677D02*
X490601D01*
X489427Y83851D01*
X297975D01*
X296801Y82677D01*
X295276D01*
G01X492126Y86614D02*
X490601D01*
X489388Y85401D01*
X298014D01*
X296801Y86614D01*
X295276D01*
G01X728347Y82677D02*
X726822D01*
X725648Y83851D01*
X534196D01*
X533022Y82677D01*
X531496D01*
G01X728347Y86614D02*
X726822D01*
X725608Y85401D01*
X534235D01*
X533022Y86614D01*
X531496D01*
G01X964567Y82677D02*
X963042D01*
X961868Y83851D01*
X770416D01*
X769242Y82677D01*
X767717D01*
G01X964567Y86614D02*
X963042D01*
X961829Y85401D01*
X770455D01*
X769242Y86614D01*
X767717D01*
G01X1200788Y82677D02*
X1199262D01*
X1198088Y83851D01*
X1006636D01*
X1005462Y82677D01*
X1003937D01*
G01X1200788Y86614D02*
X1199262D01*
X1198049Y85401D01*
X1006675D01*
X1005462Y86614D01*
X1003937D01*
G01X1437008Y82677D02*
X1435483D01*
X1434309Y83851D01*
X1242857D01*
X1241683Y82677D01*
X1240158D01*
G01X1437008Y86614D02*
X1435483D01*
X1434270Y85401D01*
X1242896D01*
X1241683Y86614D01*
X1240158D01*
G54D14*
X59055Y303150D03*
Y307087D03*
Y350394D03*
Y354331D03*
X255906Y303150D03*
Y307087D03*
Y350394D03*
Y354331D03*
X295276Y303150D03*
Y307087D03*
Y350394D03*
Y354331D03*
X492126Y303150D03*
Y307087D03*
Y350394D03*
Y354331D03*
X531496Y303150D03*
Y307087D03*
Y350394D03*
Y354331D03*
X728347Y303150D03*
Y307087D03*
Y350394D03*
Y354331D03*
X767717Y303150D03*
Y307087D03*
Y350394D03*
Y354331D03*
X964567Y303150D03*
Y307087D03*
Y350394D03*
Y354331D03*
X1003937Y303150D03*
Y307087D03*
Y350394D03*
Y354331D03*
X1200788Y303150D03*
Y307087D03*
Y350394D03*
Y354331D03*
X1240158Y303150D03*
Y307087D03*
Y350394D03*
Y354331D03*
X1437008Y303150D03*
Y307087D03*
Y350394D03*
Y354331D03*
G54D24*
G01X59052Y161421D02*
X157462D01*
G01X157477Y165358D02*
X59052D01*
G01X255906Y183858D02*
X177083D01*
X170390Y177165D01*
X59055D01*
G01X255886Y187769D02*
X173035D01*
X166368Y181102D01*
X59055D01*
G01X157480Y199606D02*
X69641D01*
X62948Y192913D01*
X59055D01*
G01Y196850D02*
X60713D01*
X67406Y203543D01*
X157480D01*
G01X59055Y208661D02*
X255906D01*
Y212598D01*
X59055D01*
G01Y224409D02*
X157465Y224409D01*
G01X59055Y228346D02*
X157480D01*
G01X59055Y244094D02*
X59139Y244011D01*
G01X59055Y244094D02*
X62687D01*
X65443Y246850D01*
X255913D01*
G01X157480Y262598D02*
X65080D01*
X63324Y260843D01*
X62324Y259843D01*
X59055D01*
G01Y338583D02*
X157480D01*
G01X59055Y354331D02*
X157480D01*
G01X59055Y370079D02*
X157480D01*
G01X255906Y464567D02*
X200787D01*
G01X137795D02*
X59055D01*
G01X255906Y480315D02*
X204724D01*
G01X157480D02*
X59055D01*
G01X255906Y496063D02*
X188976D01*
G01X157480D02*
X59055D01*
G01X255906Y511811D02*
X173228D01*
G01X157480D02*
X59055D01*
G01Y771654D02*
X96695D01*
X101793Y776752D01*
Y781306D01*
X102793Y782306D01*
X253572D01*
X254572Y783306D01*
Y786306D01*
X253572Y787306D01*
X102793D01*
X101793Y788306D01*
Y791306D01*
X102793Y792306D01*
X253572D01*
X254572Y793306D01*
Y796306D01*
X253572Y797306D01*
X102793D01*
X101793Y798306D01*
Y801306D01*
X102793Y802306D01*
X253572D01*
X254572Y803306D01*
Y806306D01*
X253572Y807306D01*
X102793D01*
X101793Y808306D01*
Y811306D01*
X102793Y812306D01*
X253572D01*
X254572Y813306D01*
Y816306D01*
X253572Y817306D01*
X102793D01*
X101793Y818306D01*
Y821306D01*
X102793Y822306D01*
X253572D01*
X254572Y823306D01*
Y826306D01*
X253572Y827306D01*
X102793D01*
X101793Y828306D01*
Y831306D01*
X102793Y832306D01*
X253572D01*
X254572Y833306D01*
Y836306D01*
X253572Y837306D01*
X102793D01*
X97580Y842520D01*
X59055D01*
G01Y889764D02*
X103597D01*
X104597Y888764D01*
Y860536D01*
X105597Y859536D01*
X107597D01*
X108597Y860536D01*
Y888764D01*
X109597Y889764D01*
X111597D01*
X112597Y888764D01*
Y860536D01*
X113597Y859536D01*
X115597D01*
X116597Y860536D01*
Y888764D01*
X117597Y889764D01*
X119597D01*
X120597Y888764D01*
Y860536D01*
X121597Y859536D01*
X123597D01*
X124597Y860536D01*
Y888764D01*
X125597Y889764D01*
X127597D01*
X128597Y888764D01*
Y860536D01*
X129597Y859536D01*
X131597D01*
X132597Y860536D01*
Y888764D01*
X133597Y889764D01*
X135597D01*
X136597Y888764D01*
Y860536D01*
X137597Y859536D01*
X139597D01*
X140597Y860536D01*
Y888764D01*
X141597Y889764D01*
X143597D01*
X144597Y888764D01*
Y860536D01*
X145597Y859536D01*
X147597D01*
X148597Y860536D01*
Y888764D01*
X149597Y889764D01*
X151597D01*
X152597Y888764D01*
Y860536D01*
X153597Y859536D01*
X155597D01*
X156597Y860536D01*
Y888764D01*
X157597Y889764D01*
X159597D01*
X160597Y888764D01*
Y860536D01*
X161597Y859536D01*
X163597D01*
X164597Y860536D01*
Y888764D01*
X165597Y889764D01*
X167597D01*
X168597Y888764D01*
Y860536D01*
X169597Y859536D01*
X171597D01*
X172597Y860536D01*
Y888764D01*
X173597Y889764D01*
X175597D01*
X176597Y888764D01*
Y860536D01*
X177597Y859536D01*
X179597D01*
X180597Y860536D01*
Y888764D01*
X181597Y889764D01*
X183597D01*
X184597Y888764D01*
Y860536D01*
X185597Y859536D01*
X187597D01*
X188597Y860536D01*
Y888764D01*
X189597Y889764D01*
X191597D01*
X192597Y888764D01*
Y860536D01*
X193597Y859536D01*
X195597D01*
X196597Y860536D01*
Y888764D01*
X197597Y889764D01*
X199597D01*
X200597Y888764D01*
Y860536D01*
X201597Y859536D01*
X203597D01*
X204597Y860536D01*
Y888764D01*
X205597Y889764D01*
X207412D01*
X208412Y888764D01*
Y859268D01*
X209412Y858268D01*
X255906D01*
G01X59055Y921260D02*
X96393D01*
X97393Y920260D01*
Y907550D01*
X98393Y906550D01*
X100393D01*
X101393Y907550D01*
Y920260D01*
X102393Y921260D01*
X104393D01*
X105393Y920260D01*
Y907550D01*
X106393Y906550D01*
X108393D01*
X109393Y907550D01*
Y920260D01*
X110393Y921260D01*
X112393D01*
X113393Y920260D01*
Y907550D01*
X114393Y906550D01*
X116393D01*
X117393Y907550D01*
Y920260D01*
X118393Y921260D01*
X120393D01*
X121393Y920260D01*
Y907550D01*
X122393Y906550D01*
X124393D01*
X125393Y907550D01*
Y920260D01*
X126393Y921260D01*
X128393D01*
X129393Y920260D01*
Y907550D01*
X130393Y906550D01*
X132393D01*
X133393Y907550D01*
Y920260D01*
X134393Y921260D01*
X136393D01*
X137393Y920260D01*
Y907550D01*
X138393Y906550D01*
X140393D01*
X141393Y907550D01*
Y920260D01*
X142393Y921260D01*
X144393D01*
X145393Y920260D01*
Y907550D01*
X146393Y906550D01*
X148393D01*
X149393Y907550D01*
Y920260D01*
X150393Y921260D01*
X152393D01*
X153393Y920260D01*
Y907550D01*
X154393Y906550D01*
X156393D01*
X157393Y907550D01*
Y920260D01*
X158393Y921260D01*
X160393D01*
X161393Y920260D01*
Y907550D01*
X162393Y906550D01*
X164393D01*
X165393Y907550D01*
Y920260D01*
X166393Y921260D01*
X168393D01*
X169393Y920260D01*
Y907550D01*
X170393Y906550D01*
X172393D01*
X173393Y907550D01*
Y920260D01*
X174393Y921260D01*
X176393D01*
X177393Y920260D01*
Y907550D01*
X178393Y906550D01*
X180393D01*
X181393Y907550D01*
Y920260D01*
X182393Y921260D01*
X184393D01*
X185393Y920260D01*
Y907550D01*
X186393Y906550D01*
X188393D01*
X189393Y907550D01*
Y920260D01*
X190393Y921260D01*
X192393D01*
X193393Y920260D01*
Y907550D01*
X194393Y906550D01*
X196393D01*
X197393Y907550D01*
Y920260D01*
X198393Y921260D01*
X200393D01*
X201393Y920260D01*
Y907550D01*
X202393Y906550D01*
X204393D01*
X205393Y907550D01*
Y920260D01*
X206393Y921260D01*
X208977D01*
X209977Y920260D01*
Y906512D01*
X210977Y905512D01*
X255906D01*
G01X59055Y937008D02*
X157480D01*
G01X59055Y948819D02*
X59158D01*
G01X59055Y952756D02*
X118110D01*
G01X59055Y968504D02*
X98425D01*
G01X59055Y984252D02*
X78740D01*
G01X255906Y1062992D02*
X59055D01*
G01Y1078740D02*
X255906D01*
G01X59055Y1094488D02*
X255906D01*
G01X255920Y1173212D02*
X226024D01*
X223268Y1175968D01*
X60168D01*
X59072Y1174872D01*
Y1173213D01*
G01X59078Y1188966D02*
X255928D01*
X255929Y1188966D01*
G01X59067Y1204702D02*
X221095D01*
X223548Y1207155D01*
X255081D01*
X255924Y1206311D01*
Y1204711D01*
G01X255920Y1220463D02*
X60677D01*
X60667Y1220454D01*
X59067D01*
G01X255916Y1236200D02*
X226322Y1236201D01*
X223897Y1238626D01*
X59889D01*
X59071Y1237809D01*
Y1236209D01*
G01X59055Y1440945D02*
X255906D01*
G01X59055Y1472441D02*
X255906D01*
G01X59055Y1503937D02*
X255906D01*
G01X59055Y1535433D02*
X255906D01*
G01X59055Y1566929D02*
X255906D01*
G01X59055Y1582677D02*
X255906D01*
G01X59055Y1598425D02*
X255906D01*
G01X59055Y1614173D02*
X255906D01*
G01X157462Y161421D02*
X157477Y161436D01*
G01X255901Y161421D02*
X157462D01*
G01X157480Y199606D02*
X255930D01*
G01X157480Y203543D02*
X255857D01*
G01X157465Y224409D02*
X157480Y224424D01*
Y228346D01*
G01X157465Y224409D02*
X255904D01*
G01X157480Y228346D02*
X255887D01*
G01X157480Y262598D02*
X255910D01*
G01X255930Y183858D02*
X255906D01*
G01X256007Y901474D02*
X255906Y901575D01*
G01X393683Y161421D02*
X295273D01*
G01X393698Y165358D02*
X295273D01*
G01X492126Y183858D02*
X413303D01*
X406611Y177165D01*
X295276D01*
G01X492107Y187769D02*
X409256D01*
X402589Y181102D01*
X295276D01*
G01X393701Y199606D02*
X305861D01*
X299168Y192913D01*
X295276D01*
G01Y196850D02*
X296934D01*
X303627Y203543D01*
X393701D01*
G01X295276Y208661D02*
X492126D01*
Y212598D01*
X295276D01*
G01X393686Y224409D02*
X295276D01*
G01X393701Y228346D02*
X295276D01*
G01Y244094D02*
X295359Y244011D01*
G01X492134Y246850D02*
X301664D01*
X298908Y244094D01*
X295276D01*
G01X393701Y262598D02*
X301300D01*
X299545Y260843D01*
X298545Y259843D01*
X295276D01*
G01Y338583D02*
X393701D01*
G01X295276Y354331D02*
X393701D01*
G01X295276Y370079D02*
X393701D01*
G01X492126Y464567D02*
X437008D01*
G01X374016D02*
X295276D01*
G01X492126Y480315D02*
X440945D01*
G01X393701D02*
X295276D01*
G01X492126Y496063D02*
X425197D01*
G01X393701D02*
X295276D01*
G01X492126Y511811D02*
X409449D01*
G01X393701D02*
X295276D01*
G01Y771654D02*
X332916D01*
X338014Y776752D01*
Y781306D01*
X339014Y782306D01*
X489793D01*
X490793Y783306D01*
Y786306D01*
X489793Y787306D01*
X339014D01*
X338014Y788306D01*
Y791306D01*
X339014Y792306D01*
X489793D01*
X490793Y793306D01*
Y796306D01*
X489793Y797306D01*
X339014D01*
X338014Y798306D01*
Y801306D01*
X339014Y802306D01*
X489793D01*
X490793Y803306D01*
Y806306D01*
X489793Y807306D01*
X339014D01*
X338014Y808306D01*
Y811306D01*
X339014Y812306D01*
X489793D01*
X490793Y813306D01*
Y816306D01*
X489793Y817306D01*
X339014D01*
X338014Y818306D01*
Y821306D01*
X339014Y822306D01*
X489793D01*
X490793Y823306D01*
Y826306D01*
X489793Y827306D01*
X339014D01*
X338014Y828306D01*
Y831306D01*
X339014Y832306D01*
X489793D01*
X490793Y833306D01*
Y836306D01*
X489793Y837306D01*
X339014D01*
X333801Y842520D01*
X295276D01*
G01Y889764D02*
X339818D01*
X340818Y888764D01*
Y860536D01*
X341818Y859536D01*
X343818D01*
X344818Y860536D01*
Y888764D01*
X345818Y889764D01*
X347818D01*
X348818Y888764D01*
Y860536D01*
X349818Y859536D01*
X351818D01*
X352818Y860536D01*
Y888764D01*
X353818Y889764D01*
X355818D01*
X356818Y888764D01*
Y860536D01*
X357818Y859536D01*
X359818D01*
X360818Y860536D01*
Y888764D01*
X361818Y889764D01*
X363818D01*
X364818Y888764D01*
Y860536D01*
X365818Y859536D01*
X367818D01*
X368818Y860536D01*
Y888764D01*
X369818Y889764D01*
X371818D01*
X372818Y888764D01*
Y860536D01*
X373818Y859536D01*
X375818D01*
X376818Y860536D01*
Y888764D01*
X377818Y889764D01*
X379818D01*
X380818Y888764D01*
Y860536D01*
X381818Y859536D01*
X383818D01*
X384818Y860536D01*
Y888764D01*
X385818Y889764D01*
X387818D01*
X388818Y888764D01*
Y860536D01*
X389818Y859536D01*
X391818D01*
X392818Y860536D01*
Y888764D01*
X393818Y889764D01*
X395818D01*
X396818Y888764D01*
Y860536D01*
X397818Y859536D01*
X399818D01*
X400818Y860536D01*
Y888764D01*
X401818Y889764D01*
X403818D01*
X404818Y888764D01*
Y860536D01*
X405818Y859536D01*
X407818D01*
X408818Y860536D01*
Y888764D01*
X409818Y889764D01*
X411818D01*
X412818Y888764D01*
Y860536D01*
X413818Y859536D01*
X415818D01*
X416818Y860536D01*
Y888764D01*
X417818Y889764D01*
X419818D01*
X420818Y888764D01*
Y860536D01*
X421818Y859536D01*
X423818D01*
X424818Y860536D01*
Y888764D01*
X425818Y889764D01*
X427818D01*
X428818Y888764D01*
Y860536D01*
X429818Y859536D01*
X431818D01*
X432818Y860536D01*
Y888764D01*
X433818Y889764D01*
X435818D01*
X436818Y888764D01*
Y860536D01*
X437818Y859536D01*
X439818D01*
X440818Y860536D01*
Y888764D01*
X441818Y889764D01*
X443633D01*
X444633Y888764D01*
Y859268D01*
X445633Y858268D01*
X492126D01*
G01X295276Y921260D02*
X332614D01*
X333614Y920260D01*
Y907550D01*
X334614Y906550D01*
X336614D01*
X337614Y907550D01*
Y920260D01*
X338614Y921260D01*
X340614D01*
X341614Y920260D01*
Y907550D01*
X342614Y906550D01*
X344614D01*
X345614Y907550D01*
Y920260D01*
X346614Y921260D01*
X348614D01*
X349614Y920260D01*
Y907550D01*
X350614Y906550D01*
X352614D01*
X353614Y907550D01*
Y920260D01*
X354614Y921260D01*
X356614D01*
X357614Y920260D01*
Y907550D01*
X358614Y906550D01*
X360614D01*
X361614Y907550D01*
Y920260D01*
X362614Y921260D01*
X364614D01*
X365614Y920260D01*
Y907550D01*
X366614Y906550D01*
X368614D01*
X369614Y907550D01*
Y920260D01*
X370614Y921260D01*
X372614D01*
X373614Y920260D01*
Y907550D01*
X374614Y906550D01*
X376614D01*
X377614Y907550D01*
Y920260D01*
X378614Y921260D01*
X380614D01*
X381614Y920260D01*
Y907550D01*
X382614Y906550D01*
X384614D01*
X385614Y907550D01*
Y920260D01*
X386614Y921260D01*
X388614D01*
X389614Y920260D01*
Y907550D01*
X390614Y906550D01*
X392614D01*
X393614Y907550D01*
Y920260D01*
X394614Y921260D01*
X396614D01*
X397614Y920260D01*
Y907550D01*
X398614Y906550D01*
X400614D01*
X401614Y907550D01*
Y920260D01*
X402614Y921260D01*
X404614D01*
X405614Y920260D01*
Y907550D01*
X406614Y906550D01*
X408614D01*
X409614Y907550D01*
Y920260D01*
X410614Y921260D01*
X412614D01*
X413614Y920260D01*
Y907550D01*
X414614Y906550D01*
X416614D01*
X417614Y907550D01*
Y920260D01*
X418614Y921260D01*
X420614D01*
X421614Y920260D01*
Y907550D01*
X422614Y906550D01*
X424614D01*
X425614Y907550D01*
Y920260D01*
X426614Y921260D01*
X428614D01*
X429614Y920260D01*
Y907550D01*
X430614Y906550D01*
X432614D01*
X433614Y907550D01*
Y920260D01*
X434614Y921260D01*
X436614D01*
X437614Y920260D01*
Y907550D01*
X438614Y906550D01*
X440614D01*
X441614Y907550D01*
Y920260D01*
X442614Y921260D01*
X445198D01*
X446198Y920260D01*
Y906512D01*
X447198Y905512D01*
X492126D01*
G01X295276Y937008D02*
X393701D01*
G01X295276Y948819D02*
X295378D01*
G01X295276Y952756D02*
X354331D01*
G01X295276Y968504D02*
X334646D01*
G01X295276Y984252D02*
X314961D01*
G01X492126Y1062992D02*
X295276D01*
G01Y1078740D02*
X492126D01*
G01X295276Y1094488D02*
X492126D01*
G01X492141Y1173212D02*
X462245D01*
X459489Y1175968D01*
X296389D01*
X295293Y1174872D01*
Y1173213D01*
G01X295298Y1188966D02*
X492149D01*
X492150Y1188966D01*
G01X295288Y1204702D02*
X457316D01*
X459768Y1207155D01*
X491302D01*
X492145Y1206311D01*
Y1204711D01*
G01X492140Y1220463D02*
X296898D01*
X296888Y1220454D01*
X295288D01*
G01X492136Y1236200D02*
X462543Y1236201D01*
X460118Y1238626D01*
X296110D01*
X295292Y1237809D01*
Y1236209D01*
G01X295276Y1440945D02*
X492126D01*
G01X295276Y1472441D02*
X492126D01*
G01X295276Y1503937D02*
X492126D01*
G01X295276Y1535433D02*
X492126D01*
G01X295276Y1566929D02*
X492126D01*
G01X295276Y1582677D02*
X492126D01*
G01X295276Y1598425D02*
X492126D01*
G01X295276Y1614173D02*
X492126D01*
G01X393698Y161436D02*
X393683Y161421D01*
G01X393701Y228346D02*
Y224424D01*
X393686Y224409D01*
G01X393683Y161421D02*
X492122D01*
G01X393701Y199606D02*
X492151D01*
G01X393701Y203543D02*
X492078D01*
G01X393686Y224409D02*
X492125D01*
G01X492108Y228346D02*
X393701D01*
G01Y262598D02*
X492131D01*
G01X492151Y183858D02*
X492126D01*
G01X492228Y901474D02*
X492126Y901575D01*
G01X629903Y161421D02*
X531493D01*
G01X629918Y165358D02*
X531493D01*
G01X728347Y183858D02*
X649524D01*
X642831Y177165D01*
X531496D01*
G01X728327Y187769D02*
X645476D01*
X638809Y181102D01*
X531496D01*
G01X629922Y199606D02*
X542082D01*
X535389Y192913D01*
X531496D01*
G01Y196850D02*
X533154D01*
X539847Y203543D01*
X629922D01*
G01X531496Y208661D02*
X728347D01*
Y212598D01*
X531496D01*
G01X629907Y224409D02*
X531496D01*
G01X629922Y228346D02*
X531496D01*
G01Y244094D02*
X531580Y244011D01*
G01X728354Y246850D02*
X537884D01*
X535128Y244094D01*
X531496D01*
G01X629922Y262598D02*
X537521D01*
X535765Y260843D01*
X534765Y259843D01*
X531496D01*
G01Y338583D02*
X629922D01*
G01X531496Y354331D02*
X629922D01*
G01X531496Y370079D02*
X629922D01*
G01X728347Y464567D02*
X673229D01*
G01X610236D02*
X531496D01*
G01X728347Y480315D02*
X677166D01*
G01X629922D02*
X531496D01*
G01X728347Y496063D02*
X661418D01*
G01X629922D02*
X531496D01*
G01X728347Y511811D02*
X645670D01*
G01X629922D02*
X531496D01*
G01Y771654D02*
X569136D01*
X574234Y776752D01*
Y781306D01*
X575234Y782306D01*
X726013D01*
X727013Y783306D01*
Y786306D01*
X726013Y787306D01*
X575234D01*
X574234Y788306D01*
Y791306D01*
X575234Y792306D01*
X726013D01*
X727013Y793306D01*
Y796306D01*
X726013Y797306D01*
X575234D01*
X574234Y798306D01*
Y801306D01*
X575234Y802306D01*
X726013D01*
X727013Y803306D01*
Y806306D01*
X726013Y807306D01*
X575234D01*
X574234Y808306D01*
Y811306D01*
X575234Y812306D01*
X726013D01*
X727013Y813306D01*
Y816306D01*
X726013Y817306D01*
X575234D01*
X574234Y818306D01*
Y821306D01*
X575234Y822306D01*
X726013D01*
X727013Y823306D01*
Y826306D01*
X726013Y827306D01*
X575234D01*
X574234Y828306D01*
Y831306D01*
X575234Y832306D01*
X726013D01*
X727013Y833306D01*
Y836306D01*
X726013Y837306D01*
X575234D01*
X570021Y842520D01*
X531496D01*
G01Y889764D02*
X576038D01*
X577038Y888764D01*
Y860536D01*
X578038Y859536D01*
X580038D01*
X581038Y860536D01*
Y888764D01*
X582038Y889764D01*
X584038D01*
X585038Y888764D01*
Y860536D01*
X586038Y859536D01*
X588038D01*
X589038Y860536D01*
Y888764D01*
X590038Y889764D01*
X592038D01*
X593038Y888764D01*
Y860536D01*
X594038Y859536D01*
X596038D01*
X597038Y860536D01*
Y888764D01*
X598038Y889764D01*
X600038D01*
X601038Y888764D01*
Y860536D01*
X602038Y859536D01*
X604038D01*
X605038Y860536D01*
Y888764D01*
X606038Y889764D01*
X608038D01*
X609038Y888764D01*
Y860536D01*
X610038Y859536D01*
X612038D01*
X613038Y860536D01*
Y888764D01*
X614038Y889764D01*
X616038D01*
X617038Y888764D01*
Y860536D01*
X618038Y859536D01*
X620038D01*
X621038Y860536D01*
Y888764D01*
X622038Y889764D01*
X624038D01*
X625038Y888764D01*
Y860536D01*
X626038Y859536D01*
X628038D01*
X629038Y860536D01*
Y888764D01*
X630038Y889764D01*
X632038D01*
X633038Y888764D01*
Y860536D01*
X634038Y859536D01*
X636038D01*
X637038Y860536D01*
Y888764D01*
X638038Y889764D01*
X640038D01*
X641038Y888764D01*
Y860536D01*
X642038Y859536D01*
X644038D01*
X645038Y860536D01*
Y888764D01*
X646038Y889764D01*
X648038D01*
X649038Y888764D01*
Y860536D01*
X650038Y859536D01*
X652038D01*
X653038Y860536D01*
Y888764D01*
X654038Y889764D01*
X656038D01*
X657038Y888764D01*
Y860536D01*
X658038Y859536D01*
X660038D01*
X661038Y860536D01*
Y888764D01*
X662038Y889764D01*
X664038D01*
X665038Y888764D01*
Y860536D01*
X666038Y859536D01*
X668038D01*
X669038Y860536D01*
Y888764D01*
X670038Y889764D01*
X672038D01*
X673038Y888764D01*
Y860536D01*
X674038Y859536D01*
X676038D01*
X677038Y860536D01*
Y888764D01*
X678038Y889764D01*
X679853D01*
X680853Y888764D01*
Y859268D01*
X681853Y858268D01*
X728347D01*
G01X531496Y921260D02*
X568834D01*
X569835Y920260D01*
Y907550D01*
X570834Y906550D01*
X572834D01*
X573835Y907550D01*
Y920260D01*
X574834Y921260D01*
X576834D01*
X577835Y920260D01*
Y907550D01*
X578834Y906550D01*
X580834D01*
X581835Y907550D01*
Y920260D01*
X582834Y921260D01*
X584834D01*
X585835Y920260D01*
Y907550D01*
X586835Y906550D01*
X588834D01*
X589834Y907550D01*
Y920260D01*
X590835Y921260D01*
X592834D01*
X593834Y920260D01*
Y907550D01*
X594835Y906550D01*
X596834D01*
X597834Y907550D01*
Y920260D01*
X598835Y921260D01*
X600834D01*
X601834Y920260D01*
Y907550D01*
X602835Y906550D01*
X604834D01*
X605834Y907550D01*
Y920260D01*
X606835Y921260D01*
X608834D01*
X609834Y920260D01*
Y907550D01*
X610835Y906550D01*
X612834D01*
X613834Y907550D01*
Y920260D01*
X614834Y921260D01*
X616834D01*
X617834Y920260D01*
Y907550D01*
X618834Y906550D01*
X620834D01*
X621834Y907550D01*
Y920260D01*
X622834Y921260D01*
X624834D01*
X625834Y920260D01*
Y907550D01*
X626834Y906550D01*
X628834D01*
X629834Y907550D01*
Y920260D01*
X630834Y921260D01*
X632834D01*
X633834Y920260D01*
Y907550D01*
X634834Y906550D01*
X636835D01*
X637834Y907550D01*
Y920260D01*
X638834Y921260D01*
X640835D01*
X641834Y920260D01*
Y907550D01*
X642834Y906550D01*
X644835D01*
X645834Y907550D01*
Y920260D01*
X646834Y921260D01*
X648835D01*
X649834Y920260D01*
Y907550D01*
X650834Y906550D01*
X652835D01*
X653834Y907550D01*
Y920260D01*
X654834Y921260D01*
X656835D01*
X657834Y920260D01*
Y907550D01*
X658834Y906550D01*
X660835D01*
X661835Y907550D01*
Y920260D01*
X662834Y921260D01*
X664835D01*
X665835Y920260D01*
Y907550D01*
X666834Y906550D01*
X668834D01*
X669835Y907550D01*
Y920260D01*
X670834Y921260D01*
X672834D01*
X673835Y920260D01*
Y907550D01*
X674834Y906550D01*
X676834D01*
X677835Y907550D01*
Y920260D01*
X678834Y921260D01*
X681418D01*
X682418Y920260D01*
Y906512D01*
X683418Y905512D01*
X728347D01*
G01X531496Y937008D02*
X629922D01*
G01X531496Y948819D02*
X531599D01*
G01X531496Y952756D02*
X590551D01*
G01X531496Y968504D02*
X570866D01*
G01X531496Y984252D02*
X551181D01*
G01X728347Y1062992D02*
X531496D01*
G01Y1078740D02*
X728347D01*
G01X531496Y1094488D02*
X728347D01*
G01X728361Y1173212D02*
X698466D01*
X695709Y1175968D01*
X532609D01*
X531514Y1174872D01*
Y1173213D01*
G01X531519Y1188966D02*
X728370D01*
G01X531508Y1204702D02*
X693536D01*
X695989Y1207155D01*
X727522D01*
X728366Y1206311D01*
Y1204711D01*
G01X728361Y1220463D02*
X533118D01*
X533108Y1220454D01*
X531508D01*
G01X728357Y1236200D02*
X698763Y1236201D01*
X696338Y1238626D01*
X532330D01*
X531512Y1237809D01*
Y1236209D01*
G01X531496Y1440945D02*
X728347D01*
G01X531496Y1472441D02*
X728347D01*
G01X531496Y1503937D02*
X728347D01*
G01X531496Y1535433D02*
X728347D01*
G01X531496Y1566929D02*
X728347D01*
G01X531496Y1582677D02*
X728347D01*
G01X531496Y1598425D02*
X728347D01*
G01X531496Y1614173D02*
X728347D01*
G01X629918Y161436D02*
X629903Y161421D01*
G01X629922Y228346D02*
Y224424D01*
X629907Y224409D01*
G01X629903Y161421D02*
X728342D01*
G01X629922Y199606D02*
X728372D01*
G01X629922Y203543D02*
X728298D01*
G01X629907Y224409D02*
X728345D01*
G01X728328Y228346D02*
X629922D01*
G01Y262598D02*
X728351D01*
G01X728372Y183858D02*
X728347D01*
G01X728448Y901474D02*
X728347Y901575D01*
G01X866124Y161421D02*
X767714D01*
G01X866139Y165358D02*
X767714D01*
G01X964567Y183858D02*
X885744D01*
X879051Y177165D01*
X767717D01*
G01X964548Y187769D02*
X881697D01*
X875030Y181102D01*
X767717D01*
G01X866142Y199606D02*
X778302D01*
X771609Y192913D01*
X767717D01*
G01Y196850D02*
X769375D01*
X776068Y203543D01*
X866142D01*
G01X767717Y208661D02*
X964567D01*
Y212598D01*
X767717D01*
G01X866127Y224409D02*
X767717D01*
G01X866142Y228346D02*
X767717D01*
G01Y244094D02*
X767800Y244011D01*
G01X964575Y246850D02*
X774105D01*
X771349Y244094D01*
X767717D01*
G01X866142Y262598D02*
X773741D01*
X771986Y260843D01*
X770986Y259843D01*
X767717D01*
G01Y338583D02*
X866142D01*
G01X767717Y354331D02*
X866142D01*
G01X767717Y370079D02*
X866142D01*
G01X964567Y464567D02*
X909449D01*
G01X846457D02*
X767717D01*
G01X964567Y480315D02*
X913386D01*
G01X866142D02*
X767717D01*
G01X964567Y496063D02*
X897638D01*
G01X866142D02*
X767717D01*
G01X964567Y511811D02*
X881890D01*
G01X866142D02*
X767717D01*
G01Y771654D02*
X805357D01*
X810455Y776752D01*
Y781306D01*
X811455Y782306D01*
X962234D01*
X963234Y783306D01*
Y786306D01*
X962234Y787306D01*
X811455D01*
X810455Y788306D01*
Y791306D01*
X811455Y792306D01*
X962234D01*
X963234Y793306D01*
Y796306D01*
X962234Y797306D01*
X811455D01*
X810455Y798306D01*
Y801306D01*
X811455Y802306D01*
X962234D01*
X963234Y803306D01*
Y806306D01*
X962234Y807306D01*
X811455D01*
X810455Y808306D01*
Y811306D01*
X811455Y812306D01*
X962234D01*
X963234Y813306D01*
Y816306D01*
X962234Y817306D01*
X811455D01*
X810455Y818306D01*
Y821306D01*
X811455Y822306D01*
X962234D01*
X963234Y823306D01*
Y826306D01*
X962234Y827306D01*
X811455D01*
X810455Y828306D01*
Y831306D01*
X811455Y832306D01*
X962234D01*
X963234Y833306D01*
Y836306D01*
X962234Y837306D01*
X811455D01*
X806242Y842520D01*
X767717D01*
G01Y889764D02*
X812259D01*
X813259Y888764D01*
Y860536D01*
X814258Y859536D01*
X816258D01*
X817258Y860536D01*
Y888764D01*
X818258Y889764D01*
X820258D01*
X821258Y888764D01*
Y860536D01*
X822258Y859536D01*
X824258D01*
X825258Y860536D01*
Y888764D01*
X826258Y889764D01*
X828258D01*
X829258Y888764D01*
Y860536D01*
X830258Y859536D01*
X832258D01*
X833258Y860536D01*
Y888764D01*
X834258Y889764D01*
X836258D01*
X837258Y888764D01*
Y860536D01*
X838258Y859536D01*
X840258D01*
X841258Y860536D01*
Y888764D01*
X842258Y889764D01*
X844258D01*
X845258Y888764D01*
Y860536D01*
X846258Y859536D01*
X848258D01*
X849258Y860536D01*
Y888764D01*
X850258Y889764D01*
X852258D01*
X853258Y888764D01*
Y860536D01*
X854258Y859536D01*
X856258D01*
X857258Y860536D01*
Y888764D01*
X858258Y889764D01*
X860258D01*
X861258Y888764D01*
Y860536D01*
X862258Y859536D01*
X864258D01*
X865258Y860536D01*
Y888764D01*
X866258Y889764D01*
X868258D01*
X869258Y888764D01*
Y860536D01*
X870258Y859536D01*
X872258D01*
X873258Y860536D01*
Y888764D01*
X874258Y889764D01*
X876258D01*
X877258Y888764D01*
Y860536D01*
X878258Y859536D01*
X880258D01*
X881258Y860536D01*
Y888764D01*
X882258Y889764D01*
X884258D01*
X885258Y888764D01*
Y860536D01*
X886258Y859536D01*
X888258D01*
X889258Y860536D01*
Y888764D01*
X890258Y889764D01*
X892258D01*
X893258Y888764D01*
Y860536D01*
X894258Y859536D01*
X896258D01*
X897258Y860536D01*
Y888764D01*
X898258Y889764D01*
X900258D01*
X901258Y888764D01*
Y860536D01*
X902258Y859536D01*
X904258D01*
X905258Y860536D01*
Y888764D01*
X906258Y889764D01*
X908258D01*
X909258Y888764D01*
Y860536D01*
X910258Y859536D01*
X912258D01*
X913258Y860536D01*
Y888764D01*
X914258Y889764D01*
X916073D01*
X917073Y888764D01*
Y859268D01*
X918073Y858268D01*
X964567D01*
G01X767717Y921260D02*
X805055D01*
X806055Y920260D01*
Y907550D01*
X807055Y906550D01*
X809055D01*
X810055Y907550D01*
Y920260D01*
X811055Y921260D01*
X813055D01*
X814055Y920260D01*
Y907550D01*
X815055Y906550D01*
X817055D01*
X818055Y907550D01*
Y920260D01*
X819055Y921260D01*
X821055D01*
X822055Y920260D01*
Y907550D01*
X823055Y906550D01*
X825055D01*
X826055Y907550D01*
Y920260D01*
X827055Y921260D01*
X829055D01*
X830055Y920260D01*
Y907550D01*
X831055Y906550D01*
X833055D01*
X834055Y907550D01*
Y920260D01*
X835055Y921260D01*
X837055D01*
X838055Y920260D01*
Y907550D01*
X839055Y906550D01*
X841055D01*
X842055Y907550D01*
Y920260D01*
X843055Y921260D01*
X845055D01*
X846055Y920260D01*
Y907550D01*
X847055Y906550D01*
X849055D01*
X850055Y907550D01*
Y920260D01*
X851055Y921260D01*
X853055D01*
X854055Y920260D01*
Y907550D01*
X855055Y906550D01*
X857055D01*
X858055Y907550D01*
Y920260D01*
X859055Y921260D01*
X861055D01*
X862055Y920260D01*
Y907550D01*
X863055Y906550D01*
X865055D01*
X866055Y907550D01*
Y920260D01*
X867055Y921260D01*
X869055D01*
X870055Y920260D01*
Y907550D01*
X871055Y906550D01*
X873055D01*
X874055Y907550D01*
Y920260D01*
X875055Y921260D01*
X877055D01*
X878055Y920260D01*
Y907550D01*
X879055Y906550D01*
X881055D01*
X882055Y907550D01*
Y920260D01*
X883055Y921260D01*
X885055D01*
X886055Y920260D01*
Y907550D01*
X887055Y906550D01*
X889055D01*
X890055Y907550D01*
Y920260D01*
X891055Y921260D01*
X893055D01*
X894055Y920260D01*
Y907550D01*
X895055Y906550D01*
X897055D01*
X898055Y907550D01*
Y920260D01*
X899055Y921260D01*
X901055D01*
X902055Y920260D01*
Y907550D01*
X903055Y906550D01*
X905055D01*
X906055Y907550D01*
Y920260D01*
X907055Y921260D01*
X909055D01*
X910055Y920260D01*
Y907550D01*
X911055Y906550D01*
X913055D01*
X914055Y907550D01*
Y920260D01*
X915055Y921260D01*
X917639D01*
X918639Y920260D01*
Y906512D01*
X919639Y905512D01*
X964567D01*
G01X767717Y937008D02*
X866142D01*
G01X767717Y948819D02*
X767819D01*
G01X767717Y952756D02*
X826772D01*
G01X767717Y968504D02*
X807087D01*
G01X767717Y984252D02*
X787402D01*
G01X964567Y1062992D02*
X767717D01*
G01Y1078740D02*
X964567D01*
G01X767717Y1094488D02*
X964567D01*
G01X964582Y1173212D02*
X934686D01*
X931930Y1175968D01*
X768830D01*
X767734Y1174872D01*
Y1173213D01*
G01X767739Y1188966D02*
X964590D01*
X964591Y1188966D01*
G01X767729Y1204702D02*
X929756D01*
X932209Y1207155D01*
X963742D01*
X964586Y1206311D01*
Y1204711D01*
G01X964581Y1220463D02*
X769339D01*
X769328Y1220454D01*
X767728D01*
G01X964577Y1236200D02*
X934984Y1236201D01*
X932558Y1238626D01*
X768551D01*
X767733Y1237809D01*
Y1236209D01*
G01X767717Y1440945D02*
X964567D01*
G01X767717Y1472441D02*
X964567D01*
G01X767717Y1503937D02*
X964567D01*
G01X767717Y1535433D02*
X964567D01*
G01X767717Y1566929D02*
X964567D01*
G01X767717Y1582677D02*
X964567D01*
G01X767717Y1598425D02*
X964567D01*
G01X767717Y1614173D02*
X964567D01*
G01X866139Y161436D02*
X866124Y161421D01*
G01X866142Y228346D02*
Y224424D01*
X866127Y224409D01*
G01X866124Y161421D02*
X964562D01*
G01X866142Y199606D02*
X964592D01*
G01X866142Y203543D02*
X964519D01*
G01X866127Y224409D02*
X964566D01*
G01X964549Y228346D02*
X866142D01*
G01Y262598D02*
X964571D01*
G01X964592Y183858D02*
X964567D01*
G01X964668Y901474D02*
X964567Y901575D01*
G01X1102344Y161421D02*
X1003934D01*
G01X1102359Y165358D02*
X1003934D01*
G01X1200788Y183858D02*
X1121965D01*
X1115272Y177165D01*
X1003937D01*
G01X1200768Y187769D02*
X1117917D01*
X1111250Y181102D01*
X1003937D01*
G01X1102362Y199606D02*
X1014523D01*
X1007830Y192913D01*
X1003937D01*
G01Y196850D02*
X1005595D01*
X1012288Y203543D01*
X1102362D01*
G01X1003937Y208661D02*
X1200788D01*
Y212598D01*
X1003937D01*
G01X1102347Y224409D02*
X1003937D01*
G01X1102362Y228346D02*
X1003937D01*
G01Y244094D02*
X1004021Y244011D01*
G01X1200795Y246850D02*
X1010325D01*
X1007569Y244094D01*
X1003937D01*
G01X1102362Y262598D02*
X1009962D01*
X1008206Y260843D01*
X1007206Y259843D01*
X1003937D01*
G01Y338583D02*
X1102362D01*
G01X1003937Y354331D02*
X1102362D01*
G01X1003937Y370079D02*
X1102362D01*
G01X1200788Y464567D02*
X1145669D01*
G01X1082677D02*
X1003937D01*
G01X1200788Y480315D02*
X1149606D01*
G01X1102362D02*
X1003937D01*
G01X1200788Y496063D02*
X1133858D01*
G01X1102362D02*
X1003937D01*
G01X1200788Y511811D02*
X1118110D01*
G01X1102362D02*
X1003937D01*
G01Y771654D02*
X1041577D01*
X1046675Y776752D01*
Y781306D01*
X1047675Y782306D01*
X1198454D01*
X1199454Y783306D01*
Y786306D01*
X1198454Y787306D01*
X1047675D01*
X1046675Y788306D01*
Y791306D01*
X1047675Y792306D01*
X1198454D01*
X1199454Y793306D01*
Y796306D01*
X1198454Y797306D01*
X1047675D01*
X1046675Y798306D01*
Y801306D01*
X1047675Y802306D01*
X1198454D01*
X1199454Y803306D01*
Y806306D01*
X1198454Y807306D01*
X1047675D01*
X1046675Y808306D01*
Y811306D01*
X1047675Y812306D01*
X1198454D01*
X1199454Y813306D01*
Y816306D01*
X1198454Y817306D01*
X1047675D01*
X1046675Y818306D01*
Y821306D01*
X1047675Y822306D01*
X1198454D01*
X1199454Y823306D01*
Y826306D01*
X1198454Y827306D01*
X1047675D01*
X1046675Y828306D01*
Y831306D01*
X1047675Y832306D01*
X1198454D01*
X1199454Y833306D01*
Y836306D01*
X1198454Y837306D01*
X1047675D01*
X1042462Y842520D01*
X1003937D01*
G01Y889764D02*
X1048479D01*
X1049479Y888764D01*
Y860536D01*
X1050479Y859536D01*
X1052479D01*
X1053479Y860536D01*
Y888764D01*
X1054479Y889764D01*
X1056479D01*
X1057479Y888764D01*
Y860536D01*
X1058479Y859536D01*
X1060479D01*
X1061479Y860536D01*
Y888764D01*
X1062479Y889764D01*
X1064479D01*
X1065479Y888764D01*
Y860536D01*
X1066479Y859536D01*
X1068479D01*
X1069479Y860536D01*
Y888764D01*
X1070479Y889764D01*
X1072479D01*
X1073479Y888764D01*
Y860536D01*
X1074479Y859536D01*
X1076479D01*
X1077479Y860536D01*
Y888764D01*
X1078479Y889764D01*
X1080479D01*
X1081479Y888764D01*
Y860536D01*
X1082479Y859536D01*
X1084479D01*
X1085479Y860536D01*
Y888764D01*
X1086479Y889764D01*
X1088479D01*
X1089479Y888764D01*
Y860536D01*
X1090479Y859536D01*
X1092479D01*
X1093479Y860536D01*
Y888764D01*
X1094479Y889764D01*
X1096479D01*
X1097479Y888764D01*
Y860536D01*
X1098479Y859536D01*
X1100479D01*
X1101479Y860536D01*
Y888764D01*
X1102479Y889764D01*
X1104479D01*
X1105479Y888764D01*
Y860536D01*
X1106479Y859536D01*
X1108479D01*
X1109479Y860536D01*
Y888764D01*
X1110479Y889764D01*
X1112479D01*
X1113479Y888764D01*
Y860536D01*
X1114479Y859536D01*
X1116479D01*
X1117479Y860536D01*
Y888764D01*
X1118479Y889764D01*
X1120479D01*
X1121479Y888764D01*
Y860536D01*
X1122479Y859536D01*
X1124479D01*
X1125479Y860536D01*
Y888764D01*
X1126479Y889764D01*
X1128479D01*
X1129479Y888764D01*
Y860536D01*
X1130479Y859536D01*
X1132479D01*
X1133479Y860536D01*
Y888764D01*
X1134479Y889764D01*
X1136479D01*
X1137479Y888764D01*
Y860536D01*
X1138479Y859536D01*
X1140479D01*
X1141479Y860536D01*
Y888764D01*
X1142479Y889764D01*
X1144479D01*
X1145479Y888764D01*
Y860536D01*
X1146479Y859536D01*
X1148479D01*
X1149479Y860536D01*
Y888764D01*
X1150479Y889764D01*
X1152294D01*
X1153294Y888764D01*
Y859268D01*
X1154294Y858268D01*
X1200788D01*
G01X1003937Y921260D02*
X1041275D01*
X1042275Y920260D01*
Y907550D01*
X1043275Y906550D01*
X1045275D01*
X1046275Y907550D01*
Y920260D01*
X1047275Y921260D01*
X1049275D01*
X1050275Y920260D01*
Y907550D01*
X1051275Y906550D01*
X1053275D01*
X1054275Y907550D01*
Y920260D01*
X1055275Y921260D01*
X1057275D01*
X1058275Y920260D01*
Y907550D01*
X1059275Y906550D01*
X1061275D01*
X1062275Y907550D01*
Y920260D01*
X1063275Y921260D01*
X1065275D01*
X1066275Y920260D01*
Y907550D01*
X1067275Y906550D01*
X1069275D01*
X1070275Y907550D01*
Y920260D01*
X1071275Y921260D01*
X1073275D01*
X1074275Y920260D01*
Y907550D01*
X1075275Y906550D01*
X1077275D01*
X1078275Y907550D01*
Y920260D01*
X1079275Y921260D01*
X1081275D01*
X1082275Y920260D01*
Y907550D01*
X1083275Y906550D01*
X1085275D01*
X1086275Y907550D01*
Y920260D01*
X1087275Y921260D01*
X1089275D01*
X1090275Y920260D01*
Y907550D01*
X1091275Y906550D01*
X1093275D01*
X1094275Y907550D01*
Y920260D01*
X1095275Y921260D01*
X1097275D01*
X1098275Y920260D01*
Y907550D01*
X1099275Y906550D01*
X1101275D01*
X1102275Y907550D01*
Y920260D01*
X1103275Y921260D01*
X1105275D01*
X1106275Y920260D01*
Y907550D01*
X1107275Y906550D01*
X1109275D01*
X1110275Y907550D01*
Y920260D01*
X1111275Y921260D01*
X1113275D01*
X1114275Y920260D01*
Y907550D01*
X1115275Y906550D01*
X1117275D01*
X1118275Y907550D01*
Y920260D01*
X1119275Y921260D01*
X1121275D01*
X1122275Y920260D01*
Y907550D01*
X1123275Y906550D01*
X1125275D01*
X1126275Y907550D01*
Y920260D01*
X1127275Y921260D01*
X1129275D01*
X1130275Y920260D01*
Y907550D01*
X1131275Y906550D01*
X1133275D01*
X1134275Y907550D01*
Y920260D01*
X1135275Y921260D01*
X1137275D01*
X1138275Y920260D01*
Y907550D01*
X1139275Y906550D01*
X1141275D01*
X1142275Y907550D01*
Y920260D01*
X1143275Y921260D01*
X1145275D01*
X1146275Y920260D01*
Y907550D01*
X1147275Y906550D01*
X1149275D01*
X1150275Y907550D01*
Y920260D01*
X1151275Y921260D01*
X1153859D01*
X1154859Y920260D01*
Y906512D01*
X1155859Y905512D01*
X1200788D01*
G01X1003937Y937008D02*
X1102362D01*
G01X1003937Y948819D02*
X1004040D01*
G01X1003937Y952756D02*
X1062992D01*
G01X1003937Y968504D02*
X1043307D01*
G01X1003937Y984252D02*
X1023622D01*
G01X1200788Y1062992D02*
X1003937D01*
G01Y1078740D02*
X1200788D01*
G01X1003937Y1094488D02*
X1200788D01*
G01X1200802Y1173212D02*
X1170906D01*
X1168150Y1175968D01*
X1005050D01*
X1003954Y1174872D01*
Y1173213D01*
G01X1003960Y1188966D02*
X1200810D01*
X1200811Y1188966D01*
G01X1003949Y1204702D02*
X1165977D01*
X1168430Y1207155D01*
X1199963D01*
X1200806Y1206311D01*
Y1204711D01*
G01X1200802Y1220463D02*
X1005559D01*
X1005549Y1220454D01*
X1003949D01*
G01X1200798Y1236200D02*
X1171204Y1236201D01*
X1168779Y1238626D01*
X1004771D01*
X1003953Y1237809D01*
Y1236209D01*
G01X1003937Y1440945D02*
X1200788D01*
G01X1003937Y1472441D02*
X1200788D01*
G01X1003937Y1503937D02*
X1200788D01*
G01X1003937Y1535433D02*
X1200788D01*
G01X1003937Y1566929D02*
X1200788D01*
G01X1003937Y1582677D02*
X1200788D01*
G01X1003937Y1598425D02*
X1200788D01*
G01X1003937Y1614173D02*
X1200788D01*
G01X1102359Y161436D02*
X1102344Y161421D01*
G01X1102362Y228346D02*
Y224424D01*
X1102347Y224409D01*
G01X1102344Y161421D02*
X1200783D01*
G01X1102362Y199606D02*
X1200812D01*
G01X1102362Y203543D02*
X1200739D01*
G01X1102347Y224409D02*
X1200786D01*
G01X1200769Y228346D02*
X1102362D01*
G01Y262598D02*
X1200792D01*
G01X1200812Y183858D02*
X1200788D01*
G01X1200889Y901474D02*
X1200788Y901575D01*
G01X1338565Y161421D02*
X1240154D01*
G01X1338580Y165358D02*
X1240154D01*
G01X1437008Y183858D02*
X1358185D01*
X1351492Y177165D01*
X1240158D01*
G01X1436989Y187769D02*
X1354137D01*
X1347470Y181102D01*
X1240158D01*
G01X1338583Y199606D02*
X1250743D01*
X1244050Y192913D01*
X1240158D01*
G01Y196850D02*
X1241815D01*
X1248508Y203543D01*
X1338583D01*
G01X1240158Y208661D02*
X1437008D01*
Y212598D01*
X1240158D01*
G01X1338568Y224409D02*
X1240158D01*
G01X1338583Y228346D02*
X1240158D01*
G01Y244094D02*
X1240241Y244011D01*
G01X1437015Y246850D02*
X1246545D01*
X1243789Y244094D01*
X1240158D01*
G01X1338583Y262598D02*
X1246182D01*
X1244426Y260843D01*
X1243426Y259843D01*
X1240158D01*
G01Y338583D02*
X1338583D01*
G01X1240158Y354331D02*
X1338583D01*
G01X1240158Y370079D02*
X1338583D01*
G01X1437008Y464567D02*
X1381890D01*
G01X1318898D02*
X1240158D01*
G01X1437008Y480315D02*
X1385827D01*
G01X1338583D02*
X1240158D01*
G01X1437008Y496063D02*
X1370079D01*
G01X1338583D02*
X1240158D01*
G01X1437008Y511811D02*
X1354331D01*
G01X1338583D02*
X1240158D01*
G01Y771654D02*
X1277798D01*
X1282896Y776752D01*
Y781306D01*
X1283896Y782306D01*
X1434674D01*
X1435674Y783306D01*
Y786306D01*
X1434674Y787306D01*
X1283896D01*
X1282896Y788306D01*
Y791306D01*
X1283896Y792306D01*
X1434674D01*
X1435674Y793306D01*
Y796306D01*
X1434674Y797306D01*
X1283896D01*
X1282896Y798306D01*
Y801306D01*
X1283896Y802306D01*
X1434674D01*
X1435674Y803306D01*
Y806306D01*
X1434674Y807306D01*
X1283896D01*
X1282896Y808306D01*
Y811306D01*
X1283896Y812306D01*
X1434674D01*
X1435674Y813306D01*
Y816306D01*
X1434674Y817306D01*
X1283896D01*
X1282896Y818306D01*
Y821306D01*
X1283896Y822306D01*
X1434674D01*
X1435674Y823306D01*
Y826306D01*
X1434674Y827306D01*
X1283896D01*
X1282896Y828306D01*
Y831306D01*
X1283896Y832306D01*
X1434674D01*
X1435674Y833306D01*
Y836306D01*
X1434674Y837306D01*
X1283896D01*
X1278682Y842520D01*
X1240158D01*
G01Y889764D02*
X1284699D01*
X1285699Y888764D01*
Y860536D01*
X1286699Y859536D01*
X1288699D01*
X1289699Y860536D01*
Y888764D01*
X1290699Y889764D01*
X1292699D01*
X1293699Y888764D01*
Y860536D01*
X1294699Y859536D01*
X1296699D01*
X1297699Y860536D01*
Y888764D01*
X1298699Y889764D01*
X1300699D01*
X1301699Y888764D01*
Y860536D01*
X1302699Y859536D01*
X1304699D01*
X1305699Y860536D01*
Y888764D01*
X1306699Y889764D01*
X1308699D01*
X1309699Y888764D01*
Y860536D01*
X1310699Y859536D01*
X1312699D01*
X1313699Y860536D01*
Y888764D01*
X1314699Y889764D01*
X1316699D01*
X1317699Y888764D01*
Y860536D01*
X1318699Y859536D01*
X1320699D01*
X1321699Y860536D01*
Y888764D01*
X1322699Y889764D01*
X1324699D01*
X1325699Y888764D01*
Y860536D01*
X1326699Y859536D01*
X1328699D01*
X1329699Y860536D01*
Y888764D01*
X1330699Y889764D01*
X1332699D01*
X1333699Y888764D01*
Y860536D01*
X1334699Y859536D01*
X1336699D01*
X1337699Y860536D01*
Y888764D01*
X1338699Y889764D01*
X1340699D01*
X1341699Y888764D01*
Y860536D01*
X1342699Y859536D01*
X1344699D01*
X1345699Y860536D01*
Y888764D01*
X1346699Y889764D01*
X1348699D01*
X1349699Y888764D01*
Y860536D01*
X1350699Y859536D01*
X1352699D01*
X1353699Y860536D01*
Y888764D01*
X1354699Y889764D01*
X1356699D01*
X1357699Y888764D01*
Y860536D01*
X1358699Y859536D01*
X1360699D01*
X1361699Y860536D01*
Y888764D01*
X1362699Y889764D01*
X1364699D01*
X1365699Y888764D01*
Y860536D01*
X1366699Y859536D01*
X1368699D01*
X1369699Y860536D01*
Y888764D01*
X1370699Y889764D01*
X1372699D01*
X1373699Y888764D01*
Y860536D01*
X1374699Y859536D01*
X1376699D01*
X1377699Y860536D01*
Y888764D01*
X1378699Y889764D01*
X1380699D01*
X1381699Y888764D01*
Y860536D01*
X1382699Y859536D01*
X1384699D01*
X1385699Y860536D01*
Y888764D01*
X1386699Y889764D01*
X1388514D01*
X1389514Y888764D01*
Y859268D01*
X1390514Y858268D01*
X1437008D01*
G01X1240158Y921260D02*
X1277496D01*
X1278496Y920260D01*
Y907550D01*
X1279496Y906550D01*
X1281496D01*
X1282496Y907550D01*
Y920260D01*
X1283496Y921260D01*
X1285496D01*
X1286496Y920260D01*
Y907550D01*
X1287496Y906550D01*
X1289496D01*
X1290496Y907550D01*
Y920260D01*
X1291496Y921260D01*
X1293496D01*
X1294496Y920260D01*
Y907550D01*
X1295496Y906550D01*
X1297496D01*
X1298496Y907550D01*
Y920260D01*
X1299496Y921260D01*
X1301496D01*
X1302496Y920260D01*
Y907550D01*
X1303496Y906550D01*
X1305496D01*
X1306496Y907550D01*
Y920260D01*
X1307496Y921260D01*
X1309496D01*
X1310496Y920260D01*
Y907550D01*
X1311496Y906550D01*
X1313496D01*
X1314496Y907550D01*
Y920260D01*
X1315496Y921260D01*
X1317496D01*
X1318496Y920260D01*
Y907550D01*
X1319496Y906550D01*
X1321496D01*
X1322496Y907550D01*
Y920260D01*
X1323496Y921260D01*
X1325496D01*
X1326496Y920260D01*
Y907550D01*
X1327496Y906550D01*
X1329496D01*
X1330496Y907550D01*
Y920260D01*
X1331496Y921260D01*
X1333496D01*
X1334496Y920260D01*
Y907550D01*
X1335496Y906550D01*
X1337496D01*
X1338496Y907550D01*
Y920260D01*
X1339496Y921260D01*
X1341496D01*
X1342496Y920260D01*
Y907550D01*
X1343496Y906550D01*
X1345496D01*
X1346496Y907550D01*
Y920260D01*
X1347496Y921260D01*
X1349496D01*
X1350496Y920260D01*
Y907550D01*
X1351496Y906550D01*
X1353496D01*
X1354496Y907550D01*
Y920260D01*
X1355496Y921260D01*
X1357496D01*
X1358496Y920260D01*
Y907550D01*
X1359496Y906550D01*
X1361496D01*
X1362496Y907550D01*
Y920260D01*
X1363496Y921260D01*
X1365496D01*
X1366496Y920260D01*
Y907550D01*
X1367496Y906550D01*
X1369496D01*
X1370496Y907550D01*
Y920260D01*
X1371496Y921260D01*
X1373496D01*
X1374496Y920260D01*
Y907550D01*
X1375496Y906550D01*
X1377496D01*
X1378496Y907550D01*
Y920260D01*
X1379496Y921260D01*
X1381496D01*
X1382496Y920260D01*
Y907550D01*
X1383496Y906550D01*
X1385496D01*
X1386496Y907550D01*
Y920260D01*
X1387496Y921260D01*
X1390080D01*
X1391080Y920260D01*
Y906512D01*
X1392080Y905512D01*
X1437008D01*
G01X1240158Y937008D02*
X1338583D01*
G01X1240158Y948819D02*
X1240260D01*
G01X1240158Y952756D02*
X1299213D01*
G01X1240158Y968504D02*
X1279528D01*
G01X1240158Y984252D02*
X1259843D01*
G01X1437008Y1062992D02*
X1240158D01*
G01Y1078740D02*
X1437008D01*
G01X1240158Y1094488D02*
X1437008D01*
G01X1437023Y1173212D02*
X1407127D01*
X1404370Y1175968D01*
X1241270D01*
X1240175Y1174872D01*
Y1173213D01*
G01X1240180Y1188966D02*
X1437031D01*
X1437032Y1188966D01*
G01X1240170Y1204702D02*
X1402197D01*
X1404650Y1207155D01*
X1436183D01*
X1437027Y1206311D01*
Y1204711D01*
G01X1437022Y1220463D02*
X1241780D01*
X1241769Y1220454D01*
X1240169D01*
G01X1437018Y1236200D02*
X1407424Y1236201D01*
X1404999Y1238626D01*
X1240991D01*
X1240174Y1237809D01*
Y1236209D01*
G01X1240158Y1440945D02*
X1437008D01*
G01X1240158Y1472441D02*
X1437008D01*
G01X1240158Y1503937D02*
X1437008D01*
G01X1240158Y1535433D02*
X1437008D01*
G01X1240158Y1566929D02*
X1437008D01*
G01X1240158Y1582677D02*
X1437008D01*
G01X1240158Y1598425D02*
X1437008D01*
G01X1240158Y1614173D02*
X1437008D01*
G01X1338580Y161436D02*
X1338565Y161421D01*
G01D02*
X1437003D01*
G01X1338583Y199606D02*
X1437033D01*
G01X1338583Y203543D02*
X1436960D01*
G01X1338568Y224409D02*
X1437006D01*
G01X1338583Y228346D02*
Y224424D01*
X1338568Y224409D01*
G01X1436989Y228346D02*
X1338583D01*
G01Y262598D02*
X1437012D01*
G01X1437033Y183858D02*
X1437008D01*
G01X1437109Y901474D02*
X1437008Y901575D01*
G54D15*
X59055Y318898D03*
Y322835D03*
Y366142D03*
Y370079D03*
X255906Y318898D03*
Y322835D03*
Y366142D03*
Y370079D03*
X295276Y318898D03*
Y322835D03*
Y366142D03*
Y370079D03*
X492126Y318898D03*
Y322835D03*
Y366142D03*
Y370079D03*
X531496Y318898D03*
Y322835D03*
Y366142D03*
Y370079D03*
X728347Y318898D03*
Y322835D03*
Y366142D03*
Y370079D03*
X767717Y318898D03*
Y322835D03*
Y366142D03*
Y370079D03*
X964567Y318898D03*
Y322835D03*
Y366142D03*
Y370079D03*
X1003937Y318898D03*
Y322835D03*
Y366142D03*
Y370079D03*
X1200788Y318898D03*
Y322835D03*
Y366142D03*
Y370079D03*
X1240158Y318898D03*
Y322835D03*
Y366142D03*
Y370079D03*
X1437008Y318898D03*
Y322835D03*
Y366142D03*
Y370079D03*
G54D25*
G01X255906Y98425D02*
X254812Y99518D01*
X60148D01*
X59055Y98425D01*
G01X255906Y102362D02*
X254812Y101268D01*
X60148D01*
X59055Y102362D01*
G01X492126Y98425D02*
X491033Y99518D01*
X296369D01*
X295276Y98425D01*
G01X492126Y102362D02*
X491033Y101268D01*
X296369D01*
X295276Y102362D01*
G01X728347Y98425D02*
X727253Y99518D01*
X532590D01*
X531496Y98425D01*
G01X728347Y102362D02*
X727253Y101268D01*
X532590D01*
X531496Y102362D01*
G01X964567Y98425D02*
X963473Y99518D01*
X768810D01*
X767717Y98425D01*
G01X964567Y102362D02*
X963473Y101268D01*
X768810D01*
X767717Y102362D01*
G01X1200788Y98425D02*
X1199694Y99518D01*
X1005030D01*
X1003937Y98425D01*
G01X1200788Y102362D02*
X1199694Y101268D01*
X1005030D01*
X1003937Y102362D01*
G01X1437008Y98425D02*
X1435914Y99518D01*
X1241251D01*
X1240158Y98425D01*
G01X1437008Y102362D02*
X1435914Y101268D01*
X1241251D01*
X1240158Y102362D01*
G54D16*
X59055Y1027559D03*
Y1031496D03*
Y1074803D03*
Y1078740D03*
Y1360236D03*
Y1362205D03*
Y1377953D03*
Y1376772D03*
Y1614173D03*
Y1612205D03*
Y1628740D03*
Y1629921D03*
X255906Y1027559D03*
Y1031496D03*
Y1074803D03*
Y1078740D03*
Y1360236D03*
Y1362205D03*
Y1377953D03*
Y1376772D03*
Y1614173D03*
Y1612205D03*
Y1628740D03*
Y1629921D03*
X295276Y1027559D03*
Y1031496D03*
Y1074803D03*
Y1078740D03*
Y1360236D03*
Y1362205D03*
Y1376772D03*
Y1377953D03*
Y1612205D03*
Y1614173D03*
Y1628740D03*
Y1629921D03*
X492126Y1027559D03*
Y1031496D03*
Y1074803D03*
Y1078740D03*
Y1360236D03*
Y1362205D03*
Y1376772D03*
Y1377953D03*
Y1612205D03*
Y1614173D03*
Y1628740D03*
Y1629921D03*
X531496Y1027559D03*
Y1031496D03*
Y1074803D03*
Y1078740D03*
Y1360236D03*
Y1362205D03*
Y1376772D03*
Y1377953D03*
Y1612205D03*
Y1614173D03*
Y1628740D03*
Y1629921D03*
X728347Y1027559D03*
Y1031496D03*
Y1074803D03*
Y1078740D03*
Y1360236D03*
Y1362205D03*
Y1376772D03*
Y1377953D03*
Y1612205D03*
Y1614173D03*
Y1628740D03*
Y1629921D03*
X767717Y1027559D03*
Y1031496D03*
Y1074803D03*
Y1078740D03*
Y1360236D03*
Y1362205D03*
Y1376772D03*
Y1377953D03*
Y1612205D03*
Y1614173D03*
Y1628740D03*
Y1629921D03*
X964567Y1027559D03*
Y1031496D03*
Y1074803D03*
Y1078740D03*
Y1360236D03*
Y1362205D03*
Y1376772D03*
Y1377953D03*
Y1612205D03*
Y1614173D03*
Y1628740D03*
Y1629921D03*
X1003937Y1027559D03*
Y1031496D03*
Y1074803D03*
Y1078740D03*
Y1360236D03*
Y1362205D03*
Y1376772D03*
Y1377953D03*
Y1612205D03*
Y1614173D03*
Y1628740D03*
Y1629921D03*
X1200788Y1027559D03*
Y1031496D03*
Y1074803D03*
Y1078740D03*
Y1360236D03*
Y1362205D03*
Y1376772D03*
Y1377953D03*
Y1612205D03*
Y1614173D03*
Y1628740D03*
Y1629921D03*
X1240158Y1027559D03*
Y1031496D03*
Y1074803D03*
Y1078740D03*
Y1360236D03*
Y1362205D03*
Y1376772D03*
Y1377953D03*
Y1612205D03*
Y1614173D03*
Y1628740D03*
Y1629921D03*
X1437008Y1027559D03*
Y1031496D03*
Y1074803D03*
Y1078740D03*
Y1360236D03*
Y1362205D03*
Y1376772D03*
Y1377953D03*
Y1612205D03*
Y1614173D03*
Y1628740D03*
Y1629921D03*
G54D26*
G01X59055Y149606D02*
X255906D01*
G01X295276D02*
X492126D01*
G01X531496D02*
X728347D01*
G01X767717D02*
X964567D01*
G01X1003937D02*
X1200788D01*
G01X1240158D02*
X1437008D01*
G54D17*
G01X10000Y0D02*
X1486063D01*
G03X1496063Y10000I0J10000D01*
G01Y1690787D01*
G03X1486063Y1700787I-10000J0D01*
G01X10000D01*
G03X0Y1690787I0J-10000D01*
G01Y10000D01*
G03X10000Y0I10000J0D01*
G01X45424Y39391D02*
G03I-6000J0D01*
G01X45470Y1661436D02*
G03I-6000J0D01*
G01X59034Y1074824D02*
X59055Y1074803D01*
G01X59047Y1090559D02*
X59055Y1090551D01*
G01X55133Y1125967D02*
X56501Y1127335D01*
Y1128432D01*
X57804Y1129735D01*
X253249D01*
X254552Y1128432D01*
Y1127333D01*
X255920Y1125964D01*
G01X59055Y70866D02*
X60455D01*
X61621Y69700D01*
X253340D01*
X254506Y70866D01*
X255906D01*
G01Y66929D02*
X254506D01*
X253334Y68100D01*
X61626D01*
X60455Y66929D01*
X59055D01*
G01X157482Y287289D02*
X156001Y288770D01*
X60424D01*
X59055Y287402D01*
G01X157482Y291451D02*
X156001Y289970D01*
X60424D01*
X59055Y291339D01*
G01X157457Y303037D02*
X155976Y304518D01*
X60424D01*
X59055Y303150D01*
G01X157457Y307199D02*
X155976Y305718D01*
X60424D01*
X59055Y307087D01*
G01X157521Y318785D02*
X156041Y320266D01*
X60424D01*
X59055Y318898D01*
G01X157521Y322947D02*
X156041Y321466D01*
X60424D01*
X59055Y322835D01*
G01X255906Y397638D02*
X254537Y399006D01*
X200787D01*
G01X137795D02*
X60424D01*
X59055Y397638D01*
G01Y401575D02*
X60424Y400206D01*
X137795D01*
G01X200787D02*
X254537D01*
X255906Y401575D01*
G01Y413386D02*
X254537Y414754D01*
X204724D01*
G01X157480D02*
X60424D01*
X59055Y413386D01*
G01X255906Y417323D02*
X254537Y415954D01*
X204724D01*
G01X157480D02*
X60424D01*
X59055Y417323D01*
G01X255906Y429134D02*
X254537Y430502D01*
X188976D01*
G01X157480D02*
X60424D01*
X59055Y429134D01*
G01X255906Y433071D02*
X254537Y431702D01*
X188976D01*
G01X157480D02*
X60424D01*
X59055Y433071D01*
G01Y448819D02*
X60424Y447450D01*
X157480D01*
G01X173228D02*
X254537D01*
X255906Y448819D01*
G01X59055Y444882D02*
X60424Y446250D01*
X157480D01*
G01X173228D02*
X254537D01*
X255906Y444882D01*
G01X59055Y535433D02*
X60424Y534065D01*
X77633D01*
X81025Y537457D01*
Y544091D01*
X82328Y545394D01*
X236157D01*
X236757Y545994D01*
Y548394D01*
X236157Y548994D01*
X82328D01*
X81025Y550297D01*
Y553691D01*
X82328Y554994D01*
X236157D01*
X236757Y555594D01*
Y557994D01*
X236157Y558594D01*
X82328D01*
X81025Y559897D01*
Y563291D01*
X82328Y564594D01*
X236157D01*
X236757Y565194D01*
Y567594D01*
X236157Y568194D01*
X82328D01*
X81025Y569497D01*
Y572891D01*
X82328Y574194D01*
X236157D01*
X236757Y574794D01*
Y577194D01*
X236157Y577794D01*
X82328D01*
X81025Y579097D01*
Y582491D01*
X82328Y583794D01*
X236157D01*
X236757Y584394D01*
Y586794D01*
X236157Y587394D01*
X82328D01*
X81025Y588697D01*
Y592091D01*
X82328Y593394D01*
X236157D01*
X236757Y593994D01*
Y596394D01*
X236157Y596994D01*
X82328D01*
X81025Y598297D01*
Y600339D01*
X77633Y603731D01*
X60424D01*
X59055Y602362D01*
G01Y531496D02*
X60424Y532865D01*
X78130D01*
X82225Y536959D01*
Y543594D01*
X82825Y544194D01*
X236654D01*
X237957Y545497D01*
Y548891D01*
X236654Y550194D01*
X82825D01*
X82225Y550794D01*
Y553194D01*
X82825Y553794D01*
X236654D01*
X237957Y555097D01*
Y558491D01*
X236654Y559794D01*
X82825D01*
X82225Y560394D01*
Y562794D01*
X82825Y563394D01*
X236654D01*
X237957Y564697D01*
Y568091D01*
X236654Y569394D01*
X82825D01*
X82225Y569994D01*
Y572394D01*
X82825Y572994D01*
X236654D01*
X237957Y574297D01*
Y577691D01*
X236654Y578994D01*
X82825D01*
X82225Y579594D01*
Y581994D01*
X82825Y582594D01*
X236654D01*
X237957Y583897D01*
Y587291D01*
X236654Y588594D01*
X82825D01*
X82225Y589194D01*
Y591594D01*
X82825Y592194D01*
X236654D01*
X237957Y593497D01*
Y596891D01*
X236654Y598194D01*
X82825D01*
X82225Y598794D01*
Y600836D01*
X78130Y604931D01*
X60424D01*
X59055Y606299D01*
G01X255906Y618110D02*
X254537Y619479D01*
X224285D01*
X222982Y620782D01*
Y650375D01*
X222382Y650975D01*
X217543D01*
X216943Y650375D01*
Y619749D01*
X215640Y618446D01*
X211246D01*
X209943Y619749D01*
Y650375D01*
X209343Y650975D01*
X205943D01*
X205343Y650375D01*
Y619749D01*
X204040Y618446D01*
X199646D01*
X198343Y619749D01*
Y650375D01*
X197743Y650975D01*
X194343D01*
X193743Y650375D01*
Y619749D01*
X192440Y618446D01*
X188046D01*
X186743Y619749D01*
Y650375D01*
X186143Y650975D01*
X182743D01*
X182143Y650375D01*
Y619749D01*
X180840Y618446D01*
X176446D01*
X175143Y619749D01*
Y650375D01*
X174543Y650975D01*
X171143D01*
X170543Y650375D01*
Y619749D01*
X169240Y618446D01*
X164846D01*
X163543Y619749D01*
Y650375D01*
X162943Y650975D01*
X159543D01*
X158943Y650375D01*
Y619749D01*
X157640Y618446D01*
X153246D01*
X151943Y619749D01*
Y650375D01*
X151343Y650975D01*
X147943D01*
X147343Y650375D01*
Y619749D01*
X146040Y618446D01*
X141646D01*
X140343Y619749D01*
Y650375D01*
X139743Y650975D01*
X136343D01*
X135743Y650375D01*
Y619749D01*
X134440Y618446D01*
X130046D01*
X128743Y619749D01*
Y650375D01*
X128143Y650975D01*
X124743D01*
X124143Y650375D01*
Y619749D01*
X122840Y618446D01*
X118446D01*
X117143Y619749D01*
Y650375D01*
X116543Y650975D01*
X113143D01*
X112543Y650375D01*
Y619749D01*
X111240Y618446D01*
X106846D01*
X105543Y619749D01*
Y650375D01*
X104943Y650975D01*
X101543D01*
X100943Y650375D01*
Y619749D01*
X99640Y618446D01*
X95246D01*
X93943Y619749D01*
Y650375D01*
X93343Y650975D01*
X89943D01*
X89343Y650375D01*
Y619749D01*
X88040Y618446D01*
X83646D01*
X82343Y619749D01*
Y650375D01*
X81743Y650975D01*
X60424D01*
X59055Y649606D01*
G01X255906Y622047D02*
X254537Y620679D01*
X224782D01*
X224182Y621279D01*
Y650872D01*
X222879Y652175D01*
X217046D01*
X215743Y650872D01*
Y620246D01*
X215143Y619646D01*
X211743D01*
X211143Y620246D01*
Y650872D01*
X209840Y652175D01*
X205446D01*
X204143Y650872D01*
Y620246D01*
X203543Y619646D01*
X200143D01*
X199543Y620246D01*
Y650872D01*
X198240Y652175D01*
X193846D01*
X192543Y650872D01*
Y620246D01*
X191943Y619646D01*
X188543D01*
X187943Y620246D01*
Y650872D01*
X186640Y652175D01*
X182246D01*
X180943Y650872D01*
Y620246D01*
X180343Y619646D01*
X176943D01*
X176343Y620246D01*
Y650872D01*
X175040Y652175D01*
X170646D01*
X169343Y650872D01*
Y620246D01*
X168743Y619646D01*
X165343D01*
X164743Y620246D01*
Y650872D01*
X163440Y652175D01*
X159046D01*
X157743Y650872D01*
Y620246D01*
X157143Y619646D01*
X153743D01*
X153143Y620246D01*
Y650872D01*
X151840Y652175D01*
X147446D01*
X146143Y650872D01*
Y620246D01*
X145543Y619646D01*
X142143D01*
X141543Y620246D01*
Y650872D01*
X140240Y652175D01*
X135846D01*
X134543Y650872D01*
Y620246D01*
X133943Y619646D01*
X130543D01*
X129943Y620246D01*
Y650872D01*
X128640Y652175D01*
X124246D01*
X122943Y650872D01*
Y620246D01*
X122343Y619646D01*
X118943D01*
X118343Y620246D01*
Y650872D01*
X117040Y652175D01*
X112646D01*
X111343Y650872D01*
Y620246D01*
X110743Y619646D01*
X107343D01*
X106743Y620246D01*
Y650872D01*
X105440Y652175D01*
X101046D01*
X99743Y650872D01*
Y620246D01*
X99143Y619646D01*
X95743D01*
X95143Y620246D01*
Y650872D01*
X93840Y652175D01*
X89446D01*
X88143Y650872D01*
Y620246D01*
X87543Y619646D01*
X84143D01*
X83543Y620246D01*
Y650872D01*
X82240Y652175D01*
X60424D01*
X59055Y653543D01*
G01X255906Y669291D02*
X254537Y667923D01*
X221816D01*
X221216Y668523D01*
Y682368D01*
X219913Y683671D01*
X216129D01*
X214826Y682368D01*
Y669727D01*
X214226Y669127D01*
X211826D01*
X211226Y669727D01*
Y682368D01*
X209923Y683671D01*
X206529D01*
X205226Y682368D01*
Y669727D01*
X204626Y669127D01*
X202226D01*
X201626Y669727D01*
Y682368D01*
X200323Y683671D01*
X196929D01*
X195626Y682368D01*
Y669727D01*
X195026Y669127D01*
X192626D01*
X192026Y669727D01*
Y682368D01*
X190723Y683671D01*
X187329D01*
X186026Y682368D01*
Y669727D01*
X185426Y669127D01*
X183026D01*
X182426Y669727D01*
Y682368D01*
X181123Y683671D01*
X177729D01*
X176426Y682368D01*
Y669727D01*
X175826Y669127D01*
X173426D01*
X172826Y669727D01*
Y682368D01*
X171523Y683671D01*
X168129D01*
X166826Y682368D01*
Y669727D01*
X166226Y669127D01*
X163826D01*
X163226Y669727D01*
Y682368D01*
X161923Y683671D01*
X158529D01*
X157226Y682368D01*
Y669727D01*
X156626Y669127D01*
X154226D01*
X153626Y669727D01*
Y682368D01*
X152323Y683671D01*
X148929D01*
X147626Y682368D01*
Y669727D01*
X147026Y669127D01*
X144626D01*
X144026Y669727D01*
Y682368D01*
X142723Y683671D01*
X139329D01*
X138026Y682368D01*
Y669727D01*
X137426Y669127D01*
X135026D01*
X134426Y669727D01*
Y682368D01*
X133123Y683671D01*
X129729D01*
X128426Y682368D01*
Y669727D01*
X127826Y669127D01*
X125426D01*
X124826Y669727D01*
Y682368D01*
X123523Y683671D01*
X120129D01*
X118826Y682368D01*
Y669727D01*
X118226Y669127D01*
X115826D01*
X115226Y669727D01*
Y682368D01*
X113923Y683671D01*
X110529D01*
X109226Y682368D01*
Y669727D01*
X108626Y669127D01*
X106226D01*
X105626Y669727D01*
Y682368D01*
X104323Y683671D01*
X100929D01*
X99626Y682368D01*
Y669727D01*
X99026Y669127D01*
X96626D01*
X96026Y669727D01*
Y682368D01*
X94723Y683671D01*
X91329D01*
X90026Y682368D01*
Y669727D01*
X89426Y669127D01*
X87026D01*
X86426Y669727D01*
Y682368D01*
X85123Y683671D01*
X60424D01*
X59055Y685039D01*
G01X255906Y665354D02*
X254537Y666723D01*
X221319D01*
X220016Y668026D01*
Y681871D01*
X219416Y682471D01*
X216626D01*
X216026Y681871D01*
Y669230D01*
X214723Y667927D01*
X211329D01*
X210026Y669230D01*
Y681871D01*
X209426Y682471D01*
X207026D01*
X206426Y681871D01*
Y669230D01*
X205123Y667927D01*
X201729D01*
X200426Y669230D01*
Y681871D01*
X199826Y682471D01*
X197426D01*
X196826Y681871D01*
Y669230D01*
X195523Y667927D01*
X192129D01*
X190826Y669230D01*
Y681871D01*
X190226Y682471D01*
X187826D01*
X187226Y681871D01*
Y669230D01*
X185923Y667927D01*
X182529D01*
X181226Y669230D01*
Y681871D01*
X180626Y682471D01*
X178226D01*
X177626Y681871D01*
Y669230D01*
X176323Y667927D01*
X172929D01*
X171626Y669230D01*
Y681871D01*
X171026Y682471D01*
X168626D01*
X168026Y681871D01*
Y669230D01*
X166723Y667927D01*
X163329D01*
X162026Y669230D01*
Y681871D01*
X161426Y682471D01*
X159026D01*
X158426Y681871D01*
Y669230D01*
X157123Y667927D01*
X153729D01*
X152426Y669230D01*
Y681871D01*
X151826Y682471D01*
X149426D01*
X148826Y681871D01*
Y669230D01*
X147523Y667927D01*
X144129D01*
X142826Y669230D01*
Y681871D01*
X142226Y682471D01*
X139826D01*
X139226Y681871D01*
Y669230D01*
X137923Y667927D01*
X134529D01*
X133226Y669230D01*
Y681871D01*
X132626Y682471D01*
X130226D01*
X129626Y681871D01*
Y669230D01*
X128323Y667927D01*
X124929D01*
X123626Y669230D01*
Y681871D01*
X123026Y682471D01*
X120626D01*
X120026Y681871D01*
Y669230D01*
X118723Y667927D01*
X115329D01*
X114026Y669230D01*
Y681871D01*
X113426Y682471D01*
X111026D01*
X110426Y681871D01*
Y669230D01*
X109123Y667927D01*
X105729D01*
X104426Y669230D01*
Y681871D01*
X103826Y682471D01*
X101426D01*
X100826Y681871D01*
Y669230D01*
X99523Y667927D01*
X96129D01*
X94826Y669230D01*
Y681871D01*
X94226Y682471D01*
X91826D01*
X91226Y681871D01*
Y669230D01*
X89923Y667927D01*
X86529D01*
X85226Y669230D01*
Y681871D01*
X84626Y682471D01*
X60424D01*
X59055Y681102D01*
G01Y696850D02*
X60424Y698219D01*
X156112D01*
X157480Y696850D01*
G01X59055Y700787D02*
X60424Y699419D01*
X156112D01*
X157480Y700787D01*
G01X59055Y712598D02*
X60424Y713967D01*
X116742D01*
X118110Y712598D01*
G01X59055Y716535D02*
X60424Y715167D01*
X116742D01*
X118110Y716535D01*
G01X98425Y728346D02*
X97057Y729715D01*
X60424D01*
X59055Y728346D01*
G01X98425Y732284D02*
X97057Y730915D01*
X60424D01*
X59055Y732284D01*
G01X78740Y748032D02*
X77372Y746663D01*
X60424D01*
X59055Y748032D01*
G01X78740Y744094D02*
X77372Y745463D01*
X60424D01*
X59055Y744094D01*
G01X255906Y1015748D02*
X254537Y1014380D01*
X60424D01*
X59055Y1015748D01*
G01X255906Y1011811D02*
X254537Y1013180D01*
X60424D01*
X59055Y1011811D01*
G01Y1027559D02*
X60424Y1028928D01*
X254537D01*
X255906Y1027559D01*
G01X59055Y1031496D02*
X60424Y1030128D01*
X254537D01*
X255906Y1031496D01*
G01Y1043307D02*
X254537Y1044676D01*
X60424D01*
X59055Y1043307D01*
G01X255906Y1047244D02*
X254537Y1045876D01*
X60424D01*
X59055Y1047244D01*
G01X59070Y1125967D02*
X57701Y1127335D01*
Y1127935D01*
X58301Y1128535D01*
X252752D01*
X253352Y1127935D01*
Y1127333D01*
X251984Y1125964D01*
G01X59070Y1141715D02*
X60438Y1143083D01*
X254552D01*
X255920Y1141715D01*
G01X59070Y1145652D02*
X60438Y1144283D01*
X254552D01*
X255920Y1145652D01*
G01X259862Y1157461D02*
X258485Y1158839D01*
Y1160742D01*
X257182Y1162045D01*
X61741D01*
X60438Y1160742D01*
Y1158831D01*
X59070Y1157463D01*
G01X255925Y1157461D02*
X257285Y1158822D01*
Y1160245D01*
X256685Y1160845D01*
X62238D01*
X61638Y1160245D01*
Y1158831D01*
X63007Y1157463D01*
G01X255906Y1266929D02*
Y1272797D01*
X254106Y1274597D01*
X60855D01*
X59055Y1272797D01*
Y1266929D01*
G01X255906Y1283465D02*
Y1277597D01*
X254106Y1275797D01*
X60855D01*
X59055Y1277597D01*
Y1283465D01*
G01X255906Y1299213D02*
Y1304687D01*
X254106Y1306487D01*
X60855D01*
X59055Y1304687D01*
Y1299213D01*
G01X255906Y1314961D02*
Y1309487D01*
X254106Y1307687D01*
X60855D01*
X59055Y1309487D01*
Y1314961D01*
G01X255906Y1320709D02*
Y1323309D01*
X254106Y1325109D01*
X60855D01*
X59055Y1323309D01*
Y1320709D01*
G01X255906Y1330709D02*
Y1328109D01*
X254106Y1326309D01*
X60855D01*
X59055Y1328109D01*
Y1330709D01*
G01Y1342520D02*
X60424Y1343888D01*
X254537D01*
X255906Y1342520D01*
G01X59055Y1346457D02*
X60424Y1345088D01*
X254537D01*
X255906Y1346457D01*
G01X59055Y1360236D02*
X60160D01*
X60544Y1360620D01*
X254416D01*
X254801Y1360236D01*
X255906D01*
G01X59055Y1362205D02*
X60160D01*
X60544Y1361820D01*
X254416D01*
X254801Y1362205D01*
X255906D01*
G01X59055Y1377953D02*
X255906D01*
G01X59055Y1376772D02*
X255906D01*
G01X59055Y1452756D02*
X59021Y1452790D01*
G01X59055Y1487008D02*
X59020Y1486973D01*
G01X59055Y1551181D02*
X59040Y1551166D01*
G01X59055Y1594488D02*
X59045Y1594498D01*
G01X59055Y1628740D02*
Y1625833D01*
X59089Y1625799D01*
G01X59055Y1629921D02*
X255906D01*
G01X59055Y1644685D02*
Y1642642D01*
X59054Y1642642D01*
Y1641886D01*
X59054Y1641885D01*
G01X255906Y1645669D02*
X59055D01*
G01X255906Y1594488D02*
X255910Y1594492D01*
G01X255906Y1612205D02*
X255920Y1612220D01*
G01X255906Y1628740D02*
Y1625736D01*
X255934Y1625707D01*
G01X255906Y1644685D02*
Y1641960D01*
X255911Y1641954D01*
Y1641885D01*
G01X295255Y1074824D02*
X295276Y1074803D01*
G01X295268Y1090559D02*
X295276Y1090551D01*
G01X291354Y1125967D02*
X292722Y1127335D01*
Y1128432D01*
X294025Y1129735D01*
X489470D01*
X490773Y1128432D01*
Y1127333D01*
X492141Y1125964D01*
G01X492126Y66929D02*
X490726D01*
X489555Y68100D01*
X297847D01*
X296676Y66929D01*
X295276D01*
G01Y70866D02*
X296676D01*
X297842Y69700D01*
X489561D01*
X490726Y70866D01*
X492126D01*
G01X393703Y287289D02*
X392222Y288770D01*
X296644D01*
X295276Y287402D01*
G01X393703Y291451D02*
X392222Y289970D01*
X296644D01*
X295276Y291339D01*
G01X393678Y303037D02*
X392197Y304518D01*
X296644D01*
X295276Y303150D01*
G01X393678Y307199D02*
X392197Y305718D01*
X296644D01*
X295276Y307087D01*
G01X393742Y318785D02*
X392261Y320266D01*
X296644D01*
X295276Y318898D01*
G01X393742Y322947D02*
X392261Y321466D01*
X296644D01*
X295276Y322835D01*
G01X492126Y397638D02*
X490758Y399006D01*
X437008D01*
G01X374016D02*
X296644D01*
X295276Y397638D01*
G01Y401575D02*
X296644Y400206D01*
X374016D01*
G01X437008D02*
X490758D01*
X492126Y401575D01*
G01Y413386D02*
X490758Y414754D01*
X440945D01*
G01X393701D02*
X296644D01*
X295276Y413386D01*
G01X492126Y417323D02*
X490758Y415954D01*
X440945D01*
G01X393701D02*
X296644D01*
X295276Y417323D01*
G01X492126Y429134D02*
X490758Y430502D01*
X425197D01*
G01X393701D02*
X296644D01*
X295276Y429134D01*
G01X492126Y433071D02*
X490758Y431702D01*
X425197D01*
G01X393701D02*
X296644D01*
X295276Y433071D01*
G01Y444882D02*
X296644Y446250D01*
X393701D01*
G01X409449D02*
X490758D01*
X492126Y444882D01*
G01X295276Y448819D02*
X296644Y447450D01*
X393701D01*
G01X409449D02*
X490758D01*
X492126Y448819D01*
G01X295276Y535433D02*
X296644Y534065D01*
X313854D01*
X317246Y537457D01*
Y544091D01*
X318549Y545394D01*
X472378D01*
X472978Y545994D01*
Y548394D01*
X472378Y548994D01*
X318549D01*
X317246Y550297D01*
Y553691D01*
X318549Y554994D01*
X472378D01*
X472978Y555594D01*
Y557994D01*
X472378Y558594D01*
X318549D01*
X317246Y559897D01*
Y563291D01*
X318549Y564594D01*
X472378D01*
X472978Y565194D01*
Y567594D01*
X472378Y568194D01*
X318549D01*
X317246Y569497D01*
Y572891D01*
X318549Y574194D01*
X472378D01*
X472978Y574794D01*
Y577194D01*
X472378Y577794D01*
X318549D01*
X317246Y579097D01*
Y582491D01*
X318549Y583794D01*
X472378D01*
X472978Y584394D01*
Y586794D01*
X472378Y587394D01*
X318549D01*
X317246Y588697D01*
Y592091D01*
X318549Y593394D01*
X472378D01*
X472978Y593994D01*
Y596394D01*
X472378Y596994D01*
X318549D01*
X317246Y598297D01*
Y600339D01*
X313854Y603731D01*
X296644D01*
X295276Y602362D01*
G01Y531496D02*
X296644Y532865D01*
X314351D01*
X318446Y536959D01*
Y543594D01*
X319046Y544194D01*
X472875D01*
X474178Y545497D01*
Y548891D01*
X472875Y550194D01*
X319046D01*
X318446Y550794D01*
Y553194D01*
X319046Y553794D01*
X472875D01*
X474178Y555097D01*
Y558491D01*
X472875Y559794D01*
X319046D01*
X318446Y560394D01*
Y562794D01*
X319046Y563394D01*
X472875D01*
X474178Y564697D01*
Y568091D01*
X472875Y569394D01*
X319046D01*
X318446Y569994D01*
Y572394D01*
X319046Y572994D01*
X472875D01*
X474178Y574297D01*
Y577691D01*
X472875Y578994D01*
X319046D01*
X318446Y579594D01*
Y581994D01*
X319046Y582594D01*
X472875D01*
X474178Y583897D01*
Y587291D01*
X472875Y588594D01*
X319046D01*
X318446Y589194D01*
Y591594D01*
X319046Y592194D01*
X472875D01*
X474178Y593497D01*
Y596891D01*
X472875Y598194D01*
X319046D01*
X318446Y598794D01*
Y600836D01*
X314351Y604931D01*
X296644D01*
X295276Y606299D01*
G01X492126Y618110D02*
X490758Y619479D01*
X460506D01*
X459203Y620782D01*
Y650375D01*
X458603Y650975D01*
X453764D01*
X453164Y650375D01*
Y619749D01*
X451861Y618446D01*
X447467D01*
X446164Y619749D01*
Y650375D01*
X445564Y650975D01*
X442164D01*
X441564Y650375D01*
Y619749D01*
X440261Y618446D01*
X435867D01*
X434564Y619749D01*
Y650375D01*
X433964Y650975D01*
X430564D01*
X429964Y650375D01*
Y619749D01*
X428661Y618446D01*
X424267D01*
X422964Y619749D01*
Y650375D01*
X422364Y650975D01*
X418964D01*
X418364Y650375D01*
Y619749D01*
X417061Y618446D01*
X412667D01*
X411364Y619749D01*
Y650375D01*
X410764Y650975D01*
X407364D01*
X406764Y650375D01*
Y619749D01*
X405461Y618446D01*
X401067D01*
X399764Y619749D01*
Y650375D01*
X399164Y650975D01*
X395764D01*
X395164Y650375D01*
Y619749D01*
X393861Y618446D01*
X389467D01*
X388164Y619749D01*
Y650375D01*
X387564Y650975D01*
X384164D01*
X383564Y650375D01*
Y619749D01*
X382261Y618446D01*
X377867D01*
X376564Y619749D01*
Y650375D01*
X375964Y650975D01*
X372564D01*
X371964Y650375D01*
Y619749D01*
X370661Y618446D01*
X366267D01*
X364964Y619749D01*
Y650375D01*
X364364Y650975D01*
X360964D01*
X360364Y650375D01*
Y619749D01*
X359061Y618446D01*
X354667D01*
X353364Y619749D01*
Y650375D01*
X352764Y650975D01*
X349364D01*
X348764Y650375D01*
Y619749D01*
X347461Y618446D01*
X343067D01*
X341764Y619749D01*
Y650375D01*
X341164Y650975D01*
X337764D01*
X337164Y650375D01*
Y619749D01*
X335861Y618446D01*
X331467D01*
X330164Y619749D01*
Y650375D01*
X329564Y650975D01*
X326164D01*
X325564Y650375D01*
Y619749D01*
X324261Y618446D01*
X319867D01*
X318564Y619749D01*
Y650375D01*
X317964Y650975D01*
X296644D01*
X295276Y649606D01*
G01X492126Y622047D02*
X490758Y620679D01*
X461003D01*
X460403Y621279D01*
Y650872D01*
X459100Y652175D01*
X453267D01*
X451964Y650872D01*
Y620246D01*
X451364Y619646D01*
X447964D01*
X447364Y620246D01*
Y650872D01*
X446061Y652175D01*
X441667D01*
X440364Y650872D01*
Y620246D01*
X439764Y619646D01*
X436364D01*
X435764Y620246D01*
Y650872D01*
X434461Y652175D01*
X430067D01*
X428764Y650872D01*
Y620246D01*
X428164Y619646D01*
X424764D01*
X424164Y620246D01*
Y650872D01*
X422861Y652175D01*
X418467D01*
X417164Y650872D01*
Y620246D01*
X416564Y619646D01*
X413164D01*
X412564Y620246D01*
Y650872D01*
X411261Y652175D01*
X406867D01*
X405564Y650872D01*
Y620246D01*
X404964Y619646D01*
X401564D01*
X400964Y620246D01*
Y650872D01*
X399661Y652175D01*
X395267D01*
X393964Y650872D01*
Y620246D01*
X393364Y619646D01*
X389964D01*
X389364Y620246D01*
Y650872D01*
X388061Y652175D01*
X383667D01*
X382364Y650872D01*
Y620246D01*
X381764Y619646D01*
X378364D01*
X377764Y620246D01*
Y650872D01*
X376461Y652175D01*
X372067D01*
X370764Y650872D01*
Y620246D01*
X370164Y619646D01*
X366764D01*
X366164Y620246D01*
Y650872D01*
X364861Y652175D01*
X360467D01*
X359164Y650872D01*
Y620246D01*
X358564Y619646D01*
X355164D01*
X354564Y620246D01*
Y650872D01*
X353261Y652175D01*
X348867D01*
X347564Y650872D01*
Y620246D01*
X346964Y619646D01*
X343564D01*
X342964Y620246D01*
Y650872D01*
X341661Y652175D01*
X337267D01*
X335964Y650872D01*
Y620246D01*
X335364Y619646D01*
X331964D01*
X331364Y620246D01*
Y650872D01*
X330061Y652175D01*
X325667D01*
X324364Y650872D01*
Y620246D01*
X323764Y619646D01*
X320364D01*
X319764Y620246D01*
Y650872D01*
X318461Y652175D01*
X296644D01*
X295276Y653543D01*
G01X492126Y665354D02*
X490758Y666723D01*
X457540D01*
X456237Y668026D01*
Y681871D01*
X455637Y682471D01*
X452847D01*
X452247Y681871D01*
Y669230D01*
X450944Y667927D01*
X447550D01*
X446247Y669230D01*
Y681871D01*
X445647Y682471D01*
X443247D01*
X442647Y681871D01*
Y669230D01*
X441344Y667927D01*
X437950D01*
X436647Y669230D01*
Y681871D01*
X436047Y682471D01*
X433647D01*
X433047Y681871D01*
Y669230D01*
X431744Y667927D01*
X428350D01*
X427047Y669230D01*
Y681871D01*
X426447Y682471D01*
X424047D01*
X423447Y681871D01*
Y669230D01*
X422144Y667927D01*
X418750D01*
X417447Y669230D01*
Y681871D01*
X416847Y682471D01*
X414447D01*
X413847Y681871D01*
Y669230D01*
X412544Y667927D01*
X409150D01*
X407847Y669230D01*
Y681871D01*
X407247Y682471D01*
X404847D01*
X404247Y681871D01*
Y669230D01*
X402944Y667927D01*
X399550D01*
X398247Y669230D01*
Y681871D01*
X397647Y682471D01*
X395247D01*
X394647Y681871D01*
Y669230D01*
X393344Y667927D01*
X389950D01*
X388647Y669230D01*
Y681871D01*
X388047Y682471D01*
X385647D01*
X385047Y681871D01*
Y669230D01*
X383744Y667927D01*
X380350D01*
X379047Y669230D01*
Y681871D01*
X378447Y682471D01*
X376047D01*
X375447Y681871D01*
Y669230D01*
X374144Y667927D01*
X370750D01*
X369447Y669230D01*
Y681871D01*
X368847Y682471D01*
X366447D01*
X365847Y681871D01*
Y669230D01*
X364544Y667927D01*
X361150D01*
X359847Y669230D01*
Y681871D01*
X359247Y682471D01*
X356847D01*
X356247Y681871D01*
Y669230D01*
X354944Y667927D01*
X351550D01*
X350247Y669230D01*
Y681871D01*
X349647Y682471D01*
X347247D01*
X346647Y681871D01*
Y669230D01*
X345344Y667927D01*
X341950D01*
X340647Y669230D01*
Y681871D01*
X340047Y682471D01*
X337647D01*
X337047Y681871D01*
Y669230D01*
X335744Y667927D01*
X332350D01*
X331047Y669230D01*
Y681871D01*
X330447Y682471D01*
X328047D01*
X327447Y681871D01*
Y669230D01*
X326144Y667927D01*
X322750D01*
X321447Y669230D01*
Y681871D01*
X320847Y682471D01*
X296644D01*
X295276Y681102D01*
G01X492126Y669291D02*
X490758Y667923D01*
X458037D01*
X457437Y668523D01*
Y682368D01*
X456134Y683671D01*
X452350D01*
X451047Y682368D01*
Y669727D01*
X450447Y669127D01*
X448047D01*
X447447Y669727D01*
Y682368D01*
X446144Y683671D01*
X442750D01*
X441447Y682368D01*
Y669727D01*
X440847Y669127D01*
X438447D01*
X437847Y669727D01*
Y682368D01*
X436544Y683671D01*
X433150D01*
X431847Y682368D01*
Y669727D01*
X431247Y669127D01*
X428847D01*
X428247Y669727D01*
Y682368D01*
X426944Y683671D01*
X423550D01*
X422247Y682368D01*
Y669727D01*
X421647Y669127D01*
X419247D01*
X418647Y669727D01*
Y682368D01*
X417344Y683671D01*
X413950D01*
X412647Y682368D01*
Y669727D01*
X412047Y669127D01*
X409647D01*
X409047Y669727D01*
Y682368D01*
X407744Y683671D01*
X404350D01*
X403047Y682368D01*
Y669727D01*
X402447Y669127D01*
X400047D01*
X399447Y669727D01*
Y682368D01*
X398144Y683671D01*
X394750D01*
X393447Y682368D01*
Y669727D01*
X392847Y669127D01*
X390447D01*
X389847Y669727D01*
Y682368D01*
X388544Y683671D01*
X385150D01*
X383847Y682368D01*
Y669727D01*
X383247Y669127D01*
X380847D01*
X380247Y669727D01*
Y682368D01*
X378944Y683671D01*
X375550D01*
X374247Y682368D01*
Y669727D01*
X373647Y669127D01*
X371247D01*
X370647Y669727D01*
Y682368D01*
X369344Y683671D01*
X365950D01*
X364647Y682368D01*
Y669727D01*
X364047Y669127D01*
X361647D01*
X361047Y669727D01*
Y682368D01*
X359744Y683671D01*
X356350D01*
X355047Y682368D01*
Y669727D01*
X354447Y669127D01*
X352047D01*
X351447Y669727D01*
Y682368D01*
X350144Y683671D01*
X346750D01*
X345447Y682368D01*
Y669727D01*
X344847Y669127D01*
X342447D01*
X341847Y669727D01*
Y682368D01*
X340544Y683671D01*
X337150D01*
X335847Y682368D01*
Y669727D01*
X335247Y669127D01*
X332847D01*
X332247Y669727D01*
Y682368D01*
X330944Y683671D01*
X327550D01*
X326247Y682368D01*
Y669727D01*
X325647Y669127D01*
X323247D01*
X322647Y669727D01*
Y682368D01*
X321344Y683671D01*
X296644D01*
X295276Y685039D01*
G01Y696850D02*
X296644Y698219D01*
X392333D01*
X393701Y696850D01*
G01X295276Y700787D02*
X296644Y699419D01*
X392333D01*
X393701Y700787D01*
G01X295276Y712598D02*
X296644Y713967D01*
X352962D01*
X354331Y712598D01*
G01X295276Y716535D02*
X296644Y715167D01*
X352962D01*
X354331Y716535D01*
G01X334646Y728346D02*
X333278Y729715D01*
X296644D01*
X295276Y728346D01*
G01X334646Y732284D02*
X333278Y730915D01*
X296644D01*
X295276Y732284D01*
G01X314961Y744094D02*
X313593Y745463D01*
X296644D01*
X295276Y744094D01*
G01X314961Y748032D02*
X313593Y746663D01*
X296644D01*
X295276Y748032D01*
G01X492126Y1011811D02*
X490758Y1013180D01*
X296644D01*
X295276Y1011811D01*
G01X492126Y1015748D02*
X490758Y1014380D01*
X296644D01*
X295276Y1015748D01*
G01Y1027559D02*
X296644Y1028928D01*
X490758D01*
X492126Y1027559D01*
G01X295276Y1031496D02*
X296644Y1030128D01*
X490758D01*
X492126Y1031496D01*
G01Y1043307D02*
X490758Y1044676D01*
X296644D01*
X295276Y1043307D01*
G01X492126Y1047244D02*
X490758Y1045876D01*
X296644D01*
X295276Y1047244D01*
G01X295291Y1125967D02*
X293922Y1127335D01*
Y1127935D01*
X294522Y1128535D01*
X488973D01*
X489573Y1127935D01*
Y1127333D01*
X488204Y1125964D01*
G01X295291Y1141715D02*
X296659Y1143083D01*
X490772D01*
X492141Y1141715D01*
G01X295291Y1145652D02*
X296659Y1144283D01*
X490772D01*
X492141Y1145652D01*
G01X496083Y1157461D02*
X494705Y1158839D01*
Y1160742D01*
X493403Y1162045D01*
X297962D01*
X296659Y1160742D01*
Y1158831D01*
X295291Y1157463D01*
G01X492146Y1157461D02*
X493505Y1158822D01*
Y1160245D01*
X492905Y1160845D01*
X298459D01*
X297859Y1160245D01*
Y1158831D01*
X299228Y1157463D01*
G01X492126Y1266929D02*
Y1272797D01*
X490326Y1274597D01*
X297076D01*
X295276Y1272797D01*
Y1266929D01*
G01X492126Y1283465D02*
Y1277597D01*
X490326Y1275797D01*
X297076D01*
X295276Y1277597D01*
Y1283465D01*
G01X492126Y1299213D02*
Y1304687D01*
X490326Y1306487D01*
X297076D01*
X295276Y1304687D01*
Y1299213D01*
G01X492126Y1314961D02*
Y1309487D01*
X490326Y1307687D01*
X297076D01*
X295276Y1309487D01*
Y1314961D01*
G01X492126Y1320709D02*
Y1323309D01*
X490326Y1325109D01*
X297076D01*
X295276Y1323309D01*
Y1320709D01*
G01X492126Y1330709D02*
Y1328109D01*
X490326Y1326309D01*
X297076D01*
X295276Y1328109D01*
Y1330709D01*
G01Y1342520D02*
X296644Y1343888D01*
X490758D01*
X492126Y1342520D01*
G01X295276Y1346457D02*
X296644Y1345088D01*
X490758D01*
X492126Y1346457D01*
G01X295276Y1360236D02*
X296381D01*
X296765Y1360620D01*
X490637D01*
X491022Y1360236D01*
X492126D01*
G01X295276Y1362205D02*
X296381D01*
X296765Y1361820D01*
X490637D01*
X491022Y1362205D01*
X492126D01*
G01X295276Y1376772D02*
X492126D01*
G01X295276Y1377953D02*
X492126D01*
G01X295276Y1452756D02*
X295242Y1452790D01*
G01X295276Y1487008D02*
X295241Y1486973D01*
G01X295276Y1551181D02*
X295261Y1551166D01*
G01X295276Y1594488D02*
X295266Y1594498D01*
G01X295276Y1628740D02*
Y1625712D01*
X295280Y1625708D01*
G01X295276Y1629921D02*
X492126D01*
G01X295276Y1644685D02*
Y1641775D01*
X295280Y1641771D01*
G01X492126Y1645669D02*
X295276D01*
G01X492126Y1594488D02*
X492131Y1594492D01*
G01X492126Y1612205D02*
X492141Y1612220D01*
G01X492126Y1628740D02*
Y1625913D01*
X492194Y1625845D01*
Y1625841D01*
G01X492126Y1644685D02*
Y1641886D01*
X492148Y1641864D01*
G01X531475Y1074824D02*
X531496Y1074803D01*
G01X531488Y1090559D02*
X531496Y1090551D01*
G01X527574Y1125967D02*
X528942Y1127335D01*
Y1128432D01*
X530245Y1129735D01*
X725690D01*
X726993Y1128432D01*
Y1127333D01*
X728362Y1125964D01*
G01X728347Y66929D02*
X726947D01*
X725776Y68100D01*
X534068D01*
X532896Y66929D01*
X531496D01*
G01Y70866D02*
X532896D01*
X534062Y69700D01*
X725781D01*
X726947Y70866D01*
X728347D01*
G01X629923Y287289D02*
X628442Y288770D01*
X532865D01*
X531496Y287402D01*
G01X629923Y291451D02*
X628442Y289970D01*
X532865D01*
X531496Y291339D01*
G01X629898Y303037D02*
X628418Y304518D01*
X532865D01*
X531496Y303150D01*
G01X629898Y307199D02*
X628418Y305718D01*
X532865D01*
X531496Y307087D01*
G01X629962Y318785D02*
X628482Y320266D01*
X532865D01*
X531496Y318898D01*
G01X629962Y322947D02*
X628482Y321466D01*
X532865D01*
X531496Y322835D01*
G01X728347Y397638D02*
X726978Y399006D01*
X673229D01*
G01X610236D02*
X532865D01*
X531496Y397638D01*
G01Y401575D02*
X532865Y400206D01*
X610236D01*
G01X673229D02*
X726978D01*
X728347Y401575D01*
G01Y413386D02*
X726978Y414754D01*
X677166D01*
G01X629922D02*
X532865D01*
X531496Y413386D01*
G01X728347Y417323D02*
X726978Y415954D01*
X677166D01*
G01X629922D02*
X532865D01*
X531496Y417323D01*
G01X728347Y429134D02*
X726978Y430502D01*
X661418D01*
G01X629922D02*
X532865D01*
X531496Y429134D01*
G01X728347Y433071D02*
X726978Y431702D01*
X661418D01*
G01X629922D02*
X532865D01*
X531496Y433071D01*
G01Y444882D02*
X532865Y446250D01*
X629922D01*
G01X645670D02*
X726978D01*
X728347Y444882D01*
G01X531496Y448819D02*
X532865Y447450D01*
X629922D01*
G01X645670D02*
X726978D01*
X728347Y448819D01*
G01X531496Y535433D02*
X532865Y534065D01*
X550074D01*
X553466Y537457D01*
Y544091D01*
X554769Y545394D01*
X708598D01*
X709198Y545994D01*
Y548394D01*
X708598Y548994D01*
X554769D01*
X553466Y550297D01*
Y553691D01*
X554769Y554994D01*
X708598D01*
X709198Y555594D01*
Y557994D01*
X708598Y558594D01*
X554769D01*
X553466Y559897D01*
Y563291D01*
X554769Y564594D01*
X708598D01*
X709198Y565194D01*
Y567594D01*
X708598Y568194D01*
X554769D01*
X553466Y569497D01*
Y572891D01*
X554769Y574194D01*
X708598D01*
X709198Y574794D01*
Y577194D01*
X708598Y577794D01*
X554769D01*
X553466Y579097D01*
Y582491D01*
X554769Y583794D01*
X708598D01*
X709198Y584394D01*
Y586794D01*
X708598Y587394D01*
X554769D01*
X553466Y588697D01*
Y592091D01*
X554769Y593394D01*
X708598D01*
X709198Y593994D01*
Y596394D01*
X708598Y596994D01*
X554769D01*
X553466Y598297D01*
Y600339D01*
X550074Y603731D01*
X532865D01*
X531496Y602362D01*
G01Y531496D02*
X532865Y532865D01*
X550572D01*
X554666Y536959D01*
Y543594D01*
X555266Y544194D01*
X709096D01*
X710398Y545497D01*
Y548891D01*
X709096Y550194D01*
X555266D01*
X554666Y550794D01*
Y553194D01*
X555266Y553794D01*
X709096D01*
X710398Y555097D01*
Y558491D01*
X709096Y559794D01*
X555266D01*
X554666Y560394D01*
Y562794D01*
X555266Y563394D01*
X709096D01*
X710398Y564697D01*
Y568091D01*
X709096Y569394D01*
X555266D01*
X554666Y569994D01*
Y572394D01*
X555266Y572994D01*
X709096D01*
X710398Y574297D01*
Y577691D01*
X709096Y578994D01*
X555266D01*
X554666Y579594D01*
Y581994D01*
X555266Y582594D01*
X709096D01*
X710398Y583897D01*
Y587291D01*
X709096Y588594D01*
X555266D01*
X554666Y589194D01*
Y591594D01*
X555266Y592194D01*
X709096D01*
X710398Y593497D01*
Y596891D01*
X709096Y598194D01*
X555266D01*
X554666Y598794D01*
Y600836D01*
X550572Y604931D01*
X532865D01*
X531496Y606299D01*
G01X728347Y618110D02*
X726978Y619479D01*
X696726D01*
X695423Y620782D01*
Y650375D01*
X694823Y650975D01*
X689984D01*
X689384Y650375D01*
Y619749D01*
X688081Y618446D01*
X683687D01*
X682384Y619749D01*
Y650375D01*
X681784Y650975D01*
X678384D01*
X677784Y650375D01*
Y619749D01*
X676481Y618446D01*
X672087D01*
X670784Y619749D01*
Y650375D01*
X670184Y650975D01*
X666784D01*
X666184Y650375D01*
Y619749D01*
X664881Y618446D01*
X660487D01*
X659184Y619749D01*
Y650375D01*
X658584Y650975D01*
X655184D01*
X654584Y650375D01*
Y619749D01*
X653281Y618446D01*
X648887D01*
X647584Y619749D01*
Y650375D01*
X646984Y650975D01*
X643584D01*
X642984Y650375D01*
Y619749D01*
X641681Y618446D01*
X637287D01*
X635984Y619749D01*
Y650375D01*
X635384Y650975D01*
X631984D01*
X631384Y650375D01*
Y619749D01*
X630081Y618446D01*
X625687D01*
X624384Y619749D01*
Y650375D01*
X623784Y650975D01*
X620384D01*
X619784Y650375D01*
Y619749D01*
X618481Y618446D01*
X614087D01*
X612784Y619749D01*
Y650375D01*
X612184Y650975D01*
X608784D01*
X608184Y650375D01*
Y619749D01*
X606881Y618446D01*
X602487D01*
X601184Y619749D01*
Y650375D01*
X600584Y650975D01*
X597184D01*
X596584Y650375D01*
Y619749D01*
X595281Y618446D01*
X590887D01*
X589584Y619749D01*
Y650375D01*
X588984Y650975D01*
X585584D01*
X584984Y650375D01*
Y619749D01*
X583681Y618446D01*
X579287D01*
X577984Y619749D01*
Y650375D01*
X577384Y650975D01*
X573984D01*
X573384Y650375D01*
Y619749D01*
X572081Y618446D01*
X567687D01*
X566384Y619749D01*
Y650375D01*
X565784Y650975D01*
X562384D01*
X561784Y650375D01*
Y619749D01*
X560481Y618446D01*
X556087D01*
X554784Y619749D01*
Y650375D01*
X554184Y650975D01*
X532865D01*
X531496Y649606D01*
G01X728347Y622047D02*
X726978Y620679D01*
X697223D01*
X696623Y621279D01*
Y650872D01*
X695320Y652175D01*
X689487D01*
X688184Y650872D01*
Y620246D01*
X687584Y619646D01*
X684184D01*
X683584Y620246D01*
Y650872D01*
X682281Y652175D01*
X677887D01*
X676584Y650872D01*
Y620246D01*
X675984Y619646D01*
X672584D01*
X671984Y620246D01*
Y650872D01*
X670681Y652175D01*
X666287D01*
X664984Y650872D01*
Y620246D01*
X664384Y619646D01*
X660984D01*
X660384Y620246D01*
Y650872D01*
X659081Y652175D01*
X654687D01*
X653384Y650872D01*
Y620246D01*
X652784Y619646D01*
X649384D01*
X648784Y620246D01*
Y650872D01*
X647481Y652175D01*
X643087D01*
X641784Y650872D01*
Y620246D01*
X641184Y619646D01*
X637784D01*
X637184Y620246D01*
Y650872D01*
X635881Y652175D01*
X631487D01*
X630184Y650872D01*
Y620246D01*
X629584Y619646D01*
X626184D01*
X625584Y620246D01*
Y650872D01*
X624281Y652175D01*
X619887D01*
X618584Y650872D01*
Y620246D01*
X617984Y619646D01*
X614584D01*
X613984Y620246D01*
Y650872D01*
X612681Y652175D01*
X608287D01*
X606984Y650872D01*
Y620246D01*
X606384Y619646D01*
X602984D01*
X602384Y620246D01*
Y650872D01*
X601081Y652175D01*
X596687D01*
X595384Y650872D01*
Y620246D01*
X594784Y619646D01*
X591384D01*
X590784Y620246D01*
Y650872D01*
X589481Y652175D01*
X585087D01*
X583784Y650872D01*
Y620246D01*
X583184Y619646D01*
X579784D01*
X579184Y620246D01*
Y650872D01*
X577881Y652175D01*
X573487D01*
X572184Y650872D01*
Y620246D01*
X571584Y619646D01*
X568184D01*
X567584Y620246D01*
Y650872D01*
X566281Y652175D01*
X561887D01*
X560584Y650872D01*
Y620246D01*
X559984Y619646D01*
X556584D01*
X555984Y620246D01*
Y650872D01*
X554681Y652175D01*
X532865D01*
X531496Y653543D01*
G01X728347Y665354D02*
X726978Y666723D01*
X693760D01*
X692457Y668026D01*
Y681871D01*
X691857Y682471D01*
X689068D01*
X688468Y681871D01*
Y669230D01*
X687164Y667927D01*
X683770D01*
X682468Y669230D01*
Y681871D01*
X681868Y682471D01*
X679468D01*
X678868Y681871D01*
Y669230D01*
X677564Y667927D01*
X674170D01*
X672868Y669230D01*
Y681871D01*
X672268Y682471D01*
X669868D01*
X669268Y681871D01*
Y669230D01*
X667964Y667927D01*
X664570D01*
X663268Y669230D01*
Y681871D01*
X662668Y682471D01*
X660268D01*
X659668Y681871D01*
Y669230D01*
X658364Y667927D01*
X654970D01*
X653668Y669230D01*
Y681871D01*
X653068Y682471D01*
X650668D01*
X650068Y681871D01*
Y669230D01*
X648764Y667927D01*
X645370D01*
X644068Y669230D01*
Y681871D01*
X643468Y682471D01*
X641068D01*
X640468Y681871D01*
Y669230D01*
X639164Y667927D01*
X635770D01*
X634468Y669230D01*
Y681871D01*
X633868Y682471D01*
X631468D01*
X630868Y681871D01*
Y669230D01*
X629564Y667927D01*
X626170D01*
X624868Y669230D01*
Y681871D01*
X624268Y682471D01*
X621868D01*
X621268Y681871D01*
Y669230D01*
X619964Y667927D01*
X616570D01*
X615268Y669230D01*
Y681871D01*
X614668Y682471D01*
X612268D01*
X611668Y681871D01*
Y669230D01*
X610364Y667927D01*
X606970D01*
X605668Y669230D01*
Y681871D01*
X605068Y682471D01*
X602668D01*
X602068Y681871D01*
Y669230D01*
X600764Y667927D01*
X597370D01*
X596068Y669230D01*
Y681871D01*
X595468Y682471D01*
X593068D01*
X592468Y681871D01*
Y669230D01*
X591164Y667927D01*
X587770D01*
X586468Y669230D01*
Y681871D01*
X585868Y682471D01*
X583468D01*
X582868Y681871D01*
Y669230D01*
X581564Y667927D01*
X578170D01*
X576868Y669230D01*
Y681871D01*
X576268Y682471D01*
X573868D01*
X573268Y681871D01*
Y669230D01*
X571964Y667927D01*
X568570D01*
X567268Y669230D01*
Y681871D01*
X566668Y682471D01*
X564268D01*
X563668Y681871D01*
Y669230D01*
X562364Y667927D01*
X558970D01*
X557668Y669230D01*
Y681871D01*
X557068Y682471D01*
X532865D01*
X531496Y681102D01*
G01X728347Y669291D02*
X726978Y667923D01*
X694257D01*
X693657Y668523D01*
Y682368D01*
X692354Y683671D01*
X688570D01*
X687268Y682368D01*
Y669727D01*
X686668Y669127D01*
X684268D01*
X683668Y669727D01*
Y682368D01*
X682364Y683671D01*
X678970D01*
X677668Y682368D01*
Y669727D01*
X677068Y669127D01*
X674668D01*
X674068Y669727D01*
Y682368D01*
X672764Y683671D01*
X669370D01*
X668068Y682368D01*
Y669727D01*
X667468Y669127D01*
X665068D01*
X664468Y669727D01*
Y682368D01*
X663164Y683671D01*
X659770D01*
X658468Y682368D01*
Y669727D01*
X657868Y669127D01*
X655468D01*
X654868Y669727D01*
Y682368D01*
X653564Y683671D01*
X650170D01*
X648868Y682368D01*
Y669727D01*
X648268Y669127D01*
X645868D01*
X645268Y669727D01*
Y682368D01*
X643964Y683671D01*
X640570D01*
X639268Y682368D01*
Y669727D01*
X638668Y669127D01*
X636268D01*
X635668Y669727D01*
Y682368D01*
X634364Y683671D01*
X630970D01*
X629668Y682368D01*
Y669727D01*
X629068Y669127D01*
X626668D01*
X626068Y669727D01*
Y682368D01*
X624764Y683671D01*
X621370D01*
X620068Y682368D01*
Y669727D01*
X619468Y669127D01*
X617068D01*
X616468Y669727D01*
Y682368D01*
X615164Y683671D01*
X611770D01*
X610468Y682368D01*
Y669727D01*
X609868Y669127D01*
X607468D01*
X606868Y669727D01*
Y682368D01*
X605564Y683671D01*
X602170D01*
X600868Y682368D01*
Y669727D01*
X600268Y669127D01*
X597868D01*
X597268Y669727D01*
Y682368D01*
X595964Y683671D01*
X592570D01*
X591268Y682368D01*
Y669727D01*
X590668Y669127D01*
X588268D01*
X587668Y669727D01*
Y682368D01*
X586364Y683671D01*
X582970D01*
X581668Y682368D01*
Y669727D01*
X581068Y669127D01*
X578668D01*
X578068Y669727D01*
Y682368D01*
X576764Y683671D01*
X573370D01*
X572068Y682368D01*
Y669727D01*
X571468Y669127D01*
X569068D01*
X568468Y669727D01*
Y682368D01*
X567164Y683671D01*
X563770D01*
X562468Y682368D01*
Y669727D01*
X561868Y669127D01*
X559468D01*
X558868Y669727D01*
Y682368D01*
X557564Y683671D01*
X532865D01*
X531496Y685039D01*
G01Y696850D02*
X532865Y698219D01*
X628553D01*
X629922Y696850D01*
G01X531496Y700787D02*
X532865Y699419D01*
X628553D01*
X629922Y700787D01*
G01X531496Y712598D02*
X532865Y713967D01*
X589183D01*
X590551Y712598D01*
G01X531496Y716535D02*
X532865Y715167D01*
X589183D01*
X590551Y716535D01*
G01X570866Y728346D02*
X569498Y729715D01*
X532865D01*
X531496Y728346D01*
G01X570866Y732284D02*
X569498Y730915D01*
X532865D01*
X531496Y732284D01*
G01X551181Y744094D02*
X549813Y745463D01*
X532865D01*
X531496Y744094D01*
G01X551181Y748032D02*
X549813Y746663D01*
X532865D01*
X531496Y748032D01*
G01X728347Y1011811D02*
X726978Y1013180D01*
X532865D01*
X531496Y1011811D01*
G01X728347Y1015748D02*
X726978Y1014380D01*
X532865D01*
X531496Y1015748D01*
G01Y1027559D02*
X532865Y1028928D01*
X726978D01*
X728347Y1027559D01*
G01X531496Y1031496D02*
X532865Y1030128D01*
X726978D01*
X728347Y1031496D01*
G01Y1043307D02*
X726978Y1044676D01*
X532865D01*
X531496Y1043307D01*
G01X728347Y1047244D02*
X726978Y1045876D01*
X532865D01*
X531496Y1047244D01*
G01X531511Y1125967D02*
X530142Y1127335D01*
Y1127935D01*
X530742Y1128535D01*
X725193D01*
X725793Y1127935D01*
Y1127333D01*
X724425Y1125964D01*
G01X531511Y1141715D02*
X532879Y1143083D01*
X726993D01*
X728361Y1141715D01*
G01X531511Y1145652D02*
X532879Y1144283D01*
X726993D01*
X728361Y1145652D01*
G01X732303Y1157461D02*
X730926Y1158839D01*
Y1160742D01*
X729623Y1162045D01*
X534182D01*
X532879Y1160742D01*
Y1158831D01*
X531511Y1157463D01*
G01X728366Y1157461D02*
X729726Y1158822D01*
Y1160245D01*
X729126Y1160845D01*
X534679D01*
X534079Y1160245D01*
Y1158831D01*
X535448Y1157463D01*
G01X728347Y1266929D02*
Y1272797D01*
X726547Y1274597D01*
X533296D01*
X531496Y1272797D01*
Y1266929D01*
G01X728347Y1283465D02*
Y1277597D01*
X726547Y1275797D01*
X533296D01*
X531496Y1277597D01*
Y1283465D01*
G01X728347Y1299213D02*
Y1304687D01*
X726547Y1306487D01*
X533296D01*
X531496Y1304687D01*
Y1299213D01*
G01X728347Y1314961D02*
Y1309487D01*
X726547Y1307687D01*
X533296D01*
X531496Y1309487D01*
Y1314961D01*
G01X728347Y1320709D02*
Y1323309D01*
X726547Y1325109D01*
X533296D01*
X531496Y1323309D01*
Y1320709D01*
G01X728347Y1330709D02*
Y1328109D01*
X726547Y1326309D01*
X533296D01*
X531496Y1328109D01*
Y1330709D01*
G01Y1342520D02*
X532865Y1343888D01*
X726978D01*
X728347Y1342520D01*
G01X531496Y1346457D02*
X532865Y1345088D01*
X726978D01*
X728347Y1346457D01*
G01X531496Y1360236D02*
X532601D01*
X532985Y1360620D01*
X726858D01*
X727242Y1360236D01*
X728347D01*
G01X531496Y1362205D02*
X532601D01*
X532985Y1361820D01*
X726858D01*
X727242Y1362205D01*
X728347D01*
G01X531496Y1376772D02*
X728347D01*
G01X531496Y1377953D02*
X728347D01*
G01X531496Y1452756D02*
X531462Y1452790D01*
G01X531496Y1487008D02*
X531461Y1486973D01*
G01X531496Y1551181D02*
X531481Y1551166D01*
G01X531496Y1594488D02*
X531486Y1594498D01*
G01X531496Y1628740D02*
Y1626004D01*
X531540Y1625960D01*
Y1625842D01*
X531542Y1625840D01*
G01X531496Y1629921D02*
X728347D01*
G01X531496Y1644685D02*
Y1642042D01*
X531528Y1642011D01*
Y1641886D01*
X531529Y1641885D01*
G01X728347Y1645669D02*
X531496D01*
G01X728347Y1594488D02*
X728351Y1594492D01*
G01X728347Y1612205D02*
X728362Y1612220D01*
G01X728347Y1628740D02*
Y1625701D01*
X728386Y1625662D01*
G01X728347Y1644685D02*
Y1641573D01*
X728340Y1641566D01*
G01X753741Y39460D02*
G03I-6000J0D01*
G01X753694Y1661390D02*
G03I-6000J0D01*
G01X767696Y1074824D02*
X767717Y1074803D01*
G01X767709Y1090559D02*
X767717Y1090551D01*
G01X763794Y1125967D02*
X765163Y1127335D01*
Y1128432D01*
X766466Y1129735D01*
X961910D01*
X963214Y1128432D01*
Y1127333D01*
X964582Y1125964D01*
G01X964567Y66929D02*
X963167D01*
X961996Y68100D01*
X770288D01*
X769117Y66929D01*
X767717D01*
G01Y70866D02*
X769117D01*
X770282Y69700D01*
X962001D01*
X963167Y70866D01*
X964567D01*
G01X866143Y287289D02*
X864663Y288770D01*
X769085D01*
X767717Y287402D01*
G01X866143Y291451D02*
X864663Y289970D01*
X769085D01*
X767717Y291339D01*
G01X866119Y303037D02*
X864638Y304518D01*
X769085D01*
X767717Y303150D01*
G01X866119Y307199D02*
X864638Y305718D01*
X769085D01*
X767717Y307087D01*
G01X866183Y318785D02*
X864702Y320266D01*
X769085D01*
X767717Y318898D01*
G01X866183Y322947D02*
X864702Y321466D01*
X769085D01*
X767717Y322835D01*
G01X964567Y397638D02*
X963199Y399006D01*
X909449D01*
G01X846457D02*
X769085D01*
X767717Y397638D01*
G01Y401575D02*
X769085Y400206D01*
X846457D01*
G01X909449D02*
X963199D01*
X964567Y401575D01*
G01Y413386D02*
X963199Y414754D01*
X913386D01*
G01X866142D02*
X769085D01*
X767717Y413386D01*
G01X964567Y417323D02*
X963199Y415954D01*
X913386D01*
G01X866142D02*
X769085D01*
X767717Y417323D01*
G01X964567Y429134D02*
X963199Y430502D01*
X897638D01*
G01X866142D02*
X769085D01*
X767717Y429134D01*
G01X964567Y433071D02*
X963199Y431702D01*
X897638D01*
G01X866142D02*
X769085D01*
X767717Y433071D01*
G01Y444882D02*
X769085Y446250D01*
X866142D01*
G01X881890D02*
X963199D01*
X964567Y444882D01*
G01X767717Y448819D02*
X769085Y447450D01*
X866142D01*
G01X881890D02*
X963199D01*
X964567Y448819D01*
G01X767717Y535433D02*
X769085Y534065D01*
X786295D01*
X789687Y537457D01*
Y544091D01*
X790990Y545394D01*
X944819D01*
X945419Y545994D01*
Y548394D01*
X944819Y548994D01*
X790990D01*
X789687Y550297D01*
Y553691D01*
X790990Y554994D01*
X944819D01*
X945419Y555594D01*
Y557994D01*
X944819Y558594D01*
X790990D01*
X789687Y559897D01*
Y563291D01*
X790990Y564594D01*
X944819D01*
X945419Y565194D01*
Y567594D01*
X944819Y568194D01*
X790990D01*
X789687Y569497D01*
Y572891D01*
X790990Y574194D01*
X944819D01*
X945419Y574794D01*
Y577194D01*
X944819Y577794D01*
X790990D01*
X789687Y579097D01*
Y582491D01*
X790990Y583794D01*
X944819D01*
X945419Y584394D01*
Y586794D01*
X944819Y587394D01*
X790990D01*
X789687Y588697D01*
Y592091D01*
X790990Y593394D01*
X944819D01*
X945419Y593994D01*
Y596394D01*
X944819Y596994D01*
X790990D01*
X789687Y598297D01*
Y600339D01*
X786295Y603731D01*
X769085D01*
X767717Y602362D01*
G01Y531496D02*
X769085Y532865D01*
X786792D01*
X790887Y536959D01*
Y543594D01*
X791487Y544194D01*
X945316D01*
X946619Y545497D01*
Y548891D01*
X945316Y550194D01*
X791487D01*
X790887Y550794D01*
Y553194D01*
X791487Y553794D01*
X945316D01*
X946619Y555097D01*
Y558491D01*
X945316Y559794D01*
X791487D01*
X790887Y560394D01*
Y562794D01*
X791487Y563394D01*
X945316D01*
X946619Y564697D01*
Y568091D01*
X945316Y569394D01*
X791487D01*
X790887Y569994D01*
Y572394D01*
X791487Y572994D01*
X945316D01*
X946619Y574297D01*
Y577691D01*
X945316Y578994D01*
X791487D01*
X790887Y579594D01*
Y581994D01*
X791487Y582594D01*
X945316D01*
X946619Y583897D01*
Y587291D01*
X945316Y588594D01*
X791487D01*
X790887Y589194D01*
Y591594D01*
X791487Y592194D01*
X945316D01*
X946619Y593497D01*
Y596891D01*
X945316Y598194D01*
X791487D01*
X790887Y598794D01*
Y600836D01*
X786792Y604931D01*
X769085D01*
X767717Y606299D01*
G01X964567Y618110D02*
X963199Y619479D01*
X932947D01*
X931644Y620782D01*
Y650375D01*
X931044Y650975D01*
X926204D01*
X925604Y650375D01*
Y619749D01*
X924302Y618446D01*
X919908D01*
X918604Y619749D01*
Y650375D01*
X918004Y650975D01*
X914605D01*
X914005Y650375D01*
Y619749D01*
X912702Y618446D01*
X908308D01*
X907004Y619749D01*
Y650375D01*
X906404Y650975D01*
X903004D01*
X902405Y650375D01*
Y619749D01*
X901102Y618446D01*
X896708D01*
X895405Y619749D01*
Y650375D01*
X894804Y650975D01*
X891404D01*
X890804Y650375D01*
Y619749D01*
X889502Y618446D01*
X885108D01*
X883805Y619749D01*
Y650375D01*
X883205Y650975D01*
X879804D01*
X879204Y650375D01*
Y619749D01*
X877902Y618446D01*
X873508D01*
X872204Y619749D01*
Y650375D01*
X871604Y650975D01*
X868204D01*
X867604Y650375D01*
Y619749D01*
X866302Y618446D01*
X861908D01*
X860604Y619749D01*
Y650375D01*
X860004Y650975D01*
X856605D01*
X856004Y650375D01*
Y619749D01*
X854702Y618446D01*
X850308D01*
X849004Y619749D01*
Y650375D01*
X848404Y650975D01*
X845004D01*
X844405Y650375D01*
Y619749D01*
X843102Y618446D01*
X838708D01*
X837405Y619749D01*
Y650375D01*
X836804Y650975D01*
X833404D01*
X832804Y650375D01*
Y619749D01*
X831502Y618446D01*
X827108D01*
X825805Y619749D01*
Y650375D01*
X825205Y650975D01*
X821804D01*
X821204Y650375D01*
Y619749D01*
X819902Y618446D01*
X815508D01*
X814204Y619749D01*
Y650375D01*
X813605Y650975D01*
X810204D01*
X809604Y650375D01*
Y619749D01*
X808302Y618446D01*
X803908D01*
X802604Y619749D01*
Y650375D01*
X802004Y650975D01*
X798604D01*
X798004Y650375D01*
Y619749D01*
X796702Y618446D01*
X792308D01*
X791004Y619749D01*
Y650375D01*
X790404Y650975D01*
X769085D01*
X767717Y649606D01*
G01X964567Y622047D02*
X963199Y620679D01*
X933443D01*
X932843Y621279D01*
Y650872D01*
X931541Y652175D01*
X925708D01*
X924404Y650872D01*
Y620246D01*
X923804Y619646D01*
X920405D01*
X919804Y620246D01*
Y650872D01*
X918502Y652175D01*
X914108D01*
X912804Y650872D01*
Y620246D01*
X912204Y619646D01*
X908805D01*
X908205Y620246D01*
Y650872D01*
X906902Y652175D01*
X902508D01*
X901204Y650872D01*
Y620246D01*
X900604Y619646D01*
X897204D01*
X896604Y620246D01*
Y650872D01*
X895302Y652175D01*
X890908D01*
X889605Y650872D01*
Y620246D01*
X889005Y619646D01*
X885604D01*
X885004Y620246D01*
Y650872D01*
X883702Y652175D01*
X879308D01*
X878004Y650872D01*
Y620246D01*
X877405Y619646D01*
X874004D01*
X873404Y620246D01*
Y650872D01*
X872102Y652175D01*
X867708D01*
X866404Y650872D01*
Y620246D01*
X865804Y619646D01*
X862405D01*
X861804Y620246D01*
Y650872D01*
X860502Y652175D01*
X856108D01*
X854804Y650872D01*
Y620246D01*
X854204Y619646D01*
X850805D01*
X850205Y620246D01*
Y650872D01*
X848902Y652175D01*
X844508D01*
X843204Y650872D01*
Y620246D01*
X842604Y619646D01*
X839204D01*
X838605Y620246D01*
Y650872D01*
X837302Y652175D01*
X832908D01*
X831605Y650872D01*
Y620246D01*
X831004Y619646D01*
X827604D01*
X827004Y620246D01*
Y650872D01*
X825702Y652175D01*
X821308D01*
X820004Y650872D01*
Y620246D01*
X819405Y619646D01*
X816004D01*
X815404Y620246D01*
Y650872D01*
X814102Y652175D01*
X809708D01*
X808404Y650872D01*
Y620246D01*
X807804Y619646D01*
X804404D01*
X803804Y620246D01*
Y650872D01*
X802502Y652175D01*
X798108D01*
X796804Y650872D01*
Y620246D01*
X796204Y619646D01*
X792804D01*
X792205Y620246D01*
Y650872D01*
X790902Y652175D01*
X769085D01*
X767717Y653543D01*
G01X964567Y665354D02*
X963199Y666723D01*
X929981D01*
X928678Y668026D01*
Y681871D01*
X928078Y682471D01*
X925288D01*
X924688Y681871D01*
Y669230D01*
X923385Y667927D01*
X919991D01*
X918688Y669230D01*
Y681871D01*
X918088Y682471D01*
X915688D01*
X915088Y681871D01*
Y669230D01*
X913785Y667927D01*
X910391D01*
X909088Y669230D01*
Y681871D01*
X908488Y682471D01*
X906088D01*
X905488Y681871D01*
Y669230D01*
X904185Y667927D01*
X900791D01*
X899488Y669230D01*
Y681871D01*
X898888Y682471D01*
X896488D01*
X895888Y681871D01*
Y669230D01*
X894585Y667927D01*
X891191D01*
X889888Y669230D01*
Y681871D01*
X889288Y682471D01*
X886888D01*
X886288Y681871D01*
Y669230D01*
X884985Y667927D01*
X881591D01*
X880288Y669230D01*
Y681871D01*
X879688Y682471D01*
X877288D01*
X876688Y681871D01*
Y669230D01*
X875385Y667927D01*
X871991D01*
X870688Y669230D01*
Y681871D01*
X870088Y682471D01*
X867688D01*
X867088Y681871D01*
Y669230D01*
X865785Y667927D01*
X862391D01*
X861088Y669230D01*
Y681871D01*
X860488Y682471D01*
X858088D01*
X857488Y681871D01*
Y669230D01*
X856185Y667927D01*
X852791D01*
X851488Y669230D01*
Y681871D01*
X850888Y682471D01*
X848488D01*
X847888Y681871D01*
Y669230D01*
X846585Y667927D01*
X843191D01*
X841888Y669230D01*
Y681871D01*
X841288Y682471D01*
X838888D01*
X838288Y681871D01*
Y669230D01*
X836985Y667927D01*
X833591D01*
X832288Y669230D01*
Y681871D01*
X831688Y682471D01*
X829288D01*
X828688Y681871D01*
Y669230D01*
X827385Y667927D01*
X823991D01*
X822688Y669230D01*
Y681871D01*
X822088Y682471D01*
X819688D01*
X819088Y681871D01*
Y669230D01*
X817785Y667927D01*
X814391D01*
X813088Y669230D01*
Y681871D01*
X812488Y682471D01*
X810088D01*
X809488Y681871D01*
Y669230D01*
X808185Y667927D01*
X804791D01*
X803488Y669230D01*
Y681871D01*
X802888Y682471D01*
X800488D01*
X799888Y681871D01*
Y669230D01*
X798585Y667927D01*
X795191D01*
X793888Y669230D01*
Y681871D01*
X793288Y682471D01*
X769085D01*
X767717Y681102D01*
G01X964567Y669291D02*
X963199Y667923D01*
X930478D01*
X929878Y668523D01*
Y682368D01*
X928575Y683671D01*
X924791D01*
X923488Y682368D01*
Y669727D01*
X922888Y669127D01*
X920488D01*
X919888Y669727D01*
Y682368D01*
X918585Y683671D01*
X915191D01*
X913888Y682368D01*
Y669727D01*
X913288Y669127D01*
X910888D01*
X910288Y669727D01*
Y682368D01*
X908985Y683671D01*
X905591D01*
X904288Y682368D01*
Y669727D01*
X903688Y669127D01*
X901288D01*
X900688Y669727D01*
Y682368D01*
X899385Y683671D01*
X895991D01*
X894688Y682368D01*
Y669727D01*
X894088Y669127D01*
X891688D01*
X891088Y669727D01*
Y682368D01*
X889785Y683671D01*
X886391D01*
X885088Y682368D01*
Y669727D01*
X884488Y669127D01*
X882088D01*
X881488Y669727D01*
Y682368D01*
X880185Y683671D01*
X876791D01*
X875488Y682368D01*
Y669727D01*
X874888Y669127D01*
X872488D01*
X871888Y669727D01*
Y682368D01*
X870585Y683671D01*
X867191D01*
X865888Y682368D01*
Y669727D01*
X865288Y669127D01*
X862888D01*
X862288Y669727D01*
Y682368D01*
X860985Y683671D01*
X857591D01*
X856288Y682368D01*
Y669727D01*
X855688Y669127D01*
X853288D01*
X852688Y669727D01*
Y682368D01*
X851385Y683671D01*
X847991D01*
X846688Y682368D01*
Y669727D01*
X846088Y669127D01*
X843688D01*
X843088Y669727D01*
Y682368D01*
X841785Y683671D01*
X838391D01*
X837088Y682368D01*
Y669727D01*
X836488Y669127D01*
X834088D01*
X833488Y669727D01*
Y682368D01*
X832185Y683671D01*
X828791D01*
X827488Y682368D01*
Y669727D01*
X826888Y669127D01*
X824488D01*
X823888Y669727D01*
Y682368D01*
X822585Y683671D01*
X819191D01*
X817888Y682368D01*
Y669727D01*
X817288Y669127D01*
X814888D01*
X814288Y669727D01*
Y682368D01*
X812985Y683671D01*
X809591D01*
X808288Y682368D01*
Y669727D01*
X807688Y669127D01*
X805288D01*
X804688Y669727D01*
Y682368D01*
X803385Y683671D01*
X799991D01*
X798688Y682368D01*
Y669727D01*
X798088Y669127D01*
X795688D01*
X795088Y669727D01*
Y682368D01*
X793785Y683671D01*
X769085D01*
X767717Y685039D01*
G01Y696850D02*
X769085Y698219D01*
X864773D01*
X866142Y696850D01*
G01X767717Y700787D02*
X769085Y699419D01*
X864773D01*
X866142Y700787D01*
G01X767717Y712598D02*
X769085Y713967D01*
X825403D01*
X826772Y712598D01*
G01X767717Y716535D02*
X769085Y715167D01*
X825403D01*
X826772Y716535D01*
G01X807087Y728346D02*
X805718Y729715D01*
X769085D01*
X767717Y728346D01*
G01X807087Y732284D02*
X805718Y730915D01*
X769085D01*
X767717Y732284D01*
G01X787402Y744094D02*
X786033Y745463D01*
X769085D01*
X767717Y744094D01*
G01X787402Y748032D02*
X786033Y746663D01*
X769085D01*
X767717Y748032D01*
G01X964567Y1011811D02*
X963199Y1013180D01*
X769085D01*
X767717Y1011811D01*
G01X964567Y1015748D02*
X963199Y1014380D01*
X769085D01*
X767717Y1015748D01*
G01Y1027559D02*
X769085Y1028928D01*
X963199D01*
X964567Y1027559D01*
G01X767717Y1031496D02*
X769085Y1030128D01*
X963199D01*
X964567Y1031496D01*
G01Y1043307D02*
X963199Y1044676D01*
X769085D01*
X767717Y1043307D01*
G01X964567Y1047244D02*
X963199Y1045876D01*
X769085D01*
X767717Y1047244D01*
G01X767731Y1125967D02*
X766363Y1127335D01*
Y1127935D01*
X766963Y1128535D01*
X961414D01*
X962014Y1127935D01*
Y1127333D01*
X960645Y1125964D01*
G01X767731Y1141715D02*
X769100Y1143083D01*
X963213D01*
X964582Y1141715D01*
G01X767731Y1145652D02*
X769100Y1144283D01*
X963213D01*
X964582Y1145652D01*
G01X968523Y1157461D02*
X967146Y1158839D01*
Y1160742D01*
X965843Y1162045D01*
X770402D01*
X769100Y1160742D01*
Y1158831D01*
X767731Y1157463D01*
G01X964586Y1157461D02*
X965946Y1158822D01*
Y1160245D01*
X965346Y1160845D01*
X770900D01*
X770300Y1160245D01*
Y1158831D01*
X771668Y1157463D01*
G01X964567Y1266929D02*
Y1272797D01*
X962767Y1274597D01*
X769517D01*
X767717Y1272797D01*
Y1266929D01*
G01X964567Y1283465D02*
Y1277597D01*
X962767Y1275797D01*
X769517D01*
X767717Y1277597D01*
Y1283465D01*
G01X964567Y1299213D02*
Y1304687D01*
X962767Y1306487D01*
X769517D01*
X767717Y1304687D01*
Y1299213D01*
G01X964567Y1314961D02*
Y1309487D01*
X962767Y1307687D01*
X769517D01*
X767717Y1309487D01*
Y1314961D01*
G01X964567Y1320709D02*
Y1323309D01*
X962767Y1325109D01*
X769517D01*
X767717Y1323309D01*
Y1320709D01*
G01X964567Y1330709D02*
Y1328109D01*
X962767Y1326309D01*
X769517D01*
X767717Y1328109D01*
Y1330709D01*
G01Y1342520D02*
X769085Y1343888D01*
X963199D01*
X964567Y1342520D01*
G01X767717Y1346457D02*
X769085Y1345088D01*
X963199D01*
X964567Y1346457D01*
G01X767717Y1360236D02*
X768821D01*
X769206Y1360620D01*
X963078D01*
X963462Y1360236D01*
X964567D01*
G01X767717Y1362205D02*
X768821D01*
X769206Y1361820D01*
X963078D01*
X963462Y1362205D01*
X964567D01*
G01X767717Y1376772D02*
X964567D01*
G01X767717Y1377953D02*
X964567D01*
G01X767717Y1452756D02*
X767683Y1452790D01*
G01X767717Y1487008D02*
X767682Y1486973D01*
G01X767717Y1551181D02*
X767702Y1551166D01*
G01X767717Y1594488D02*
X767707Y1594498D01*
G01X767717Y1628740D02*
Y1625464D01*
X767686Y1625433D01*
G01X767717Y1629921D02*
X964567D01*
G01X767717Y1644685D02*
Y1641535D01*
X767755Y1641497D01*
G01X964567Y1645669D02*
X767717D01*
G01X964567Y1594488D02*
X964571Y1594492D01*
G01X964567Y1612205D02*
X964582Y1612220D01*
G01X964567Y1628740D02*
Y1625695D01*
X964577Y1625685D01*
G01X964567Y1644685D02*
Y1641510D01*
X964554Y1641497D01*
G01X1003916Y1074824D02*
X1003937Y1074803D01*
G01X1003929Y1090559D02*
X1003937Y1090551D01*
G01X1000015Y1125967D02*
X1001383Y1127335D01*
Y1128432D01*
X1002686Y1129735D01*
X1198131D01*
X1199434Y1128432D01*
Y1127333D01*
X1200802Y1125964D01*
G01X1200788Y66929D02*
X1199388D01*
X1198216Y68100D01*
X1006508D01*
X1005337Y66929D01*
X1003937D01*
G01Y70866D02*
X1005337D01*
X1006503Y69700D01*
X1198222D01*
X1199388Y70866D01*
X1200788D01*
G01X1102364Y287289D02*
X1100883Y288770D01*
X1005306D01*
X1003937Y287402D01*
G01X1102364Y291451D02*
X1100883Y289970D01*
X1005306D01*
X1003937Y291339D01*
G01X1102339Y303037D02*
X1100858Y304518D01*
X1005306D01*
X1003937Y303150D01*
G01X1102339Y307199D02*
X1100858Y305718D01*
X1005306D01*
X1003937Y307087D01*
G01X1102403Y318785D02*
X1100923Y320266D01*
X1005306D01*
X1003937Y318898D01*
G01X1102403Y322947D02*
X1100923Y321466D01*
X1005306D01*
X1003937Y322835D01*
G01X1200788Y397638D02*
X1199419Y399006D01*
X1145669D01*
G01X1082677D02*
X1005306D01*
X1003937Y397638D01*
G01Y401575D02*
X1005306Y400206D01*
X1082677D01*
G01X1145669D02*
X1199419D01*
X1200788Y401575D01*
G01Y413386D02*
X1199419Y414754D01*
X1149606D01*
G01X1102362D02*
X1005306D01*
X1003937Y413386D01*
G01X1200788Y417323D02*
X1199419Y415954D01*
X1149606D01*
G01X1102362D02*
X1005306D01*
X1003937Y417323D01*
G01X1200788Y429134D02*
X1199419Y430502D01*
X1133858D01*
G01X1102362D02*
X1005306D01*
X1003937Y429134D01*
G01X1200788Y433071D02*
X1199419Y431702D01*
X1133858D01*
G01X1102362D02*
X1005306D01*
X1003937Y433071D01*
G01Y444882D02*
X1005306Y446250D01*
X1102362D01*
G01X1118110D02*
X1199419D01*
X1200788Y444882D01*
G01X1003937Y448819D02*
X1005306Y447450D01*
X1102362D01*
G01X1118110D02*
X1199419D01*
X1200788Y448819D01*
G01X1003937Y535433D02*
X1005306Y534065D01*
X1022515D01*
X1025907Y537457D01*
Y544091D01*
X1027210Y545394D01*
X1181039D01*
X1181639Y545994D01*
Y548394D01*
X1181039Y548994D01*
X1027210D01*
X1025907Y550297D01*
Y553691D01*
X1027210Y554994D01*
X1181039D01*
X1181639Y555594D01*
Y557994D01*
X1181039Y558594D01*
X1027210D01*
X1025907Y559897D01*
Y563291D01*
X1027210Y564594D01*
X1181039D01*
X1181639Y565194D01*
Y567594D01*
X1181039Y568194D01*
X1027210D01*
X1025907Y569497D01*
Y572891D01*
X1027210Y574194D01*
X1181039D01*
X1181639Y574794D01*
Y577194D01*
X1181039Y577794D01*
X1027210D01*
X1025907Y579097D01*
Y582491D01*
X1027210Y583794D01*
X1181039D01*
X1181639Y584394D01*
Y586794D01*
X1181039Y587394D01*
X1027210D01*
X1025907Y588697D01*
Y592091D01*
X1027210Y593394D01*
X1181039D01*
X1181639Y593994D01*
Y596394D01*
X1181039Y596994D01*
X1027210D01*
X1025907Y598297D01*
Y600339D01*
X1022515Y603731D01*
X1005306D01*
X1003937Y602362D01*
G01Y531496D02*
X1005306Y532865D01*
X1023012D01*
X1027107Y536959D01*
Y543594D01*
X1027707Y544194D01*
X1181536D01*
X1182839Y545497D01*
Y548891D01*
X1181536Y550194D01*
X1027707D01*
X1027107Y550794D01*
Y553194D01*
X1027707Y553794D01*
X1181536D01*
X1182839Y555097D01*
Y558491D01*
X1181536Y559794D01*
X1027707D01*
X1027107Y560394D01*
Y562794D01*
X1027707Y563394D01*
X1181536D01*
X1182839Y564697D01*
Y568091D01*
X1181536Y569394D01*
X1027707D01*
X1027107Y569994D01*
Y572394D01*
X1027707Y572994D01*
X1181536D01*
X1182839Y574297D01*
Y577691D01*
X1181536Y578994D01*
X1027707D01*
X1027107Y579594D01*
Y581994D01*
X1027707Y582594D01*
X1181536D01*
X1182839Y583897D01*
Y587291D01*
X1181536Y588594D01*
X1027707D01*
X1027107Y589194D01*
Y591594D01*
X1027707Y592194D01*
X1181536D01*
X1182839Y593497D01*
Y596891D01*
X1181536Y598194D01*
X1027707D01*
X1027107Y598794D01*
Y600836D01*
X1023012Y604931D01*
X1005306D01*
X1003937Y606299D01*
G01X1200788Y618110D02*
X1199419Y619479D01*
X1169167D01*
X1167864Y620782D01*
Y650375D01*
X1167264Y650975D01*
X1162425D01*
X1161825Y650375D01*
Y619749D01*
X1160522Y618446D01*
X1156128D01*
X1154825Y619749D01*
Y650375D01*
X1154225Y650975D01*
X1150825D01*
X1150225Y650375D01*
Y619749D01*
X1148922Y618446D01*
X1144528D01*
X1143225Y619749D01*
Y650375D01*
X1142625Y650975D01*
X1139225D01*
X1138625Y650375D01*
Y619749D01*
X1137322Y618446D01*
X1132928D01*
X1131625Y619749D01*
Y650375D01*
X1131025Y650975D01*
X1127625D01*
X1127025Y650375D01*
Y619749D01*
X1125722Y618446D01*
X1121328D01*
X1120025Y619749D01*
Y650375D01*
X1119425Y650975D01*
X1116025D01*
X1115425Y650375D01*
Y619749D01*
X1114122Y618446D01*
X1109728D01*
X1108425Y619749D01*
Y650375D01*
X1107825Y650975D01*
X1104425D01*
X1103825Y650375D01*
Y619749D01*
X1102522Y618446D01*
X1098128D01*
X1096825Y619749D01*
Y650375D01*
X1096225Y650975D01*
X1092825D01*
X1092225Y650375D01*
Y619749D01*
X1090922Y618446D01*
X1086528D01*
X1085225Y619749D01*
Y650375D01*
X1084625Y650975D01*
X1081225D01*
X1080625Y650375D01*
Y619749D01*
X1079322Y618446D01*
X1074928D01*
X1073625Y619749D01*
Y650375D01*
X1073025Y650975D01*
X1069625D01*
X1069025Y650375D01*
Y619749D01*
X1067722Y618446D01*
X1063328D01*
X1062025Y619749D01*
Y650375D01*
X1061425Y650975D01*
X1058025D01*
X1057425Y650375D01*
Y619749D01*
X1056122Y618446D01*
X1051728D01*
X1050425Y619749D01*
Y650375D01*
X1049825Y650975D01*
X1046425D01*
X1045825Y650375D01*
Y619749D01*
X1044522Y618446D01*
X1040128D01*
X1038825Y619749D01*
Y650375D01*
X1038225Y650975D01*
X1034825D01*
X1034225Y650375D01*
Y619749D01*
X1032922Y618446D01*
X1028528D01*
X1027225Y619749D01*
Y650375D01*
X1026625Y650975D01*
X1005306D01*
X1003937Y649606D01*
G01X1200788Y622047D02*
X1199419Y620679D01*
X1169664D01*
X1169064Y621279D01*
Y650872D01*
X1167761Y652175D01*
X1161928D01*
X1160625Y650872D01*
Y620246D01*
X1160025Y619646D01*
X1156625D01*
X1156025Y620246D01*
Y650872D01*
X1154722Y652175D01*
X1150328D01*
X1149025Y650872D01*
Y620246D01*
X1148425Y619646D01*
X1145025D01*
X1144425Y620246D01*
Y650872D01*
X1143122Y652175D01*
X1138728D01*
X1137425Y650872D01*
Y620246D01*
X1136825Y619646D01*
X1133425D01*
X1132825Y620246D01*
Y650872D01*
X1131522Y652175D01*
X1127128D01*
X1125825Y650872D01*
Y620246D01*
X1125225Y619646D01*
X1121825D01*
X1121225Y620246D01*
Y650872D01*
X1119922Y652175D01*
X1115528D01*
X1114225Y650872D01*
Y620246D01*
X1113625Y619646D01*
X1110225D01*
X1109625Y620246D01*
Y650872D01*
X1108322Y652175D01*
X1103928D01*
X1102625Y650872D01*
Y620246D01*
X1102025Y619646D01*
X1098625D01*
X1098025Y620246D01*
Y650872D01*
X1096722Y652175D01*
X1092328D01*
X1091025Y650872D01*
Y620246D01*
X1090425Y619646D01*
X1087025D01*
X1086425Y620246D01*
Y650872D01*
X1085122Y652175D01*
X1080728D01*
X1079425Y650872D01*
Y620246D01*
X1078825Y619646D01*
X1075425D01*
X1074825Y620246D01*
Y650872D01*
X1073522Y652175D01*
X1069128D01*
X1067825Y650872D01*
Y620246D01*
X1067225Y619646D01*
X1063825D01*
X1063225Y620246D01*
Y650872D01*
X1061922Y652175D01*
X1057528D01*
X1056225Y650872D01*
Y620246D01*
X1055625Y619646D01*
X1052225D01*
X1051625Y620246D01*
Y650872D01*
X1050322Y652175D01*
X1045928D01*
X1044625Y650872D01*
Y620246D01*
X1044025Y619646D01*
X1040625D01*
X1040025Y620246D01*
Y650872D01*
X1038722Y652175D01*
X1034328D01*
X1033025Y650872D01*
Y620246D01*
X1032425Y619646D01*
X1029025D01*
X1028425Y620246D01*
Y650872D01*
X1027122Y652175D01*
X1005306D01*
X1003937Y653543D01*
G01X1200788Y665354D02*
X1199419Y666723D01*
X1166201D01*
X1164898Y668026D01*
Y681871D01*
X1164298Y682471D01*
X1161508D01*
X1160908Y681871D01*
Y669230D01*
X1159605Y667927D01*
X1156211D01*
X1154908Y669230D01*
Y681871D01*
X1154308Y682471D01*
X1151908D01*
X1151308Y681871D01*
Y669230D01*
X1150005Y667927D01*
X1146611D01*
X1145308Y669230D01*
Y681871D01*
X1144708Y682471D01*
X1142308D01*
X1141708Y681871D01*
Y669230D01*
X1140405Y667927D01*
X1137011D01*
X1135708Y669230D01*
Y681871D01*
X1135108Y682471D01*
X1132708D01*
X1132108Y681871D01*
Y669230D01*
X1130805Y667927D01*
X1127411D01*
X1126108Y669230D01*
Y681871D01*
X1125508Y682471D01*
X1123108D01*
X1122508Y681871D01*
Y669230D01*
X1121205Y667927D01*
X1117811D01*
X1116508Y669230D01*
Y681871D01*
X1115908Y682471D01*
X1113508D01*
X1112908Y681871D01*
Y669230D01*
X1111605Y667927D01*
X1108211D01*
X1106908Y669230D01*
Y681871D01*
X1106308Y682471D01*
X1103908D01*
X1103308Y681871D01*
Y669230D01*
X1102005Y667927D01*
X1098611D01*
X1097308Y669230D01*
Y681871D01*
X1096708Y682471D01*
X1094308D01*
X1093708Y681871D01*
Y669230D01*
X1092405Y667927D01*
X1089011D01*
X1087708Y669230D01*
Y681871D01*
X1087108Y682471D01*
X1084708D01*
X1084108Y681871D01*
Y669230D01*
X1082805Y667927D01*
X1079411D01*
X1078108Y669230D01*
Y681871D01*
X1077508Y682471D01*
X1075108D01*
X1074508Y681871D01*
Y669230D01*
X1073205Y667927D01*
X1069811D01*
X1068508Y669230D01*
Y681871D01*
X1067908Y682471D01*
X1065508D01*
X1064908Y681871D01*
Y669230D01*
X1063605Y667927D01*
X1060211D01*
X1058908Y669230D01*
Y681871D01*
X1058308Y682471D01*
X1055908D01*
X1055308Y681871D01*
Y669230D01*
X1054005Y667927D01*
X1050611D01*
X1049308Y669230D01*
Y681871D01*
X1048708Y682471D01*
X1046308D01*
X1045708Y681871D01*
Y669230D01*
X1044405Y667927D01*
X1041011D01*
X1039708Y669230D01*
Y681871D01*
X1039108Y682471D01*
X1036708D01*
X1036108Y681871D01*
Y669230D01*
X1034805Y667927D01*
X1031411D01*
X1030108Y669230D01*
Y681871D01*
X1029508Y682471D01*
X1005306D01*
X1003937Y681102D01*
G01X1200788Y669291D02*
X1199419Y667923D01*
X1166698D01*
X1166098Y668523D01*
Y682368D01*
X1164795Y683671D01*
X1161011D01*
X1159708Y682368D01*
Y669727D01*
X1159108Y669127D01*
X1156708D01*
X1156108Y669727D01*
Y682368D01*
X1154805Y683671D01*
X1151411D01*
X1150108Y682368D01*
Y669727D01*
X1149508Y669127D01*
X1147108D01*
X1146508Y669727D01*
Y682368D01*
X1145205Y683671D01*
X1141811D01*
X1140508Y682368D01*
Y669727D01*
X1139908Y669127D01*
X1137508D01*
X1136908Y669727D01*
Y682368D01*
X1135605Y683671D01*
X1132211D01*
X1130908Y682368D01*
Y669727D01*
X1130308Y669127D01*
X1127908D01*
X1127308Y669727D01*
Y682368D01*
X1126005Y683671D01*
X1122611D01*
X1121308Y682368D01*
Y669727D01*
X1120708Y669127D01*
X1118308D01*
X1117708Y669727D01*
Y682368D01*
X1116405Y683671D01*
X1113011D01*
X1111708Y682368D01*
Y669727D01*
X1111108Y669127D01*
X1108708D01*
X1108108Y669727D01*
Y682368D01*
X1106805Y683671D01*
X1103411D01*
X1102108Y682368D01*
Y669727D01*
X1101508Y669127D01*
X1099108D01*
X1098508Y669727D01*
Y682368D01*
X1097205Y683671D01*
X1093811D01*
X1092508Y682368D01*
Y669727D01*
X1091908Y669127D01*
X1089508D01*
X1088908Y669727D01*
Y682368D01*
X1087605Y683671D01*
X1084211D01*
X1082908Y682368D01*
Y669727D01*
X1082308Y669127D01*
X1079908D01*
X1079308Y669727D01*
Y682368D01*
X1078005Y683671D01*
X1074611D01*
X1073308Y682368D01*
Y669727D01*
X1072708Y669127D01*
X1070308D01*
X1069708Y669727D01*
Y682368D01*
X1068405Y683671D01*
X1065011D01*
X1063708Y682368D01*
Y669727D01*
X1063108Y669127D01*
X1060708D01*
X1060108Y669727D01*
Y682368D01*
X1058805Y683671D01*
X1055411D01*
X1054108Y682368D01*
Y669727D01*
X1053508Y669127D01*
X1051108D01*
X1050508Y669727D01*
Y682368D01*
X1049205Y683671D01*
X1045811D01*
X1044508Y682368D01*
Y669727D01*
X1043908Y669127D01*
X1041508D01*
X1040908Y669727D01*
Y682368D01*
X1039605Y683671D01*
X1036211D01*
X1034908Y682368D01*
Y669727D01*
X1034308Y669127D01*
X1031908D01*
X1031308Y669727D01*
Y682368D01*
X1030005Y683671D01*
X1005306D01*
X1003937Y685039D01*
G01Y696850D02*
X1005306Y698219D01*
X1100994D01*
X1102362Y696850D01*
G01X1003937Y700787D02*
X1005306Y699419D01*
X1100994D01*
X1102362Y700787D01*
G01X1003937Y712598D02*
X1005306Y713967D01*
X1061624D01*
X1062992Y712598D01*
G01X1003937Y716535D02*
X1005306Y715167D01*
X1061624D01*
X1062992Y716535D01*
G01X1043307Y728346D02*
X1041939Y729715D01*
X1005306D01*
X1003937Y728346D01*
G01X1043307Y732284D02*
X1041939Y730915D01*
X1005306D01*
X1003937Y732284D01*
G01X1023622Y744094D02*
X1022254Y745463D01*
X1005306D01*
X1003937Y744094D01*
G01X1023622Y748032D02*
X1022254Y746663D01*
X1005306D01*
X1003937Y748032D01*
G01X1200788Y1011811D02*
X1199419Y1013180D01*
X1005306D01*
X1003937Y1011811D01*
G01X1200788Y1015748D02*
X1199419Y1014380D01*
X1005306D01*
X1003937Y1015748D01*
G01Y1027559D02*
X1005306Y1028928D01*
X1199419D01*
X1200788Y1027559D01*
G01X1003937Y1031496D02*
X1005306Y1030128D01*
X1199419D01*
X1200788Y1031496D01*
G01Y1043307D02*
X1199419Y1044676D01*
X1005306D01*
X1003937Y1043307D01*
G01X1200788Y1047244D02*
X1199419Y1045876D01*
X1005306D01*
X1003937Y1047244D01*
G01X1003952Y1125967D02*
X1002583Y1127335D01*
Y1127935D01*
X1003183Y1128535D01*
X1197634D01*
X1198234Y1127935D01*
Y1127333D01*
X1196866Y1125964D01*
G01X1003952Y1141715D02*
X1005320Y1143083D01*
X1199434D01*
X1200802Y1141715D01*
G01X1003952Y1145652D02*
X1005320Y1144283D01*
X1199434D01*
X1200802Y1145652D01*
G01X1204744Y1157461D02*
X1203367Y1158839D01*
Y1160742D01*
X1202064Y1162045D01*
X1006623D01*
X1005320Y1160742D01*
Y1158831D01*
X1003952Y1157463D01*
G01X1200807Y1157461D02*
X1202167Y1158822D01*
Y1160245D01*
X1201567Y1160845D01*
X1007120D01*
X1006520Y1160245D01*
Y1158831D01*
X1007889Y1157463D01*
G01X1200788Y1266929D02*
Y1272797D01*
X1198988Y1274597D01*
X1005737D01*
X1003937Y1272797D01*
Y1266929D01*
G01X1200788Y1283465D02*
Y1277597D01*
X1198988Y1275797D01*
X1005737D01*
X1003937Y1277597D01*
Y1283465D01*
G01X1200788Y1299213D02*
Y1304687D01*
X1198988Y1306487D01*
X1005737D01*
X1003937Y1304687D01*
Y1299213D01*
G01X1200788Y1314961D02*
Y1309487D01*
X1198988Y1307687D01*
X1005737D01*
X1003937Y1309487D01*
Y1314961D01*
G01X1200788Y1320709D02*
Y1323309D01*
X1198988Y1325109D01*
X1005737D01*
X1003937Y1323309D01*
Y1320709D01*
G01X1200788Y1330709D02*
Y1328109D01*
X1198988Y1326309D01*
X1005737D01*
X1003937Y1328109D01*
Y1330709D01*
G01Y1342520D02*
X1005306Y1343888D01*
X1199419D01*
X1200788Y1342520D01*
G01X1003937Y1346457D02*
X1005306Y1345088D01*
X1199419D01*
X1200788Y1346457D01*
G01X1003937Y1360236D02*
X1005042D01*
X1005426Y1360620D01*
X1199298D01*
X1199683Y1360236D01*
X1200788D01*
G01X1003937Y1362205D02*
X1005042D01*
X1005426Y1361820D01*
X1199298D01*
X1199683Y1362205D01*
X1200788D01*
G01X1003937Y1376772D02*
X1200788D01*
G01X1003937Y1377953D02*
X1200788D01*
G01X1003937Y1452756D02*
X1003903Y1452790D01*
G01X1003937Y1487008D02*
X1003902Y1486973D01*
G01X1003937Y1551181D02*
X1003922Y1551166D01*
G01X1003937Y1594488D02*
X1003927Y1594498D01*
G01X1003937Y1628740D02*
Y1625677D01*
X1003900Y1625640D01*
G01X1003937Y1629921D02*
X1200788D01*
G01X1003937Y1644685D02*
Y1641741D01*
X1003854Y1641658D01*
G01X1200788Y1645669D02*
X1003937D01*
G01X1200788Y1594488D02*
X1200792Y1594492D01*
G01X1200788Y1612205D02*
X1200802Y1612220D01*
G01X1200788Y1628740D02*
Y1625666D01*
X1200860Y1625594D01*
G01X1200788Y1644685D02*
Y1641528D01*
X1200734Y1641474D01*
G01X1240136Y1074824D02*
X1240158Y1074803D01*
G01X1240150Y1090559D02*
X1240158Y1090551D01*
G01X1236235Y1125967D02*
X1237604Y1127335D01*
Y1128432D01*
X1238906Y1129735D01*
X1434351D01*
X1435654Y1128432D01*
Y1127333D01*
X1437023Y1125964D01*
G01X1437008Y66929D02*
X1435608D01*
X1434437Y68100D01*
X1242729D01*
X1241558Y66929D01*
X1240158D01*
G01Y70866D02*
X1241558D01*
X1242723Y69700D01*
X1434442D01*
X1435608Y70866D01*
X1437008D01*
G01X1338584Y287289D02*
X1337104Y288770D01*
X1241526D01*
X1240158Y287402D01*
G01X1338584Y291451D02*
X1337104Y289970D01*
X1241526D01*
X1240158Y291339D01*
G01X1338560Y303037D02*
X1337079Y304518D01*
X1241526D01*
X1240158Y303150D01*
G01X1338560Y307199D02*
X1337079Y305718D01*
X1241526D01*
X1240158Y307087D01*
G01X1338624Y318785D02*
X1337143Y320266D01*
X1241526D01*
X1240158Y318898D01*
G01X1338624Y322947D02*
X1337143Y321466D01*
X1241526D01*
X1240158Y322835D01*
G01X1437008Y397638D02*
X1435639Y399006D01*
X1381890D01*
G01X1318898D02*
X1241526D01*
X1240158Y397638D01*
G01Y401575D02*
X1241526Y400206D01*
X1318898D01*
G01X1381890D02*
X1435639D01*
X1437008Y401575D01*
G01Y413386D02*
X1435639Y414754D01*
X1385827D01*
G01X1338583D02*
X1241526D01*
X1240158Y413386D01*
G01X1437008Y417323D02*
X1435639Y415954D01*
X1385827D01*
G01X1338583D02*
X1241526D01*
X1240158Y417323D01*
G01X1437008Y429134D02*
X1435639Y430502D01*
X1370079D01*
G01X1338583D02*
X1241526D01*
X1240158Y429134D01*
G01X1437008Y433071D02*
X1435639Y431702D01*
X1370079D01*
G01X1338583D02*
X1241526D01*
X1240158Y433071D01*
G01Y444882D02*
X1241526Y446250D01*
X1338583D01*
G01X1354331D02*
X1435639D01*
X1437008Y444882D01*
G01X1240158Y448819D02*
X1241526Y447450D01*
X1338583D01*
G01X1354331D02*
X1435639D01*
X1437008Y448819D01*
G01X1240158Y535433D02*
X1241526Y534065D01*
X1258736D01*
X1262128Y537457D01*
Y544091D01*
X1263430Y545394D01*
X1417260D01*
X1417860Y545994D01*
Y548394D01*
X1417260Y548994D01*
X1263430D01*
X1262128Y550297D01*
Y553691D01*
X1263430Y554994D01*
X1417260D01*
X1417860Y555594D01*
Y557994D01*
X1417260Y558594D01*
X1263430D01*
X1262128Y559897D01*
Y563291D01*
X1263430Y564594D01*
X1417260D01*
X1417860Y565194D01*
Y567594D01*
X1417260Y568194D01*
X1263430D01*
X1262128Y569497D01*
Y572891D01*
X1263430Y574194D01*
X1417260D01*
X1417860Y574794D01*
Y577194D01*
X1417260Y577794D01*
X1263430D01*
X1262128Y579097D01*
Y582491D01*
X1263430Y583794D01*
X1417260D01*
X1417860Y584394D01*
Y586794D01*
X1417260Y587394D01*
X1263430D01*
X1262128Y588697D01*
Y592091D01*
X1263430Y593394D01*
X1417260D01*
X1417860Y593994D01*
Y596394D01*
X1417260Y596994D01*
X1263430D01*
X1262128Y598297D01*
Y600339D01*
X1258736Y603731D01*
X1241526D01*
X1240158Y602362D01*
G01Y531496D02*
X1241526Y532865D01*
X1259233D01*
X1263328Y536959D01*
Y543594D01*
X1263928Y544194D01*
X1417757D01*
X1419060Y545497D01*
Y548891D01*
X1417757Y550194D01*
X1263928D01*
X1263328Y550794D01*
Y553194D01*
X1263928Y553794D01*
X1417757D01*
X1419060Y555097D01*
Y558491D01*
X1417757Y559794D01*
X1263928D01*
X1263328Y560394D01*
Y562794D01*
X1263928Y563394D01*
X1417757D01*
X1419060Y564697D01*
Y568091D01*
X1417757Y569394D01*
X1263928D01*
X1263328Y569994D01*
Y572394D01*
X1263928Y572994D01*
X1417757D01*
X1419060Y574297D01*
Y577691D01*
X1417757Y578994D01*
X1263928D01*
X1263328Y579594D01*
Y581994D01*
X1263928Y582594D01*
X1417757D01*
X1419060Y583897D01*
Y587291D01*
X1417757Y588594D01*
X1263928D01*
X1263328Y589194D01*
Y591594D01*
X1263928Y592194D01*
X1417757D01*
X1419060Y593497D01*
Y596891D01*
X1417757Y598194D01*
X1263928D01*
X1263328Y598794D01*
Y600836D01*
X1259233Y604931D01*
X1241526D01*
X1240158Y606299D01*
G01X1437008Y618110D02*
X1435639Y619479D01*
X1405387D01*
X1404084Y620782D01*
Y650375D01*
X1403484Y650975D01*
X1398645D01*
X1398045Y650375D01*
Y619749D01*
X1396743Y618446D01*
X1392349D01*
X1391045Y619749D01*
Y650375D01*
X1390445Y650975D01*
X1387045D01*
X1386445Y650375D01*
Y619749D01*
X1385143Y618446D01*
X1380749D01*
X1379445Y619749D01*
Y650375D01*
X1378845Y650975D01*
X1375445D01*
X1374845Y650375D01*
Y619749D01*
X1373543Y618446D01*
X1369148D01*
X1367845Y619749D01*
Y650375D01*
X1367245Y650975D01*
X1363845D01*
X1363245Y650375D01*
Y619749D01*
X1361943Y618446D01*
X1357548D01*
X1356245Y619749D01*
Y650375D01*
X1355645Y650975D01*
X1352245D01*
X1351645Y650375D01*
Y619749D01*
X1350343Y618446D01*
X1345948D01*
X1344645Y619749D01*
Y650375D01*
X1344045Y650975D01*
X1340645D01*
X1340045Y650375D01*
Y619749D01*
X1338743Y618446D01*
X1334348D01*
X1333045Y619749D01*
Y650375D01*
X1332445Y650975D01*
X1329045D01*
X1328445Y650375D01*
Y619749D01*
X1327143Y618446D01*
X1322749D01*
X1321445Y619749D01*
Y650375D01*
X1320845Y650975D01*
X1317445D01*
X1316845Y650375D01*
Y619749D01*
X1315543Y618446D01*
X1311148D01*
X1309845Y619749D01*
Y650375D01*
X1309245Y650975D01*
X1305845D01*
X1305245Y650375D01*
Y619749D01*
X1303943Y618446D01*
X1299548D01*
X1298245Y619749D01*
Y650375D01*
X1297645Y650975D01*
X1294245D01*
X1293645Y650375D01*
Y619749D01*
X1292343Y618446D01*
X1287948D01*
X1286645Y619749D01*
Y650375D01*
X1286045Y650975D01*
X1282645D01*
X1282045Y650375D01*
Y619749D01*
X1280743Y618446D01*
X1276348D01*
X1275045Y619749D01*
Y650375D01*
X1274445Y650975D01*
X1271045D01*
X1270445Y650375D01*
Y619749D01*
X1269143Y618446D01*
X1264749D01*
X1263445Y619749D01*
Y650375D01*
X1262845Y650975D01*
X1241526D01*
X1240158Y649606D01*
G01X1437008Y622047D02*
X1435639Y620679D01*
X1405884D01*
X1405284Y621279D01*
Y650872D01*
X1403982Y652175D01*
X1398148D01*
X1396845Y650872D01*
Y620246D01*
X1396245Y619646D01*
X1392845D01*
X1392245Y620246D01*
Y650872D01*
X1390943Y652175D01*
X1386549D01*
X1385245Y650872D01*
Y620246D01*
X1384645Y619646D01*
X1381245D01*
X1380645Y620246D01*
Y650872D01*
X1379343Y652175D01*
X1374949D01*
X1373645Y650872D01*
Y620246D01*
X1373045Y619646D01*
X1369645D01*
X1369045Y620246D01*
Y650872D01*
X1367743Y652175D01*
X1363348D01*
X1362045Y650872D01*
Y620246D01*
X1361445Y619646D01*
X1358045D01*
X1357445Y620246D01*
Y650872D01*
X1356143Y652175D01*
X1351748D01*
X1350445Y650872D01*
Y620246D01*
X1349845Y619646D01*
X1346445D01*
X1345845Y620246D01*
Y650872D01*
X1344543Y652175D01*
X1340148D01*
X1338845Y650872D01*
Y620246D01*
X1338245Y619646D01*
X1334845D01*
X1334245Y620246D01*
Y650872D01*
X1332943Y652175D01*
X1328549D01*
X1327245Y650872D01*
Y620246D01*
X1326645Y619646D01*
X1323245D01*
X1322645Y620246D01*
Y650872D01*
X1321343Y652175D01*
X1316949D01*
X1315645Y650872D01*
Y620246D01*
X1315045Y619646D01*
X1311645D01*
X1311045Y620246D01*
Y650872D01*
X1309743Y652175D01*
X1305348D01*
X1304045Y650872D01*
Y620246D01*
X1303445Y619646D01*
X1300045D01*
X1299445Y620246D01*
Y650872D01*
X1298143Y652175D01*
X1293748D01*
X1292445Y650872D01*
Y620246D01*
X1291845Y619646D01*
X1288445D01*
X1287845Y620246D01*
Y650872D01*
X1286543Y652175D01*
X1282148D01*
X1280845Y650872D01*
Y620246D01*
X1280245Y619646D01*
X1276845D01*
X1276245Y620246D01*
Y650872D01*
X1274943Y652175D01*
X1270549D01*
X1269245Y650872D01*
Y620246D01*
X1268645Y619646D01*
X1265245D01*
X1264645Y620246D01*
Y650872D01*
X1263343Y652175D01*
X1241526D01*
X1240158Y653543D01*
G01X1437008Y665354D02*
X1435639Y666723D01*
X1402421D01*
X1401118Y668026D01*
Y681871D01*
X1400518Y682471D01*
X1397729D01*
X1397129Y681871D01*
Y669230D01*
X1395826Y667927D01*
X1392432D01*
X1391129Y669230D01*
Y681871D01*
X1390529Y682471D01*
X1388129D01*
X1387529Y681871D01*
Y669230D01*
X1386226Y667927D01*
X1382832D01*
X1381529Y669230D01*
Y681871D01*
X1380929Y682471D01*
X1378529D01*
X1377929Y681871D01*
Y669230D01*
X1376626Y667927D01*
X1373232D01*
X1371929Y669230D01*
Y681871D01*
X1371329Y682471D01*
X1368929D01*
X1368329Y681871D01*
Y669230D01*
X1367026Y667927D01*
X1363632D01*
X1362329Y669230D01*
Y681871D01*
X1361729Y682471D01*
X1359329D01*
X1358729Y681871D01*
Y669230D01*
X1357426Y667927D01*
X1354032D01*
X1352729Y669230D01*
Y681871D01*
X1352129Y682471D01*
X1349729D01*
X1349129Y681871D01*
Y669230D01*
X1347826Y667927D01*
X1344432D01*
X1343129Y669230D01*
Y681871D01*
X1342529Y682471D01*
X1340129D01*
X1339529Y681871D01*
Y669230D01*
X1338226Y667927D01*
X1334832D01*
X1333529Y669230D01*
Y681871D01*
X1332929Y682471D01*
X1330529D01*
X1329929Y681871D01*
Y669230D01*
X1328626Y667927D01*
X1325232D01*
X1323929Y669230D01*
Y681871D01*
X1323329Y682471D01*
X1320929D01*
X1320329Y681871D01*
Y669230D01*
X1319026Y667927D01*
X1315632D01*
X1314329Y669230D01*
Y681871D01*
X1313729Y682471D01*
X1311329D01*
X1310729Y681871D01*
Y669230D01*
X1309426Y667927D01*
X1306032D01*
X1304729Y669230D01*
Y681871D01*
X1304129Y682471D01*
X1301729D01*
X1301129Y681871D01*
Y669230D01*
X1299826Y667927D01*
X1296432D01*
X1295129Y669230D01*
Y681871D01*
X1294529Y682471D01*
X1292129D01*
X1291529Y681871D01*
Y669230D01*
X1290226Y667927D01*
X1286832D01*
X1285529Y669230D01*
Y681871D01*
X1284929Y682471D01*
X1282529D01*
X1281929Y681871D01*
Y669230D01*
X1280626Y667927D01*
X1277232D01*
X1275929Y669230D01*
Y681871D01*
X1275329Y682471D01*
X1272929D01*
X1272329Y681871D01*
Y669230D01*
X1271026Y667927D01*
X1267632D01*
X1266329Y669230D01*
Y681871D01*
X1265729Y682471D01*
X1241526D01*
X1240158Y681102D01*
G01X1437008Y669291D02*
X1435639Y667923D01*
X1402918D01*
X1402318Y668523D01*
Y682368D01*
X1401015Y683671D01*
X1397232D01*
X1395929Y682368D01*
Y669727D01*
X1395329Y669127D01*
X1392929D01*
X1392329Y669727D01*
Y682368D01*
X1391026Y683671D01*
X1387632D01*
X1386329Y682368D01*
Y669727D01*
X1385729Y669127D01*
X1383329D01*
X1382729Y669727D01*
Y682368D01*
X1381426Y683671D01*
X1378032D01*
X1376729Y682368D01*
Y669727D01*
X1376129Y669127D01*
X1373729D01*
X1373129Y669727D01*
Y682368D01*
X1371826Y683671D01*
X1368432D01*
X1367129Y682368D01*
Y669727D01*
X1366529Y669127D01*
X1364129D01*
X1363529Y669727D01*
Y682368D01*
X1362226Y683671D01*
X1358832D01*
X1357529Y682368D01*
Y669727D01*
X1356929Y669127D01*
X1354529D01*
X1353929Y669727D01*
Y682368D01*
X1352626Y683671D01*
X1349232D01*
X1347929Y682368D01*
Y669727D01*
X1347329Y669127D01*
X1344929D01*
X1344329Y669727D01*
Y682368D01*
X1343026Y683671D01*
X1339632D01*
X1338329Y682368D01*
Y669727D01*
X1337729Y669127D01*
X1335329D01*
X1334729Y669727D01*
Y682368D01*
X1333426Y683671D01*
X1330032D01*
X1328729Y682368D01*
Y669727D01*
X1328129Y669127D01*
X1325729D01*
X1325129Y669727D01*
Y682368D01*
X1323826Y683671D01*
X1320432D01*
X1319129Y682368D01*
Y669727D01*
X1318529Y669127D01*
X1316129D01*
X1315529Y669727D01*
Y682368D01*
X1314226Y683671D01*
X1310832D01*
X1309529Y682368D01*
Y669727D01*
X1308929Y669127D01*
X1306529D01*
X1305929Y669727D01*
Y682368D01*
X1304626Y683671D01*
X1301232D01*
X1299929Y682368D01*
Y669727D01*
X1299329Y669127D01*
X1296929D01*
X1296329Y669727D01*
Y682368D01*
X1295026Y683671D01*
X1291632D01*
X1290329Y682368D01*
Y669727D01*
X1289729Y669127D01*
X1287329D01*
X1286729Y669727D01*
Y682368D01*
X1285426Y683671D01*
X1282032D01*
X1280729Y682368D01*
Y669727D01*
X1280129Y669127D01*
X1277729D01*
X1277129Y669727D01*
Y682368D01*
X1275826Y683671D01*
X1272432D01*
X1271129Y682368D01*
Y669727D01*
X1270529Y669127D01*
X1268129D01*
X1267529Y669727D01*
Y682368D01*
X1266226Y683671D01*
X1241526D01*
X1240158Y685039D01*
G01Y696850D02*
X1241526Y698219D01*
X1337214D01*
X1338583Y696850D01*
G01X1240158Y700787D02*
X1241526Y699419D01*
X1337214D01*
X1338583Y700787D01*
G01X1240158Y712598D02*
X1241526Y713967D01*
X1297844D01*
X1299213Y712598D01*
G01X1240158Y716535D02*
X1241526Y715167D01*
X1297844D01*
X1299213Y716535D01*
G01X1279528Y728346D02*
X1278159Y729715D01*
X1241526D01*
X1240158Y728346D01*
G01X1279528Y732284D02*
X1278159Y730915D01*
X1241526D01*
X1240158Y732284D01*
G01X1259843Y744094D02*
X1258474Y745463D01*
X1241526D01*
X1240158Y744094D01*
G01X1259843Y748032D02*
X1258474Y746663D01*
X1241526D01*
X1240158Y748032D01*
G01X1437008Y1011811D02*
X1435639Y1013180D01*
X1241526D01*
X1240158Y1011811D01*
G01X1437008Y1015748D02*
X1435639Y1014380D01*
X1241526D01*
X1240158Y1015748D01*
G01Y1027559D02*
X1241526Y1028928D01*
X1435639D01*
X1437008Y1027559D01*
G01X1240158Y1031496D02*
X1241526Y1030128D01*
X1435639D01*
X1437008Y1031496D01*
G01Y1043307D02*
X1435639Y1044676D01*
X1241526D01*
X1240158Y1043307D01*
G01X1437008Y1047244D02*
X1435639Y1045876D01*
X1241526D01*
X1240158Y1047244D01*
G01X1240172Y1125967D02*
X1238804Y1127335D01*
Y1127935D01*
X1239404Y1128535D01*
X1433854D01*
X1434454Y1127935D01*
Y1127333D01*
X1433086Y1125964D01*
G01X1240172Y1141715D02*
X1241541Y1143083D01*
X1435654D01*
X1437023Y1141715D01*
G01X1240172Y1145652D02*
X1241541Y1144283D01*
X1435654D01*
X1437023Y1145652D01*
G01X1440964Y1157461D02*
X1439587Y1158839D01*
Y1160742D01*
X1438284Y1162045D01*
X1242843D01*
X1241541Y1160742D01*
Y1158831D01*
X1240172Y1157463D01*
G01X1437027Y1157461D02*
X1438387Y1158822D01*
Y1160245D01*
X1437787Y1160845D01*
X1243341D01*
X1242741Y1160245D01*
Y1158831D01*
X1244109Y1157463D01*
G01X1437008Y1266929D02*
Y1272797D01*
X1435208Y1274597D01*
X1241958D01*
X1240158Y1272797D01*
Y1266929D01*
G01X1437008Y1283465D02*
Y1277597D01*
X1435208Y1275797D01*
X1241958D01*
X1240158Y1277597D01*
Y1283465D01*
G01X1437008Y1299213D02*
Y1304687D01*
X1435208Y1306487D01*
X1241958D01*
X1240158Y1304687D01*
Y1299213D01*
G01X1437008Y1314961D02*
Y1309487D01*
X1435208Y1307687D01*
X1241958D01*
X1240158Y1309487D01*
Y1314961D01*
G01X1437008Y1320709D02*
Y1323309D01*
X1435208Y1325109D01*
X1241958D01*
X1240158Y1323309D01*
Y1320709D01*
G01X1437008Y1330709D02*
Y1328109D01*
X1435208Y1326309D01*
X1241958D01*
X1240158Y1328109D01*
Y1330709D01*
G01Y1342520D02*
X1241526Y1343888D01*
X1435639D01*
X1437008Y1342520D01*
G01X1240158Y1346457D02*
X1241526Y1345088D01*
X1435639D01*
X1437008Y1346457D01*
G01X1240158Y1360236D02*
X1241262D01*
X1241646Y1360620D01*
X1435519D01*
X1435903Y1360236D01*
X1437008D01*
G01X1240158Y1362205D02*
X1241262D01*
X1241646Y1361820D01*
X1435519D01*
X1435903Y1362205D01*
X1437008D01*
G01X1240158Y1376772D02*
X1437008D01*
G01X1240158Y1377953D02*
X1437008D01*
G01X1240158Y1452756D02*
X1240124Y1452790D01*
G01X1240158Y1487008D02*
X1240122Y1486973D01*
G01X1240158Y1551181D02*
X1240143Y1551166D01*
G01X1240158Y1594488D02*
X1240148Y1594498D01*
G01X1240158Y1628740D02*
Y1625626D01*
X1240126Y1625594D01*
G01X1240158Y1629921D02*
X1437008D01*
G01X1240158Y1644685D02*
Y1641346D01*
X1240034Y1641223D01*
G01X1437008Y1645669D02*
X1240158D01*
G01X1437008Y1594488D02*
X1437012Y1594492D01*
G01X1437008Y1612205D02*
X1437023Y1612220D01*
G01X1437008Y1628740D02*
Y1625649D01*
X1437062Y1625594D01*
G01X1437008Y1644685D02*
Y1641598D01*
X1437051Y1641555D01*
G01X1462811Y39414D02*
G03I-6000J0D01*
G01X1462778Y1661344D02*
G03I-6000J0D01*
X59055Y1043307D03*
Y1047244D03*
Y1090551D03*
Y1094488D03*
Y1392716D03*
Y1393701D03*
Y1645669D03*
Y1644685D03*
X255906Y1043307D03*
Y1047244D03*
Y1090551D03*
Y1094488D03*
Y1392716D03*
Y1393701D03*
Y1644685D03*
Y1645669D03*
X295276Y1043307D03*
Y1047244D03*
Y1090551D03*
Y1094488D03*
Y1392716D03*
Y1393701D03*
Y1644685D03*
Y1645669D03*
X492126Y1043307D03*
Y1047244D03*
Y1090551D03*
Y1094488D03*
Y1392716D03*
Y1393701D03*
Y1644685D03*
Y1645669D03*
X531496Y1043307D03*
Y1047244D03*
Y1090551D03*
Y1094488D03*
Y1392716D03*
Y1393701D03*
Y1644685D03*
Y1645669D03*
X728347Y1043307D03*
Y1047244D03*
Y1090551D03*
Y1094488D03*
Y1392716D03*
Y1393701D03*
Y1644685D03*
Y1645669D03*
X767717Y1043307D03*
Y1047244D03*
Y1090551D03*
Y1094488D03*
Y1392716D03*
Y1393701D03*
Y1644685D03*
Y1645669D03*
X964567Y1043307D03*
Y1047244D03*
Y1090551D03*
Y1094488D03*
Y1392716D03*
Y1393701D03*
Y1644685D03*
Y1645669D03*
X1003937Y1043307D03*
Y1047244D03*
Y1090551D03*
Y1094488D03*
Y1392716D03*
Y1393701D03*
Y1644685D03*
Y1645669D03*
X1200788Y1043307D03*
Y1047244D03*
Y1090551D03*
Y1094488D03*
Y1392716D03*
Y1393701D03*
Y1644685D03*
Y1645669D03*
X1240158Y1043307D03*
Y1047244D03*
Y1090551D03*
Y1094488D03*
Y1392716D03*
Y1393701D03*
Y1644685D03*
Y1645669D03*
X1437008Y1043307D03*
Y1047244D03*
Y1090551D03*
Y1094488D03*
Y1392716D03*
Y1393701D03*
Y1644685D03*
Y1645669D03*
G54D27*
G01X59055Y133858D02*
X255906D01*
G01X295276D02*
X492126D01*
G01X531496D02*
X728347D01*
G01X767717D02*
X964567D01*
G01X1003937D02*
X1200788D01*
G01X1240158D02*
X1437008D01*
G54D18*
X153207Y286109D03*
X153127Y292434D03*
X153086Y302020D03*
X153127Y308384D03*
X152961Y317428D03*
X152946Y324013D03*
X157480Y190158D03*
Y194094D03*
Y199606D03*
Y203543D03*
Y257402D03*
Y262598D03*
X157482Y287289D03*
Y291451D03*
X157457Y303037D03*
Y307199D03*
X157521Y318785D03*
Y322947D03*
X157522Y334628D03*
X157480Y338583D03*
X157482Y350418D03*
X157480Y354331D03*
Y366142D03*
Y370079D03*
X255906Y174409D03*
Y178363D03*
Y183858D03*
X255886Y187769D03*
X255881Y241091D03*
X255913Y246850D03*
X389428Y286109D03*
X389348Y292434D03*
X389307Y302020D03*
X389348Y308384D03*
X389181Y317428D03*
X389166Y324013D03*
X393701Y190158D03*
Y194094D03*
Y199606D03*
Y203543D03*
Y257402D03*
Y262598D03*
X393703Y287289D03*
Y291451D03*
X393678Y303037D03*
Y307199D03*
X393742Y318785D03*
Y322947D03*
X393743Y334628D03*
X393701Y338583D03*
X393703Y350418D03*
X393701Y354331D03*
Y366142D03*
Y370079D03*
X492126Y174409D03*
Y178363D03*
Y183858D03*
X492107Y187769D03*
X492102Y241091D03*
X492134Y246850D03*
X625648Y286109D03*
X625568Y292434D03*
X625527Y302020D03*
X625568Y308384D03*
X625402Y317428D03*
X625387Y324013D03*
X629922Y190158D03*
Y194094D03*
Y199606D03*
Y203543D03*
Y257402D03*
Y262598D03*
X629923Y287289D03*
Y291451D03*
X629898Y303037D03*
Y307199D03*
X629962Y318785D03*
Y322947D03*
X629964Y334628D03*
X629922Y338583D03*
X629924Y350418D03*
X629922Y354331D03*
Y366142D03*
Y370079D03*
X728347Y174409D03*
Y178363D03*
Y183858D03*
X728327Y187769D03*
X728322Y241091D03*
X728354Y246850D03*
X861869Y286109D03*
X861788Y292434D03*
X861748Y302020D03*
X861788Y308384D03*
X861622Y317428D03*
X861607Y324013D03*
X866142Y190158D03*
Y194094D03*
Y199606D03*
Y203543D03*
Y257402D03*
Y262598D03*
X866143Y287289D03*
Y291451D03*
X866119Y303037D03*
Y307199D03*
X866183Y318785D03*
Y322947D03*
X866184Y334628D03*
X866142Y338583D03*
X866144Y350418D03*
X866142Y354331D03*
Y366142D03*
Y370079D03*
X964567Y174409D03*
Y178363D03*
Y183858D03*
X964548Y187769D03*
X964543Y241091D03*
X964575Y246850D03*
X1098089Y286109D03*
X1098009Y292434D03*
X1097968Y302020D03*
X1098009Y308384D03*
X1097843Y317428D03*
X1097828Y324013D03*
X1102362Y190158D03*
Y194094D03*
Y199606D03*
Y203543D03*
Y257402D03*
Y262598D03*
X1102364Y287289D03*
Y291451D03*
X1102339Y303037D03*
Y307199D03*
X1102403Y318785D03*
Y322947D03*
X1102404Y334628D03*
X1102362Y338583D03*
X1102364Y350418D03*
X1102362Y354331D03*
Y366142D03*
Y370079D03*
X1200788Y174409D03*
Y178363D03*
Y183858D03*
X1200768Y187769D03*
X1200763Y241091D03*
X1200795Y246850D03*
X1334310Y286109D03*
X1334229Y292434D03*
X1334189Y302020D03*
X1334229Y308384D03*
X1334063Y317428D03*
X1334048Y324013D03*
X1338583Y190158D03*
Y194094D03*
Y199606D03*
Y203543D03*
Y257402D03*
Y262598D03*
X1338584Y287289D03*
Y291451D03*
X1338560Y303037D03*
Y307199D03*
X1338624Y318785D03*
Y322947D03*
X1338625Y334628D03*
X1338583Y338583D03*
X1338585Y350418D03*
X1338583Y354331D03*
Y366142D03*
Y370079D03*
X1437008Y174409D03*
Y178363D03*
Y183858D03*
X1436989Y187769D03*
X1436984Y241091D03*
X1437015Y246850D03*
G54D19*
G01X200787Y399006D02*
X137795D01*
G01Y400206D02*
X138206Y400617D01*
X200376D01*
X200787Y400206D01*
G01X204724Y414754D02*
X157480D01*
G01X204724Y415954D02*
X204336Y416342D01*
X157868D01*
X157480Y415954D01*
G01X188976Y430502D02*
X157480D01*
G01X188976Y431702D02*
X188570Y432108D01*
X157886D01*
X157480Y431702D01*
G01Y447450D02*
X157885Y447855D01*
X172824D01*
X173228Y447450D01*
G01X157480Y446250D02*
X173228D01*
G01X59055Y1392716D02*
X255906D01*
G01X59055Y1393701D02*
X255906D01*
G01X437008Y399006D02*
X374016D01*
G01Y400206D02*
X374427Y400617D01*
X436597D01*
X437008Y400206D01*
G01X440945Y414754D02*
X393701D01*
G01X440945Y415954D02*
X440557Y416342D01*
X394089D01*
X393701Y415954D01*
G01X425197Y430502D02*
X393701D01*
G01X425197Y431702D02*
X424791Y432108D01*
X394107D01*
X393701Y431702D01*
G01Y446250D02*
X409449D01*
G01X393701Y447450D02*
X394106Y447855D01*
X409044D01*
X409449Y447450D01*
G01X295276Y1392716D02*
X492126D01*
G01X295276Y1393701D02*
X492126D01*
G01X673229Y399006D02*
X610236D01*
G01Y400206D02*
X610648Y400617D01*
X672818D01*
X673229Y400206D01*
G01X677166Y414754D02*
X629922D01*
G01X677166Y415954D02*
X676777Y416342D01*
X630310D01*
X629922Y415954D01*
G01X661418Y430502D02*
X629922D01*
G01X661418Y431702D02*
X661012Y432108D01*
X630327D01*
X629922Y431702D01*
G01Y446250D02*
X645670D01*
G01X629922Y447450D02*
X630326Y447855D01*
X645265D01*
X645670Y447450D01*
G01X531496Y1392716D02*
X728347D01*
G01X531496Y1393701D02*
X728347D01*
G01X909449Y399006D02*
X846457D01*
G01Y400206D02*
X846868Y400617D01*
X909038D01*
X909449Y400206D01*
G01X913386Y414754D02*
X866142D01*
G01X913386Y415954D02*
X912998Y416342D01*
X866530D01*
X866142Y415954D01*
G01X897638Y430502D02*
X866142D01*
G01X897638Y431702D02*
X897232Y432108D01*
X866548D01*
X866142Y431702D01*
G01Y446250D02*
X881890D01*
G01X866142Y447450D02*
X866547Y447855D01*
X881485D01*
X881890Y447450D01*
G01X767717Y1392716D02*
X964567D01*
G01X767717Y1393701D02*
X964567D01*
G01X1145669Y399006D02*
X1082677D01*
G01Y400206D02*
X1083088Y400617D01*
X1145258D01*
X1145669Y400206D01*
G01X1149606Y414754D02*
X1102362D01*
G01X1149606Y415954D02*
X1149218Y416342D01*
X1102750D01*
X1102362Y415954D01*
G01X1133858Y430502D02*
X1102362D01*
G01X1133858Y431702D02*
X1133452Y432108D01*
X1102768D01*
X1102362Y431702D01*
G01Y446250D02*
X1118110D01*
G01X1102362Y447450D02*
X1102767Y447855D01*
X1117706D01*
X1118110Y447450D01*
G01X1003937Y1392716D02*
X1200788D01*
G01X1003937Y1393701D02*
X1200788D01*
G01X1381890Y399006D02*
X1318898D01*
G01Y400206D02*
X1319309Y400617D01*
X1381479D01*
X1381890Y400206D01*
G01X1385827Y414754D02*
X1338583D01*
G01X1385827Y415954D02*
X1385439Y416342D01*
X1338971D01*
X1338583Y415954D01*
G01X1370079Y430502D02*
X1338583D01*
G01X1370079Y431702D02*
X1369673Y432108D01*
X1338989D01*
X1338583Y431702D01*
G01Y446250D02*
X1354331D01*
G01X1338583Y447450D02*
X1338987Y447855D01*
X1353926D01*
X1354331Y447450D01*
G01X1240158Y1392716D02*
X1437008D01*
G01X1240158Y1393701D02*
X1437008D01*
M02*
